<svg xmlns="http://www.w3.org/2000/svg" xml:space="preserve" fill-rule="evenodd" stroke-linejoin="round" stroke-miterlimit="2" clip-rule="evenodd" viewBox="0 0 1313 775">
  <path fill="#fff" d="M0 774.342V58.229C0 27.789 21.106 2.775 47.96.215c22.236 2.323 39.66 23.107 39.66 48.368 0 26.814 19.63 48.584 43.81 48.584 22.164 0 40.506-18.29 43.41-41.99a54.184 54.184 0 0 1-.4-6.594C174.44 21.77 194.07 0 218.25 0c24.18 0 43.81 21.77 43.81 48.583 0 26.814 19.632 48.584 43.811 48.584 24.18 0 43.811-21.77 43.811-48.584h.802C350.485 21.77 370.115 0 394.295 0c24.18 0 43.811 21.77 43.811 48.583 0 26.814 19.63 48.584 43.81 48.584 22.164 0 40.505-18.29 43.41-41.99a54.184 54.184 0 0 1-.4-6.594C524.926 21.77 544.556 0 568.736 0c24.18 0 43.81 21.77 43.81 48.583 0 26.814 19.632 48.584 43.811 48.584 24.18 0 43.812-21.77 43.812-48.584C700.17 21.77 719.795 0 743.98 0c24.177 0 43.812 21.77 43.812 48.583 0 26.814 19.625 48.584 43.81 48.584 22.162 0 40.5-18.29 43.407-41.99a54.18 54.18 0 0 1-.405-6.594C874.604 21.77 894.238 0 918.416 0c24.185 0 43.81 21.77 43.81 48.583 0 26.814 19.635 48.584 43.812 48.584 24.185 0 43.81-21.77 43.81-48.584h.802C1050.65 21.77 1070.284 0 1094.461 0s43.811 21.77 43.811 48.583c0 26.814 19.635 48.584 43.812 48.584 22.161 0 40.507-18.29 43.414-41.99a52.57 52.57 0 0 1-.404-6.594c0-25.261 17.42-46.045 39.656-48.368 26.861 2.56 47.966 27.575 47.966 58.014v716.113H0Z"/>
</svg>
