<svg xmlns="http://www.w3.org/2000/svg" xml:space="preserve" fill-rule="evenodd" stroke-linejoin="round" stroke-miterlimit="2" clip-rule="evenodd" viewBox="0 0 1313 775">
  <path fill="#fff" d="M0 0v716.113c0 30.44 21.106 55.454 47.961 58.014 22.236-2.323 39.66-23.107 39.66-48.368 0-26.814 19.63-48.584 43.81-48.584 22.164 0 40.506 18.29 43.41 41.99a54.184 54.184 0 0 0-.4 6.594c0 26.813 19.63 48.583 43.81 48.583 24.18 0 43.81-21.77 43.81-48.583 0-26.814 19.632-48.584 43.811-48.584 24.18 0 43.811 21.77 43.811 48.584h.802c0 26.813 19.63 48.583 43.81 48.583 24.18 0 43.811-21.77 43.811-48.583 0-26.814 19.63-48.584 43.81-48.584 22.164 0 40.505 18.29 43.41 41.99a54.184 54.184 0 0 0-.4 6.594c0 26.813 19.63 48.583 43.81 48.583 24.18 0 43.81-21.77 43.81-48.583 0-26.814 19.632-48.584 43.811-48.584 24.18 0 43.812 21.77 43.812 48.584 0 26.813 19.626 48.583 43.811 48.583 24.177 0 43.812-21.77 43.812-48.583 0-26.814 19.625-48.584 43.81-48.584 22.162 0 40.5 18.29 43.407 41.99a54.18 54.18 0 0 0-.405 6.594c0 26.813 19.634 48.583 43.812 48.583 24.185 0 43.81-21.77 43.81-48.583 0-26.814 19.635-48.584 43.812-48.584 24.185 0 43.81 21.77 43.81 48.584h.802c0 26.813 19.634 48.583 43.811 48.583s43.811-21.77 43.811-48.583c0-26.814 19.635-48.584 43.812-48.584 22.161 0 40.507 18.29 43.414 41.99a52.57 52.57 0 0 0-.404 6.594c0 25.261 17.42 46.045 39.656 48.368 26.861-2.56 47.966-27.575 47.966-58.014V0H0Z"/>
</svg>
