<?xml version="1.0" encoding="UTF-8" standalone="no"?>
<!DOCTYPE svg PUBLIC "-//W3C//DTD SVG 1.1//EN" "http://www.w3.org/Graphics/SVG/1.1/DTD/svg11.dtd">
<svg width="100%" height="100%" viewBox="0 0 4267 4267" version="1.1" xmlns="http://www.w3.org/2000/svg" xmlns:xlink="http://www.w3.org/1999/xlink" xml:space="preserve" xmlns:serif="http://www.serif.com/" style="fill-rule:evenodd;clip-rule:evenodd;stroke-linejoin:round;stroke-miterlimit:2;">
    <g id="Wallpaper" transform="matrix(8.21282e-17,1.34125,-1.34125,8.21282e-17,4994.68,-728.01)">
        <g id="Background" transform="matrix(1.07721,0,0,1.07721,-164.704,-164.704)">
            <path d="M687.593,2074.94C702.394,1698.63 843.344,1377.36 1111.12,1111.14C1377.67,843.038 1699.41,701.961 2076.33,687.507L2076.33,688.984L2191.64,688.984L2191.64,688.987L2191.64,688.984C2944.13,718.877 3548.47,1323.75 3577.69,2076.36L3577.69,2191.72L3578.41,2191.72L3579.13,3579.16L3577.69,3579.16L2191.64,3579.16L2191.3,3579.16L2190.27,3579.16L2190.28,3579.15L2025.2,3577.7L2022.26,3574.65C1294.92,3519.37 718.174,2926.07 688.975,2191.67L687.555,2076.36L687.538,2076.36C687.542,2076.25 687.547,2076.14 687.551,2076.03L687.538,2074.99L687.593,2074.94Z" style="fill:white;"/>
        </g>
        <path id="Background1" serif:id="Background" d="M687.593,2074.94C702.394,1698.63 843.344,1377.36 1111.12,1111.14C1377.67,843.038 1699.41,701.961 2076.33,687.507L2076.33,688.984L2191.64,688.984L2191.64,688.987L2191.64,688.984C2944.13,718.877 3548.47,1323.75 3577.69,2076.36L3577.69,2191.72L3578.41,2191.72L3579.13,3579.16L3577.69,3579.16L2191.64,3579.16L2191.3,3579.16L2190.27,3579.16L2190.28,3579.15L2025.2,3577.7L2022.26,3574.65C1294.92,3519.37 718.174,2926.07 688.975,2191.67L687.555,2076.36L687.538,2076.36C687.542,2076.25 687.547,2076.14 687.551,2076.03L687.538,2074.99L687.593,2074.94Z" style="fill:rgb(166,224,255);"/>
    </g>
    <path id="Logo-Composite" serif:id="Logo Composite" d="M2774.3,2056.88C2757.74,1908.75 2696.63,1781.42 2590.92,1675.78C2485.23,1570.7 2358.65,1509.6 2209.75,1492.32L2209.75,194.154C2715.3,213.604 3146.84,402.678 3504.35,762.291C3863.95,1119.8 4053.17,1551.33 4072.55,2056.88L2774.3,2056.88ZM1492.37,2055.12L1165.05,2055.13C1184.51,1817.73 1278.71,1614.95 1449.23,1447.38C1616.81,1276.91 1819.58,1183.42 2056.91,1166.85L2056.92,1490.5C1908.02,1507.07 1781.44,1568.18 1675.75,1673.88C1570.04,1778.95 1508.93,1906.22 1492.37,2055.12M2211.58,3101.57L2211.59,2774.34C2357.54,2757.06 2483.4,2695.96 2589.16,2590.89C2694.88,2485.17 2756.75,2357.93 2776.12,2209.71L3099.79,2209.71C3080.4,2447.03 2986.85,2649.18 2819.27,2817.47C2651.69,2987.23 2448.91,3082.12 2211.58,3101.57M2132.49,1810.56C2220.91,1810.56 2297.83,1841.47 2362.59,1904.04C2425.16,1965.92 2456.15,2042.91 2456.15,2134.21C2456.15,2222.7 2425.16,2299.61 2362.59,2364.37C2297.83,2426.25 2220.92,2457.87 2132.49,2457.86C2041.11,2457.87 1964.9,2426.24 1902.25,2364.37C1839.75,2299.62 1808.84,2222.71 1808.85,2134.21C1808.84,2042.91 1839.75,1965.92 1902.26,1904.05C1964.9,1841.47 2041.11,1810.56 2132.49,1810.56M3416.83,2211.54C3377.71,2860.53 2858.8,3378.72 2209.75,3416.97L2209.75,4070.59C3219.19,4031.39 4030.48,3220.82 4070.57,2211.54L3416.83,2211.54ZM2055.01,4071.54L2055.01,3417.76C1406.04,3378.65 887.847,2859.75 849.649,2210.68L196.021,2210.68L194.116,2209.7L194.112,4072.51L2055.01,4071.54ZM849.764,2055.13C888.882,1406.85 1406.75,888.93 2055.09,849.804L2055.09,196.081C1046.37,236.187 236.111,1046.46 196.068,2055.13L849.764,2055.13Z" style="fill:url(#_Linear1);fill-rule:nonzero;"/>
    <defs>
        <linearGradient id="_Linear1" x1="0" y1="0" x2="1" y2="0" gradientUnits="userSpaceOnUse" gradientTransform="matrix(4266.67,4266.67,-4266.67,4266.67,-9.09495e-13,5.68434e-14)"><stop offset="0" style="stop-color:white;stop-opacity:1"/><stop offset="0" style="stop-color:rgb(136,136,136);stop-opacity:1"/><stop offset="0.21" style="stop-color:rgb(83,83,83);stop-opacity:1"/><stop offset="0.43" style="stop-color:rgb(27,27,27);stop-opacity:1"/><stop offset="1" style="stop-color:black;stop-opacity:1"/></linearGradient>
    </defs>
</svg>
