<?xml version="1.0" encoding="UTF-8" standalone="no"?>
<!-- Generator: Adobe Illustrator 16.0.3, SVG Export Plug-In . SVG Version: 6.00 Build 0)  -->

<svg
   xmlns:dc="http://purl.org/dc/elements/1.1/"
   xmlns:cc="http://creativecommons.org/ns#"
   xmlns:rdf="http://www.w3.org/1999/02/22-rdf-syntax-ns#"
   xmlns:svg="http://www.w3.org/2000/svg"
   xmlns="http://www.w3.org/2000/svg"
   xmlns:sodipodi="http://sodipodi.sourceforge.net/DTD/sodipodi-0.dtd"
   xmlns:inkscape="http://www.inkscape.org/namespaces/inkscape"
   version="1.1"
   x="0px"
   y="0px"
   width="693.98004"
   height="693.99561"
   viewBox="0 0 693.98005 693.9956"
   xml:space="preserve"
   id="svg2"
   inkscape:version="0.91 r13725"
   sodipodi:docname="awesomething-logo.svg"><metadata
   id="metadata448"><rdf:RDF><cc:Work
       rdf:about=""><dc:format>image/svg+xml</dc:format><dc:type
         rdf:resource="http://purl.org/dc/dcmitype/StillImage" /><dc:title></dc:title></cc:Work></rdf:RDF></metadata><defs
   id="defs446" /><sodipodi:namedview
   pagecolor="#ffffff"
   bordercolor="#666666"
   borderopacity="1"
   objecttolerance="10"
   gridtolerance="10"
   guidetolerance="10"
   inkscape:pageopacity="0"
   inkscape:pageshadow="2"
   inkscape:window-width="1469"
   inkscape:window-height="841"
   id="namedview444"
   showgrid="false"
   inkscape:zoom="0.23046875"
   inkscape:cx="438.10591"
   inkscape:cy="291.18652"
   inkscape:window-x="-8"
   inkscape:window-y="-8"
   inkscape:window-maximized="1"
   inkscape:current-layer="svg2"
   fit-margin-top="0"
   fit-margin-left="0"
   fit-margin-right="0"
   fit-margin-bottom="0" />
<g
   id="Layer_1"
   style="display:none"
   transform="translate(-73.894091,-113.52989)">
	<g
   style="display:inline"
   id="g5">
		<g
   id="g7">
			<path
   style="fill:none;stroke:#000000;stroke-miterlimit:10"
   d="m 439.535,483.649 c 0,1.244 -0.117,2.443 -0.35,3.6 0.2,-1.158 0.3,-2.359 0.3,-3.6 l 0,-0.85 c -0.233,-9.768 -3.833,-18.067 -10.8,-24.901 -6.698,-6.57 -14.707,-9.987 -24.025,-10.25 l 16.875,0 c 4.967,0 9.2,1.75 12.7,5.25 3.534,3.533 5.3,7.783 5.3,12.75 l 0,18.001 z"
   id="path9"
   inkscape:connector-curvature="0" />
		</g>
		<g
   id="g11">
			<path
   style="fill:none;stroke:#000000;stroke-miterlimit:10"
   d="m 439.535,448.499 -36.05,0 c -4.933,0 -9.167,1.767 -12.7,5.3 -3.533,3.533 -5.3,7.767 -5.3,12.7 l 0,18 c 0,4.967 1.767,9.217 5.3,12.75 3.5,3.5 7.733,5.25 12.7,5.25 l 18,0 c 4.967,0 9.217,-1.75 12.75,-5.25 3.5,-3.533 5.25,-7.783 5.25,-12.75 l 0.05,-36 z"
   id="path13"
   inkscape:connector-curvature="0" />
		</g>
		<path
   style="fill:none;stroke:#000000;stroke-miterlimit:10"
   d="m 385.635,483.599 c 0,4.734 1.633,8.834 4.9,12.301 3.233,3.434 7.2,5.299 11.9,5.6 l 0,0.1 c -4.733,-0.266 -8.733,-2.133 -12,-5.6 -3.3,-3.434 -4.95,-7.551 -4.95,-12.35 l 0,-18 c 0,-0.733 0.05,-1.483 0.15,-2.25 4.8,-4.233 10.4,-6.467 16.8,-6.7 l 0,9 c -4.7,0.3 -8.667,2.167 -11.9,5.6 -3.266,3.432 -4.9,7.533 -4.9,12.299 z"
   id="path15"
   inkscape:connector-curvature="0" />
		<path
   style="fill:none;stroke:#000000;stroke-miterlimit:10"
   d="m 412.435,484.749 4.55,0 c -0.267,3.301 -1.583,6.117 -3.95,8.449 -2.333,2.367 -5.15,3.668 -8.45,3.9 l 0,-4.5 c 2.067,-0.232 3.833,-1.084 5.3,-2.549 1.467,-1.466 2.317,-3.234 2.55,-5.3 z"
   id="path17"
   inkscape:connector-curvature="0" />
		<path
   style="fill:none;stroke:#000000;stroke-miterlimit:10"
   d="m 402.435,474.749 c -2.033,0.233 -3.783,1.084 -5.25,2.551 -1.467,1.465 -2.333,3.232 -2.6,5.299 l -4.5,0 c 0.267,-3.299 1.567,-6.117 3.9,-8.45 2.333,-2.367 5.15,-3.683 8.45,-3.95 l 0,4.55 z"
   id="path19"
   inkscape:connector-curvature="0" />
		<path
   style="fill:none;stroke:#000000;stroke-miterlimit:10"
   d="m 399.035,483.649 c 0,-1.234 0.433,-2.301 1.3,-3.201 0.9,-0.865 1.967,-1.299 3.2,-1.299 1.233,0 2.283,0.434 3.15,1.299 0.9,0.9 1.35,1.967 1.35,3.201 0,1.232 -0.45,2.299 -1.35,3.199 -0.867,0.867 -1.917,1.301 -3.15,1.301 -1.233,0 -2.3,-0.434 -3.2,-1.301 -0.867,-0.867 -1.3,-1.933 -1.3,-3.199 z"
   id="path21"
   inkscape:connector-curvature="0" />
		<path
   style="fill:none;stroke:#000000;stroke-miterlimit:10"
   d="m 416.185,496.3 c 3.233,-3.201 4.983,-7.051 5.25,-11.551 l 9.05,0 c -0.233,6.367 -2.466,11.949 -6.7,16.75 l -19.2,0.15 0,-0.15 c 4.533,-0.234 8.4,-1.967 11.6,-5.199 z"
   id="path23"
   inkscape:connector-curvature="0" />
		<path
   style="fill:none;stroke:#000000;stroke-miterlimit:10"
   d="m 421.485,482.599 c -0.267,-4.566 -2.017,-8.45 -5.25,-11.65 -3.233,-3.233 -7.117,-4.983 -11.65,-5.25 l 0,-9 c 7.033,0.267 13.033,2.9 18,7.9 5,4.966 7.633,10.966 7.9,18 l -9,0 z"
   id="path25"
   inkscape:connector-curvature="0" />
	</g>
	<g
   style="display:inline"
   id="g27">
		<path
   style="fill:none;stroke:#000000;stroke-miterlimit:10"
   d="m 568.285,483.649 c 0,1.244 -0.116,2.443 -0.35,3.6 0.2,-1.158 0.3,-2.359 0.3,-3.6 l 0,-0.85 c -0.233,-9.768 -3.833,-18.067 -10.8,-24.901 -6.729,-6.569 -14.738,-9.986 -24.025,-10.25 l 16.875,0 c 4.967,0 9.2,1.75 12.7,5.25 3.533,3.533 5.3,7.783 5.3,12.75 l 0,18.001 z"
   id="path29"
   inkscape:connector-curvature="0" />
	</g>
	<g
   style="display:inline"
   id="g31">
		<path
   style="fill:none;stroke:#000000;stroke-miterlimit:10"
   d="m 568.285,448.499 -36.05,0 c -4.934,0 -9.166,1.767 -12.7,5.3 -3.533,3.533 -5.3,7.767 -5.3,12.7 l 0,18 c 0,4.967 1.767,9.217 5.3,12.75 3.5,3.5 7.733,5.25 12.7,5.25 l 18,0 c 4.967,0 9.217,-1.75 12.75,-5.25 3.5,-3.533 5.25,-7.783 5.25,-12.75 l 0.05,-36 z"
   id="path33"
   inkscape:connector-curvature="0" />
	</g>
	<path
   style="display:inline;fill:none;stroke:#000000;stroke-miterlimit:10"
   d="m 514.385,483.599 c 0,4.734 1.633,8.834 4.899,12.301 3.233,3.434 7.2,5.299 11.9,5.6 l 0,0.1 c -4.733,-0.266 -8.733,-2.133 -12,-5.6 -3.3,-3.434 -4.95,-7.551 -4.95,-12.35 l 0,-18 c 0,-0.733 0.05,-1.483 0.15,-2.25 4.8,-4.233 10.399,-6.467 16.8,-6.7 l 0,9 c -4.7,0.3 -8.667,2.167 -11.9,5.6 -3.266,3.432 -4.899,7.533 -4.899,12.299 z"
   id="path35"
   inkscape:connector-curvature="0" />
	<path
   style="display:inline;fill:none;stroke:#000000;stroke-miterlimit:10"
   d="m 541.185,484.749 4.5,0 c -0.233,3.301 -1.533,6.117 -3.9,8.449 -2.333,2.367 -5.149,3.668 -8.449,3.9 l 0,-4.5 c 2.066,-0.232 3.833,-1.084 5.3,-2.549 1.466,-1.466 2.316,-3.234 2.549,-5.3 z"
   id="path37"
   inkscape:connector-curvature="0" />
	<path
   style="display:inline;fill:none;stroke:#000000;stroke-miterlimit:10"
   d="m 531.185,474.749 c -2.033,0.233 -3.783,1.084 -5.25,2.551 -1.467,1.465 -2.333,3.232 -2.6,5.299 l -4.5,0 c 0.267,-3.299 1.566,-6.117 3.899,-8.45 2.334,-2.367 5.15,-3.683 8.45,-3.95 l 0,4.55 z"
   id="path39"
   inkscape:connector-curvature="0" />
	<path
   style="display:inline;fill:none;stroke:#000000;stroke-miterlimit:10"
   d="m 527.785,483.649 c 0,-1.234 0.434,-2.301 1.301,-3.201 0.899,-0.865 1.966,-1.299 3.199,-1.299 1.233,0 2.284,0.434 3.15,1.299 0.9,0.9 1.35,1.967 1.35,3.201 0,1.232 -0.449,2.299 -1.35,3.199 -0.866,0.867 -1.917,1.301 -3.15,1.301 -1.233,0 -2.3,-0.434 -3.199,-1.301 -0.868,-0.867 -1.301,-1.933 -1.301,-3.199 z"
   id="path41"
   inkscape:connector-curvature="0" />
	<path
   style="display:inline;fill:none;stroke:#000000;stroke-miterlimit:10"
   d="m 550.185,484.749 9.05,0 c -0.233,6.367 -2.467,11.949 -6.7,16.75 l -19.199,0.15 0,-0.15 c 4.533,-0.234 8.399,-1.967 11.6,-5.199 3.232,-3.201 4.982,-7.051 5.249,-11.551 z"
   id="path43"
   inkscape:connector-curvature="0" />
	<path
   style="display:inline;fill:none;stroke:#000000;stroke-miterlimit:10"
   d="m 551.335,464.599 c 5,4.966 7.633,10.966 7.899,18 l -9,0 c -0.267,-4.566 -2.017,-8.45 -5.25,-11.65 -3.233,-3.233 -7.116,-4.983 -11.649,-5.25 l 0,-9 c 7.034,0.267 13.034,2.9 18,7.9 z"
   id="path45"
   inkscape:connector-curvature="0" />
	<path
   style="display:inline;fill:none;stroke:#000000;stroke-miterlimit:10"
   d="m 551.335,464.599 c 5,4.966 7.633,10.966 7.899,18 l -18.05,0 c -0.233,-2.066 -1.083,-3.834 -2.55,-5.299 -1.467,-1.467 -3.233,-2.317 -5.3,-2.551 l 0,-18.05 c 7.035,0.267 13.035,2.9 18.001,7.9 z"
   id="path47"
   inkscape:connector-curvature="0" />
	<g
   style="display:inline"
   id="g49">
		<g
   id="g51">
			<path
   style="fill:none;stroke:#000000;stroke-miterlimit:10"
   d="m 485.935,447.649 c 4.967,0 9.217,1.75 12.75,5.25 3.5,3.533 5.25,7.783 5.25,12.75 l 0,18 c 0,4.967 -1.75,9.217 -5.25,12.75 -0.891,0.883 -1.833,1.648 -2.825,2.299 0.97,-0.66 1.895,-1.428 2.775,-2.299 3.5,-3.533 5.25,-7.783 5.25,-12.75 l 0,-0.85 c -0.233,-9.768 -3.834,-18.067 -10.8,-24.901 -6.699,-6.57 -14.707,-9.987 -24.025,-10.25 l 16.875,0 z"
   id="path53"
   inkscape:connector-curvature="0" />
		</g>
		<g
   id="g55">
			<path
   style="fill:none;stroke:#000000;stroke-miterlimit:10"
   d="m 467.935,448.499 c -4.967,0 -9.217,1.767 -12.75,5.3 -3.5,3.5 -5.25,7.733 -5.25,12.7 l 0,18 c 0,4.967 1.75,9.217 5.25,12.75 3.533,3.5 7.783,5.25 12.75,5.25 l 18,0 c 4.967,0 9.2,-1.75 12.7,-5.25 3.533,-3.533 5.3,-7.783 5.3,-12.75 l 0,-36 -36,0 z"
   id="path57"
   inkscape:connector-curvature="0" />
		</g>
		<path
   style="fill:none;stroke:#000000;stroke-miterlimit:10"
   d="m 466.835,456.699 0,9 c -4.7,0.3 -8.667,2.167 -11.9,5.6 -3.267,3.434 -4.9,7.534 -4.9,12.3 0,4.734 1.633,8.834 4.9,12.301 3.233,3.434 7.2,5.299 11.9,5.6 l 0,0.1 c -4.733,-0.266 -8.733,-2.133 -12,-5.6 -3.3,-3.434 -4.95,-7.551 -4.95,-12.35 l 0.15,-20.25 c 4.867,-4.234 10.467,-6.468 16.8,-6.701 z"
   id="path59"
   inkscape:connector-curvature="0" />
		<path
   style="fill:none;stroke:#000000;stroke-miterlimit:10"
   d="m 476.835,484.749 4.55,0 c -0.267,3.301 -1.584,6.117 -3.95,8.449 -2.333,2.367 -5.15,3.668 -8.45,3.9 l 0,-4.5 c 2.067,-0.232 3.833,-1.084 5.3,-2.549 1.467,-1.466 2.317,-3.234 2.55,-5.3 z"
   id="path61"
   inkscape:connector-curvature="0" />
		<path
   style="fill:none;stroke:#000000;stroke-miterlimit:10"
   d="m 466.835,470.199 0,4.55 c -2.033,0.233 -3.783,1.084 -5.25,2.551 -1.466,1.465 -2.333,3.232 -2.6,5.299 l -4.5,0 c 0.267,-3.299 1.567,-6.117 3.9,-8.45 2.333,-2.367 5.15,-3.683 8.45,-3.95 z"
   id="path63"
   inkscape:connector-curvature="0" />
		<path
   style="fill:none;stroke:#000000;stroke-miterlimit:10"
   d="m 467.935,488.149 c -1.233,0 -2.3,-0.434 -3.2,-1.301 -0.866,-0.867 -1.3,-1.934 -1.3,-3.199 0,-1.234 0.434,-2.301 1.3,-3.201 0.9,-0.865 1.967,-1.299 3.2,-1.299 1.267,0 2.333,0.434 3.2,1.299 0.867,0.9 1.3,1.967 1.3,3.201 0,1.266 -0.433,2.332 -1.3,3.199 -0.867,0.867 -1.933,1.301 -3.2,1.301 z"
   id="path65"
   inkscape:connector-curvature="0" />
		<path
   style="fill:none;stroke:#000000;stroke-miterlimit:10"
   d="m 485.885,484.749 9,0 c -0.233,6.367 -2.467,11.949 -6.7,16.75 l -19.2,0.15 0,-0.15 c 4.534,-0.234 8.4,-1.967 11.601,-5.199 3.233,-3.201 4.999,-7.051 5.299,-11.551 z"
   id="path67"
   inkscape:connector-curvature="0" />
		<path
   style="fill:none;stroke:#000000;stroke-miterlimit:10"
   d="m 476.835,482.599 c -0.233,-2.066 -1.083,-3.834 -2.55,-5.299 -1.467,-1.467 -3.233,-2.317 -5.3,-2.551 l 0,-18.05 c 7.034,0.267 13.033,2.9 18,7.9 5,4.966 7.634,10.966 7.9,18 l -18.05,0 z"
   id="path69"
   inkscape:connector-curvature="0" />
	</g>
	<path
   style="display:inline;fill:none;stroke:#000000;stroke-miterlimit:10"
   d="m 523.485,484.749 c 0.267,2.066 1.134,3.834 2.601,5.301 1.466,1.465 3.216,2.316 5.25,2.549 l 0,9.951 c -4.767,-0.201 -8.817,-2.018 -12.15,-5.451 -3.333,-3.433 -5.033,-7.549 -5.1,-12.35 l 9.399,0 z"
   id="path71"
   inkscape:connector-curvature="0" />
	<path
   style="display:inline;fill:none;stroke:#000000;stroke-width:3;stroke-linecap:round;stroke-linejoin:round"
   d="m 416.556,302.77 c -4.97,0 -9.22,1.77 -12.75,5.3 -3.5,3.5 -5.25,7.74 -5.25,12.7 l 0,18 c 0,4.97 1.75,9.22 5.25,12.75 3.53,3.5 7.78,5.25 12.75,5.25 l 18,0 c 4.97,0 9.2,-1.75 12.7,-5.25 3.53,-3.53 5.3,-7.78 5.3,-12.75 l 0,-36 -36,0 z"
   id="path73"
   inkscape:connector-curvature="0" />
	<path
   style="display:inline"
   d="m 415.456,311.97 0,9 c -4.7,0.3 -8.67,2.17 -11.9,5.6 -3.27,3.44 -4.9,7.54 -4.9,12.3 0,4.74 1.63,8.84 4.9,12.3 3.23,3.44 7.2,5.3 11.9,5.6 l 0,0.1 c -4.73,-0.26 -8.73,-2.13 -12,-5.6 -3.3,-3.43 -4.95,-7.55 -4.95,-12.35 l 0.15,-20.25 c 4.87,-4.23 10.47,-6.46 16.8,-6.7 z"
   id="path75"
   inkscape:connector-curvature="0" />
	<path
   style="display:inline"
   d="m 425.456,340.02 4.55,0 c -0.27,3.3 -1.58,6.12 -3.95,8.45 -2.33,2.37 -5.15,3.67 -8.45,3.9 l 0,-4.5 c 2.07,-0.23 3.83,-1.08 5.3,-2.55 1.47,-1.46 2.32,-3.23 2.55,-5.3 z"
   id="path77"
   inkscape:connector-curvature="0" />
	<path
   style="display:inline"
   d="m 415.456,325.47 0,4.55 c -2.03,0.24 -3.78,1.09 -5.25,2.55 -1.47,1.47 -2.33,3.24 -2.6,5.3 l -4.5,0 c 0.27,-3.3 1.57,-6.11 3.9,-8.45 2.33,-2.36 5.15,-3.68 8.45,-3.95 z"
   id="path79"
   inkscape:connector-curvature="0" />
	<path
   style="display:inline"
   d="m 416.556,343.42 c -1.23,0 -2.3,-0.43 -3.2,-1.3 -0.87,-0.86 -1.3,-1.93 -1.3,-3.2 0,-1.23 0.43,-2.3 1.3,-3.2 0.9,-0.86 1.97,-1.3 3.2,-1.3 1.27,0 2.33,0.44 3.2,1.3 0.87,0.9 1.3,1.97 1.3,3.2 0,1.27 -0.43,2.34 -1.3,3.2 -0.87,0.87 -1.93,1.3 -3.2,1.3 z"
   id="path81"
   inkscape:connector-curvature="0" />
	<path
   style="display:inline"
   d="m 434.506,340.02 9,0 c -0.23,6.37 -2.47,11.95 -6.7,16.75 l -19.2,0.15 0,-0.15 c 4.53,-0.23 8.4,-1.96 11.6,-5.2 3.23,-3.2 5,-7.05 5.3,-11.55 z"
   id="path83"
   inkscape:connector-curvature="0" />
	<path
   style="display:inline"
   d="m 425.456,337.87 c -0.23,-2.06 -1.08,-3.83 -2.55,-5.3 -1.47,-1.46 -3.23,-2.31 -5.3,-2.55 l 0,-18.05 c 7.03,0.27 13.03,2.9 18,7.9 5,4.97 7.63,10.97 7.9,18 l -18.05,0 z"
   id="path85"
   inkscape:connector-curvature="0" />
	<path
   style="display:inline;fill:none;stroke:#000000;stroke-width:3;stroke-linecap:round;stroke-linejoin:round"
   d="m 306.627,280.055 c -7.061,0 -13.098,2.515 -18.113,7.53 -4.972,4.972 -7.458,10.996 -7.458,18.042 l 0,25.571 c 0,7.061 2.486,13.099 7.458,18.113 5.015,4.972 11.053,7.458 18.113,7.458 l 25.571,0 c 7.061,0 13.07,-2.486 18.042,-7.458 5.015,-5.015 7.529,-11.052 7.529,-18.113 l 0,-51.143 -51.142,0 z"
   id="path87"
   inkscape:connector-curvature="0" />
	<path
   style="display:inline"
   d="m 297.956,311.97 0,9 c -4.7,0.3 -8.67,2.17 -11.9,5.6 -3.27,3.44 -4.9,7.54 -4.9,12.3 0,4.74 1.63,8.84 4.9,12.3 3.23,3.44 7.2,5.3 11.9,5.6 l 0,0.1 c -4.73,-0.26 -8.73,-2.13 -12,-5.6 -3.3,-3.43 -4.95,-7.55 -4.95,-12.35 l 0.15,-20.25 c 4.87,-4.23 10.47,-6.46 16.8,-6.7 z"
   id="path89"
   inkscape:connector-curvature="0" />
	<path
   style="display:inline"
   d="m 307.956,340.02 4.55,0 c -0.27,3.3 -1.58,6.12 -3.95,8.45 -2.33,2.37 -5.15,3.67 -8.45,3.9 l 0,-4.5 c 2.07,-0.23 3.83,-1.08 5.3,-2.55 1.47,-1.46 2.32,-3.23 2.55,-5.3 z"
   id="path91"
   inkscape:connector-curvature="0" />
	<path
   style="display:inline"
   d="m 297.956,325.47 0,4.55 c -2.03,0.24 -3.78,1.09 -5.25,2.55 -1.47,1.47 -2.33,3.24 -2.6,5.3 l -4.5,0 c 0.27,-3.3 1.57,-6.11 3.9,-8.45 2.33,-2.36 5.15,-3.68 8.45,-3.95 z"
   id="path93"
   inkscape:connector-curvature="0" />
	<path
   style="display:inline"
   d="m 299.056,343.42 c -1.23,0 -2.3,-0.43 -3.2,-1.3 -0.87,-0.86 -1.3,-1.93 -1.3,-3.2 0,-1.23 0.43,-2.3 1.3,-3.2 0.9,-0.86 1.97,-1.3 3.2,-1.3 1.27,0 2.33,0.44 3.2,1.3 0.87,0.9 1.3,1.97 1.3,3.2 0,1.27 -0.43,2.34 -1.3,3.2 -0.87,0.87 -1.93,1.3 -3.2,1.3 z"
   id="path95"
   inkscape:connector-curvature="0" />
	<path
   style="display:inline"
   d="m 432.406,384.453 0,9 c -4.7,0.3 -8.67,2.17 -11.9,5.6 -3.27,3.44 -4.9,7.54 -4.9,12.3 0,4.74 -0.15,4.85 -0.15,0.05 l 0.15,-20.25 c 4.87,-4.23 10.47,-6.46 16.8,-6.7 z"
   id="path97"
   inkscape:connector-curvature="0" />
	<path
   style="display:inline"
   d="m 442.406,412.503 4.55,0 c -0.27,3.3 -1.58,6.12 -3.95,8.45 -2.33,2.37 -5.15,3.67 -8.45,3.9 l 0,-4.5 c 2.07,-0.23 3.83,-1.08 5.3,-2.55 1.47,-1.46 2.32,-3.23 2.55,-5.3 z"
   id="path99"
   inkscape:connector-curvature="0" />
	<path
   style="display:inline"
   d="m 432.406,397.953 0,4.55 c -2.03,0.24 -3.78,1.09 -5.25,2.55 -1.47,1.47 -2.33,3.24 -2.6,5.3 l -4.5,0 c 0.27,-3.3 1.57,-6.11 3.9,-8.45 2.33,-2.36 5.15,-3.68 8.45,-3.95 z"
   id="path101"
   inkscape:connector-curvature="0" />
	<path
   style="display:inline"
   d="m 433.506,415.903 c -1.23,0 -2.3,-0.43 -3.2,-1.3 -0.87,-0.86 -1.3,-1.93 -1.3,-3.2 0,-1.23 0.43,-2.3 1.3,-3.2 0.9,-0.86 1.97,-1.3 3.2,-1.3 1.27,0 2.33,0.44 3.2,1.3 0.87,0.9 1.3,1.97 1.3,3.2 0,1.27 -0.43,2.34 -1.3,3.2 -0.87,0.87 -1.93,1.3 -3.2,1.3 z"
   id="path103"
   inkscape:connector-curvature="0" />
	<g
   style="display:inline"
   id="g105">
		<path
   d="m 691.333,626.09 4.551,0 c -0.271,3.301 -1.58,6.12 -3.951,8.45 -2.33,2.37 -5.149,3.67 -8.449,3.899 l 0,-4.5 c 2.07,-0.229 3.83,-1.08 5.3,-2.549 1.469,-1.46 2.319,-3.229 2.549,-5.3 z"
   id="path107"
   inkscape:connector-curvature="0" />
		<path
   d="m 681.333,611.541 0,4.55 c -2.029,0.24 -3.779,1.09 -5.25,2.551 -1.47,1.469 -2.33,3.239 -2.6,5.299 l -4.5,0 c 0.27,-3.299 1.57,-6.109 3.9,-8.449 2.331,-2.362 5.151,-3.681 8.45,-3.951 z"
   id="path109"
   inkscape:connector-curvature="0" />
		<path
   d="m 682.433,629.491 c -1.229,0 -2.299,-0.43 -3.199,-1.301 -0.87,-0.859 -1.301,-1.93 -1.301,-3.199 0,-1.23 0.431,-2.301 1.301,-3.2 0.9,-0.86 1.97,-1.3 3.199,-1.3 1.271,0 2.33,0.439 3.201,1.3 0.869,0.899 1.299,1.97 1.299,3.2 0,1.27 -0.43,2.34 -1.299,3.199 -0.871,0.871 -1.93,1.301 -3.201,1.301 z"
   id="path111"
   inkscape:connector-curvature="0" />
		<path
   d="m 700.384,626.09 9,0 c -0.23,6.37 -2.471,11.95 -6.701,16.75 l -19.199,0.15 0,-0.15 c 4.529,-0.23 8.4,-1.96 11.6,-5.199 3.23,-3.201 4.999,-7.051 5.3,-11.551 z"
   id="path113"
   inkscape:connector-curvature="0" />
		<path
   d="m 669.784,612.34 c -3.239,3.199 -4.97,7.07 -5.2,11.6 l -0.149,0 0.149,-19.199 c 4.801,-4.23 10.381,-6.471 16.75,-6.701 l 0,9 c -4.501,0.3 -8.35,2.07 -11.55,5.3 z"
   id="path115"
   inkscape:connector-curvature="0" />
		<path
   d="m 691.333,623.94 c -0.23,-2.06 -1.08,-3.83 -2.55,-5.299 -1.47,-1.461 -3.229,-2.311 -5.3,-2.551 l 0,-18.05 c 7.029,0.271 13.029,2.899 18,7.899 5,4.971 7.631,10.971 7.9,18 l -18.05,0 z"
   id="path117"
   inkscape:connector-curvature="0" />
	</g>
	<path
   style="display:inline"
   d="m 673.509,623.916 -4.551,0 c 0.271,-3.301 1.58,-6.12 3.951,-8.45 2.33,-2.37 5.149,-3.67 8.449,-3.9 l 0,4.5 c -2.07,0.23 -3.83,1.08 -5.3,2.55 -1.469,1.46 -2.318,3.229 -2.549,5.3 z"
   id="path119"
   inkscape:connector-curvature="0" />
	<path
   style="display:inline"
   d="m 683.509,638.465 0,-4.55 c 2.029,-0.24 3.779,-1.09 5.25,-2.551 1.47,-1.47 2.33,-3.239 2.6,-5.3 l 4.5,0 c -0.27,3.3 -1.57,6.11 -3.9,8.45 -2.331,2.361 -5.15,3.681 -8.45,3.951 z"
   id="path121"
   inkscape:connector-curvature="0" />
	<path
   style="display:inline"
   d="m 682.41,620.515 c 1.229,0 2.299,0.43 3.199,1.3 0.87,0.86 1.301,1.931 1.301,3.2 0,1.23 -0.431,2.3 -1.301,3.2 -0.9,0.86 -1.97,1.3 -3.199,1.3 -1.271,0 -2.33,-0.439 -3.201,-1.3 -0.869,-0.9 -1.299,-1.97 -1.299,-3.2 0,-1.27 0.43,-2.34 1.299,-3.2 0.871,-0.87 1.93,-1.3 3.201,-1.3 z"
   id="path123"
   inkscape:connector-curvature="0" />
	<path
   style="display:inline"
   d="m 664.458,623.916 -9,0 c 0.23,-6.37 2.471,-11.95 6.701,-16.75 l 19.199,-0.15 0,0.15 c -4.529,0.229 -8.4,1.96 -11.6,5.199 -3.229,3.2 -4.999,7.051 -5.3,11.551 z"
   id="path125"
   inkscape:connector-curvature="0" />
	<path
   style="display:inline"
   d="m 695.059,637.665 c 3.239,-3.199 4.97,-7.07 5.2,-11.6 l 0.149,0 -0.149,19.199 c -4.801,4.23 -10.381,6.471 -16.75,6.701 l 0,-9 c 4.5,-0.3 8.35,-2.07 11.55,-5.3 z"
   id="path127"
   inkscape:connector-curvature="0" />
	<path
   style="display:inline"
   d="m 655.458,626.065 0,25.9 25.9,0 c -7.029,-0.271 -13.029,-2.9 -18,-7.9 -4.999,-4.97 -7.63,-10.97 -7.9,-18 z"
   id="path129"
   inkscape:connector-curvature="0" />
	<g
   style="display:inline"
   id="g131">
		<path
   d="m 666.632,187.59 4.551,0 c -0.271,3.301 -1.58,6.12 -3.951,8.45 -2.33,2.37 -5.149,3.67 -8.449,3.899 l 0,-4.5 c 2.07,-0.229 3.83,-1.08 5.3,-2.549 1.469,-1.46 2.319,-3.229 2.549,-5.3 z"
   id="path133"
   inkscape:connector-curvature="0" />
		<path
   d="m 656.632,173.041 0,4.55 c -2.029,0.24 -3.779,1.09 -5.25,2.551 -1.47,1.469 -2.33,3.239 -2.6,5.299 l -4.5,0 c 0.27,-3.299 1.57,-6.109 3.9,-8.449 2.331,-2.362 5.151,-3.681 8.45,-3.951 z"
   id="path135"
   inkscape:connector-curvature="0" />
		<path
   d="m 657.732,190.991 c -1.229,0 -2.299,-0.43 -3.199,-1.301 -0.87,-0.859 -1.301,-1.93 -1.301,-3.199 0,-1.23 0.431,-2.301 1.301,-3.2 0.9,-0.86 1.97,-1.3 3.199,-1.3 1.271,0 2.33,0.439 3.201,1.3 0.869,0.899 1.299,1.97 1.299,3.2 0,1.27 -0.43,2.34 -1.299,3.199 -0.871,0.871 -1.931,1.301 -3.201,1.301 z"
   id="path137"
   inkscape:connector-curvature="0" />
		<path
   d="m 675.683,187.59 9,0 c -0.23,6.37 -2.471,11.95 -6.701,16.75 l -19.199,0.15 0,-0.15 c 4.529,-0.23 8.4,-1.96 11.6,-5.199 3.23,-3.201 4.999,-7.051 5.3,-11.551 z"
   id="path139"
   inkscape:connector-curvature="0" />
		<path
   d="m 645.083,173.84 c -3.239,3.199 -4.97,7.07 -5.2,11.6 l -0.149,0 0.149,-19.199 c 4.801,-4.23 10.381,-6.471 16.75,-6.701 l 0,9 c -4.501,0.3 -8.35,2.07 -11.55,5.3 z"
   id="path141"
   inkscape:connector-curvature="0" />
		<path
   d="m 666.632,185.44 c -0.23,-2.06 -1.08,-3.83 -2.55,-5.299 -1.47,-1.461 -3.229,-2.311 -5.3,-2.551 l 0,-18.05 c 7.029,0.271 13.029,2.899 18,7.899 5,4.971 7.631,10.971 7.9,18 l -18.05,0 z"
   id="path143"
   inkscape:connector-curvature="0" />
	</g>
	<path
   style="display:inline"
   d="m 648.808,185.416 -4.551,0 c 0.271,-3.301 1.58,-6.12 3.951,-8.45 2.33,-2.37 5.149,-3.67 8.449,-3.9 l 0,4.5 c -2.07,0.23 -3.83,1.08 -5.3,2.55 -1.469,1.46 -2.318,3.229 -2.549,5.3 z"
   id="path145"
   inkscape:connector-curvature="0" />
	<path
   style="display:inline"
   d="m 658.808,199.965 0,-4.55 c 2.029,-0.24 3.779,-1.09 5.25,-2.551 1.47,-1.47 2.33,-3.239 2.6,-5.3 l 4.5,0 c -0.27,3.3 -1.57,6.11 -3.9,8.45 -2.331,2.361 -5.15,3.681 -8.45,3.951 z"
   id="path147"
   inkscape:connector-curvature="0" />
	<path
   style="display:inline"
   d="m 657.708,182.015 c 1.229,0 2.299,0.43 3.199,1.3 0.87,0.86 1.301,1.931 1.301,3.2 0,1.23 -0.431,2.3 -1.301,3.2 -0.9,0.86 -1.97,1.3 -3.199,1.3 -1.271,0 -2.33,-0.439 -3.201,-1.3 -0.869,-0.9 -1.299,-1.97 -1.299,-3.2 0,-1.27 0.43,-2.34 1.299,-3.2 0.871,-0.87 1.931,-1.3 3.201,-1.3 z"
   id="path149"
   inkscape:connector-curvature="0" />
	<path
   style="display:inline"
   d="m 639.757,185.416 -9,0 c 0.23,-6.37 2.471,-11.95 6.701,-16.75 l 19.199,-0.15 0,0.15 c -4.529,0.229 -8.4,1.96 -11.6,5.199 -3.229,3.2 -4.999,7.051 -5.3,11.551 z"
   id="path151"
   inkscape:connector-curvature="0" />
	<path
   style="display:inline"
   d="m 670.358,199.165 c 3.239,-3.199 4.97,-7.07 5.2,-11.6 l 0.149,0 -0.149,19.199 c -4.801,4.23 -10.381,6.471 -16.75,6.701 l 0,-9 c 4.5,-0.3 8.35,-2.07 11.55,-5.3 z"
   id="path153"
   inkscape:connector-curvature="0" />
	<g
   style="display:inline"
   id="g155">
		<path
   d="m 521.42,412.503 4.551,0 c -0.271,3.3 -1.58,6.12 -3.951,8.45 -2.33,2.37 -5.149,3.67 -8.449,3.9 l 0,-4.5 c 2.07,-0.23 3.83,-1.08 5.3,-2.55 1.469,-1.46 2.319,-3.23 2.549,-5.3 z"
   id="path157"
   inkscape:connector-curvature="0" />
		<path
   d="m 511.421,397.953 0,4.55 c -2.03,0.24 -3.78,1.09 -5.25,2.55 -1.47,1.47 -2.33,3.24 -2.6,5.3 l -4.5,0 c 0.27,-3.3 1.57,-6.11 3.9,-8.45 2.33,-2.36 5.15,-3.68 8.45,-3.95 z"
   id="path159"
   inkscape:connector-curvature="0" />
		<path
   d="m 512.521,415.903 c -1.23,0 -2.3,-0.43 -3.2,-1.3 -0.87,-0.86 -1.3,-1.93 -1.3,-3.2 0,-1.23 0.43,-2.3 1.3,-3.2 0.9,-0.86 1.97,-1.3 3.2,-1.3 1.27,0 2.33,0.44 3.201,1.3 0.869,0.9 1.299,1.97 1.299,3.2 0,1.27 -0.43,2.34 -1.299,3.2 -0.872,0.87 -1.931,1.3 -3.201,1.3 z"
   id="path161"
   inkscape:connector-curvature="0" />
		<path
   d="m 530.471,412.503 9,0 c -0.23,6.37 -2.471,11.95 -6.701,16.75 l -19.199,0.15 0,-0.15 c 4.529,-0.23 8.4,-1.96 11.6,-5.2 3.23,-3.2 4.999,-7.05 5.3,-11.55 z"
   id="path163"
   inkscape:connector-curvature="0" />
		<path
   d="m 499.871,398.753 c -3.24,3.199 -4.97,7.07 -5.2,11.6 l -0.15,0 0.15,-19.199 c 4.8,-4.23 10.38,-6.471 16.75,-6.701 l 0,9 c -4.5,0.3 -8.35,2.07 -11.55,5.3 z"
   id="path165"
   inkscape:connector-curvature="0" />
		<path
   d="m 521.42,410.353 c -0.23,-2.06 -1.08,-3.83 -2.55,-5.3 -1.47,-1.46 -3.229,-2.31 -5.3,-2.55 l 0,-18.05 c 7.029,0.27 13.029,2.9 18,7.9 5,4.97 7.631,10.97 7.9,18 l -18.05,0 z"
   id="path167"
   inkscape:connector-curvature="0" />
	</g>
	<g
   style="display:inline"
   id="g169">
		<path
   d="m 454.72,184.963 4.551,0 c -0.271,3.3 -1.58,6.12 -3.951,8.45 -2.33,2.37 -5.149,3.67 -8.449,3.9 l 0,-4.5 c 2.07,-0.23 3.83,-1.08 5.3,-2.55 1.469,-1.46 2.319,-3.23 2.549,-5.3 z"
   id="path171"
   inkscape:connector-curvature="0" />
		<path
   d="m 444.721,170.413 0,4.55 c -2.03,0.24 -3.78,1.09 -5.25,2.55 -1.47,1.47 -2.33,3.24 -2.6,5.3 l -4.5,0 c 0.27,-3.3 1.57,-6.11 3.9,-8.45 2.33,-2.36 5.149,-3.68 8.45,-3.95 z"
   id="path173"
   inkscape:connector-curvature="0" />
		<path
   d="m 445.82,188.363 c -1.23,0 -2.3,-0.43 -3.2,-1.3 -0.87,-0.86 -1.3,-1.93 -1.3,-3.2 0,-1.23 0.43,-2.3 1.3,-3.2 0.9,-0.86 1.97,-1.3 3.2,-1.3 1.27,0 2.33,0.44 3.201,1.3 0.869,0.9 1.299,1.97 1.299,3.2 0,1.27 -0.43,2.34 -1.299,3.2 -0.871,0.87 -1.931,1.3 -3.201,1.3 z"
   id="path175"
   inkscape:connector-curvature="0" />
		<path
   d="m 463.771,184.963 9,0 c -0.23,6.37 -2.471,11.95 -6.701,16.75 l -19.199,0.15 0,-0.15 c 4.529,-0.23 8.4,-1.96 11.6,-5.2 3.23,-3.2 4.999,-7.05 5.3,-11.55 z"
   id="path177"
   inkscape:connector-curvature="0" />
		<path
   d="m 433.17,171.213 c -3.24,3.199 -4.97,7.07 -5.2,11.6 l -0.15,0 0.15,-19.199 c 4.8,-4.23 10.38,-6.471 16.75,-6.701 l 0,9 c -4.499,0.3 -8.349,2.07 -11.55,5.3 z"
   id="path179"
   inkscape:connector-curvature="0" />
		<path
   d="m 454.72,182.813 c -0.23,-2.06 -1.08,-3.83 -2.55,-5.3 -1.47,-1.46 -3.229,-2.31 -5.3,-2.55 l 0,-18.05 c 7.029,0.27 13.029,2.9 18,7.9 5,4.97 7.631,10.97 7.9,18 l -18.05,0 z"
   id="path181"
   inkscape:connector-curvature="0" />
	</g>
	<path
   style="display:inline"
   d="m 630.757,187.565 0,25.9 25.9,0 c -7.029,-0.271 -13.029,-2.9 -18,-7.9 -4.999,-4.97 -7.63,-10.97 -7.9,-18 z"
   id="path183"
   inkscape:connector-curvature="0" />
	<path
   style="display:inline"
   d="m 420.42,183.565 0,25.9 25.9,0 c -7.029,-0.271 -13.029,-2.9 -18,-7.9 -4.999,-4.97 -7.63,-10.97 -7.9,-18 z"
   id="path185"
   inkscape:connector-curvature="0" />
	<g
   style="display:inline"
   id="g187">
		<path
   d="m 548.395,257.964 4.551,0 c -0.271,3.301 -1.58,6.12 -3.951,8.45 -2.33,2.37 -5.149,3.67 -8.449,3.899 l 0,-4.5 c 2.07,-0.229 3.83,-1.08 5.3,-2.549 1.469,-1.46 2.319,-3.23 2.549,-5.3 z"
   id="path189"
   inkscape:connector-curvature="0" />
		<path
   d="m 538.395,243.414 0,4.55 c -2.029,0.24 -3.779,1.09 -5.25,2.551 -1.47,1.469 -2.33,3.239 -2.6,5.299 l -4.5,0 c 0.27,-3.299 1.57,-6.109 3.9,-8.449 2.331,-2.361 5.15,-3.681 8.45,-3.951 z"
   id="path191"
   inkscape:connector-curvature="0" />
		<path
   d="m 539.495,261.364 c -1.229,0 -2.299,-0.43 -3.199,-1.301 -0.87,-0.859 -1.301,-1.93 -1.301,-3.199 0,-1.23 0.431,-2.301 1.301,-3.2 0.9,-0.86 1.97,-1.3 3.199,-1.3 1.271,0 2.33,0.439 3.201,1.3 0.869,0.899 1.299,1.97 1.299,3.2 0,1.27 -0.43,2.34 -1.299,3.199 -0.871,0.872 -1.931,1.301 -3.201,1.301 z"
   id="path193"
   inkscape:connector-curvature="0" />
		<path
   d="m 557.446,257.964 9,0 c -0.23,6.37 -2.471,11.95 -6.701,16.75 l -19.199,0.15 0,-0.15 c 4.529,-0.23 8.4,-1.96 11.6,-5.199 3.229,-3.202 4.999,-7.051 5.3,-11.551 z"
   id="path195"
   inkscape:connector-curvature="0" />
		<path
   d="m 526.845,244.214 c -3.239,3.199 -4.97,7.07 -5.2,11.599 l -0.149,0 0.149,-19.199 c 4.801,-4.23 10.381,-6.471 16.75,-6.701 l 0,9 c -4.5,0.301 -8.35,2.071 -11.55,5.301 z"
   id="path197"
   inkscape:connector-curvature="0" />
		<path
   d="m 548.395,255.813 c -0.23,-2.06 -1.08,-3.83 -2.55,-5.299 -1.47,-1.461 -3.229,-2.311 -5.3,-2.551 l 0,-18.05 c 7.029,0.27 13.029,2.9 18,7.9 5,4.97 7.631,10.97 7.9,18 l -18.05,0 z"
   id="path199"
   inkscape:connector-curvature="0" />
	</g>
	<path
   style="display:inline"
   d="m 530.571,255.789 -4.551,0 c 0.271,-3.301 1.58,-6.12 3.951,-8.45 2.33,-2.37 5.149,-3.67 8.449,-3.9 l 0,4.5 c -2.07,0.23 -3.83,1.08 -5.3,2.55 -1.469,1.46 -2.319,3.23 -2.549,5.3 z"
   id="path201"
   inkscape:connector-curvature="0" />
	<path
   style="display:inline"
   d="m 540.571,270.339 0,-4.55 c 2.029,-0.24 3.779,-1.09 5.25,-2.551 1.47,-1.47 2.33,-3.239 2.6,-5.3 l 4.5,0 c -0.27,3.3 -1.57,6.11 -3.9,8.45 -2.331,2.361 -5.15,3.68 -8.45,3.951 z"
   id="path203"
   inkscape:connector-curvature="0" />
	<path
   style="display:inline"
   d="m 539.471,252.389 c 1.229,0 2.299,0.43 3.199,1.3 0.87,0.86 1.301,1.931 1.301,3.2 0,1.23 -0.431,2.3 -1.301,3.2 -0.9,0.86 -1.97,1.3 -3.199,1.3 -1.271,0 -2.33,-0.439 -3.201,-1.3 -0.869,-0.9 -1.299,-1.97 -1.299,-3.2 0,-1.27 0.43,-2.34 1.299,-3.2 0.871,-0.871 1.931,-1.3 3.201,-1.3 z"
   id="path205"
   inkscape:connector-curvature="0" />
	<path
   style="display:inline"
   d="m 521.52,255.789 -9,0 c 0.23,-6.37 2.471,-11.95 6.701,-16.75 l 19.199,-0.15 0,0.15 c -4.529,0.229 -8.4,1.96 -11.6,5.199 -3.23,3.2 -4.999,7.051 -5.3,11.551 z"
   id="path207"
   inkscape:connector-curvature="0" />
	<path
   style="display:inline"
   d="m 552.121,269.538 c 3.239,-3.199 4.97,-7.07 5.2,-11.6 l 0.149,0 -0.149,19.199 c -4.801,4.23 -10.381,6.471 -16.75,6.701 l 0,-9 c 4.5,-0.3 8.349,-2.069 11.55,-5.3 z"
   id="path209"
   inkscape:connector-curvature="0" />
	<path
   style="display:inline"
   d="m 530.571,257.938 c 0.23,2.061 1.08,3.83 2.55,5.3 1.47,1.461 3.229,2.311 5.3,2.551 l 0,18.05 c -7.029,-0.271 -13.029,-2.9 -18,-7.9 -5,-4.97 -7.631,-10.97 -7.9,-18 l 18.05,0 z"
   id="path211"
   inkscape:connector-curvature="0" />
	<path
   style="display:inline"
   d="m 451.456,412.503 9,0 c -0.23,6.37 -2.47,11.95 -6.7,16.75 l -19.2,0.15 0,-0.15 c 4.53,-0.23 8.4,-1.96 11.6,-5.2 3.23,-3.2 5,-7.05 5.3,-11.55 z"
   id="path213"
   inkscape:connector-curvature="0" />
	<g
   style="display:inline"
   id="g215">
		<path
   d="m 707.667,413.851 4.551,0 c -0.271,3.3 -1.58,6.12 -3.951,8.45 -2.33,2.37 -5.149,3.67 -8.449,3.9 l 0,-4.5 c 2.07,-0.23 3.83,-1.08 5.3,-2.55 1.469,-1.461 2.319,-3.231 2.549,-5.3 z"
   id="path217"
   inkscape:connector-curvature="0" />
		<path
   d="m 697.667,399.301 0,4.55 c -2.029,0.24 -3.779,1.09 -5.25,2.55 -1.47,1.47 -2.33,3.24 -2.6,5.3 l -4.5,0 c 0.27,-3.3 1.57,-6.11 3.9,-8.45 2.331,-2.36 5.151,-3.68 8.45,-3.95 z"
   id="path219"
   inkscape:connector-curvature="0" />
		<path
   d="m 698.767,417.25 c -1.229,0 -2.299,-0.43 -3.199,-1.3 -0.87,-0.86 -1.301,-1.93 -1.301,-3.2 0,-1.23 0.431,-2.3 1.301,-3.2 0.9,-0.86 1.97,-1.3 3.199,-1.3 1.271,0 2.33,0.44 3.201,1.3 0.869,0.9 1.299,1.97 1.299,3.2 0,1.27 -0.43,2.34 -1.299,3.2 -0.871,0.871 -1.93,1.3 -3.201,1.3 z"
   id="path221"
   inkscape:connector-curvature="0" />
		<path
   d="m 716.718,413.851 9,0 c -0.23,6.37 -2.471,11.95 -6.701,16.75 l -19.199,0.15 0,-0.15 c 4.529,-0.23 8.4,-1.96 11.6,-5.2 3.23,-3.2 4.999,-7.05 5.3,-11.55 z"
   id="path223"
   inkscape:connector-curvature="0" />
		<path
   d="m 686.118,400.101 c -3.239,3.199 -4.97,7.07 -5.2,11.6 l -0.149,0 0.149,-19.199 c 4.801,-4.23 10.381,-6.471 16.75,-6.701 l 0,9 c -4.501,0.3 -8.35,2.07 -11.55,5.3 z"
   id="path225"
   inkscape:connector-curvature="0" />
		<path
   d="m 707.667,411.701 c -0.23,-2.06 -1.08,-3.83 -2.55,-5.3 -1.47,-1.46 -3.229,-2.31 -5.3,-2.55 l 0,-18.05 c 7.029,0.27 13.029,2.9 18,7.9 5,4.97 7.631,10.97 7.9,18 l -18.05,0 z"
   id="path227"
   inkscape:connector-curvature="0" />
	</g>
	<path
   style="display:inline"
   d="m 442.406,410.353 c -0.23,-2.06 -1.08,-3.83 -2.55,-5.3 -1.47,-1.46 -3.23,-2.31 -5.3,-2.55 l 0,-18.05 c 7.03,0.27 13.03,2.9 18,7.9 5,4.97 7.63,10.97 7.9,18 l -18.05,0 z"
   id="path229"
   inkscape:connector-curvature="0" />
	<path
   style="display:inline"
   d="m 317.006,340.02 9,0 c -0.23,6.37 -2.47,11.95 -6.7,16.75 l -19.2,0.15 0,-0.15 c 4.53,-0.23 8.4,-1.96 11.6,-5.2 3.23,-3.2 5,-7.05 5.3,-11.55 z"
   id="path231"
   inkscape:connector-curvature="0" />
	<path
   style="display:inline"
   d="m 307.956,337.87 c -0.23,-2.06 -1.08,-3.83 -2.55,-5.3 -1.47,-1.46 -3.23,-2.31 -5.3,-2.55 l 0,-18.05 c 7.03,0.27 13.03,2.9 18,7.9 5,4.97 7.63,10.97 7.9,18 l -18.05,0 z"
   id="path233"
   inkscape:connector-curvature="0" />
	<path
   style="display:inline;fill:none;stroke:#000000;stroke-miterlimit:10"
   d="m 515.891,312.499 c -4.967,0 -9.217,1.767 -12.75,5.3 -3.5,3.5 -5.25,7.733 -5.25,12.7 l 0,18 c 0,4.967 1.75,9.217 5.25,12.75 3.533,3.5 7.783,5.25 12.75,5.25 l 18,0 c 4.967,0 9.199,-1.75 12.699,-5.25 3.533,-3.533 5.301,-7.783 5.301,-12.75 l 0,-36 -36,0 z"
   id="path235"
   inkscape:connector-curvature="0" />
	<path
   style="display:inline;fill:none;stroke:#000000;stroke-miterlimit:10"
   d="m 514.791,321.699 0,9 c -4.7,0.3 -8.667,2.167 -11.899,5.6 -3.268,3.434 -4.9,7.534 -4.9,12.3 0,4.734 1.633,8.834 4.9,12.301 3.232,3.434 7.199,5.299 11.899,5.6 l 0,0.1 c -4.733,-0.266 -8.733,-2.133 -12,-5.6 -3.3,-3.434 -4.95,-7.551 -4.95,-12.35 l 0.15,-20.25 c 4.867,-4.234 10.467,-6.468 16.8,-6.701 z"
   id="path237"
   inkscape:connector-curvature="0" />
	<path
   style="display:inline;fill:none;stroke:#000000;stroke-miterlimit:10"
   d="m 524.791,349.749 4.55,0 c -0.266,3.301 -1.584,6.117 -3.949,8.449 -2.334,2.367 -5.15,3.668 -8.451,3.9 l 0,-4.5 c 2.067,-0.232 3.834,-1.084 5.301,-2.549 1.466,-1.466 2.315,-3.234 2.549,-5.3 z"
   id="path239"
   inkscape:connector-curvature="0" />
	<path
   style="display:inline;fill:none;stroke:#000000;stroke-miterlimit:10"
   d="m 514.791,335.199 0,4.55 c -2.033,0.233 -3.783,1.084 -5.25,2.551 -1.466,1.465 -2.333,3.232 -2.601,5.299 l -4.5,0 c 0.268,-3.299 1.567,-6.117 3.9,-8.45 2.334,-2.367 5.151,-3.683 8.451,-3.95 z"
   id="path241"
   inkscape:connector-curvature="0" />
	<path
   style="display:inline;fill:none;stroke:#000000;stroke-miterlimit:10"
   d="m 515.891,353.149 c -1.234,0 -2.301,-0.434 -3.201,-1.301 -0.865,-0.867 -1.299,-1.934 -1.299,-3.199 0,-1.234 0.434,-2.301 1.299,-3.201 0.9,-0.865 1.967,-1.299 3.201,-1.299 1.266,0 2.333,0.434 3.199,1.299 0.867,0.9 1.301,1.967 1.301,3.201 0,1.266 -0.434,2.332 -1.301,3.199 -0.866,0.868 -1.933,1.301 -3.199,1.301 z"
   id="path243"
   inkscape:connector-curvature="0" />
	<path
   style="display:inline;fill:none;stroke:#000000;stroke-miterlimit:10"
   d="m 533.84,349.749 9,0 c -0.232,6.367 -2.467,11.949 -6.699,16.75 l -19.201,0.15 0,-0.15 c 4.534,-0.234 8.4,-1.967 11.602,-5.199 3.232,-3.201 5,-7.051 5.298,-11.551 z"
   id="path245"
   inkscape:connector-curvature="0" />
	<path
   style="display:inline;fill:none;stroke:#000000;stroke-miterlimit:10"
   d="m 524.791,347.599 c -0.233,-2.066 -1.083,-3.834 -2.55,-5.299 -1.467,-1.467 -3.233,-2.317 -5.301,-2.551 l 0,-18.05 c 7.034,0.267 13.033,2.9 18,7.9 5,4.966 7.635,10.966 7.9,18 l -18.049,0 z"
   id="path247"
   inkscape:connector-curvature="0" />
	<path
   style="display:inline"
   d="m 635.189,409.301 4.551,0 c -0.271,3.3 -1.58,6.12 -3.951,8.45 -2.33,2.37 -5.149,3.67 -8.449,3.9 l 0,-4.5 c 2.07,-0.23 3.83,-1.08 5.3,-2.55 1.469,-1.46 2.318,-3.23 2.549,-5.3 z m -10,-14.55 0,4.55 c -2.029,0.24 -3.779,1.09 -5.25,2.55 -1.47,1.47 -2.33,3.24 -2.6,5.3 l -4.5,0 c 0.27,-3.3 1.57,-6.11 3.9,-8.45 2.331,-2.36 5.15,-3.68 8.45,-3.95 z m 1.1,17.95 c -1.229,0 -2.299,-0.43 -3.199,-1.3 -0.87,-0.86 -1.301,-1.93 -1.301,-3.2 0,-1.23 0.431,-2.3 1.301,-3.2 0.9,-0.86 1.97,-1.3 3.199,-1.3 1.271,0 2.33,0.44 3.201,1.3 0.869,0.9 1.299,1.97 1.299,3.2 0,1.27 -0.43,2.34 -1.299,3.2 -0.871,0.87 -1.931,1.3 -3.201,1.3 z m 17.951,-3.4 9,0 c -0.23,6.37 -2.471,11.95 -6.701,16.75 l -19.199,0.15 0,-0.15 c 4.529,-0.23 8.4,-1.96 11.6,-5.2 3.229,-3.2 4.999,-7.05 5.3,-11.55 z m -30.601,-13.75 c -3.239,3.199 -4.97,7.07 -5.2,11.6 l -0.149,0 0.149,-19.199 c 4.801,-4.23 10.381,-6.471 16.75,-6.701 l 0,9 c -4.5,0.3 -8.35,2.07 -11.55,5.3 z m 21.55,11.6 c -0.23,-2.06 -1.08,-3.83 -2.55,-5.3 -1.47,-1.46 -3.229,-2.31 -5.3,-2.55 l 0,-18.05 c 7.029,0.27 13.029,2.9 18,7.9 5,4.97 7.631,10.97 7.9,18 l -18.05,0 z"
   id="path249"
   inkscape:connector-curvature="0" />
	<path
   style="display:inline"
   d="m 635.189,283.967 4.551,0 c -0.271,3.3 -1.58,6.12 -3.951,8.45 -2.33,2.37 -5.149,3.67 -8.449,3.9 l 0,-4.5 c 2.07,-0.23 3.83,-1.08 5.3,-2.55 1.469,-1.46 2.318,-3.23 2.549,-5.3 z"
   id="path251"
   inkscape:connector-curvature="0" />
	<path
   style="display:inline"
   d="m 625.189,269.417 0,4.55 c -2.029,0.24 -3.779,1.09 -5.25,2.55 -1.47,1.47 -2.33,3.24 -2.6,5.3 l -4.5,0 c 0.27,-3.3 1.57,-6.11 3.9,-8.45 2.331,-2.36 5.15,-3.679 8.45,-3.95 z"
   id="path253"
   inkscape:connector-curvature="0" />
	<path
   style="display:inline"
   d="m 626.289,287.367 c -1.229,0 -2.299,-0.43 -3.199,-1.3 -0.87,-0.86 -1.301,-1.93 -1.301,-3.2 0,-1.23 0.431,-2.3 1.301,-3.2 0.9,-0.86 1.97,-1.3 3.199,-1.3 1.271,0 2.33,0.44 3.201,1.3 0.869,0.9 1.299,1.97 1.299,3.2 0,1.27 -0.43,2.34 -1.299,3.2 -0.871,0.871 -1.931,1.3 -3.201,1.3 z"
   id="path255"
   inkscape:connector-curvature="0" />
	<path
   style="display:inline"
   d="m 635.189,281.817 c -0.23,-2.06 -1.08,-3.83 -2.55,-5.3 -1.47,-1.46 -3.229,-2.31 -5.3,-2.55 l 0,-18.05 c 7.029,0.27 13.029,2.9 18,7.9 5,4.97 7.631,10.97 7.9,18 l -18.05,0 z"
   id="path257"
   inkscape:connector-curvature="0" />
	<path
   style="display:inline"
   d="m 730.34,275.968 0,-4.551 c 3.3,0.271 6.119,1.58 8.449,3.951 2.37,2.33 3.67,5.149 3.9,8.449 l -4.5,0 c -0.23,-2.07 -1.08,-3.83 -2.55,-5.3 -1.459,-1.469 -3.229,-2.319 -5.299,-2.549 z m -14.55,10 4.551,0 c 0.24,2.029 1.09,3.779 2.55,5.25 1.47,1.47 3.239,2.33 5.3,2.6 l 0,4.5 c -3.3,-0.27 -6.109,-1.57 -8.45,-3.9 -2.362,-2.331 -3.681,-5.15 -3.951,-8.45 z m 17.95,-1.1 c 0,1.229 -0.43,2.299 -1.3,3.199 -0.859,0.87 -1.93,1.301 -3.2,1.301 -1.229,0 -2.3,-0.431 -3.2,-1.301 -0.859,-0.9 -1.3,-1.97 -1.3,-3.199 0,-1.271 0.44,-2.33 1.3,-3.201 0.9,-0.869 1.971,-1.299 3.2,-1.299 1.271,0 2.341,0.43 3.2,1.299 0.87,0.871 1.3,1.931 1.3,3.201 z m -3.4,-17.951 0,-9 c 6.369,0.23 11.949,2.471 16.75,6.701 l 0.149,19.199 -0.149,0 c -0.23,-4.529 -1.961,-8.4 -5.2,-11.6 -3.2,-3.23 -7.05,-4.999 -11.55,-5.3 z m -13.75,30.601 c 3.199,3.239 7.07,4.97 11.6,5.2 l 0,0.149 -19.199,-0.149 c -4.23,-4.801 -6.471,-10.381 -6.701,-16.75 l 9,0 c 0.3,4.5 2.07,8.349 5.3,11.55 z m 11.6,-21.55 c -2.061,0.23 -3.83,1.08 -5.3,2.55 -1.46,1.47 -2.31,3.229 -2.55,5.3 l -18.05,0 c 0.271,-7.029 2.9,-13.029 7.9,-18 4.97,-5 10.97,-7.631 18,-7.9 l 0,18.05 z"
   id="path259"
   inkscape:connector-curvature="0" />
	<g
   style="display:inline"
   id="g261">
		<path
   d="m 691.333,526.59 4.551,0 c -0.271,3.301 -1.58,6.12 -3.951,8.45 -2.33,2.37 -5.149,3.67 -8.449,3.899 l 0,-4.5 c 2.07,-0.229 3.83,-1.08 5.3,-2.549 1.469,-1.46 2.319,-3.229 2.549,-5.3 z"
   id="path263"
   inkscape:connector-curvature="0" />
		<path
   d="m 681.333,512.041 0,4.55 c -2.029,0.24 -3.779,1.09 -5.25,2.551 -1.47,1.469 -2.33,3.239 -2.6,5.299 l -4.5,0 c 0.27,-3.299 1.57,-6.109 3.9,-8.449 2.331,-2.362 5.151,-3.681 8.45,-3.951 z"
   id="path265"
   inkscape:connector-curvature="0" />
		<path
   d="m 682.433,529.991 c -1.229,0 -2.299,-0.43 -3.199,-1.301 -0.87,-0.859 -1.301,-1.93 -1.301,-3.199 0,-1.23 0.431,-2.301 1.301,-3.2 0.9,-0.86 1.97,-1.3 3.199,-1.3 1.271,0 2.33,0.439 3.201,1.3 0.869,0.899 1.299,1.97 1.299,3.2 0,1.27 -0.43,2.34 -1.299,3.199 -0.871,0.871 -1.93,1.301 -3.201,1.301 z"
   id="path267"
   inkscape:connector-curvature="0" />
		<path
   d="m 700.384,526.59 9,0 c -0.23,6.37 -2.471,11.95 -6.701,16.75 l -19.199,0.15 0,-0.15 c 4.529,-0.23 8.4,-1.96 11.6,-5.199 3.23,-3.201 4.999,-7.051 5.3,-11.551 z"
   id="path269"
   inkscape:connector-curvature="0" />
		<path
   d="m 669.784,512.84 c -3.239,3.199 -4.97,7.07 -5.2,11.6 l -0.149,0 0.149,-19.199 c 4.801,-4.23 10.381,-6.471 16.75,-6.701 l 0,9 c -4.501,0.3 -8.35,2.07 -11.55,5.3 z"
   id="path271"
   inkscape:connector-curvature="0" />
		<path
   d="m 691.333,524.44 c -0.23,-2.06 -1.08,-3.83 -2.55,-5.299 -1.47,-1.461 -3.229,-2.311 -5.3,-2.551 l 0,-18.05 c 7.029,0.271 13.029,2.899 18,7.899 5,4.971 7.631,10.971 7.9,18 l -18.05,0 z"
   id="path273"
   inkscape:connector-curvature="0" />
	</g>
	<path
   style="display:inline"
   d="m 673.509,524.416 -4.551,0 c 0.271,-3.301 1.58,-6.12 3.951,-8.45 2.33,-2.37 5.149,-3.67 8.449,-3.9 l 0,4.5 c -2.07,0.23 -3.83,1.08 -5.3,2.55 -1.469,1.46 -2.318,3.229 -2.549,5.3 z"
   id="path275"
   inkscape:connector-curvature="0" />
	<path
   style="display:inline"
   d="m 683.509,538.965 0,-4.55 c 2.029,-0.24 3.779,-1.09 5.25,-2.551 1.47,-1.47 2.33,-3.239 2.6,-5.3 l 4.5,0 c -0.27,3.3 -1.57,6.11 -3.9,8.45 -2.331,2.361 -5.15,3.681 -8.45,3.951 z"
   id="path277"
   inkscape:connector-curvature="0" />
	<path
   style="display:inline"
   d="m 682.41,521.015 c 1.229,0 2.299,0.43 3.199,1.3 0.87,0.86 1.301,1.931 1.301,3.2 0,1.23 -0.431,2.3 -1.301,3.2 -0.9,0.86 -1.97,1.3 -3.199,1.3 -1.271,0 -2.33,-0.439 -3.201,-1.3 -0.869,-0.9 -1.299,-1.97 -1.299,-3.2 0,-1.27 0.43,-2.34 1.299,-3.2 0.871,-0.87 1.93,-1.3 3.201,-1.3 z"
   id="path279"
   inkscape:connector-curvature="0" />
	<path
   style="display:inline"
   d="m 664.458,524.416 -9,0 c 0.23,-6.37 2.471,-11.95 6.701,-16.75 l 19.199,-0.15 0,0.15 c -4.529,0.229 -8.4,1.96 -11.6,5.199 -3.229,3.2 -4.999,7.051 -5.3,11.551 z"
   id="path281"
   inkscape:connector-curvature="0" />
	<path
   style="display:inline"
   d="m 695.059,538.165 c 3.239,-3.199 4.97,-7.07 5.2,-11.6 l 0.149,0 -0.149,19.199 c -4.801,4.23 -10.381,6.471 -16.75,6.701 l 0,-9 c 4.5,-0.3 8.35,-2.07 11.55,-5.3 z"
   id="path283"
   inkscape:connector-curvature="0" />
	<path
   style="display:inline"
   d="m 673.509,526.565 c 0.23,2.061 1.08,3.83 2.55,5.3 1.47,1.461 3.229,2.311 5.3,2.551 l 0,18.05 c -7.029,-0.271 -13.029,-2.9 -18,-7.9 -5,-4.97 -7.631,-10.97 -7.9,-18 l 18.05,0 z"
   id="path285"
   inkscape:connector-curvature="0" />
	
		<rect
   x="655.45801"
   y="498.54001"
   style="display:inline;fill:none;stroke:#000000;stroke-miterlimit:10"
   width="53.924999"
   height="53.925999"
   id="rect287" />
	
		<rect
   x="680.76801"
   y="385.80099"
   style="display:inline;fill:none;stroke:#000000;stroke-miterlimit:10"
   width="44.950001"
   height="44.950001"
   id="rect289" />
	<g
   style="display:inline"
   id="g291">
		<path
   d="m 803.132,187.59 4.551,0 c -0.271,3.301 -1.58,6.12 -3.951,8.45 -2.33,2.37 -5.149,3.67 -8.449,3.899 l 0,-4.5 c 2.07,-0.229 3.83,-1.08 5.3,-2.549 1.469,-1.46 2.319,-3.229 2.549,-5.3 z"
   id="path293"
   inkscape:connector-curvature="0" />
		<path
   d="m 793.132,173.041 0,4.55 c -2.029,0.24 -3.779,1.09 -5.25,2.551 -1.47,1.469 -2.33,3.239 -2.6,5.299 l -4.5,0 c 0.27,-3.299 1.57,-6.109 3.9,-8.449 2.331,-2.362 5.151,-3.681 8.45,-3.951 z"
   id="path295"
   inkscape:connector-curvature="0" />
		<path
   d="m 794.232,190.991 c -1.229,0 -2.299,-0.43 -3.199,-1.301 -0.87,-0.859 -1.301,-1.93 -1.301,-3.199 0,-1.23 0.431,-2.301 1.301,-3.2 0.9,-0.86 1.97,-1.3 3.199,-1.3 1.271,0 2.33,0.439 3.201,1.3 0.869,0.899 1.299,1.97 1.299,3.2 0,1.27 -0.43,2.34 -1.299,3.199 -0.871,0.871 -1.931,1.301 -3.201,1.301 z"
   id="path297"
   inkscape:connector-curvature="0" />
		<path
   d="m 812.183,187.59 9,0 c -0.23,6.37 -2.471,11.95 -6.701,16.75 l -19.199,0.15 0,-0.15 c 4.529,-0.23 8.4,-1.96 11.6,-5.199 3.23,-3.201 4.999,-7.051 5.3,-11.551 z"
   id="path299"
   inkscape:connector-curvature="0" />
		<path
   d="m 781.583,173.84 c -3.239,3.199 -4.97,7.07 -5.2,11.6 l -0.149,0 0.149,-19.199 c 4.801,-4.23 10.381,-6.471 16.75,-6.701 l 0,9 c -4.501,0.3 -8.35,2.07 -11.55,5.3 z"
   id="path301"
   inkscape:connector-curvature="0" />
		<path
   d="m 803.132,185.44 c -0.23,-2.06 -1.08,-3.83 -2.55,-5.299 -1.47,-1.461 -3.229,-2.311 -5.3,-2.551 l 0,-18.05 c 7.029,0.271 13.029,2.899 18,7.899 5,4.971 7.631,10.971 7.9,18 l -18.05,0 z"
   id="path303"
   inkscape:connector-curvature="0" />
	</g>
	<path
   style="display:inline"
   d="m 785.308,185.416 -4.551,0 c 0.271,-3.301 1.58,-6.12 3.951,-8.45 2.33,-2.37 5.149,-3.67 8.449,-3.9 l 0,4.5 c -2.07,0.23 -3.83,1.08 -5.3,2.55 -1.469,1.46 -2.318,3.229 -2.549,5.3 z"
   id="path305"
   inkscape:connector-curvature="0" />
	<path
   style="display:inline"
   d="m 795.308,199.965 0,-4.55 c 2.029,-0.24 3.779,-1.09 5.25,-2.551 1.47,-1.47 2.33,-3.239 2.6,-5.3 l 4.5,0 c -0.27,3.3 -1.57,6.11 -3.9,8.45 -2.331,2.361 -5.15,3.681 -8.45,3.951 z"
   id="path307"
   inkscape:connector-curvature="0" />
	<path
   style="display:inline"
   d="m 794.208,182.015 c 1.229,0 2.299,0.43 3.199,1.3 0.87,0.86 1.301,1.931 1.301,3.2 0,1.23 -0.431,2.3 -1.301,3.2 -0.9,0.86 -1.97,1.3 -3.199,1.3 -1.271,0 -2.33,-0.439 -3.201,-1.3 -0.869,-0.9 -1.299,-1.97 -1.299,-3.2 0,-1.27 0.43,-2.34 1.299,-3.2 0.871,-0.87 1.931,-1.3 3.201,-1.3 z"
   id="path309"
   inkscape:connector-curvature="0" />
	<path
   style="display:inline"
   d="m 776.257,185.416 -9,0 c 0.23,-6.37 2.471,-11.95 6.701,-16.75 l 19.199,-0.15 0,0.15 c -4.529,0.229 -8.4,1.96 -11.6,5.199 -3.229,3.2 -4.999,7.051 -5.3,11.551 z"
   id="path311"
   inkscape:connector-curvature="0" />
	<path
   style="display:inline"
   d="m 806.858,199.165 c 3.239,-3.199 4.97,-7.07 5.2,-11.6 l 0.149,0 -0.149,19.199 c -4.801,4.23 -10.381,6.471 -16.75,6.701 l 0,-9 c 4.5,-0.3 8.35,-2.07 11.55,-5.3 z"
   id="path313"
   inkscape:connector-curvature="0" />
	<path
   style="display:inline"
   d="m 767.257,187.565 0,25.9 25.9,0 c -7.029,-0.271 -13.029,-2.9 -18,-7.9 -4.999,-4.97 -7.63,-10.97 -7.9,-18 z"
   id="path315"
   inkscape:connector-curvature="0" />
	<g
   style="display:inline"
   id="g317">
		<path
   d="m 793.132,159.567 c -14.383,0.572 -25.868,12.403 -25.875,26.923 l 9.063,0 c 0.007,-9.513 7.439,-17.268 16.812,-17.833 l 0,-9.09 z"
   id="path319"
   inkscape:connector-curvature="0" />
		<path
   d="m 812.066,187.59 c -0.565,9.373 -8.321,16.806 -17.834,16.812 l 0,9.063 c 14.52,-0.006 26.353,-11.492 26.924,-25.875 l -9.09,0 z"
   id="path321"
   inkscape:connector-curvature="0" />
	</g>
	<g
   style="display:inline"
   id="g323">
		<path
   d="m 574.044,147.056 4.551,0 c -0.271,3.301 -1.58,6.12 -3.951,8.45 -2.33,2.37 -5.149,3.67 -8.449,3.899 l 0,-4.5 c 2.07,-0.229 3.83,-1.08 5.3,-2.549 1.469,-1.46 2.319,-3.23 2.549,-5.3 z"
   id="path325"
   inkscape:connector-curvature="0" />
		<path
   d="m 564.044,132.506 0,4.55 c -2.029,0.24 -3.779,1.09 -5.25,2.551 -1.47,1.469 -2.33,3.239 -2.6,5.299 l -4.5,0 c 0.27,-3.299 1.57,-6.109 3.9,-8.449 2.331,-2.361 5.151,-3.681 8.45,-3.951 z"
   id="path327"
   inkscape:connector-curvature="0" />
		<path
   d="m 565.144,150.456 c -1.229,0 -2.299,-0.43 -3.199,-1.301 -0.87,-0.859 -1.301,-1.93 -1.301,-3.199 0,-1.23 0.431,-2.301 1.301,-3.2 0.9,-0.86 1.97,-1.3 3.199,-1.3 1.271,0 2.33,0.439 3.201,1.3 0.869,0.899 1.299,1.97 1.299,3.2 0,1.27 -0.43,2.34 -1.299,3.199 -0.871,0.871 -1.93,1.301 -3.201,1.301 z"
   id="path329"
   inkscape:connector-curvature="0" />
		<path
   d="m 583.095,147.056 9,0 c -0.23,6.37 -2.471,11.95 -6.701,16.75 l -19.199,0.15 0,-0.15 c 4.529,-0.23 8.4,-1.96 11.6,-5.199 3.23,-3.202 4.999,-7.051 5.3,-11.551 z"
   id="path331"
   inkscape:connector-curvature="0" />
		<path
   d="m 552.495,133.306 c -3.239,3.199 -4.97,7.07 -5.2,11.6 l -0.149,0 0.149,-19.199 c 4.801,-4.23 10.381,-6.471 16.75,-6.701 l 0,9 c -4.501,0.3 -8.35,2.069 -11.55,5.3 z"
   id="path333"
   inkscape:connector-curvature="0" />
		<path
   d="m 574.044,144.905 c -0.23,-2.06 -1.08,-3.83 -2.55,-5.299 -1.47,-1.461 -3.229,-2.311 -5.3,-2.551 l 0,-18.05 c 7.029,0.271 13.029,2.899 18,7.899 5,4.971 7.631,10.971 7.9,18 l -18.05,0 z"
   id="path335"
   inkscape:connector-curvature="0" />
	</g>
	<g
   style="display:inline"
   id="g337">
		<path
   d="m 556.22,144.881 -4.551,0 c 0.271,-3.301 1.58,-6.12 3.951,-8.45 2.33,-2.37 5.149,-3.67 8.449,-3.9 l 0,4.5 c -2.07,0.23 -3.83,1.08 -5.3,2.55 -1.469,1.46 -2.318,3.23 -2.549,5.3 z"
   id="path339"
   inkscape:connector-curvature="0" />
		<path
   d="m 566.22,159.431 0,-4.55 c 2.029,-0.24 3.779,-1.09 5.25,-2.551 1.47,-1.47 2.33,-3.239 2.6,-5.3 l 4.5,0 c -0.27,3.3 -1.57,6.11 -3.9,8.45 -2.331,2.361 -5.15,3.68 -8.45,3.951 z"
   id="path341"
   inkscape:connector-curvature="0" />
	</g>
	<g
   style="display:inline"
   id="g343">
		<path
   d="m 566.219,137.083 0,-4.551 c 3.301,0.271 6.12,1.58 8.45,3.951 2.37,2.33 3.67,5.149 3.9,8.449 l -4.5,0 c -0.23,-2.07 -1.08,-3.83 -2.55,-5.3 -1.46,-1.469 -3.229,-2.319 -5.3,-2.549 z"
   id="path345"
   inkscape:connector-curvature="0" />
		<path
   d="m 551.669,147.083 4.55,0 c 0.24,2.029 1.09,3.779 2.551,5.25 1.47,1.47 3.239,2.33 5.3,2.6 l 0,4.5 c -3.3,-0.27 -6.11,-1.57 -8.45,-3.9 -2.361,-2.331 -3.68,-5.15 -3.951,-8.45 z"
   id="path347"
   inkscape:connector-curvature="0" />
	</g>
	<path
   style="display:inline"
   d="m 565.121,141.48 c 1.229,0 2.299,0.43 3.199,1.3 0.87,0.86 1.301,1.931 1.301,3.2 0,1.23 -0.431,2.3 -1.301,3.2 -0.9,0.86 -1.97,1.3 -3.199,1.3 -1.271,0 -2.33,-0.439 -3.201,-1.3 -0.869,-0.9 -1.299,-1.97 -1.299,-3.2 0,-1.27 0.43,-2.34 1.299,-3.2 0.871,-0.87 1.93,-1.3 3.201,-1.3 z"
   id="path349"
   inkscape:connector-curvature="0" />
	<path
   style="display:inline"
   d="m 547.169,144.881 -9,0 c 0.23,-6.37 2.471,-11.95 6.701,-16.75 l 19.199,-0.15 0,0.15 c -4.529,0.229 -8.4,1.96 -11.6,5.199 -3.229,3.2 -4.999,7.051 -5.3,11.551 z"
   id="path351"
   inkscape:connector-curvature="0" />
	<path
   style="display:inline"
   d="m 577.77,158.63 c 3.239,-3.199 4.97,-7.07 5.2,-11.6 l 0.149,0 -0.149,19.199 c -4.801,4.23 -10.381,6.471 -16.75,6.701 l 0,-9 c 4.5,-0.3 8.35,-2.07 11.55,-5.3 z"
   id="path353"
   inkscape:connector-curvature="0" />
	<path
   style="display:inline"
   d="m 538.169,147.03 0,25.9 25.9,0 c -7.029,-0.271 -13.029,-2.9 -18,-7.9 -4.999,-4.969 -7.63,-10.969 -7.9,-18 z"
   id="path355"
   inkscape:connector-curvature="0" />
	<g
   style="display:inline"
   id="g357">
		<path
   d="m 564.044,119.033 c -14.383,0.572 -25.868,12.403 -25.875,26.923 l 9.063,0 c 0.007,-9.513 7.439,-17.268 16.812,-17.833 l 0,-9.09 z"
   id="path359"
   inkscape:connector-curvature="0" />
		<path
   d="m 582.978,147.056 c -0.565,9.373 -8.321,16.806 -17.834,16.812 l 0,9.063 c 14.52,-0.006 26.353,-11.492 26.924,-25.875 l -9.09,0 z"
   id="path361"
   inkscape:connector-curvature="0" />
	</g>
	<g
   style="display:inline"
   id="g363">
		<g
   id="g365">
			<path
   d="m 742.127,187.59 4.551,0 c -0.271,3.301 -1.58,6.12 -3.951,8.45 -2.33,2.37 -5.149,3.67 -8.449,3.899 l 0,-4.5 c 2.07,-0.229 3.83,-1.08 5.3,-2.549 1.469,-1.46 2.319,-3.229 2.549,-5.3 z"
   id="path367"
   inkscape:connector-curvature="0" />
			<path
   d="m 732.127,173.041 0,4.55 c -2.029,0.24 -3.779,1.09 -5.25,2.551 -1.47,1.469 -2.33,3.239 -2.6,5.299 l -4.5,0 c 0.27,-3.299 1.57,-6.109 3.9,-8.449 2.331,-2.362 5.151,-3.681 8.45,-3.951 z"
   id="path369"
   inkscape:connector-curvature="0" />
			<path
   d="m 733.227,190.991 c -1.229,0 -2.299,-0.43 -3.199,-1.301 -0.87,-0.859 -1.301,-1.93 -1.301,-3.199 0,-1.23 0.431,-2.301 1.301,-3.2 0.9,-0.86 1.97,-1.3 3.199,-1.3 1.271,0 2.33,0.439 3.201,1.3 0.869,0.899 1.299,1.97 1.299,3.2 0,1.27 -0.43,2.34 -1.299,3.199 -0.871,0.871 -1.93,1.301 -3.201,1.301 z"
   id="path371"
   inkscape:connector-curvature="0" />
			<path
   d="m 751.178,187.59 9,0 c -0.23,6.37 -2.471,11.95 -6.701,16.75 l -19.199,0.15 0,-0.15 c 4.529,-0.23 8.4,-1.96 11.6,-5.199 3.23,-3.201 4.999,-7.051 5.3,-11.551 z"
   id="path373"
   inkscape:connector-curvature="0" />
			<path
   d="m 720.578,173.84 c -3.239,3.199 -4.97,7.07 -5.2,11.6 l -0.149,0 0.149,-19.199 c 4.801,-4.23 10.381,-6.471 16.75,-6.701 l 0,9 c -4.501,0.3 -8.35,2.07 -11.55,5.3 z"
   id="path375"
   inkscape:connector-curvature="0" />
			<path
   d="m 742.127,185.44 c -0.23,-2.06 -1.08,-3.83 -2.55,-5.299 -1.47,-1.461 -3.229,-2.311 -5.3,-2.551 l 0,-18.05 c 7.029,0.271 13.029,2.899 18,7.899 5,4.971 7.631,10.971 7.9,18 l -18.05,0 z"
   id="path377"
   inkscape:connector-curvature="0" />
		</g>
		<path
   d="m 724.303,185.416 -4.551,0 c 0.271,-3.301 1.58,-6.12 3.951,-8.45 2.33,-2.37 5.149,-3.67 8.449,-3.9 l 0,4.5 c -2.07,0.23 -3.83,1.08 -5.3,2.55 -1.469,1.46 -2.318,3.229 -2.549,5.3 z"
   id="path379"
   inkscape:connector-curvature="0" />
		<path
   d="m 734.303,199.965 0,-4.55 c 2.029,-0.24 3.779,-1.09 5.25,-2.551 1.47,-1.47 2.33,-3.239 2.6,-5.3 l 4.5,0 c -0.27,3.3 -1.57,6.11 -3.9,8.45 -2.331,2.361 -5.15,3.681 -8.45,3.951 z"
   id="path381"
   inkscape:connector-curvature="0" />
		<path
   d="m 733.204,182.015 c 1.229,0 2.299,0.43 3.199,1.3 0.87,0.86 1.301,1.931 1.301,3.2 0,1.23 -0.431,2.3 -1.301,3.2 -0.9,0.86 -1.97,1.3 -3.199,1.3 -1.271,0 -2.33,-0.439 -3.201,-1.3 -0.869,-0.9 -1.299,-1.97 -1.299,-3.2 0,-1.27 0.43,-2.34 1.299,-3.2 0.871,-0.87 1.93,-1.3 3.201,-1.3 z"
   id="path383"
   inkscape:connector-curvature="0" />
		<path
   d="m 715.252,185.416 -9,0 c 0.23,-6.37 2.471,-11.95 6.701,-16.75 l 19.199,-0.15 0,0.15 c -4.529,0.229 -8.4,1.96 -11.6,5.199 -3.229,3.2 -4.999,7.051 -5.3,11.551 z"
   id="path385"
   inkscape:connector-curvature="0" />
		<path
   d="m 745.853,199.165 c 3.239,-3.199 4.97,-7.07 5.2,-11.6 l 0.149,0 -0.149,19.199 c -4.801,4.23 -10.381,6.471 -16.75,6.701 l 0,-9 c 4.5,-0.3 8.35,-2.07 11.55,-5.3 z"
   id="path387"
   inkscape:connector-curvature="0" />
		<path
   d="m 706.252,187.565 0,25.9 25.9,0 c -7.029,-0.271 -13.029,-2.9 -18,-7.9 -4.999,-4.97 -7.63,-10.97 -7.9,-18 z"
   id="path389"
   inkscape:connector-curvature="0" />
		<path
   d="m 751.061,187.59 c -0.544,9.023 -7.759,16.229 -16.783,16.76 l 0,9.088 c 14.035,-0.545 25.315,-11.815 25.873,-25.848 l -9.09,0 z"
   id="path391"
   inkscape:connector-curvature="0" />
		<path
   d="m 715.369,185.416 c 0.544,-9.014 7.744,-16.215 16.759,-16.759 l 0,-9.089 c -14.025,0.558 -25.291,11.824 -25.848,25.848 l 9.089,0 z"
   id="path393"
   inkscape:connector-curvature="0" />
	</g>
	<g
   style="display:inline"
   id="g395">
		<path
   d="m 743.142,125.544 4.551,0 c -0.271,3.301 -1.58,6.12 -3.951,8.45 -2.33,2.37 -5.149,3.67 -8.449,3.899 l 0,-4.5 c 2.07,-0.229 3.83,-1.08 5.3,-2.549 1.469,-1.46 2.319,-3.229 2.549,-5.3 z"
   id="path397"
   inkscape:connector-curvature="0" />
		<path
   d="m 733.142,110.995 0,4.55 c -2.029,0.24 -3.779,1.09 -5.25,2.551 -1.47,1.469 -2.33,3.239 -2.6,5.299 l -4.5,0 c 0.27,-3.299 1.57,-6.109 3.9,-8.449 2.331,-2.362 5.15,-3.681 8.45,-3.951 z"
   id="path399"
   inkscape:connector-curvature="0" />
		<path
   d="m 734.242,128.945 c -1.229,0 -2.299,-0.43 -3.199,-1.301 -0.87,-0.859 -1.301,-1.93 -1.301,-3.199 0,-1.23 0.431,-2.301 1.301,-3.2 0.9,-0.86 1.97,-1.3 3.199,-1.3 1.271,0 2.33,0.439 3.201,1.3 0.869,0.899 1.299,1.97 1.299,3.2 0,1.27 -0.43,2.34 -1.299,3.199 -0.871,0.871 -1.931,1.301 -3.201,1.301 z"
   id="path401"
   inkscape:connector-curvature="0" />
		<path
   d="m 752.193,125.544 9,0 c -0.23,6.37 -2.471,11.95 -6.701,16.75 l -19.199,0.15 0,-0.15 c 4.529,-0.23 8.4,-1.96 11.6,-5.199 3.23,-3.201 4.999,-7.051 5.3,-11.551 z"
   id="path403"
   inkscape:connector-curvature="0" />
		<path
   d="m 721.592,111.794 c -3.239,3.199 -4.97,7.07 -5.2,11.6 l -0.149,0 0.149,-19.199 c 4.801,-4.23 10.381,-6.471 16.75,-6.701 l 0,9 c -4.5,0.3 -8.35,2.07 -11.55,5.3 z"
   id="path405"
   inkscape:connector-curvature="0" />
		<path
   d="m 743.142,123.394 c -0.23,-2.06 -1.08,-3.83 -2.55,-5.299 -1.47,-1.461 -3.229,-2.311 -5.3,-2.551 l 0,-18.05 c 7.029,0.271 13.029,2.899 18,7.899 5,4.971 7.631,10.971 7.9,18 l -18.05,0 z"
   id="path407"
   inkscape:connector-curvature="0" />
	</g>
	<path
   style="display:inline"
   d="m 725.318,123.37 -4.551,0 c 0.271,-3.301 1.58,-6.12 3.951,-8.45 2.33,-2.37 5.149,-3.67 8.449,-3.9 l 0,4.5 c -2.07,0.23 -3.83,1.08 -5.3,2.55 -1.469,1.46 -2.319,3.229 -2.549,5.3 z"
   id="path409"
   inkscape:connector-curvature="0" />
	<path
   style="display:inline"
   d="m 735.318,137.919 0,-4.55 c 2.029,-0.24 3.779,-1.09 5.25,-2.551 1.47,-1.47 2.33,-3.239 2.6,-5.3 l 4.5,0 c -0.27,3.3 -1.57,6.11 -3.9,8.45 -2.331,2.362 -5.15,3.681 -8.45,3.951 z"
   id="path411"
   inkscape:connector-curvature="0" />
	<path
   style="display:inline"
   d="m 734.218,119.969 c 1.229,0 2.299,0.43 3.199,1.3 0.87,0.86 1.301,1.931 1.301,3.2 0,1.23 -0.431,2.3 -1.301,3.2 -0.9,0.86 -1.97,1.3 -3.199,1.3 -1.271,0 -2.33,-0.439 -3.201,-1.3 -0.869,-0.9 -1.299,-1.97 -1.299,-3.2 0,-1.27 0.43,-2.34 1.299,-3.2 0.871,-0.87 1.931,-1.3 3.201,-1.3 z"
   id="path413"
   inkscape:connector-curvature="0" />
	<path
   style="display:inline"
   d="m 716.267,123.37 -9,0 c 0.23,-6.37 2.471,-11.95 6.701,-16.75 l 19.199,-0.15 0,0.15 c -4.529,0.229 -8.4,1.96 -11.6,5.199 -3.23,3.2 -4.999,7.051 -5.3,11.551 z"
   id="path415"
   inkscape:connector-curvature="0" />
	<path
   style="display:inline"
   d="m 746.868,137.119 c 3.239,-3.199 4.97,-7.07 5.2,-11.6 l 0.149,0 -0.149,19.199 c -4.801,4.23 -10.381,6.471 -16.75,6.701 l 0,-9 c 4.5,-0.3 8.349,-2.07 11.55,-5.3 z"
   id="path417"
   inkscape:connector-curvature="0" />
	<path
   style="display:inline"
   d="m 707.267,125.519 0,25.9 25.9,0 c -7.029,-0.271 -13.029,-2.9 -18,-7.9 -5,-4.97 -7.63,-10.97 -7.9,-18 z"
   id="path419"
   inkscape:connector-curvature="0" />
	<path
   style="display:inline"
   d="m 752.076,125.544 c -0.544,9.023 -7.759,16.229 -16.783,16.76 l 0,9.088 c 14.035,-0.545 25.315,-11.815 25.873,-25.848 l -9.09,0 z"
   id="path421"
   inkscape:connector-curvature="0" />
	<path
   style="display:inline"
   d="m 733.141,142.316 c -9.023,-0.544 -16.229,-7.759 -16.76,-16.783 l -9.088,0 c 0.545,14.035 11.814,25.315 25.848,25.873 l 0,-9.09 z"
   id="path423"
   inkscape:connector-curvature="0" />
	<path
   style="display:inline"
   d="m 716.383,123.37 c 0.544,-9.014 7.744,-16.215 16.759,-16.759 l 0,-9.089 c -14.025,0.558 -25.291,11.824 -25.848,25.848 l 9.089,0 z"
   id="path425"
   inkscape:connector-curvature="0" />
</g>
<g
   id="Layer_2"
   transform="matrix(0.70710678,-0.70710678,0.70710678,0.70710678,-326.25836,397.83454)">
	<g
   id="g428">
		<path
   d="m 583.433,349.338 c -20.838,-16.647 -44.681,-25.026 -71.422,-25.016 -26.668,0.077 -50.415,8.361 -71.442,25.015 L 276.316,185.083 C 342.743,123.578 421.268,92.9 512.004,93.166 c 90.732,-0.264 169.274,30.395 235.693,91.908 L 583.433,349.338 Z"
   id="path430"
   inkscape:connector-curvature="0" />
		<path
   d="m 421.012,511.315 -41.415,41.416 c -27.576,-32.5 -41.313,-70.075 -40.941,-112.854 -0.365,-42.772 13.463,-80.257 41.396,-112.383 l 40.951,40.95 c -16.743,20.937 -25.027,44.683 -25.025,71.43 -0.082,26.671 8.29,50.506 25.034,71.441 z"
   id="path432"
   inkscape:connector-curvature="0" />
		<path
   d="m 644.416,552.719 -41.403,-41.404 c 16.281,-20.654 24.476,-44.309 24.563,-70.985 0,-26.752 -8.271,-50.681 -24.573,-71.886 l 40.952,-40.953 c 27.574,32.481 41.314,69.895 41.405,112.391 0.274,42.684 -13.376,80.347 -40.944,112.837 z"
   id="path434"
   inkscape:connector-curvature="0" />
		<path
   d="m 471.06,399.379 c 11.188,-11.189 24.831,-17.009 40.942,-17.286 15.747,-0.088 29.408,5.732 40.961,17.285 11.196,11.196 17.007,24.848 17.283,40.959 -0.364,16.023 -6.096,29.755 -17.285,40.943 -11.562,11.563 -25.204,17.204 -40.96,17.302 -16.102,-0.285 -29.743,-6.105 -40.94,-17.303 -11.552,-11.552 -17.383,-25.204 -17.303,-40.941 0.009,-15.843 5.741,-29.397 17.302,-40.959 z"
   id="path436"
   inkscape:connector-curvature="0" />
		<path
   d="m 684.299,287.609 c 77.165,87.065 77.074,218.287 -0.208,305.249 l 82.7,82.701 C 889.554,542.877 889.645,337.668 767.016,204.892 l -82.717,82.717 z"
   id="path438"
   inkscape:connector-curvature="0" />
		<path
   d="M 747.334,695.258 664.612,612.537 C 577.55,689.701 446.33,689.611 359.371,612.32 l -82.702,82.701 -0.365,0.117 L 512,930.835 747.334,695.258 Z"
   id="path440"
   inkscape:connector-curvature="0" />
		<path
   d="m 339.705,592.624 c -77.075,-86.974 -77.082,-218.03 0,-305.013 l -82.713,-82.713 c -122.556,132.705 -122.554,337.746 0.003,470.438 l 82.71,-82.712 z"
   id="path442"
   inkscape:connector-curvature="0" />
	</g>
</g>
</svg>