<?xml version="1.0" encoding="iso-8859-1"?>
<!-- Generator: Adobe Illustrator 16.0.3, SVG Export Plug-In . SVG Version: 6.00 Build 0)  -->
<!DOCTYPE svg PUBLIC "-//W3C//DTD SVG 1.1//EN" "http://www.w3.org/Graphics/SVG/1.1/DTD/svg11.dtd">
<svg version="1.1" xmlns="http://www.w3.org/2000/svg" xmlns:xlink="http://www.w3.org/1999/xlink" x="0px" y="0px" width="1024px"
	 height="1024px" viewBox="0 0 1024 1024" style="enable-background:new 0 0 1024 1024;" xml:space="preserve">
<g id="Layer_1" style="display:none;">
	<g style="display:inline;">
		<g>
			<path style="fill:none;stroke:#000000;stroke-miterlimit:10;" d="M439.535,483.649c0,1.244-0.117,2.443-0.35,3.6
				c0.2-1.158,0.3-2.359,0.3-3.6v-0.85c-0.233-9.768-3.833-18.067-10.8-24.901c-6.698-6.57-14.707-9.987-24.025-10.25h16.875
				c4.967,0,9.2,1.75,12.7,5.25c3.534,3.533,5.3,7.783,5.3,12.75V483.649z"/>
		</g>
		<g>
			<path style="fill:none;stroke:#000000;stroke-miterlimit:10;" d="M439.535,448.499h-36.05c-4.933,0-9.167,1.767-12.7,5.3
				s-5.3,7.767-5.3,12.7v18c0,4.967,1.767,9.217,5.3,12.75c3.5,3.5,7.733,5.25,12.7,5.25h18c4.967,0,9.217-1.75,12.75-5.25
				c3.5-3.533,5.25-7.783,5.25-12.75L439.535,448.499z"/>
		</g>
		<path style="fill:none;stroke:#000000;stroke-miterlimit:10;" d="M385.635,483.599c0,4.734,1.633,8.834,4.9,12.301
			c3.233,3.434,7.2,5.299,11.9,5.6v0.1c-4.733-0.266-8.733-2.133-12-5.6c-3.3-3.434-4.95-7.551-4.95-12.35v-18
			c0-0.733,0.05-1.483,0.15-2.25c4.8-4.233,10.4-6.467,16.8-6.7v9c-4.7,0.3-8.667,2.167-11.9,5.6
			C387.269,474.732,385.635,478.833,385.635,483.599z"/>
		<path style="fill:none;stroke:#000000;stroke-miterlimit:10;" d="M412.435,484.749h4.55c-0.267,3.301-1.583,6.117-3.95,8.449
			c-2.333,2.367-5.15,3.668-8.45,3.9v-4.5c2.067-0.232,3.833-1.084,5.3-2.549C411.352,488.583,412.202,486.815,412.435,484.749z"/>
		<path style="fill:none;stroke:#000000;stroke-miterlimit:10;" d="M402.435,474.749c-2.033,0.233-3.783,1.084-5.25,2.551
			c-1.467,1.465-2.333,3.232-2.6,5.299h-4.5c0.267-3.299,1.567-6.117,3.9-8.45c2.333-2.367,5.15-3.683,8.45-3.95V474.749z"/>
		<path style="fill:none;stroke:#000000;stroke-miterlimit:10;" d="M399.035,483.649c0-1.234,0.433-2.301,1.3-3.201
			c0.9-0.865,1.967-1.299,3.2-1.299s2.283,0.434,3.15,1.299c0.9,0.9,1.35,1.967,1.35,3.201c0,1.232-0.45,2.299-1.35,3.199
			c-0.867,0.867-1.917,1.301-3.15,1.301s-2.3-0.434-3.2-1.301C399.468,485.981,399.035,484.915,399.035,483.649z"/>
		<path style="fill:none;stroke:#000000;stroke-miterlimit:10;" d="M416.185,496.3c3.233-3.201,4.983-7.051,5.25-11.551h9.05
			c-0.233,6.367-2.466,11.949-6.7,16.75l-19.2,0.15v-0.15C409.118,501.265,412.985,499.532,416.185,496.3z"/>
		<path style="fill:none;stroke:#000000;stroke-miterlimit:10;" d="M421.485,482.599c-0.267-4.566-2.017-8.45-5.25-11.65
			c-3.233-3.233-7.117-4.983-11.65-5.25v-9c7.033,0.267,13.033,2.9,18,7.9c5,4.966,7.633,10.966,7.9,18H421.485z"/>
	</g>
	<g style="display:inline;">
		<path style="fill:none;stroke:#000000;stroke-miterlimit:10;" d="M568.285,483.649c0,1.244-0.116,2.443-0.35,3.6
			c0.2-1.158,0.3-2.359,0.3-3.6v-0.85c-0.233-9.768-3.833-18.067-10.8-24.901c-6.729-6.569-14.738-9.986-24.025-10.25h16.875
			c4.967,0,9.2,1.75,12.7,5.25c3.533,3.533,5.3,7.783,5.3,12.75V483.649z"/>
	</g>
	<g style="display:inline;">
		<path style="fill:none;stroke:#000000;stroke-miterlimit:10;" d="M568.285,448.499h-36.05c-4.934,0-9.166,1.767-12.7,5.3
			c-3.533,3.533-5.3,7.767-5.3,12.7v18c0,4.967,1.767,9.217,5.3,12.75c3.5,3.5,7.733,5.25,12.7,5.25h18
			c4.967,0,9.217-1.75,12.75-5.25c3.5-3.533,5.25-7.783,5.25-12.75L568.285,448.499z"/>
	</g>
	<path style="display:inline;fill:none;stroke:#000000;stroke-miterlimit:10;" d="M514.385,483.599
		c0,4.734,1.633,8.834,4.899,12.301c3.233,3.434,7.2,5.299,11.9,5.6v0.1c-4.733-0.266-8.733-2.133-12-5.6
		c-3.3-3.434-4.95-7.551-4.95-12.35v-18c0-0.733,0.05-1.483,0.15-2.25c4.8-4.233,10.399-6.467,16.8-6.7v9
		c-4.7,0.3-8.667,2.167-11.9,5.6C516.018,474.732,514.385,478.833,514.385,483.599z"/>
	<path style="display:inline;fill:none;stroke:#000000;stroke-miterlimit:10;" d="M541.185,484.749h4.5
		c-0.233,3.301-1.533,6.117-3.9,8.449c-2.333,2.367-5.149,3.668-8.449,3.9v-4.5c2.066-0.232,3.833-1.084,5.3-2.549
		C540.102,488.583,540.952,486.815,541.185,484.749z"/>
	<path style="display:inline;fill:none;stroke:#000000;stroke-miterlimit:10;" d="M531.185,474.749
		c-2.033,0.233-3.783,1.084-5.25,2.551c-1.467,1.465-2.333,3.232-2.6,5.299h-4.5c0.267-3.299,1.566-6.117,3.899-8.45
		c2.334-2.367,5.15-3.683,8.45-3.95V474.749z"/>
	<path style="display:inline;fill:none;stroke:#000000;stroke-miterlimit:10;" d="M527.785,483.649c0-1.234,0.434-2.301,1.301-3.201
		c0.899-0.865,1.966-1.299,3.199-1.299s2.284,0.434,3.15,1.299c0.9,0.9,1.35,1.967,1.35,3.201c0,1.232-0.449,2.299-1.35,3.199
		c-0.866,0.867-1.917,1.301-3.15,1.301s-2.3-0.434-3.199-1.301C528.218,485.981,527.785,484.915,527.785,483.649z"/>
	<path style="display:inline;fill:none;stroke:#000000;stroke-miterlimit:10;" d="M550.185,484.749h9.05
		c-0.233,6.367-2.467,11.949-6.7,16.75l-19.199,0.15v-0.15c4.533-0.234,8.399-1.967,11.6-5.199
		C548.168,493.099,549.918,489.249,550.185,484.749z"/>
	<path style="display:inline;fill:none;stroke:#000000;stroke-miterlimit:10;" d="M551.335,464.599c5,4.966,7.633,10.966,7.899,18
		h-9c-0.267-4.566-2.017-8.45-5.25-11.65c-3.233-3.233-7.116-4.983-11.649-5.25v-9C540.369,456.966,546.369,459.599,551.335,464.599
		z"/>
	<path style="display:inline;fill:none;stroke:#000000;stroke-miterlimit:10;" d="M551.335,464.599c5,4.966,7.633,10.966,7.899,18
		h-18.05c-0.233-2.066-1.083-3.834-2.55-5.299c-1.467-1.467-3.233-2.317-5.3-2.551v-18.05
		C540.369,456.966,546.369,459.599,551.335,464.599z"/>
	<g style="display:inline;">
		<g>
			<path style="fill:none;stroke:#000000;stroke-miterlimit:10;" d="M485.935,447.649c4.967,0,9.217,1.75,12.75,5.25
				c3.5,3.533,5.25,7.783,5.25,12.75v18c0,4.967-1.75,9.217-5.25,12.75c-0.891,0.883-1.833,1.648-2.825,2.299
				c0.97-0.66,1.895-1.428,2.775-2.299c3.5-3.533,5.25-7.783,5.25-12.75v-0.85c-0.233-9.768-3.834-18.067-10.8-24.901
				c-6.699-6.57-14.707-9.987-24.025-10.25H485.935z"/>
		</g>
		<g>
			<path style="fill:none;stroke:#000000;stroke-miterlimit:10;" d="M467.935,448.499c-4.967,0-9.217,1.767-12.75,5.3
				c-3.5,3.5-5.25,7.733-5.25,12.7v18c0,4.967,1.75,9.217,5.25,12.75c3.533,3.5,7.783,5.25,12.75,5.25h18
				c4.967,0,9.2-1.75,12.7-5.25c3.533-3.533,5.3-7.783,5.3-12.75v-36H467.935z"/>
		</g>
		<path style="fill:none;stroke:#000000;stroke-miterlimit:10;" d="M466.835,456.699v9c-4.7,0.3-8.667,2.167-11.9,5.6
			c-3.267,3.434-4.9,7.534-4.9,12.3c0,4.734,1.633,8.834,4.9,12.301c3.233,3.434,7.2,5.299,11.9,5.6v0.1
			c-4.733-0.266-8.733-2.133-12-5.6c-3.3-3.434-4.95-7.551-4.95-12.35l0.15-20.25C454.902,459.166,460.502,456.932,466.835,456.699z
			"/>
		<path style="fill:none;stroke:#000000;stroke-miterlimit:10;" d="M476.835,484.749h4.55c-0.267,3.301-1.584,6.117-3.95,8.449
			c-2.333,2.367-5.15,3.668-8.45,3.9v-4.5c2.067-0.232,3.833-1.084,5.3-2.549C475.752,488.583,476.602,486.815,476.835,484.749z"/>
		<path style="fill:none;stroke:#000000;stroke-miterlimit:10;" d="M466.835,470.199v4.55c-2.033,0.233-3.783,1.084-5.25,2.551
			c-1.466,1.465-2.333,3.232-2.6,5.299h-4.5c0.267-3.299,1.567-6.117,3.9-8.45C460.718,471.782,463.535,470.466,466.835,470.199z"/>
		<path style="fill:none;stroke:#000000;stroke-miterlimit:10;" d="M467.935,488.149c-1.233,0-2.3-0.434-3.2-1.301
			c-0.866-0.867-1.3-1.934-1.3-3.199c0-1.234,0.434-2.301,1.3-3.201c0.9-0.865,1.967-1.299,3.2-1.299c1.267,0,2.333,0.434,3.2,1.299
			c0.867,0.9,1.3,1.967,1.3,3.201c0,1.266-0.433,2.332-1.3,3.199S469.202,488.149,467.935,488.149z"/>
		<path style="fill:none;stroke:#000000;stroke-miterlimit:10;" d="M485.885,484.749h9c-0.233,6.367-2.467,11.949-6.7,16.75
			l-19.2,0.15v-0.15c4.534-0.234,8.4-1.967,11.601-5.199C483.819,493.099,485.585,489.249,485.885,484.749z"/>
		<path style="fill:none;stroke:#000000;stroke-miterlimit:10;" d="M476.835,482.599c-0.233-2.066-1.083-3.834-2.55-5.299
			c-1.467-1.467-3.233-2.317-5.3-2.551v-18.05c7.034,0.267,13.033,2.9,18,7.9c5,4.966,7.634,10.966,7.9,18H476.835z"/>
	</g>
	<path style="display:inline;fill:none;stroke:#000000;stroke-miterlimit:10;" d="M523.485,484.749
		c0.267,2.066,1.134,3.834,2.601,5.301c1.466,1.465,3.216,2.316,5.25,2.549v9.951c-4.767-0.201-8.817-2.018-12.15-5.451
		s-5.033-7.549-5.1-12.35H523.485z"/>
	<path style="display:inline;fill:none;stroke:#000000;stroke-width:3;stroke-linecap:round;stroke-linejoin:round;" d="
		M416.556,302.77c-4.97,0-9.22,1.77-12.75,5.3c-3.5,3.5-5.25,7.74-5.25,12.7v18c0,4.97,1.75,9.22,5.25,12.75
		c3.53,3.5,7.78,5.25,12.75,5.25h18c4.97,0,9.2-1.75,12.7-5.25c3.53-3.53,5.3-7.78,5.3-12.75v-36H416.556z"/>
	<path style="display:inline;" d="M415.456,311.97v9c-4.7,0.3-8.67,2.17-11.9,5.6c-3.27,3.44-4.9,7.54-4.9,12.3
		c0,4.74,1.63,8.84,4.9,12.3c3.23,3.44,7.2,5.3,11.9,5.6v0.1c-4.73-0.26-8.73-2.13-12-5.6c-3.3-3.43-4.95-7.55-4.95-12.35
		l0.15-20.25C403.526,314.44,409.126,312.21,415.456,311.97z"/>
	<path style="display:inline;" d="M425.456,340.02h4.55c-0.27,3.3-1.58,6.12-3.95,8.45c-2.33,2.37-5.15,3.67-8.45,3.9v-4.5
		c2.07-0.23,3.83-1.08,5.3-2.55C424.376,343.86,425.226,342.09,425.456,340.02z"/>
	<path style="display:inline;" d="M415.456,325.47v4.55c-2.03,0.24-3.78,1.09-5.25,2.55c-1.47,1.47-2.33,3.24-2.6,5.3h-4.5
		c0.27-3.3,1.57-6.11,3.9-8.45C409.336,327.06,412.156,325.74,415.456,325.47z"/>
	<path style="display:inline;" d="M416.556,343.42c-1.23,0-2.3-0.43-3.2-1.3c-0.87-0.86-1.3-1.93-1.3-3.2c0-1.23,0.43-2.3,1.3-3.2
		c0.9-0.86,1.97-1.3,3.2-1.3c1.27,0,2.33,0.44,3.2,1.3c0.87,0.9,1.3,1.97,1.3,3.2c0,1.27-0.43,2.34-1.3,3.2
		C418.886,342.99,417.826,343.42,416.556,343.42z"/>
	<path style="display:inline;" d="M434.506,340.02h9c-0.23,6.37-2.47,11.95-6.7,16.75l-19.2,0.15v-0.15c4.53-0.23,8.4-1.96,11.6-5.2
		C432.436,348.37,434.206,344.52,434.506,340.02z"/>
	<path style="display:inline;" d="M425.456,337.87c-0.23-2.06-1.08-3.83-2.55-5.3c-1.47-1.46-3.23-2.31-5.3-2.55v-18.05
		c7.03,0.27,13.03,2.9,18,7.9c5,4.97,7.63,10.97,7.9,18H425.456z"/>
	<path style="display:inline;fill:none;stroke:#000000;stroke-width:3;stroke-linecap:round;stroke-linejoin:round;" d="
		M306.627,280.055c-7.061,0-13.098,2.515-18.113,7.53c-4.972,4.972-7.458,10.996-7.458,18.042v25.571
		c0,7.061,2.486,13.099,7.458,18.113c5.015,4.972,11.053,7.458,18.113,7.458h25.571c7.061,0,13.07-2.486,18.042-7.458
		c5.015-5.015,7.529-11.052,7.529-18.113v-51.143H306.627z"/>
	<path style="display:inline;" d="M297.956,311.97v9c-4.7,0.3-8.67,2.17-11.9,5.6c-3.27,3.44-4.9,7.54-4.9,12.3
		c0,4.74,1.63,8.84,4.9,12.3c3.23,3.44,7.2,5.3,11.9,5.6v0.1c-4.73-0.26-8.73-2.13-12-5.6c-3.3-3.43-4.95-7.55-4.95-12.35
		l0.15-20.25C286.026,314.44,291.626,312.21,297.956,311.97z"/>
	<path style="display:inline;" d="M307.956,340.02h4.55c-0.27,3.3-1.58,6.12-3.95,8.45c-2.33,2.37-5.15,3.67-8.45,3.9v-4.5
		c2.07-0.23,3.83-1.08,5.3-2.55C306.876,343.86,307.726,342.09,307.956,340.02z"/>
	<path style="display:inline;" d="M297.956,325.47v4.55c-2.03,0.24-3.78,1.09-5.25,2.55c-1.47,1.47-2.33,3.24-2.6,5.3h-4.5
		c0.27-3.3,1.57-6.11,3.9-8.45C291.836,327.06,294.656,325.74,297.956,325.47z"/>
	<path style="display:inline;" d="M299.056,343.42c-1.23,0-2.3-0.43-3.2-1.3c-0.87-0.86-1.3-1.93-1.3-3.2c0-1.23,0.43-2.3,1.3-3.2
		c0.9-0.86,1.97-1.3,3.2-1.3c1.27,0,2.33,0.44,3.2,1.3c0.87,0.9,1.3,1.97,1.3,3.2c0,1.27-0.43,2.34-1.3,3.2
		C301.386,342.99,300.326,343.42,299.056,343.42z"/>
	<path style="display:inline;" d="M432.406,384.453v9c-4.7,0.3-8.67,2.17-11.9,5.6c-3.27,3.44-4.9,7.54-4.9,12.3
		c0,4.74-0.15,4.85-0.15,0.05l0.15-20.25C420.476,386.923,426.076,384.693,432.406,384.453z"/>
	<path style="display:inline;" d="M442.406,412.503h4.55c-0.27,3.3-1.58,6.12-3.95,8.45c-2.33,2.37-5.15,3.67-8.45,3.9v-4.5
		c2.07-0.23,3.83-1.08,5.3-2.55C441.326,416.343,442.176,414.573,442.406,412.503z"/>
	<path style="display:inline;" d="M432.406,397.953v4.55c-2.03,0.24-3.78,1.09-5.25,2.55c-1.47,1.47-2.33,3.24-2.6,5.3h-4.5
		c0.27-3.3,1.57-6.11,3.9-8.45C426.286,399.543,429.106,398.223,432.406,397.953z"/>
	<path style="display:inline;" d="M433.506,415.903c-1.23,0-2.3-0.43-3.2-1.3c-0.87-0.86-1.3-1.93-1.3-3.2c0-1.23,0.43-2.3,1.3-3.2
		c0.9-0.86,1.97-1.3,3.2-1.3c1.27,0,2.33,0.44,3.2,1.3c0.87,0.9,1.3,1.97,1.3,3.2c0,1.27-0.43,2.34-1.3,3.2
		C435.836,415.473,434.776,415.903,433.506,415.903z"/>
	<g style="display:inline;">
		<path d="M691.333,626.09h4.551c-0.271,3.301-1.58,6.12-3.951,8.45c-2.33,2.37-5.149,3.67-8.449,3.899v-4.5
			c2.07-0.229,3.83-1.08,5.3-2.549C690.253,629.93,691.103,628.161,691.333,626.09z"/>
		<path d="M681.333,611.541v4.55c-2.029,0.24-3.779,1.09-5.25,2.551c-1.47,1.469-2.33,3.239-2.6,5.299h-4.5
			c0.27-3.299,1.57-6.109,3.9-8.449C675.214,613.13,678.034,611.811,681.333,611.541z"/>
		<path d="M682.433,629.491c-1.229,0-2.299-0.43-3.199-1.301c-0.87-0.859-1.301-1.93-1.301-3.199c0-1.23,0.431-2.301,1.301-3.2
			c0.9-0.86,1.97-1.3,3.199-1.3c1.271,0,2.33,0.439,3.201,1.3c0.869,0.899,1.299,1.97,1.299,3.2c0,1.27-0.43,2.34-1.299,3.199
			C684.763,629.061,683.704,629.491,682.433,629.491z"/>
		<path d="M700.384,626.09h9c-0.23,6.37-2.471,11.95-6.701,16.75l-19.199,0.15v-0.15c4.529-0.23,8.4-1.96,11.6-5.199
			C698.314,634.44,700.083,630.59,700.384,626.09z"/>
		<path d="M669.784,612.34c-3.239,3.199-4.97,7.07-5.2,11.6h-0.149l0.149-19.199c4.801-4.23,10.381-6.471,16.75-6.701v9
			C676.833,607.34,672.984,609.11,669.784,612.34z"/>
		<path d="M691.333,623.94c-0.23-2.06-1.08-3.83-2.55-5.299c-1.47-1.461-3.229-2.311-5.3-2.551v-18.05
			c7.029,0.271,13.029,2.899,18,7.899c5,4.971,7.631,10.971,7.9,18H691.333z"/>
	</g>
	<path style="display:inline;" d="M673.509,623.916h-4.551c0.271-3.301,1.58-6.12,3.951-8.45c2.33-2.37,5.149-3.67,8.449-3.9v4.5
		c-2.07,0.23-3.83,1.08-5.3,2.55C674.589,620.076,673.74,621.845,673.509,623.916z"/>
	<path style="display:inline;" d="M683.509,638.465v-4.55c2.029-0.24,3.779-1.09,5.25-2.551c1.47-1.47,2.33-3.239,2.6-5.3h4.5
		c-0.27,3.3-1.57,6.11-3.9,8.45C689.628,636.875,686.809,638.195,683.509,638.465z"/>
	<path style="display:inline;" d="M682.41,620.515c1.229,0,2.299,0.43,3.199,1.3c0.87,0.86,1.301,1.931,1.301,3.2
		c0,1.23-0.431,2.3-1.301,3.2c-0.9,0.86-1.97,1.3-3.199,1.3c-1.271,0-2.33-0.439-3.201-1.3c-0.869-0.9-1.299-1.97-1.299-3.2
		c0-1.27,0.43-2.34,1.299-3.2C680.08,620.945,681.139,620.515,682.41,620.515z"/>
	<path style="display:inline;" d="M664.458,623.916h-9c0.23-6.37,2.471-11.95,6.701-16.75l19.199-0.15v0.15
		c-4.529,0.229-8.4,1.96-11.6,5.199C666.529,615.565,664.759,619.416,664.458,623.916z"/>
	<path style="display:inline;" d="M695.059,637.665c3.239-3.199,4.97-7.07,5.2-11.6h0.149l-0.149,19.199
		c-4.801,4.23-10.381,6.471-16.75,6.701v-9C688.009,642.665,691.859,640.895,695.059,637.665z"/>
	<path style="display:inline;" d="M655.458,626.065v25.9h25.9c-7.029-0.271-13.029-2.9-18-7.9
		C658.359,639.095,655.728,633.095,655.458,626.065z"/>
	<g style="display:inline;">
		<path d="M666.632,187.59h4.551c-0.271,3.301-1.58,6.12-3.951,8.45c-2.33,2.37-5.149,3.67-8.449,3.899v-4.5
			c2.07-0.229,3.83-1.08,5.3-2.549C665.552,191.43,666.402,189.661,666.632,187.59z"/>
		<path d="M656.632,173.041v4.55c-2.029,0.24-3.779,1.09-5.25,2.551c-1.47,1.469-2.33,3.239-2.6,5.299h-4.5
			c0.27-3.299,1.57-6.109,3.9-8.449C650.513,174.63,653.333,173.311,656.632,173.041z"/>
		<path d="M657.732,190.991c-1.229,0-2.299-0.43-3.199-1.301c-0.87-0.859-1.301-1.93-1.301-3.199c0-1.23,0.431-2.301,1.301-3.2
			c0.9-0.86,1.97-1.3,3.199-1.3c1.271,0,2.33,0.439,3.201,1.3c0.869,0.899,1.299,1.97,1.299,3.2c0,1.27-0.43,2.34-1.299,3.199
			C660.062,190.561,659.002,190.991,657.732,190.991z"/>
		<path d="M675.683,187.59h9c-0.23,6.37-2.471,11.95-6.701,16.75l-19.199,0.15v-0.15c4.529-0.23,8.4-1.96,11.6-5.199
			C673.613,195.94,675.382,192.09,675.683,187.59z"/>
		<path d="M645.083,173.84c-3.239,3.199-4.97,7.07-5.2,11.6h-0.149l0.149-19.199c4.801-4.23,10.381-6.471,16.75-6.701v9
			C652.132,168.84,648.283,170.61,645.083,173.84z"/>
		<path d="M666.632,185.44c-0.23-2.06-1.08-3.83-2.55-5.299c-1.47-1.461-3.229-2.311-5.3-2.551v-18.05
			c7.029,0.271,13.029,2.899,18,7.899c5,4.971,7.631,10.971,7.9,18H666.632z"/>
	</g>
	<path style="display:inline;" d="M648.808,185.416h-4.551c0.271-3.301,1.58-6.12,3.951-8.45c2.33-2.37,5.149-3.67,8.449-3.9v4.5
		c-2.07,0.23-3.83,1.08-5.3,2.55C649.888,181.576,649.039,183.345,648.808,185.416z"/>
	<path style="display:inline;" d="M658.808,199.965v-4.55c2.029-0.24,3.779-1.09,5.25-2.551c1.47-1.47,2.33-3.239,2.6-5.3h4.5
		c-0.27,3.3-1.57,6.11-3.9,8.45C664.927,198.375,662.108,199.695,658.808,199.965z"/>
	<path style="display:inline;" d="M657.708,182.015c1.229,0,2.299,0.43,3.199,1.3c0.87,0.86,1.301,1.931,1.301,3.2
		c0,1.23-0.431,2.3-1.301,3.2c-0.9,0.86-1.97,1.3-3.199,1.3c-1.271,0-2.33-0.439-3.201-1.3c-0.869-0.9-1.299-1.97-1.299-3.2
		c0-1.27,0.43-2.34,1.299-3.2C655.378,182.445,656.438,182.015,657.708,182.015z"/>
	<path style="display:inline;" d="M639.757,185.416h-9c0.23-6.37,2.471-11.95,6.701-16.75l19.199-0.15v0.15
		c-4.529,0.229-8.4,1.96-11.6,5.199C641.828,177.065,640.058,180.916,639.757,185.416z"/>
	<path style="display:inline;" d="M670.358,199.165c3.239-3.199,4.97-7.07,5.2-11.6h0.149l-0.149,19.199
		c-4.801,4.23-10.381,6.471-16.75,6.701v-9C663.308,204.165,667.158,202.395,670.358,199.165z"/>
	<g style="display:inline;">
		<path d="M521.42,412.503h4.551c-0.271,3.3-1.58,6.12-3.951,8.45c-2.33,2.37-5.149,3.67-8.449,3.9v-4.5
			c2.07-0.23,3.83-1.08,5.3-2.55C520.34,416.343,521.19,414.573,521.42,412.503z"/>
		<path d="M511.421,397.953v4.55c-2.03,0.24-3.78,1.09-5.25,2.55c-1.47,1.47-2.33,3.24-2.6,5.3h-4.5c0.27-3.3,1.57-6.11,3.9-8.45
			C505.301,399.543,508.121,398.223,511.421,397.953z"/>
		<path d="M512.521,415.903c-1.23,0-2.3-0.43-3.2-1.3c-0.87-0.86-1.3-1.93-1.3-3.2c0-1.23,0.43-2.3,1.3-3.2
			c0.9-0.86,1.97-1.3,3.2-1.3c1.27,0,2.33,0.44,3.201,1.3c0.869,0.9,1.299,1.97,1.299,3.2c0,1.27-0.43,2.34-1.299,3.2
			C514.85,415.473,513.791,415.903,512.521,415.903z"/>
		<path d="M530.471,412.503h9c-0.23,6.37-2.471,11.95-6.701,16.75l-19.199,0.15v-0.15c4.529-0.23,8.4-1.96,11.6-5.2
			C528.401,420.853,530.17,417.003,530.471,412.503z"/>
		<path d="M499.871,398.753c-3.24,3.199-4.97,7.07-5.2,11.6h-0.15l0.15-19.199c4.8-4.23,10.38-6.471,16.75-6.701v9
			C506.921,393.753,503.071,395.523,499.871,398.753z"/>
		<path d="M521.42,410.353c-0.23-2.06-1.08-3.83-2.55-5.3c-1.47-1.46-3.229-2.31-5.3-2.55v-18.05c7.029,0.27,13.029,2.9,18,7.9
			c5,4.97,7.631,10.97,7.9,18H521.42z"/>
	</g>
	<g style="display:inline;">
		<path d="M454.72,184.963h4.551c-0.271,3.3-1.58,6.12-3.951,8.45c-2.33,2.37-5.149,3.67-8.449,3.9v-4.5
			c2.07-0.23,3.83-1.08,5.3-2.55C453.64,188.803,454.49,187.033,454.72,184.963z"/>
		<path d="M444.721,170.413v4.55c-2.03,0.24-3.78,1.09-5.25,2.55c-1.47,1.47-2.33,3.24-2.6,5.3h-4.5c0.27-3.3,1.57-6.11,3.9-8.45
			C438.601,172.003,441.42,170.683,444.721,170.413z"/>
		<path d="M445.82,188.363c-1.23,0-2.3-0.43-3.2-1.3c-0.87-0.86-1.3-1.93-1.3-3.2c0-1.23,0.43-2.3,1.3-3.2
			c0.9-0.86,1.97-1.3,3.2-1.3c1.27,0,2.33,0.44,3.201,1.3c0.869,0.9,1.299,1.97,1.299,3.2c0,1.27-0.43,2.34-1.299,3.2
			C448.15,187.933,447.09,188.363,445.82,188.363z"/>
		<path d="M463.771,184.963h9c-0.23,6.37-2.471,11.95-6.701,16.75l-19.199,0.15v-0.15c4.529-0.23,8.4-1.96,11.6-5.2
			C461.701,193.313,463.47,189.463,463.771,184.963z"/>
		<path d="M433.17,171.213c-3.24,3.199-4.97,7.07-5.2,11.6h-0.15l0.15-19.199c4.8-4.23,10.38-6.471,16.75-6.701v9
			C440.221,166.213,436.371,167.983,433.17,171.213z"/>
		<path d="M454.72,182.813c-0.23-2.06-1.08-3.83-2.55-5.3c-1.47-1.46-3.229-2.31-5.3-2.55v-18.05c7.029,0.27,13.029,2.9,18,7.9
			c5,4.97,7.631,10.97,7.9,18H454.72z"/>
	</g>
	<path style="display:inline;" d="M630.757,187.565v25.9h25.9c-7.029-0.271-13.029-2.9-18-7.9
		C633.658,200.595,631.027,194.595,630.757,187.565z"/>
	<path style="display:inline;" d="M420.42,183.565v25.9h25.9c-7.029-0.271-13.029-2.9-18-7.9
		C423.321,196.595,420.69,190.595,420.42,183.565z"/>
	<g style="display:inline;">
		<path d="M548.395,257.964h4.551c-0.271,3.301-1.58,6.12-3.951,8.45c-2.33,2.37-5.149,3.67-8.449,3.899v-4.5
			c2.07-0.229,3.83-1.08,5.3-2.549C547.315,261.804,548.165,260.034,548.395,257.964z"/>
		<path d="M538.395,243.414v4.55c-2.029,0.24-3.779,1.09-5.25,2.551c-1.47,1.469-2.33,3.239-2.6,5.299h-4.5
			c0.27-3.299,1.57-6.109,3.9-8.449C532.276,245.004,535.095,243.684,538.395,243.414z"/>
		<path d="M539.495,261.364c-1.229,0-2.299-0.43-3.199-1.301c-0.87-0.859-1.301-1.93-1.301-3.199c0-1.23,0.431-2.301,1.301-3.2
			c0.9-0.86,1.97-1.3,3.199-1.3c1.271,0,2.33,0.439,3.201,1.3c0.869,0.899,1.299,1.97,1.299,3.2c0,1.27-0.43,2.34-1.299,3.199
			C541.825,260.935,540.765,261.364,539.495,261.364z"/>
		<path d="M557.446,257.964h9c-0.23,6.37-2.471,11.95-6.701,16.75l-19.199,0.15v-0.15c4.529-0.23,8.4-1.96,11.6-5.199
			C555.375,266.313,557.145,262.464,557.446,257.964z"/>
		<path d="M526.845,244.214c-3.239,3.199-4.97,7.07-5.2,11.599h-0.149l0.149-19.199c4.801-4.23,10.381-6.471,16.75-6.701v9
			C533.895,239.214,530.045,240.984,526.845,244.214z"/>
		<path d="M548.395,255.813c-0.23-2.06-1.08-3.83-2.55-5.299c-1.47-1.461-3.229-2.311-5.3-2.551v-18.05
			c7.029,0.27,13.029,2.9,18,7.9c5,4.97,7.631,10.97,7.9,18H548.395z"/>
	</g>
	<path style="display:inline;" d="M530.571,255.789h-4.551c0.271-3.301,1.58-6.12,3.951-8.45c2.33-2.37,5.149-3.67,8.449-3.9v4.5
		c-2.07,0.23-3.83,1.08-5.3,2.55C531.651,251.949,530.801,253.719,530.571,255.789z"/>
	<path style="display:inline;" d="M540.571,270.339v-4.55c2.029-0.24,3.779-1.09,5.25-2.551c1.47-1.47,2.33-3.239,2.6-5.3h4.5
		c-0.27,3.3-1.57,6.11-3.9,8.45C546.69,268.749,543.871,270.068,540.571,270.339z"/>
	<path style="display:inline;" d="M539.471,252.389c1.229,0,2.299,0.43,3.199,1.3c0.87,0.86,1.301,1.931,1.301,3.2
		c0,1.23-0.431,2.3-1.301,3.2c-0.9,0.86-1.97,1.3-3.199,1.3c-1.271,0-2.33-0.439-3.201-1.3c-0.869-0.9-1.299-1.97-1.299-3.2
		c0-1.27,0.43-2.34,1.299-3.2C537.141,252.818,538.201,252.389,539.471,252.389z"/>
	<path style="display:inline;" d="M521.52,255.789h-9c0.23-6.37,2.471-11.95,6.701-16.75l19.199-0.15v0.15
		c-4.529,0.229-8.4,1.96-11.6,5.199C523.59,247.438,521.821,251.289,521.52,255.789z"/>
	<path style="display:inline;" d="M552.121,269.538c3.239-3.199,4.97-7.07,5.2-11.6h0.149l-0.149,19.199
		c-4.801,4.23-10.381,6.471-16.75,6.701v-9C545.071,274.538,548.92,272.769,552.121,269.538z"/>
	<path style="display:inline;" d="M530.571,257.938c0.23,2.061,1.08,3.83,2.55,5.3c1.47,1.461,3.229,2.311,5.3,2.551v18.05
		c-7.029-0.271-13.029-2.9-18-7.9c-5-4.97-7.631-10.97-7.9-18H530.571z"/>
	<path style="display:inline;" d="M451.456,412.503h9c-0.23,6.37-2.47,11.95-6.7,16.75l-19.2,0.15v-0.15
		c4.53-0.23,8.4-1.96,11.6-5.2C449.386,420.853,451.156,417.003,451.456,412.503z"/>
	<g style="display:inline;">
		<path d="M707.667,413.851h4.551c-0.271,3.3-1.58,6.12-3.951,8.45c-2.33,2.37-5.149,3.67-8.449,3.9v-4.5
			c2.07-0.23,3.83-1.08,5.3-2.55C706.587,417.69,707.437,415.92,707.667,413.851z"/>
		<path d="M697.667,399.301v4.55c-2.029,0.24-3.779,1.09-5.25,2.55c-1.47,1.47-2.33,3.24-2.6,5.3h-4.5c0.27-3.3,1.57-6.11,3.9-8.45
			C691.548,400.891,694.368,399.571,697.667,399.301z"/>
		<path d="M698.767,417.25c-1.229,0-2.299-0.43-3.199-1.3c-0.87-0.86-1.301-1.93-1.301-3.2c0-1.23,0.431-2.3,1.301-3.2
			c0.9-0.86,1.97-1.3,3.199-1.3c1.271,0,2.33,0.44,3.201,1.3c0.869,0.9,1.299,1.97,1.299,3.2c0,1.27-0.43,2.34-1.299,3.2
			C701.097,416.821,700.038,417.25,698.767,417.25z"/>
		<path d="M716.718,413.851h9c-0.23,6.37-2.471,11.95-6.701,16.75l-19.199,0.15v-0.15c4.529-0.23,8.4-1.96,11.6-5.2
			C714.648,422.201,716.417,418.351,716.718,413.851z"/>
		<path d="M686.118,400.101c-3.239,3.199-4.97,7.07-5.2,11.6h-0.149l0.149-19.199c4.801-4.23,10.381-6.471,16.75-6.701v9
			C693.167,395.101,689.318,396.871,686.118,400.101z"/>
		<path d="M707.667,411.701c-0.23-2.06-1.08-3.83-2.55-5.3c-1.47-1.46-3.229-2.31-5.3-2.55v-18.05c7.029,0.27,13.029,2.9,18,7.9
			c5,4.97,7.631,10.97,7.9,18H707.667z"/>
	</g>
	<path style="display:inline;" d="M442.406,410.353c-0.23-2.06-1.08-3.83-2.55-5.3c-1.47-1.46-3.23-2.31-5.3-2.55v-18.05
		c7.03,0.27,13.03,2.9,18,7.9c5,4.97,7.63,10.97,7.9,18H442.406z"/>
	<path style="display:inline;" d="M317.006,340.02h9c-0.23,6.37-2.47,11.95-6.7,16.75l-19.2,0.15v-0.15c4.53-0.23,8.4-1.96,11.6-5.2
		C314.936,348.37,316.706,344.52,317.006,340.02z"/>
	<path style="display:inline;" d="M307.956,337.87c-0.23-2.06-1.08-3.83-2.55-5.3c-1.47-1.46-3.23-2.31-5.3-2.55v-18.05
		c7.03,0.27,13.03,2.9,18,7.9c5,4.97,7.63,10.97,7.9,18H307.956z"/>
	<path style="display:inline;fill:none;stroke:#000000;stroke-miterlimit:10;" d="M515.891,312.499c-4.967,0-9.217,1.767-12.75,5.3
		c-3.5,3.5-5.25,7.733-5.25,12.7v18c0,4.967,1.75,9.217,5.25,12.75c3.533,3.5,7.783,5.25,12.75,5.25h18
		c4.967,0,9.199-1.75,12.699-5.25c3.533-3.533,5.301-7.783,5.301-12.75v-36H515.891z"/>
	<path style="display:inline;fill:none;stroke:#000000;stroke-miterlimit:10;" d="M514.791,321.699v9
		c-4.7,0.3-8.667,2.167-11.899,5.6c-3.268,3.434-4.9,7.534-4.9,12.3c0,4.734,1.633,8.834,4.9,12.301
		c3.232,3.434,7.199,5.299,11.899,5.6v0.1c-4.733-0.266-8.733-2.133-12-5.6c-3.3-3.434-4.95-7.551-4.95-12.35l0.15-20.25
		C502.858,324.166,508.458,321.932,514.791,321.699z"/>
	<path style="display:inline;fill:none;stroke:#000000;stroke-miterlimit:10;" d="M524.791,349.749h4.55
		c-0.266,3.301-1.584,6.117-3.949,8.449c-2.334,2.367-5.15,3.668-8.451,3.9v-4.5c2.067-0.232,3.834-1.084,5.301-2.549
		C523.708,353.583,524.557,351.815,524.791,349.749z"/>
	<path style="display:inline;fill:none;stroke:#000000;stroke-miterlimit:10;" d="M514.791,335.199v4.55
		c-2.033,0.233-3.783,1.084-5.25,2.551c-1.466,1.465-2.333,3.232-2.601,5.299h-4.5c0.268-3.299,1.567-6.117,3.9-8.45
		C508.674,336.782,511.491,335.466,514.791,335.199z"/>
	<path style="display:inline;fill:none;stroke:#000000;stroke-miterlimit:10;" d="M515.891,353.149
		c-1.234,0-2.301-0.434-3.201-1.301c-0.865-0.867-1.299-1.934-1.299-3.199c0-1.234,0.434-2.301,1.299-3.201
		c0.9-0.865,1.967-1.299,3.201-1.299c1.266,0,2.333,0.434,3.199,1.299c0.867,0.9,1.301,1.967,1.301,3.201
		c0,1.266-0.434,2.332-1.301,3.199C518.224,352.716,517.157,353.149,515.891,353.149z"/>
	<path style="display:inline;fill:none;stroke:#000000;stroke-miterlimit:10;" d="M533.84,349.749h9
		c-0.232,6.367-2.467,11.949-6.699,16.75l-19.201,0.15v-0.15c4.534-0.234,8.4-1.967,11.602-5.199
		C531.774,358.099,533.542,354.249,533.84,349.749z"/>
	<path style="display:inline;fill:none;stroke:#000000;stroke-miterlimit:10;" d="M524.791,347.599
		c-0.233-2.066-1.083-3.834-2.55-5.299c-1.467-1.467-3.233-2.317-5.301-2.551v-18.05c7.034,0.267,13.033,2.9,18,7.9
		c5,4.966,7.635,10.966,7.9,18H524.791z"/>
	<path style="display:inline;" d="M635.189,409.301h4.551c-0.271,3.3-1.58,6.12-3.951,8.45c-2.33,2.37-5.149,3.67-8.449,3.9v-4.5
		c2.07-0.23,3.83-1.08,5.3-2.55C634.109,413.141,634.958,411.371,635.189,409.301z M625.189,394.751v4.55
		c-2.029,0.24-3.779,1.09-5.25,2.55c-1.47,1.47-2.33,3.24-2.6,5.3h-4.5c0.27-3.3,1.57-6.11,3.9-8.45
		C619.07,396.341,621.889,395.021,625.189,394.751z M626.289,412.701c-1.229,0-2.299-0.43-3.199-1.3
		c-0.87-0.86-1.301-1.93-1.301-3.2c0-1.23,0.431-2.3,1.301-3.2c0.9-0.86,1.97-1.3,3.199-1.3c1.271,0,2.33,0.44,3.201,1.3
		c0.869,0.9,1.299,1.97,1.299,3.2c0,1.27-0.43,2.34-1.299,3.2C628.619,412.271,627.559,412.701,626.289,412.701z M644.24,409.301h9
		c-0.23,6.37-2.471,11.95-6.701,16.75l-19.199,0.15v-0.15c4.529-0.23,8.4-1.96,11.6-5.2
		C642.169,417.651,643.939,413.801,644.24,409.301z M613.639,395.551c-3.239,3.199-4.97,7.07-5.2,11.6h-0.149l0.149-19.199
		c4.801-4.23,10.381-6.471,16.75-6.701v9C620.689,390.551,616.839,392.321,613.639,395.551z M635.189,407.151
		c-0.23-2.06-1.08-3.83-2.55-5.3c-1.47-1.46-3.229-2.31-5.3-2.55v-18.05c7.029,0.27,13.029,2.9,18,7.9c5,4.97,7.631,10.97,7.9,18
		H635.189z"/>
	<path style="display:inline;" d="M635.189,283.967h4.551c-0.271,3.3-1.58,6.12-3.951,8.45c-2.33,2.37-5.149,3.67-8.449,3.9v-4.5
		c2.07-0.23,3.83-1.08,5.3-2.55C634.109,287.807,634.958,286.037,635.189,283.967z"/>
	<path style="display:inline;" d="M625.189,269.417v4.55c-2.029,0.24-3.779,1.09-5.25,2.55c-1.47,1.47-2.33,3.24-2.6,5.3h-4.5
		c0.27-3.3,1.57-6.11,3.9-8.45C619.07,271.007,621.889,269.688,625.189,269.417z"/>
	<path style="display:inline;" d="M626.289,287.367c-1.229,0-2.299-0.43-3.199-1.3c-0.87-0.86-1.301-1.93-1.301-3.2
		c0-1.23,0.431-2.3,1.301-3.2c0.9-0.86,1.97-1.3,3.199-1.3c1.271,0,2.33,0.44,3.201,1.3c0.869,0.9,1.299,1.97,1.299,3.2
		c0,1.27-0.43,2.34-1.299,3.2C628.619,286.938,627.559,287.367,626.289,287.367z"/>
	<path style="display:inline;" d="M635.189,281.817c-0.23-2.06-1.08-3.83-2.55-5.3c-1.47-1.46-3.229-2.31-5.3-2.55v-18.05
		c7.029,0.27,13.029,2.9,18,7.9c5,4.97,7.631,10.97,7.9,18H635.189z"/>
	<path style="display:inline;" d="M730.34,275.968v-4.551c3.3,0.271,6.119,1.58,8.449,3.951c2.37,2.33,3.67,5.149,3.9,8.449h-4.5
		c-0.23-2.07-1.08-3.83-2.55-5.3C734.18,277.048,732.41,276.198,730.34,275.968z M715.79,285.968h4.551
		c0.24,2.029,1.09,3.779,2.55,5.25c1.47,1.47,3.239,2.33,5.3,2.6v4.5c-3.3-0.27-6.109-1.57-8.45-3.9
		C717.379,292.087,716.06,289.268,715.79,285.968z M733.74,284.868c0,1.229-0.43,2.299-1.3,3.199c-0.859,0.87-1.93,1.301-3.2,1.301
		c-1.229,0-2.3-0.431-3.2-1.301c-0.859-0.9-1.3-1.97-1.3-3.199c0-1.271,0.44-2.33,1.3-3.201c0.9-0.869,1.971-1.299,3.2-1.299
		c1.271,0,2.341,0.43,3.2,1.299C733.31,282.538,733.74,283.598,733.74,284.868z M730.34,266.917v-9
		c6.369,0.23,11.949,2.471,16.75,6.701l0.149,19.199h-0.149c-0.23-4.529-1.961-8.4-5.2-11.6
		C738.69,268.987,734.84,267.218,730.34,266.917z M716.59,297.518c3.199,3.239,7.07,4.97,11.6,5.2v0.149l-19.199-0.149
		c-4.23-4.801-6.471-10.381-6.701-16.75h9C711.59,290.468,713.36,294.317,716.59,297.518z M728.19,275.968
		c-2.061,0.23-3.83,1.08-5.3,2.55c-1.46,1.47-2.31,3.229-2.55,5.3H702.29c0.271-7.029,2.9-13.029,7.9-18c4.97-5,10.97-7.631,18-7.9
		V275.968z"/>
	<g style="display:inline;">
		<path d="M691.333,526.59h4.551c-0.271,3.301-1.58,6.12-3.951,8.45c-2.33,2.37-5.149,3.67-8.449,3.899v-4.5
			c2.07-0.229,3.83-1.08,5.3-2.549C690.253,530.43,691.103,528.661,691.333,526.59z"/>
		<path d="M681.333,512.041v4.55c-2.029,0.24-3.779,1.09-5.25,2.551c-1.47,1.469-2.33,3.239-2.6,5.299h-4.5
			c0.27-3.299,1.57-6.109,3.9-8.449C675.214,513.63,678.034,512.311,681.333,512.041z"/>
		<path d="M682.433,529.991c-1.229,0-2.299-0.43-3.199-1.301c-0.87-0.859-1.301-1.93-1.301-3.199c0-1.23,0.431-2.301,1.301-3.2
			c0.9-0.86,1.97-1.3,3.199-1.3c1.271,0,2.33,0.439,3.201,1.3c0.869,0.899,1.299,1.97,1.299,3.2c0,1.27-0.43,2.34-1.299,3.199
			C684.763,529.561,683.704,529.991,682.433,529.991z"/>
		<path d="M700.384,526.59h9c-0.23,6.37-2.471,11.95-6.701,16.75l-19.199,0.15v-0.15c4.529-0.23,8.4-1.96,11.6-5.199
			C698.314,534.94,700.083,531.09,700.384,526.59z"/>
		<path d="M669.784,512.84c-3.239,3.199-4.97,7.07-5.2,11.6h-0.149l0.149-19.199c4.801-4.23,10.381-6.471,16.75-6.701v9
			C676.833,507.84,672.984,509.61,669.784,512.84z"/>
		<path d="M691.333,524.44c-0.23-2.06-1.08-3.83-2.55-5.299c-1.47-1.461-3.229-2.311-5.3-2.551v-18.05
			c7.029,0.271,13.029,2.899,18,7.899c5,4.971,7.631,10.971,7.9,18H691.333z"/>
	</g>
	<path style="display:inline;" d="M673.509,524.416h-4.551c0.271-3.301,1.58-6.12,3.951-8.45c2.33-2.37,5.149-3.67,8.449-3.9v4.5
		c-2.07,0.23-3.83,1.08-5.3,2.55C674.589,520.576,673.74,522.345,673.509,524.416z"/>
	<path style="display:inline;" d="M683.509,538.965v-4.55c2.029-0.24,3.779-1.09,5.25-2.551c1.47-1.47,2.33-3.239,2.6-5.3h4.5
		c-0.27,3.3-1.57,6.11-3.9,8.45C689.628,537.375,686.809,538.695,683.509,538.965z"/>
	<path style="display:inline;" d="M682.41,521.015c1.229,0,2.299,0.43,3.199,1.3c0.87,0.86,1.301,1.931,1.301,3.2
		c0,1.23-0.431,2.3-1.301,3.2c-0.9,0.86-1.97,1.3-3.199,1.3c-1.271,0-2.33-0.439-3.201-1.3c-0.869-0.9-1.299-1.97-1.299-3.2
		c0-1.27,0.43-2.34,1.299-3.2C680.08,521.445,681.139,521.015,682.41,521.015z"/>
	<path style="display:inline;" d="M664.458,524.416h-9c0.23-6.37,2.471-11.95,6.701-16.75l19.199-0.15v0.15
		c-4.529,0.229-8.4,1.96-11.6,5.199C666.529,516.065,664.759,519.916,664.458,524.416z"/>
	<path style="display:inline;" d="M695.059,538.165c3.239-3.199,4.97-7.07,5.2-11.6h0.149l-0.149,19.199
		c-4.801,4.23-10.381,6.471-16.75,6.701v-9C688.009,543.165,691.859,541.395,695.059,538.165z"/>
	<path style="display:inline;" d="M673.509,526.565c0.23,2.061,1.08,3.83,2.55,5.3c1.47,1.461,3.229,2.311,5.3,2.551v18.05
		c-7.029-0.271-13.029-2.9-18-7.9c-5-4.97-7.631-10.97-7.9-18H673.509z"/>
	
		<rect x="655.458" y="498.54" style="display:inline;fill:none;stroke:#000000;stroke-miterlimit:10;" width="53.925" height="53.926"/>
	
		<rect x="680.768" y="385.801" style="display:inline;fill:none;stroke:#000000;stroke-miterlimit:10;" width="44.95" height="44.95"/>
	<g style="display:inline;">
		<path d="M803.132,187.59h4.551c-0.271,3.301-1.58,6.12-3.951,8.45c-2.33,2.37-5.149,3.67-8.449,3.899v-4.5
			c2.07-0.229,3.83-1.08,5.3-2.549C802.052,191.43,802.902,189.661,803.132,187.59z"/>
		<path d="M793.132,173.041v4.55c-2.029,0.24-3.779,1.09-5.25,2.551c-1.47,1.469-2.33,3.239-2.6,5.299h-4.5
			c0.27-3.299,1.57-6.109,3.9-8.449C787.013,174.63,789.833,173.311,793.132,173.041z"/>
		<path d="M794.232,190.991c-1.229,0-2.299-0.43-3.199-1.301c-0.87-0.859-1.301-1.93-1.301-3.199c0-1.23,0.431-2.301,1.301-3.2
			c0.9-0.86,1.97-1.3,3.199-1.3c1.271,0,2.33,0.439,3.201,1.3c0.869,0.899,1.299,1.97,1.299,3.2c0,1.27-0.43,2.34-1.299,3.199
			C796.562,190.561,795.502,190.991,794.232,190.991z"/>
		<path d="M812.183,187.59h9c-0.23,6.37-2.471,11.95-6.701,16.75l-19.199,0.15v-0.15c4.529-0.23,8.4-1.96,11.6-5.199
			C810.113,195.94,811.882,192.09,812.183,187.59z"/>
		<path d="M781.583,173.84c-3.239,3.199-4.97,7.07-5.2,11.6h-0.149l0.149-19.199c4.801-4.23,10.381-6.471,16.75-6.701v9
			C788.632,168.84,784.783,170.61,781.583,173.84z"/>
		<path d="M803.132,185.44c-0.23-2.06-1.08-3.83-2.55-5.299c-1.47-1.461-3.229-2.311-5.3-2.551v-18.05
			c7.029,0.271,13.029,2.899,18,7.899c5,4.971,7.631,10.971,7.9,18H803.132z"/>
	</g>
	<path style="display:inline;" d="M785.308,185.416h-4.551c0.271-3.301,1.58-6.12,3.951-8.45c2.33-2.37,5.149-3.67,8.449-3.9v4.5
		c-2.07,0.23-3.83,1.08-5.3,2.55C786.388,181.576,785.539,183.345,785.308,185.416z"/>
	<path style="display:inline;" d="M795.308,199.965v-4.55c2.029-0.24,3.779-1.09,5.25-2.551c1.47-1.47,2.33-3.239,2.6-5.3h4.5
		c-0.27,3.3-1.57,6.11-3.9,8.45C801.427,198.375,798.608,199.695,795.308,199.965z"/>
	<path style="display:inline;" d="M794.208,182.015c1.229,0,2.299,0.43,3.199,1.3c0.87,0.86,1.301,1.931,1.301,3.2
		c0,1.23-0.431,2.3-1.301,3.2c-0.9,0.86-1.97,1.3-3.199,1.3c-1.271,0-2.33-0.439-3.201-1.3c-0.869-0.9-1.299-1.97-1.299-3.2
		c0-1.27,0.43-2.34,1.299-3.2C791.878,182.445,792.938,182.015,794.208,182.015z"/>
	<path style="display:inline;" d="M776.257,185.416h-9c0.23-6.37,2.471-11.95,6.701-16.75l19.199-0.15v0.15
		c-4.529,0.229-8.4,1.96-11.6,5.199C778.328,177.065,776.558,180.916,776.257,185.416z"/>
	<path style="display:inline;" d="M806.858,199.165c3.239-3.199,4.97-7.07,5.2-11.6h0.149l-0.149,19.199
		c-4.801,4.23-10.381,6.471-16.75,6.701v-9C799.808,204.165,803.658,202.395,806.858,199.165z"/>
	<path style="display:inline;" d="M767.257,187.565v25.9h25.9c-7.029-0.271-13.029-2.9-18-7.9
		C770.158,200.595,767.527,194.595,767.257,187.565z"/>
	<g style="display:inline;">
		<path d="M793.132,159.567c-14.383,0.572-25.868,12.403-25.875,26.923h9.063c0.007-9.513,7.439-17.268,16.812-17.833V159.567z"/>
		<path d="M812.066,187.59c-0.565,9.373-8.321,16.806-17.834,16.812v9.063c14.52-0.006,26.353-11.492,26.924-25.875H812.066z"/>
	</g>
	<g style="display:inline;">
		<path d="M574.044,147.056h4.551c-0.271,3.301-1.58,6.12-3.951,8.45c-2.33,2.37-5.149,3.67-8.449,3.899v-4.5
			c2.07-0.229,3.83-1.08,5.3-2.549C572.964,150.896,573.814,149.126,574.044,147.056z"/>
		<path d="M564.044,132.506v4.55c-2.029,0.24-3.779,1.09-5.25,2.551c-1.47,1.469-2.33,3.239-2.6,5.299h-4.5
			c0.27-3.299,1.57-6.109,3.9-8.449C557.925,134.096,560.745,132.776,564.044,132.506z"/>
		<path d="M565.144,150.456c-1.229,0-2.299-0.43-3.199-1.301c-0.87-0.859-1.301-1.93-1.301-3.199c0-1.23,0.431-2.301,1.301-3.2
			c0.9-0.86,1.97-1.3,3.199-1.3c1.271,0,2.33,0.439,3.201,1.3c0.869,0.899,1.299,1.97,1.299,3.2c0,1.27-0.43,2.34-1.299,3.199
			C567.474,150.026,566.415,150.456,565.144,150.456z"/>
		<path d="M583.095,147.056h9c-0.23,6.37-2.471,11.95-6.701,16.75l-19.199,0.15v-0.15c4.529-0.23,8.4-1.96,11.6-5.199
			C581.025,155.405,582.794,151.556,583.095,147.056z"/>
		<path d="M552.495,133.306c-3.239,3.199-4.97,7.07-5.2,11.6h-0.149l0.149-19.199c4.801-4.23,10.381-6.471,16.75-6.701v9
			C559.544,128.306,555.695,130.075,552.495,133.306z"/>
		<path d="M574.044,144.905c-0.23-2.06-1.08-3.83-2.55-5.299c-1.47-1.461-3.229-2.311-5.3-2.551v-18.05
			c7.029,0.271,13.029,2.899,18,7.899c5,4.971,7.631,10.971,7.9,18H574.044z"/>
	</g>
	<g style="display:inline;">
		<path d="M556.22,144.881h-4.551c0.271-3.301,1.58-6.12,3.951-8.45c2.33-2.37,5.149-3.67,8.449-3.9v4.5
			c-2.07,0.23-3.83,1.08-5.3,2.55C557.3,141.041,556.451,142.811,556.22,144.881z"/>
		<path d="M566.22,159.431v-4.55c2.029-0.24,3.779-1.09,5.25-2.551c1.47-1.47,2.33-3.239,2.6-5.3h4.5c-0.27,3.3-1.57,6.11-3.9,8.45
			C572.339,157.841,569.52,159.16,566.22,159.431z"/>
	</g>
	<g style="display:inline;">
		<path d="M566.219,137.083v-4.551c3.301,0.271,6.12,1.58,8.45,3.951c2.37,2.33,3.67,5.149,3.9,8.449h-4.5
			c-0.23-2.07-1.08-3.83-2.55-5.3C570.059,138.163,568.29,137.313,566.219,137.083z"/>
		<path d="M551.669,147.083h4.55c0.24,2.029,1.09,3.779,2.551,5.25c1.47,1.47,3.239,2.33,5.3,2.6v4.5c-3.3-0.27-6.11-1.57-8.45-3.9
			C553.259,153.202,551.94,150.383,551.669,147.083z"/>
	</g>
	<path style="display:inline;" d="M565.121,141.48c1.229,0,2.299,0.43,3.199,1.3c0.87,0.86,1.301,1.931,1.301,3.2
		c0,1.23-0.431,2.3-1.301,3.2c-0.9,0.86-1.97,1.3-3.199,1.3c-1.271,0-2.33-0.439-3.201-1.3c-0.869-0.9-1.299-1.97-1.299-3.2
		c0-1.27,0.43-2.34,1.299-3.2C562.791,141.91,563.85,141.48,565.121,141.48z"/>
	<path style="display:inline;" d="M547.169,144.881h-9c0.23-6.37,2.471-11.95,6.701-16.75l19.199-0.15v0.15
		c-4.529,0.229-8.4,1.96-11.6,5.199C549.24,136.53,547.47,140.381,547.169,144.881z"/>
	<path style="display:inline;" d="M577.77,158.63c3.239-3.199,4.97-7.07,5.2-11.6h0.149l-0.149,19.199
		c-4.801,4.23-10.381,6.471-16.75,6.701v-9C570.72,163.63,574.57,161.86,577.77,158.63z"/>
	<path style="display:inline;" d="M538.169,147.03v25.9h25.9c-7.029-0.271-13.029-2.9-18-7.9
		C541.07,160.061,538.439,154.061,538.169,147.03z"/>
	<g style="display:inline;">
		<path d="M564.044,119.033c-14.383,0.572-25.868,12.403-25.875,26.923h9.063c0.007-9.513,7.439-17.268,16.812-17.833V119.033z"/>
		<path d="M582.978,147.056c-0.565,9.373-8.321,16.806-17.834,16.812v9.063c14.52-0.006,26.353-11.492,26.924-25.875H582.978z"/>
	</g>
	<g style="display:inline;">
		<g>
			<path d="M742.127,187.59h4.551c-0.271,3.301-1.58,6.12-3.951,8.45c-2.33,2.37-5.149,3.67-8.449,3.899v-4.5
				c2.07-0.229,3.83-1.08,5.3-2.549C741.047,191.43,741.897,189.661,742.127,187.59z"/>
			<path d="M732.127,173.041v4.55c-2.029,0.24-3.779,1.09-5.25,2.551c-1.47,1.469-2.33,3.239-2.6,5.299h-4.5
				c0.27-3.299,1.57-6.109,3.9-8.449C726.008,174.63,728.828,173.311,732.127,173.041z"/>
			<path d="M733.227,190.991c-1.229,0-2.299-0.43-3.199-1.301c-0.87-0.859-1.301-1.93-1.301-3.199c0-1.23,0.431-2.301,1.301-3.2
				c0.9-0.86,1.97-1.3,3.199-1.3c1.271,0,2.33,0.439,3.201,1.3c0.869,0.899,1.299,1.97,1.299,3.2c0,1.27-0.43,2.34-1.299,3.199
				C735.557,190.561,734.498,190.991,733.227,190.991z"/>
			<path d="M751.178,187.59h9c-0.23,6.37-2.471,11.95-6.701,16.75l-19.199,0.15v-0.15c4.529-0.23,8.4-1.96,11.6-5.199
				C749.108,195.94,750.877,192.09,751.178,187.59z"/>
			<path d="M720.578,173.84c-3.239,3.199-4.97,7.07-5.2,11.6h-0.149l0.149-19.199c4.801-4.23,10.381-6.471,16.75-6.701v9
				C727.627,168.84,723.778,170.61,720.578,173.84z"/>
			<path d="M742.127,185.44c-0.23-2.06-1.08-3.83-2.55-5.299c-1.47-1.461-3.229-2.311-5.3-2.551v-18.05
				c7.029,0.271,13.029,2.899,18,7.899c5,4.971,7.631,10.971,7.9,18H742.127z"/>
		</g>
		<path d="M724.303,185.416h-4.551c0.271-3.301,1.58-6.12,3.951-8.45c2.33-2.37,5.149-3.67,8.449-3.9v4.5
			c-2.07,0.23-3.83,1.08-5.3,2.55C725.383,181.576,724.534,183.345,724.303,185.416z"/>
		<path d="M734.303,199.965v-4.55c2.029-0.24,3.779-1.09,5.25-2.551c1.47-1.47,2.33-3.239,2.6-5.3h4.5c-0.27,3.3-1.57,6.11-3.9,8.45
			C740.422,198.375,737.603,199.695,734.303,199.965z"/>
		<path d="M733.204,182.015c1.229,0,2.299,0.43,3.199,1.3c0.87,0.86,1.301,1.931,1.301,3.2c0,1.23-0.431,2.3-1.301,3.2
			c-0.9,0.86-1.97,1.3-3.199,1.3c-1.271,0-2.33-0.439-3.201-1.3c-0.869-0.9-1.299-1.97-1.299-3.2c0-1.27,0.43-2.34,1.299-3.2
			C730.874,182.445,731.933,182.015,733.204,182.015z"/>
		<path d="M715.252,185.416h-9c0.23-6.37,2.471-11.95,6.701-16.75l19.199-0.15v0.15c-4.529,0.229-8.4,1.96-11.6,5.199
			C717.323,177.065,715.553,180.916,715.252,185.416z"/>
		<path d="M745.853,199.165c3.239-3.199,4.97-7.07,5.2-11.6h0.149l-0.149,19.199c-4.801,4.23-10.381,6.471-16.75,6.701v-9
			C738.803,204.165,742.653,202.395,745.853,199.165z"/>
		<path d="M706.252,187.565v25.9h25.9c-7.029-0.271-13.029-2.9-18-7.9C709.153,200.595,706.522,194.595,706.252,187.565z"/>
		<path d="M751.061,187.59c-0.544,9.023-7.759,16.229-16.783,16.76v9.088c14.035-0.545,25.315-11.815,25.873-25.848H751.061z"/>
		<path d="M715.369,185.416c0.544-9.014,7.744-16.215,16.759-16.759v-9.089c-14.025,0.558-25.291,11.824-25.848,25.848H715.369z"/>
	</g>
	<g style="display:inline;">
		<path d="M743.142,125.544h4.551c-0.271,3.301-1.58,6.12-3.951,8.45c-2.33,2.37-5.149,3.67-8.449,3.899v-4.5
			c2.07-0.229,3.83-1.08,5.3-2.549C742.062,129.384,742.912,127.615,743.142,125.544z"/>
		<path d="M733.142,110.995v4.55c-2.029,0.24-3.779,1.09-5.25,2.551c-1.47,1.469-2.33,3.239-2.6,5.299h-4.5
			c0.27-3.299,1.57-6.109,3.9-8.449C727.023,112.584,729.842,111.265,733.142,110.995z"/>
		<path d="M734.242,128.945c-1.229,0-2.299-0.43-3.199-1.301c-0.87-0.859-1.301-1.93-1.301-3.199c0-1.23,0.431-2.301,1.301-3.2
			c0.9-0.86,1.97-1.3,3.199-1.3c1.271,0,2.33,0.439,3.201,1.3c0.869,0.899,1.299,1.97,1.299,3.2c0,1.27-0.43,2.34-1.299,3.199
			C736.572,128.515,735.512,128.945,734.242,128.945z"/>
		<path d="M752.193,125.544h9c-0.23,6.37-2.471,11.95-6.701,16.75l-19.199,0.15v-0.15c4.529-0.23,8.4-1.96,11.6-5.199
			C750.123,133.894,751.892,130.044,752.193,125.544z"/>
		<path d="M721.592,111.794c-3.239,3.199-4.97,7.07-5.2,11.6h-0.149l0.149-19.199c4.801-4.23,10.381-6.471,16.75-6.701v9
			C728.642,106.794,724.792,108.564,721.592,111.794z"/>
		<path d="M743.142,123.394c-0.23-2.06-1.08-3.83-2.55-5.299c-1.47-1.461-3.229-2.311-5.3-2.551v-18.05
			c7.029,0.271,13.029,2.899,18,7.899c5,4.971,7.631,10.971,7.9,18H743.142z"/>
	</g>
	<path style="display:inline;" d="M725.318,123.37h-4.551c0.271-3.301,1.58-6.12,3.951-8.45c2.33-2.37,5.149-3.67,8.449-3.9v4.5
		c-2.07,0.23-3.83,1.08-5.3,2.55C726.398,119.53,725.548,121.299,725.318,123.37z"/>
	<path style="display:inline;" d="M735.318,137.919v-4.55c2.029-0.24,3.779-1.09,5.25-2.551c1.47-1.47,2.33-3.239,2.6-5.3h4.5
		c-0.27,3.3-1.57,6.11-3.9,8.45C741.437,136.33,738.618,137.649,735.318,137.919z"/>
	<path style="display:inline;" d="M734.218,119.969c1.229,0,2.299,0.43,3.199,1.3c0.87,0.86,1.301,1.931,1.301,3.2
		c0,1.23-0.431,2.3-1.301,3.2c-0.9,0.86-1.97,1.3-3.199,1.3c-1.271,0-2.33-0.439-3.201-1.3c-0.869-0.9-1.299-1.97-1.299-3.2
		c0-1.27,0.43-2.34,1.299-3.2C731.888,120.399,732.948,119.969,734.218,119.969z"/>
	<path style="display:inline;" d="M716.267,123.37h-9c0.23-6.37,2.471-11.95,6.701-16.75l19.199-0.15v0.15
		c-4.529,0.229-8.4,1.96-11.6,5.199C718.337,115.019,716.568,118.87,716.267,123.37z"/>
	<path style="display:inline;" d="M746.868,137.119c3.239-3.199,4.97-7.07,5.2-11.6h0.149l-0.149,19.199
		c-4.801,4.23-10.381,6.471-16.75,6.701v-9C739.818,142.119,743.667,140.349,746.868,137.119z"/>
	<path style="display:inline;" d="M707.267,125.519v25.9h25.9c-7.029-0.271-13.029-2.9-18-7.9
		C710.167,138.549,707.537,132.549,707.267,125.519z"/>
	<path style="display:inline;" d="M752.076,125.544c-0.544,9.023-7.759,16.229-16.783,16.76v9.088
		c14.035-0.545,25.315-11.815,25.873-25.848H752.076z"/>
	<path style="display:inline;" d="M733.141,142.316c-9.023-0.544-16.229-7.759-16.76-16.783h-9.088
		c0.545,14.035,11.814,25.315,25.848,25.873V142.316z"/>
	<path style="display:inline;" d="M716.383,123.37c0.544-9.014,7.744-16.215,16.759-16.759v-9.089
		c-14.025,0.558-25.291,11.824-25.848,25.848H716.383z"/>
</g>
<g id="Layer_2">
	<g>
		<path d="M583.433,349.338c-20.838-16.647-44.681-25.026-71.422-25.016c-26.668,0.077-50.415,8.361-71.442,25.015L276.316,185.083
			c66.427-61.505,144.952-92.183,235.688-91.917c90.732-0.264,169.274,30.395,235.693,91.908L583.433,349.338z"/>
		<path d="M421.012,511.315l-41.415,41.416c-27.576-32.5-41.313-70.075-40.941-112.854c-0.365-42.772,13.463-80.257,41.396-112.383
			l40.951,40.95c-16.743,20.937-25.027,44.683-25.025,71.43C395.896,466.545,404.268,490.38,421.012,511.315z"/>
		<path d="M644.416,552.719l-41.403-41.404c16.281-20.654,24.476-44.309,24.563-70.985c0-26.752-8.271-50.681-24.573-71.886
			l40.952-40.953c27.574,32.481,41.314,69.895,41.405,112.391C685.634,482.566,671.984,520.229,644.416,552.719z"/>
		<path d="M471.06,399.379c11.188-11.189,24.831-17.009,40.942-17.286c15.747-0.088,29.408,5.732,40.961,17.285
			c11.196,11.196,17.007,24.848,17.283,40.959c-0.364,16.023-6.096,29.755-17.285,40.943c-11.562,11.563-25.204,17.204-40.96,17.302
			c-16.102-0.285-29.743-6.105-40.94-17.303c-11.552-11.552-17.383-25.204-17.303-40.941
			C453.767,424.495,459.499,410.941,471.06,399.379z"/>
		<path d="M684.299,287.609c77.165,87.065,77.074,218.287-0.208,305.249l82.7,82.701c122.763-132.682,122.854-337.891,0.225-470.667
			L684.299,287.609z"/>
		<path d="M747.334,695.258l-82.722-82.721c-87.062,77.164-218.282,77.074-305.241-0.217l-82.702,82.701l-0.365,0.117
			l235.696,235.697L747.334,695.258z"/>
		<path d="M339.705,592.624c-77.075-86.974-77.082-218.03,0-305.013l-82.713-82.713c-122.556,132.705-122.554,337.746,0.003,470.438
			L339.705,592.624z"/>
	</g>
</g>
</svg>
