<?xml version="1.0" encoding="UTF-8" standalone="no"?>
<!DOCTYPE svg PUBLIC "-//W3C//DTD SVG 1.1//EN" "http://www.w3.org/Graphics/SVG/1.1/DTD/svg11.dtd">
<svg width="100%" height="100%" viewBox="0 0 1024 1024" version="1.1" xmlns="http://www.w3.org/2000/svg" xmlns:xlink="http://www.w3.org/1999/xlink" xml:space="preserve" xmlns:serif="http://www.serif.com/" style="fill-rule:evenodd;clip-rule:evenodd;stroke-linejoin:round;stroke-miterlimit:2;">
    <g transform="matrix(0.311355,0,0,0.311355,491.25,523.805)">
        <g transform="matrix(1,0,0,1,-1270.83,-858.333)">
            <g transform="matrix(4.16667,0,0,4.16667,0,0)">
                <path d="M425.4,408.4C420.9,406.8 415.7,402.2 413.2,397.6C411.8,395 411.5,390.7 411.2,370.3L410.9,346L420.8,346L421.2,368.3C421.5,393.6 422,395.4 429.5,399C439,403.6 448.6,399.1 450.9,389C451.5,386.5 452,375.8 452,365.3L452,346L462,346L462,368.3C462,393.7 461.3,397.3 455.2,403.3C453.2,405.3 449.5,407.6 447.1,408.5C441.7,410.4 430.9,410.3 425.4,408.4ZM483.7,408.5C479,406.7 475.3,403.9 472.4,399.7L470.2,396.5L474.2,393.9L478.2,391.2L481.7,395.1C485.8,399.6 490.6,401.4 496.8,400.7C502.3,400.1 506,396.5 506,391.8C506,387.6 501.8,384 492.9,380.5C478.1,374.8 474.4,370.6 475.2,360.2C475.6,355.1 476.1,353.5 478.6,350.9C482.6,346.5 486.8,345 494.5,345C501.8,345 506.8,347 511,351.4L513.4,354.1L510.5,356.5C506.8,359.5 506.9,359.5 502.4,356.5C495.2,351.6 485,354.6 485,361.5C485,365.2 488.5,368 497.8,371.8C511.4,377.4 515.8,381.4 516.7,389.3C517.7,397.6 513.7,404.9 506.6,408.1C501.6,410.4 489.4,410.5 483.7,408.5ZM569.6,407.6C543.9,396.8 542.6,361.1 567.5,348.2C571.5,346.1 574.3,345.5 581.7,345.2C590,344.8 591.4,345 596.7,347.4C599.9,348.9 603.7,351.3 605.3,352.7L608,355.4L605.3,358.2C603.8,359.7 602.3,361 601.9,361C601.5,361 598.9,359.6 596.2,357.9C583.8,350.2 568.4,354.6 562.4,367.5C557,379 561.4,392.6 572.3,398.2C580.5,402.4 590.7,401.4 598.2,395.7L601.5,393.2L604.9,396.1L608.4,399L605.9,401.6C601.1,406.8 594.3,409.3 584.5,409.7C576.7,410 574.7,409.7 569.6,407.6ZM2,409L2,345.8L18.8,346.2C33.8,346.5 36,346.8 40.8,348.9C51.3,353.6 57.4,364.1 57.4,377.5C57.3,386.4 55.8,391.8 51.7,397.2C44.5,406.7 37.6,409 16.8,409L2,409ZM31.2,398.9C44.7,396 51.3,379.4 44.2,365.9C40.2,358.2 34.9,355.7 21.8,355.2L12,354.8L12,400L19,400C22.8,400 28.3,399.5 31.2,398.9ZM67,409L67,346L82,346C98.7,346 102.3,347 107.3,352.9C114.5,361.5 112.8,375.8 103.9,381.7L100.2,384.1L107.6,396.2C111.7,402.8 115,408.4 115,408.6C115,408.8 112.3,409 109.1,409L103.2,409L97,398.6C93.6,392.8 90.3,387.6 89.5,387C88.8,386.4 85.8,386 82.8,386.2L77.5,386.5L77.2,397.8L76.9,409L67,409ZM94.7,376C98.4,374.7 101,370.3 101,365.3C101,357.6 96.4,354.7 84.9,355.2L77.5,355.5L77.2,364.9C77.1,370.1 77.1,374.9 77.4,375.7C78.1,377.3 90.2,377.5 94.7,376ZM119.3,408.3C119.5,407.8 126.4,393.2 134.6,375.8C142.8,358.3 149.7,344 150.1,344C150.4,344 152.1,347 153.8,350.8C155.4,354.5 161,366.3 166,377C171.1,387.7 176.5,399.3 178.1,402.8L180.9,409L175.2,409L169.5,408.9L166.8,403L164.1,397L135.5,397L132.8,403L130.2,409L124.5,409C121.4,409 119.1,408.7 119.3,408.3ZM159.3,387.3C159.8,386.4 150.8,366.1 149.9,366C149.5,366 142.5,380.8 140.4,386.4C139.9,387.8 141,388 149.3,388C154.6,388 159.1,387.7 159.3,387.3ZM186,409L186,346L197,346L197,361C197,369.3 197.3,376 197.8,375.9C198.2,375.9 204.4,369.2 211.5,361L224.5,346.1L230.8,346L237.2,346L233.8,349.9C232,352.1 226.5,358.4 221.6,364L212.7,374.1L214.7,376.3C216.5,378.3 235.5,404.6 237.4,407.8C237.9,408.7 236.6,409 231.8,409L225.5,408.9L217.2,397.2C212.6,390.8 208.2,384.6 207.4,383.5C206,381.7 205.8,381.8 201.5,386L197,390.4L197,409L186,409ZM247,409L247,346L287,346L287,354.9L272.3,355.2L257.5,355.5L257.2,363.3L256.9,371L285,371L285,381L256.9,381L257.2,390.3L257.5,399.5L272.8,399.8L288,400.1L288,409L247,409ZM331,377.5C331,360.2 331.2,346 331.4,346C331.7,346 338.7,354.3 347.1,364.5C355.5,374.7 362.6,383 362.9,383C363.2,382.9 370.7,374.2 379.5,363.5C388.2,352.8 395.4,344 395.5,344C395.5,344 395.4,358.6 395.2,376.5L394.9,409L385,409L384.8,390.8L384.5,372.5L373.6,385.7L362.8,399L360.7,396.2C359.5,394.7 357.2,391.9 355.6,389.9C353.9,388 350.9,384.4 348.9,381.9C346.9,379.5 344.3,376.4 343.1,375L341.1,372.5L341,390.8L341,409L331,409L331,377.5ZM526,409L526,346L536,346L536,409L526,409ZM1.8,155.5L2,2L81.3,2C146.6,2 162.3,2.3 170.5,3.5C218.2,10.7 261.3,43.7 282.4,89.3C298.9,124.8 301.3,169.1 288.8,206.4C281.5,228.4 269.2,247.8 251.5,265.5C229.8,287.2 207.5,299.5 178.2,306.2C168.7,308.3 166.9,308.4 85,308.7L1.5,309.1L1.8,155.5ZM313,309L313,3.9L315.3,4.6C316.5,5 349.8,17.1 389.2,31.6L460.9,57.9L532.7,31.5C572.2,17 605.3,4.8 606.2,4.5C607.9,3.8 608,11.7 608.2,156.4L608.5,309L313,309Z" style="fill-rule:nonzero;"/>
            </g>
        </g>
    </g>
</svg>
