<?xml version="1.0" encoding="UTF-8" standalone="no"?>
<!DOCTYPE svg PUBLIC "-//W3C//DTD SVG 1.1//EN" "http://www.w3.org/Graphics/SVG/1.1/DTD/svg11.dtd">
<svg width="100%" height="100%" viewBox="0 0 1024 1024" version="1.1" xmlns="http://www.w3.org/2000/svg" xmlns:xlink="http://www.w3.org/1999/xlink" xml:space="preserve" xmlns:serif="http://www.serif.com/" style="fill-rule:evenodd;clip-rule:evenodd;stroke-linejoin:round;stroke-miterlimit:2;">
    <g transform="matrix(3.66071,0,0,3.66071,36.1071,2.66071)">
        <g transform="matrix(2,0,0,2,0,0)">
            <path d="M38.5,-0.5L48.5,-0.5C51.588,0.427 54.588,1.76 57.5,3.5C55.166,4.917 52.666,5.917 50,6.5C44.492,5.333 38.992,4.166 33.5,3C34.956,1.374 36.622,0.208 38.5,-0.5Z" style="fill:rgb(123,42,130);fill-opacity:0.81;"/>
        </g>
        <g transform="matrix(2,0,0,2,0,0)">
            <path d="M-0.5,19.5L-0.5,15.5C1.303,13.519 2.97,11.352 4.5,9C10.477,6.979 16.477,6.145 22.5,6.5C20.707,9.251 19.041,12.084 17.5,15C11.256,15.68 5.256,17.18 -0.5,19.5Z" style="fill:rgb(88,89,91);fill-opacity:0.83;"/>
        </g>
        <g transform="matrix(2,0,0,2,0,0)">
            <path d="M29.5,5.5C36.08,5.699 42.413,6.866 48.5,9C46.959,10.579 45.792,12.413 45,14.5C44.275,15.059 43.442,15.392 42.5,15.5C36.499,14.916 30.499,14.25 24.5,13.5C25.677,10.469 27.344,7.802 29.5,5.5Z" style="fill:rgb(239,118,33);fill-opacity:0.85;"/>
        </g>
        <g transform="matrix(2,0,0,2,0,0)">
            <path d="M66.5,6.5C66.842,7.338 67.508,7.672 68.5,7.5C68.5,8.167 68.833,8.5 69.5,8.5C69.842,9.338 70.508,9.672 71.5,9.5C71.5,10.167 71.833,10.5 72.5,10.5C72.842,11.338 73.508,11.672 74.5,11.5C74.5,12.167 74.833,12.5 75.5,12.5C75.5,13.167 75.833,13.5 76.5,13.5C77.5,13.833 78.167,14.5 78.5,15.5C76.958,17.953 74.958,18.62 72.5,17.5C72.158,16.662 71.492,16.328 70.5,16.5C70.5,15.833 70.167,15.5 69.5,15.5C69.158,14.662 68.492,14.328 67.5,14.5C64.389,12.441 61.056,10.608 57.5,9C60.054,6.199 63.054,5.366 66.5,6.5Z" style="fill:rgb(123,42,130);fill-opacity:0.78;"/>
        </g>
        <g transform="matrix(2,0,0,2,0,0)">
            <path d="M66.5,6.5C70.544,5.058 74.544,5.391 78.5,7.5C78.5,8.167 78.833,8.5 79.5,8.5C79.5,9.167 79.833,9.5 80.5,9.5C80.5,10.167 80.833,10.5 81.5,10.5C81.5,11.167 81.833,11.5 82.5,11.5C82.5,12.167 82.833,12.5 83.5,12.5C83.5,13.167 83.833,13.5 84.5,13.5C84.5,14.167 84.833,14.5 85.5,14.5L85.5,15.5C83.274,16.756 80.941,16.756 78.5,15.5C78.167,14.5 77.5,13.833 76.5,13.5C75.833,13.5 75.5,13.167 75.5,12.5C74.833,12.5 74.5,12.167 74.5,11.5C74.158,10.662 73.492,10.328 72.5,10.5C71.833,10.5 71.5,10.167 71.5,9.5C71.158,8.662 70.492,8.328 69.5,8.5C68.833,8.5 68.5,8.167 68.5,7.5C68.158,6.662 67.492,6.328 66.5,6.5Z" style="fill:rgb(0,174,239);fill-opacity:0.74;"/>
        </g>
        <g transform="matrix(2,0,0,2,0,0)">
            <path d="M87.5,9.5C87.833,10.5 88.5,11.167 89.5,11.5C89.5,12.167 89.833,12.5 90.5,12.5C90.833,13.167 91.167,13.833 91.5,14.5C91.5,15.167 91.833,15.5 92.5,15.5C92.328,16.492 92.662,17.158 93.5,17.5C90.659,18.346 87.992,17.679 85.5,15.5L85.5,14.5C84.833,14.5 84.5,14.167 84.5,13.5C83.833,13.5 83.5,13.167 83.5,12.5C82.833,12.5 82.5,12.167 82.5,11.5C81.833,11.5 81.5,11.167 81.5,10.5C80.833,10.5 80.5,10.167 80.5,9.5C79.833,9.5 79.5,9.167 79.5,8.5C78.833,8.5 78.5,8.167 78.5,7.5C78.56,6.957 78.893,6.624 79.5,6.5C82.195,7.508 84.862,8.508 87.5,9.5Z" style="fill:rgb(123,42,130);fill-opacity:0.73;"/>
        </g>
        <g transform="matrix(2,0,0,2,0,0)">
            <path d="M67.5,14.5C67.842,15.338 68.508,15.672 69.5,15.5C70.167,15.5 70.5,15.833 70.5,16.5C70.842,17.338 71.508,17.672 72.5,17.5C73.834,20.047 73.001,21.714 70,22.5C63.524,20.624 57.357,18.291 51.5,15.5C52.146,13.023 53.646,11.356 56,10.5C59.812,11.994 63.645,13.327 67.5,14.5Z" style="fill:rgb(99,142,60);fill-opacity:0.8;"/>
        </g>
        <g transform="matrix(2,0,0,2,0,0)">
            <path d="M87.5,9.5C91.865,11.771 96.031,14.438 100,17.5C101.496,19.45 101.663,21.45 100.5,23.5C97.507,22.167 95.173,20.167 93.5,17.5C93.672,16.508 93.338,15.842 92.5,15.5C91.833,15.5 91.5,15.167 91.5,14.5C91.167,13.833 90.833,13.167 90.5,12.5C89.833,12.5 89.5,12.167 89.5,11.5C88.5,11.167 87.833,10.5 87.5,9.5Z" style="fill:rgb(253,190,44);fill-opacity:0.65;"/>
        </g>
        <g transform="matrix(2,0,0,2,0,0)">
            <path d="M50.5,19.5C57.301,20.201 63.967,21.534 70.5,23.5L70.5,29.5C63.559,28.271 56.559,27.604 49.5,27.5C49.401,24.763 49.735,22.096 50.5,19.5Z" style="fill:rgb(239,118,33);fill-opacity:0.84;"/>
        </g>
        <g transform="matrix(2,0,0,2,0,0)">
            <path d="M103.5,20.5C106.479,22.812 109.146,25.479 111.5,28.5C110.653,29.845 109.487,30.845 108,31.5C107.047,29.545 105.713,27.878 104,26.5C103.505,24.527 103.338,22.527 103.5,20.5Z" style="fill:rgb(0,174,239);fill-opacity:0.71;"/>
        </g>
        <g transform="matrix(2,0,0,2,0,0)">
            <path d="M50.5,30.5C56.842,30.334 63.175,30.501 69.5,31C71.016,32.897 71.683,35.064 71.5,37.5C64.823,38.073 58.157,38.74 51.5,39.5C51.037,36.518 50.704,33.518 50.5,30.5Z" style="fill:rgb(0,142,170);fill-opacity:0.86;"/>
        </g>
        <g transform="matrix(2,0,0,2,0,0)">
            <path d="M34.5,31.5L43.5,31.5C43.4,34.667 44.067,37.667 45.5,40.5C38.973,42.757 32.473,45.09 26,47.5C23.971,43.347 22.971,39.014 23,34.5C26.917,33.439 30.751,32.439 34.5,31.5Z" style="fill:rgb(239,118,33);fill-opacity:0.89;"/>
        </g>
        <g transform="matrix(2,0,0,2,0,0)">
            <path d="M119.5,42.5C119.158,41.662 118.492,41.328 117.5,41.5C114.263,39.738 111.929,37.071 110.5,33.5C112.167,32.167 113.833,32.167 115.5,33.5C117.667,35.83 119.334,38.497 120.5,41.5C120.376,42.107 120.043,42.44 119.5,42.5Z" style="fill:rgb(99,142,60);fill-opacity:0.69;"/>
        </g>
        <g transform="matrix(2,0,0,2,0,0)">
            <path d="M67.5,39.5C72.547,38.638 75.047,40.638 75,45.5C70.518,47.663 66.018,49.83 61.5,52C60.056,52.781 58.723,52.614 57.5,51.5C56.294,48.921 54.961,46.421 53.5,44C58.139,42.179 62.805,40.679 67.5,39.5Z" style="fill:rgb(99,142,60);fill-opacity:0.85;"/>
        </g>
        <g transform="matrix(2,0,0,2,0,0)">
            <path d="M117.5,41.5C117.842,42.338 118.508,42.672 119.5,42.5C123.064,45.274 125.397,48.94 126.5,53.5L126.5,55.5L125.5,55.5C124.833,55.5 124.5,55.167 124.5,54.5C124.5,53.833 124.167,53.5 123.5,53.5C123.5,52.833 123.167,52.5 122.5,52.5C122.5,51.833 122.167,51.5 121.5,51.5C121.5,50.833 121.167,50.5 120.5,50.5C120.5,49.833 120.167,49.5 119.5,49.5C117.433,47.682 116.1,45.349 115.5,42.5C115.957,41.703 116.624,41.369 117.5,41.5Z" style="fill:rgb(133,46,124);fill-opacity:0.73;"/>
        </g>
        <g transform="matrix(2,0,0,2,0,0)">
            <path d="M44.5,45.5C45.675,45.281 46.675,45.614 47.5,46.5C48.913,49.661 50.58,52.661 52.5,55.5C46.93,59.204 41.097,62.538 35,65.5C32.135,61.611 29.635,57.444 27.5,53C33.257,50.45 38.923,47.95 44.5,45.5Z" style="fill:rgb(123,42,130);fill-opacity:0.89;"/>
        </g>
        <g transform="matrix(2,0,0,2,0,0)">
            <path d="M75.5,47.5C77.91,47.921 79.743,49.254 81,51.5C81.667,52.5 81.667,53.5 81,54.5C77.278,58.725 73.112,62.392 68.5,65.5C66.177,62.874 63.843,60.207 61.5,57.5C65.906,53.754 70.573,50.42 75.5,47.5Z" style="fill:rgb(123,42,130);fill-opacity:0.85;"/>
        </g>
        <g transform="matrix(2,0,0,2,0,0)">
            <path d="M119.5,49.5C120.167,49.5 120.5,49.833 120.5,50.5C121.167,50.5 121.5,50.833 121.5,51.5C122.167,51.5 122.5,51.833 122.5,52.5C123.167,52.5 123.5,52.833 123.5,53.5C124.167,53.5 124.5,53.833 124.5,54.5C124.5,55.167 124.833,55.5 125.5,55.5C125.5,56.167 125.833,56.5 126.5,56.5L126.5,57.5C126.5,58.167 126.833,58.5 127.5,58.5L127.5,60.5C127.328,61.492 127.662,62.158 128.5,62.5L128.5,63.5C128.843,65.483 128.176,66.817 126.5,67.5C126.672,66.508 126.338,65.842 125.5,65.5C125.5,64.833 125.167,64.5 124.5,64.5L124.5,63.5C124.5,62.833 124.167,62.5 123.5,62.5C123.5,61.833 123.167,61.5 122.5,61.5L122.5,60.5C122.5,59.833 122.167,59.5 121.5,59.5C121.5,58.833 121.167,58.5 120.5,58.5C120.167,57.833 119.833,57.167 119.5,56.5C118.897,54.321 118.23,52.154 117.5,50C118.094,49.536 118.761,49.369 119.5,49.5Z" style="fill:rgb(253,197,45);fill-opacity:0.74;"/>
        </g>
        <g transform="matrix(2,0,0,2,0,0)">
            <path d="M126.5,53.5C128.058,56.292 129.391,59.292 130.5,62.5C130.043,63.298 129.376,63.631 128.5,63.5L128.5,62.5C128.672,61.508 128.338,60.842 127.5,60.5L127.5,58.5C126.833,58.5 126.5,58.167 126.5,57.5L126.5,53.5Z" style="fill:rgb(239,118,33);fill-opacity:0.25;"/>
        </g>
        <g transform="matrix(2,0,0,2,0,0)">
            <path d="M82.5,54.5C85.225,55.713 87.559,57.546 89.5,60C87,64.5 84.5,69 82,73.5C81.311,74.357 80.478,75.023 79.5,75.5C76.216,73.883 73.549,71.55 71.5,68.5C75.214,63.796 78.881,59.129 82.5,54.5Z" style="fill:rgb(239,118,33);fill-opacity:0.85;"/>
        </g>
        <g transform="matrix(2,0,0,2,0,0)">
            <path d="M119.5,56.5C119.833,57.167 120.167,57.833 120.5,58.5C121.167,58.5 121.5,58.833 121.5,59.5C122.167,59.5 122.5,59.833 122.5,60.5L122.5,61.5C123.167,61.5 123.5,61.833 123.5,62.5C124.167,62.5 124.5,62.833 124.5,63.5L124.5,64.5C125.167,64.5 125.5,64.833 125.5,65.5C125.328,66.492 125.662,67.158 126.5,67.5C128,71.005 127.667,74.338 125.5,77.5C123.983,75.604 122.65,73.604 121.5,71.5C121.672,70.508 121.338,69.842 120.5,69.5C120.672,68.508 120.338,67.842 119.5,67.5C119.672,66.508 119.338,65.842 118.5,65.5C118.672,64.508 118.338,63.842 117.5,63.5C117.5,62.833 117.167,62.5 116.5,62.5C116.386,59.784 117.386,57.784 119.5,56.5Z" style="fill:rgb(239,118,33);fill-opacity:0.76;"/>
        </g>
        <g transform="matrix(2,0,0,2,0,0)">
            <path d="M54.5,60.5C57.934,63.31 60.934,66.643 63.5,70.5C58.805,75.273 53.972,79.94 49,84.5C45.143,80.611 41.643,76.444 38.5,72C43.724,67.9 49.057,64.067 54.5,60.5Z" style="fill:rgb(239,118,33);fill-opacity:0.89;"/>
        </g>
        <g transform="matrix(2,0,0,2,0,0)">
            <path d="M90.5,61.5C93.18,61.673 95.513,62.673 97.5,64.5C96.464,71.017 94.798,77.35 92.5,83.5C89.166,82.169 86.166,80.335 83.5,78C86.25,72.667 88.584,67.167 90.5,61.5Z" style="fill:rgb(0,174,239);fill-opacity:0.84;"/>
        </g>
        <g transform="matrix(2,0,0,2,0,0)">
            <path d="M116.5,62.5C117.167,62.5 117.5,62.833 117.5,63.5C117.328,64.492 117.662,65.158 118.5,65.5C118.328,66.492 118.662,67.158 119.5,67.5C119.328,68.492 119.662,69.158 120.5,69.5C120.328,70.492 120.662,71.158 121.5,71.5C122.548,74.789 123.048,78.122 123,81.5C121.736,83.607 119.903,84.607 117.5,84.5C117.08,79.471 115.746,74.805 113.5,70.5C113.737,69.209 113.404,68.209 112.5,67.5C112.369,64.633 113.703,62.967 116.5,62.5Z" style="fill:rgb(0,142,170);fill-opacity:0.8;"/>
        </g>
        <g transform="matrix(2,0,0,2,0,0)">
            <path d="M98.5,64.5C100.379,65.341 102.379,65.675 104.5,65.5C105.386,72.457 105.72,79.457 105.5,86.5C102.482,86.296 99.482,85.963 96.5,85.5C97.729,78.559 98.396,71.559 98.5,64.5Z" style="fill:rgb(253,197,45);fill-opacity:0.84;"/>
        </g>
        <g transform="matrix(2,0,0,2,0,0)">
            <path d="M112.5,67.5C112.263,68.791 112.596,69.791 113.5,70.5C114.556,75.781 115.223,81.114 115.5,86.5L108.5,86.5C107.924,80.664 107.257,74.83 106.5,69C107.853,65.265 109.853,64.765 112.5,67.5Z" style="fill:rgb(239,118,33);fill-opacity:0.85;"/>
        </g>
        <g transform="matrix(2,0,0,2,0,0)">
            <path d="M65.5,73.5C69.444,76.105 73.11,79.105 76.5,82.5C72.975,88.23 68.975,93.563 64.5,98.5C60.056,95.559 56.056,92.059 52.5,88C57.434,83.574 61.767,78.741 65.5,73.5Z" style="fill:rgb(123,42,130);fill-opacity:0.88;"/>
        </g>
        <g transform="matrix(2,0,0,2,0,0)">
            <path d="M30.5,76.5C31.552,76.351 32.552,76.517 33.5,77C36.713,81.258 40.047,85.425 43.5,89.5C38.483,94.352 33.316,99.018 28,103.5C23.772,98.943 19.939,94.11 16.5,89C20.703,84.297 25.369,80.13 30.5,76.5Z" style="fill:rgb(0,142,170);fill-opacity:0.9;"/>
        </g>
        <g transform="matrix(2,0,0,2,0,0)">
            <path d="M94.5,91.5C97.679,92.793 101.012,93.46 104.5,93.5C104.122,98.894 103.288,104.227 102,109.5C101.902,111.619 101.069,113.286 99.5,114.5C96.193,113.605 92.859,112.771 89.5,112C89.043,111.586 88.709,111.086 88.5,110.5C91.308,104.409 93.308,98.076 94.5,91.5Z" style="fill:rgb(123,42,130);fill-opacity:0.88;"/>
        </g>
        <g transform="matrix(2,0,0,2,0,0)">
            <path d="M47.5,93.5C51.686,97.52 56.019,101.353 60.5,105C56.715,110.619 52.382,115.786 47.5,120.5C42.421,116.963 37.754,112.963 33.5,108.5C38.188,103.48 42.855,98.48 47.5,93.5Z" style="fill:rgb(239,118,33);fill-opacity:0.91;"/>
        </g>
        <g transform="matrix(2,0,0,2,0,0)">
            <path d="M65.5,109.5C70.952,110.723 75.618,113.223 79.5,117C76.787,122.936 73.454,128.436 69.5,133.5C63.882,131.693 58.882,128.86 54.5,125C58.791,120.243 62.457,115.077 65.5,109.5Z" style="fill:rgb(123,42,130);fill-opacity:0.89;"/>
        </g>
        <g transform="matrix(2,0,0,2,0,0)">
            <path d="M31.5,139.5L27.5,139.5C22.997,135.497 18.664,131.33 14.5,127C18.487,121.832 23.154,117.332 28.5,113.5C33.193,117.861 37.859,122.195 42.5,126.5C39.186,131.146 35.519,135.479 31.5,139.5Z" style="fill:rgb(88,89,91);fill-opacity:0.89;"/>
        </g>
    </g>
</svg>
