<svg xmlns="http://www.w3.org/2000/svg" viewBox="0 0 200 100" width="200px" height="100px">
  <g fill="#000">
    <polygon points="17.1,82.2 15.4,87.3 13.7,82.2 9.2,70.9 1.8,70.9 1.8,99.6 8.4,99.6 8.4,86.1 9.3,89.8 12.9,99.6 17.7,99.6 21.3,89.8 22.2,86.1 22.2,99.6 29,99.6 29,70.9 21.6,70.9"/>
    <path d="M46.2,17.6h-7.1c-0.3,4.3-1.4,5.7-3.3,5.7c-2,0-3.1-1.2-3.1-4.7v-7.8c0-3.4,1.1-4.7,3.1-4.7 s3.1,1.4,3.3,5.7h7.1C45.5,3.6,41.7-0.1,35.6-0.1c-6.4,0-10.2,4.3-10.2,14.4v0.8c0,10.1,3.8,14.4,10.2,14.4 C41.7,29.5,45.6,25.9,46.2,17.6z"/>
    <path d="M49.7,89.5c0,2.9-1.2,4.3-3.5,4.3s-3.5-1.4-3.5-4.3V70.9h-7v16.4c0,8.8,3.9,12.7,10.4,12.7 s10.6-3.9,10.6-12.7V70.9h-7V89.5z"/>
    <polygon points="53.9,40.8 53.9,35.6 36.3,35.6 36.3,64.3 53.9,64.3 53.9,59.2 42,59.2 42,52.4 53.3,52.4 53.3,47.2 42,47.2 42,40.8  "/>
    <path d="M98.4,64.3h2.9l2.1-6.3h12.7l2.1,6.3h2.9l-9.8-28.7h-3.2L98.4,64.3z M109.8,38.8l0.6,2.2l5,14.5h-11.2 l5-14.5L109.8,38.8z"/>
    <polygon points="92.4,7 93.7,9.7 105.4,29.1 109.5,29.1 109.5,0.4 105.6,0.4 105.6,22.3 104.3,19.6 92.8,0.4 88.6,0.4 88.6,29.1 92.4,29.1  "/>
    <polygon points="29,64.3 29,35.6 21.6,35.6 17.1,46.9 15.4,52 13.7,46.9 9.2,35.6 1.8,35.6 1.8,64.3 8.4,64.3 8.4,50.8 9.3,54.5 12.9,64.3 17.7,64.3 21.3,54.5 22.2,50.8 22.2,64.3  "/>
    <polygon points="160.1,27.5 145.7,27.5 145.7,15.1 159.6,15.1 159.6,13.5 145.7,13.5 145.7,2 160.1,2 160.1,0.4 144.1,0.4 144.1,29.1 160.1,29.1  "/>
    <rect x="51.8" y="0.4" width="5.7" height="28.7"/>
    <polygon points="82.1,24.9 69.5,24.9 69.5,16.6 81.3,16.6 81.3,12.4 69.5,12.4 69.5,4.7 82.1,4.7 82.1,0.4 64.8,0.4 64.8,29.1 82.1,29.1  "/>
    <path d="M11.1,29.4c5.3,0,9.7-3.4,9.7-8.6c0-4.2-2.4-6.5-9-9.3c-3.1-1.3-4-2.3-4-3.5c0-1.3,1.2-2,2.3-2 c2.2,0,3,1.7,3.3,3.5h7.3C20,3.8,15.9-0.1,10.4-0.1c-5.4,0-10,3.2-10,8.4c0,3.6,2.2,6.4,7.7,8.7c4.4,1.8,5.3,2.8,5.3,4.1 c0,1.4-1.3,2.1-2.4,2.1c-2.6,0-3.6-2.4-3.7-4.5H0v0.1C0.3,25.4,5.1,29.4,11.1,29.4z"/>
    <path d="M127,2.5c3.7,0,6.1,2.4,6.7,7.5h2.8c-0.7-6.3-4.1-10-9.5-10c-6.4,0-9.8,4.9-9.8,12.9v3.7 c0,8.1,3.5,12.9,9.8,12.9c5.6,0,8.9-3.8,9.5-10.1h-2.8c-0.7,5.3-3,7.6-6.7,7.6c-4.7,0-6.9-3.7-6.9-10.6v-4.6 C120.1,6,122.7,2.5,127,2.5z"/>
    <path d="M129.1,89.4c0,5.1-2.6,8-7,8c-4.5,0-7.1-2.9-7.1-8V70.9h-2.7v17.4c0,7.7,3.5,11.7,9.8,11.7 c6.3,0,9.8-4,9.8-11.7V70.9h-2.8V89.4z"/>
    <polygon points="153,97.5 142.6,70.9 140.3,70.9 140.3,99.6 141.9,99.6 141.9,73.6 152.1,99.6 153.9,99.6 164.1,73.6 164.1,99.6 165.7,99.6 165.7,70.9 163.4,70.9  "/>
    <polygon points="88.3,99.6 105.3,99.6 105.3,96.1 92.2,96.1 92.2,86.7 104.4,86.7 104.4,83.2 92.2,83.2 92.2,74.4 105.3,74.4 105.3,70.9 88.3,70.9  "/>
    <polygon points="188.2,13.8 177.1,13.8 177.1,2.7 175.8,2.7 175.8,13.8 164.7,13.8 164.7,15.1 175.8,15.1 175.8,26.2 177.1,26.2 177.1,15.1 188.2,15.1  "/>
    <rect x="88.2" y="35.6" width="3.9" height="28.7"/>
    <path d="M75.3,83.4l-3.7-1.5c-3-1.2-3.8-2.3-3.8-3.8c0-2,1.6-3.4,4-3.4c3,0,4.5,1.8,4.9,4.8h5.1 c-0.8-5.7-4.2-9-9.7-9c-5.6,0-9.4,3.3-9.4,7.7c0,3.4,1.9,6,7,8.1l2.9,1.1c3.4,1.4,4.3,2.8,4.3,4.8c0,2.3-1.5,3.6-4.1,3.6 c-3.2,0-5-2-5.6-5.7h-5.1c0.7,6.4,5,9.9,10.8,9.9c5.4,0,9.3-3.2,9.3-8C82.2,87.9,80.2,85.4,75.3,83.4z"/>
    <path d="M81,51v-2.1c0-9.5-4.5-13.3-12.4-13.3h-7.8v28.7h7.9C76.5,64.3,81,60.5,81,51z M65.7,40h3.8 c4.1,0,6.7,2.3,6.7,7.4v6c0,4.4-2.6,6.8-6.7,6.8h-3.8V40z"/>
  </g>
</svg>