<?xml version="1.0" encoding="UTF-8" standalone="no"?>
<!DOCTYPE svg PUBLIC "-//W3C//DTD SVG 1.1//EN" "http://www.w3.org/Graphics/SVG/1.1/DTD/svg11.dtd">
<svg width="100%" height="100%" viewBox="0 0 10240 10240" version="1.1" xmlns="http://www.w3.org/2000/svg" xmlns:xlink="http://www.w3.org/1999/xlink" xml:space="preserve" xmlns:serif="http://www.serif.com/" style="fill-rule:evenodd;clip-rule:evenodd;stroke-linejoin:round;stroke-miterlimit:2;">
    <g id="Dot-Matrix-Moved" serif:id="Dot Matrix Moved" transform="matrix(0.990236,0,0,0.990236,87.6016,49.9895)">
        <g transform="matrix(-0.874185,-1.07057e-16,1.07057e-16,-0.874185,9392.56,10848)">
            <circle cx="4930.93" cy="5291.76" r="201.291" style="fill:white;"/>
        </g>
        <g transform="matrix(-1.072,-1.31282e-16,1.31282e-16,-1.072,9972.65,10792.8)">
            <circle cx="4930.93" cy="5291.76" r="201.291" style="fill:white;"/>
        </g>
        <g transform="matrix(-0.933025,-1.14263e-16,1.14263e-16,-0.933025,9682.69,10667)">
            <circle cx="4930.93" cy="5291.76" r="201.291" style="fill:white;"/>
        </g>
        <g transform="matrix(-0.40881,-5.00648e-17,5.00648e-17,-0.40881,7097.83,12351.3)">
            <circle cx="4930.93" cy="5291.76" r="201.291" style="fill:rgb(218,235,231);"/>
        </g>
        <g transform="matrix(-0.466512,-5.71313e-17,5.71313e-17,-0.466512,7382.35,11634.9)">
            <circle cx="4930.93" cy="5291.76" r="201.291" style="fill:white;"/>
        </g>
        <g transform="matrix(0.874185,2.14114e-16,-2.14114e-16,0.874185,771.476,-648.395)">
            <circle cx="4930.93" cy="5291.76" r="201.291" style="fill:white;"/>
        </g>
        <g transform="matrix(0.81762,2.00259e-16,-2.00259e-16,0.81762,1050.4,-868.662)">
            <circle cx="4930.93" cy="5291.76" r="201.291" style="fill:white;"/>
        </g>
        <g transform="matrix(0.933025,2.28525e-16,-2.28525e-16,0.933025,481.342,-321.925)">
            <circle cx="4930.93" cy="5291.76" r="201.291" style="fill:white;"/>
        </g>
        <g transform="matrix(0.731099,1.79068e-16,-1.79068e-16,0.731099,1477.02,-901.606)">
            <circle cx="4930.93" cy="5291.76" r="201.291" style="fill:white;"/>
        </g>
        <g transform="matrix(0.631226,1.54606e-16,-1.54606e-16,0.631226,1969.49,-940.571)">
            <circle cx="4930.93" cy="5291.76" r="201.291" style="fill:white;"/>
        </g>
        <g transform="matrix(0.40881,1.0013e-16,-1.0013e-16,0.40881,3066.21,-2091.13)">
            <circle cx="4930.93" cy="5291.76" r="201.291" style="fill:white;"/>
        </g>
        <g transform="matrix(0.466512,1.14263e-16,-1.14263e-16,0.466512,2781.68,-1920.05)">
            <circle cx="4930.93" cy="5291.76" r="201.291" style="fill:white;"/>
        </g>
        <g transform="matrix(-0.874185,-1.07057e-16,1.07057e-16,-0.874185,11388.2,10848)">
            <circle cx="4930.93" cy="5291.76" r="201.291" style="fill:white;"/>
        </g>
        <g transform="matrix(-1.072,-1.31282e-16,1.31282e-16,-1.072,12315.1,10789.5)">
            <circle cx="4930.93" cy="5291.76" r="201.291" style="fill:white;"/>
        </g>
        <g transform="matrix(-0.933025,-1.14263e-16,1.14263e-16,-0.933025,11845,10667)">
            <circle cx="4930.93" cy="5291.76" r="201.291" style="fill:white;"/>
        </g>
        <g transform="matrix(-0.631226,-7.73029e-17,7.73029e-17,-0.631226,9972.35,11854.1)">
            <circle cx="4930.93" cy="5291.76" r="201.291" style="fill:white;"/>
        </g>
        <g transform="matrix(-0.40881,-5.00648e-17,5.00648e-17,-0.40881,9093.48,11967.6)">
            <circle cx="4930.93" cy="5291.76" r="201.291" style="fill:white;"/>
        </g>
        <g transform="matrix(-0.466512,-5.71313e-17,5.71313e-17,-0.466512,9454.7,11443.1)">
            <circle cx="4930.93" cy="5291.76" r="201.291" style="fill:white;"/>
        </g>
        <g transform="matrix(0.874185,2.14114e-16,-2.14114e-16,0.874185,2519.64,-830.17)">
            <circle cx="4930.93" cy="5291.76" r="201.291" style="fill:white;"/>
        </g>
        <g transform="matrix(0.81762,2.00259e-16,-2.00259e-16,0.81762,2257.42,-1041.62)">
            <circle cx="4930.93" cy="5291.76" r="201.291" style="fill:white;"/>
        </g>
        <g transform="matrix(0.933025,2.28525e-16,-2.28525e-16,0.933025,2056.65,-483.005)">
            <circle cx="4930.93" cy="5291.76" r="201.291" style="fill:white;"/>
        </g>
        <g transform="matrix(0.731099,1.79068e-16,-1.79068e-16,0.731099,3472.67,-1527.72)">
            <circle cx="4930.93" cy="5291.76" r="201.291" style="fill:white;"/>
        </g>
        <g transform="matrix(0.631226,1.54606e-16,-1.54606e-16,0.631226,3965.14,-1351.51)">
            <circle cx="4930.93" cy="5291.76" r="201.291" style="fill:white;"/>
        </g>
        <g transform="matrix(0.40881,1.0013e-16,-1.0013e-16,0.40881,5061.85,-1727.58)">
            <circle cx="4930.93" cy="5291.76" r="201.291" style="fill:white;"/>
        </g>
        <g transform="matrix(0.466512,1.14263e-16,-1.14263e-16,0.466512,4777.33,-1435.32)">
            <circle cx="4930.93" cy="5291.76" r="201.291" style="fill:white;"/>
        </g>
        <g transform="matrix(-0.874185,-1.07057e-16,1.07057e-16,-0.874185,5689.07,11272.1)">
            <circle cx="4930.93" cy="5291.76" r="201.291" style="fill:white;"/>
        </g>
        <g transform="matrix(-1.072,-1.31282e-16,1.31282e-16,-1.072,6250.44,10991.5)">
            <circle cx="4930.93" cy="5291.76" r="201.291" style="fill:white;"/>
        </g>
        <g transform="matrix(-0.81762,-1.0013e-16,1.0013e-16,-0.81762,5122.34,11512.6)">
            <circle cx="4930.93" cy="5291.76" r="201.291" style="fill:white;"/>
        </g>
        <g transform="matrix(-0.933025,-1.14263e-16,1.14263e-16,-0.933025,5661.1,11050.8)">
            <circle cx="4930.93" cy="5291.76" r="201.291" style="fill:white;"/>
        </g>
        <g transform="matrix(-0.731099,-8.95338e-17,8.95338e-17,-0.731099,5087.64,11697)">
            <circle cx="4930.93" cy="5291.76" r="201.291" style="fill:white;"/>
        </g>
        <g transform="matrix(-0.631226,-7.73029e-17,7.73029e-17,-0.631226,5457.07,11783.4)">
            <circle cx="4930.93" cy="5291.76" r="201.291" style="fill:white;"/>
        </g>
        <g transform="matrix(-0.40881,-5.00648e-17,5.00648e-17,-0.40881,5957.46,11694.9)">
            <circle cx="4930.93" cy="5291.76" r="201.291" style="fill:white;"/>
        </g>
        <g transform="matrix(-0.466512,-5.71313e-17,5.71313e-17,-0.466512,5342.73,11443.1)">
            <circle cx="4930.93" cy="5291.76" r="201.291" style="fill:white;"/>
        </g>
        <g transform="matrix(0.874185,2.14114e-16,-2.14114e-16,0.874185,-3282.94,-648.395)">
            <circle cx="4930.93" cy="5291.76" r="201.291" style="fill:white;"/>
        </g>
        <g transform="matrix(0.81762,2.00259e-16,-2.00259e-16,0.81762,-2875.26,-868.662)">
            <circle cx="4930.93" cy="5291.76" r="201.291" style="fill:white;"/>
        </g>
        <g transform="matrix(0.933025,2.28525e-16,-2.28525e-16,0.933025,-3610.94,-376.54)">
            <circle cx="4930.93" cy="5291.76" r="201.291" style="fill:white;"/>
        </g>
        <g transform="matrix(0.731099,1.79068e-16,-1.79068e-16,0.731099,-2332.5,-901.606)">
            <circle cx="4930.93" cy="5291.76" r="201.291" style="fill:white;"/>
        </g>
        <g transform="matrix(0.631226,1.54606e-16,-1.54606e-16,0.631226,-1496.68,-745.592)">
            <circle cx="4930.93" cy="5291.76" r="201.291" style="fill:white;"/>
        </g>
        <g transform="matrix(0.40881,1.0013e-16,-1.0013e-16,0.40881,-11.5774,-505.107)">
            <circle cx="4930.93" cy="5291.76" r="201.291" style="fill:white;"/>
        </g>
        <g transform="matrix(0.466512,1.14263e-16,-1.14263e-16,0.466512,-296.104,-212.842)">
            <circle cx="4930.93" cy="5291.76" r="201.291" style="fill:white;"/>
        </g>
        <g transform="matrix(-0.874185,-1.07057e-16,1.07057e-16,-0.874185,13091,11272.1)">
            <circle cx="4930.93" cy="5291.76" r="201.291" style="fill:white;"/>
        </g>
        <g transform="matrix(-1.072,-1.31282e-16,1.31282e-16,-1.072,14475.4,10991.5)">
            <circle cx="4930.93" cy="5291.76" r="201.291" style="fill:white;"/>
        </g>
        <g transform="matrix(-0.81762,-1.0013e-16,1.0013e-16,-0.81762,13104.9,11512.6)">
            <circle cx="4930.93" cy="5291.76" r="201.291" style="fill:white;"/>
        </g>
        <g transform="matrix(-0.933025,-1.14263e-16,1.14263e-16,-0.933025,13704.3,11050.8)">
            <circle cx="4930.93" cy="5291.76" r="201.291" style="fill:white;"/>
        </g>
        <g transform="matrix(-0.731099,-8.95338e-17,8.95338e-17,-0.731099,12303.2,11697)">
            <circle cx="4930.93" cy="5291.76" r="201.291" style="fill:white;"/>
        </g>
        <g transform="matrix(-0.631226,-7.73029e-17,7.73029e-17,-0.631226,11464.9,11783.4)">
            <circle cx="4930.93" cy="5291.76" r="201.291" style="fill:white;"/>
        </g>
        <g transform="matrix(-0.40881,-5.00648e-17,5.00648e-17,-0.40881,8238.2,11694.9)">
            <circle cx="4930.93" cy="5291.76" r="201.291" style="fill:white;"/>
        </g>
        <g transform="matrix(-0.466512,-5.71313e-17,5.71313e-17,-0.466512,9036.78,11443.1)">
            <circle cx="4930.93" cy="5291.76" r="201.291" style="fill:white;"/>
        </g>
        <g transform="matrix(0.874185,2.14114e-16,-2.14114e-16,0.874185,4870.49,-648.395)">
            <circle cx="4930.93" cy="5291.76" r="201.291" style="fill:white;"/>
        </g>
        <g transform="matrix(0.81762,2.00259e-16,-2.00259e-16,0.81762,5041.69,-868.662)">
            <circle cx="4930.93" cy="5291.76" r="201.291" style="fill:white;"/>
        </g>
        <g transform="matrix(0.933025,2.28525e-16,-2.28525e-16,0.933025,4634.22,-376.54)">
            <circle cx="4930.93" cy="5291.76" r="201.291" style="fill:white;"/>
        </g>
        <g transform="matrix(0.731099,1.79068e-16,-1.79068e-16,0.731099,5407.73,-901.606)">
            <circle cx="4930.93" cy="5291.76" r="201.291" style="fill:white;"/>
        </g>
        <g transform="matrix(0.631226,1.54606e-16,-1.54606e-16,0.631226,5632.47,-940.571)">
            <circle cx="4930.93" cy="5291.76" r="201.291" style="fill:white;"/>
        </g>
        <g transform="matrix(0.40881,1.0013e-16,-1.0013e-16,0.40881,5889.38,-251.338)">
            <circle cx="4930.93" cy="5291.76" r="201.291" style="fill:white;"/>
        </g>
        <g transform="matrix(0.466512,1.14263e-16,-1.14263e-16,0.466512,6694.12,-573.785)">
            <circle cx="4930.93" cy="5291.76" r="201.291" style="fill:white;"/>
        </g>
        <g transform="matrix(-0.874185,-1.07057e-16,1.07057e-16,-0.874185,7396.91,10848)">
            <circle cx="4930.93" cy="5291.76" r="201.291" style="fill:white;"/>
        </g>
        <g transform="matrix(-1.072,-1.31282e-16,1.31282e-16,-1.072,8372.32,10789.5)">
            <circle cx="4930.93" cy="5291.76" r="201.291" style="fill:white;"/>
        </g>
        <g transform="matrix(-0.933025,-1.14263e-16,1.14263e-16,-0.933025,7520.42,10667)">
            <circle cx="4930.93" cy="5291.76" r="201.291" style="fill:white;"/>
        </g>
        <g transform="matrix(-0.631226,-7.73029e-17,7.73029e-17,-0.631226,6447.04,11854.1)">
            <circle cx="4930.93" cy="5291.76" r="201.291" style="fill:white;"/>
        </g>
        <g transform="matrix(-0.40881,-5.00648e-17,5.00648e-17,-0.40881,5102.18,11967.6)">
            <circle cx="4930.93" cy="5291.76" r="201.291" style="fill:white;"/>
        </g>
        <g transform="matrix(-0.466512,-5.71313e-17,5.71313e-17,-0.466512,5771.55,11443.1)">
            <circle cx="4930.93" cy="5291.76" r="201.291" style="fill:white;"/>
        </g>
        <g transform="matrix(0.874185,2.14114e-16,-2.14114e-16,0.874185,-931.313,-648.395)">
            <circle cx="4930.93" cy="5291.76" r="201.291" style="fill:white;"/>
        </g>
        <g transform="matrix(0.81762,2.00259e-16,-2.00259e-16,0.81762,-682.689,-868.662)">
            <circle cx="4930.93" cy="5291.76" r="201.291" style="fill:white;"/>
        </g>
        <g transform="matrix(0.933025,2.28525e-16,-2.28525e-16,0.933025,-1130.56,-376.54)">
            <circle cx="4930.93" cy="5291.76" r="201.291" style="fill:white;"/>
        </g>
        <g transform="matrix(0.731099,1.79068e-16,-1.79068e-16,0.731099,-155.074,-901.606)">
            <circle cx="4930.93" cy="5291.76" r="201.291" style="fill:white;"/>
        </g>
        <g transform="matrix(0.631226,1.54606e-16,-1.54606e-16,0.631226,498.967,-745.592)">
            <circle cx="4930.93" cy="5291.76" r="201.291" style="fill:white;"/>
        </g>
        <g transform="matrix(0.40881,1.0013e-16,-1.0013e-16,0.40881,1070.56,-1727.58)">
            <circle cx="4930.93" cy="5291.76" r="201.291" style="fill:white;"/>
        </g>
        <g transform="matrix(0.466512,1.14263e-16,-1.14263e-16,0.466512,786.032,-1435.32)">
            <circle cx="4930.93" cy="5291.76" r="201.291" style="fill:white;"/>
        </g>
        <g transform="matrix(-0.874185,-1.07057e-16,1.07057e-16,-0.874185,10057.8,10848)">
            <circle cx="4930.93" cy="5291.76" r="201.291" style="fill:white;"/>
        </g>
        <g transform="matrix(-1.072,-1.31282e-16,1.31282e-16,-1.072,10856.5,10792.8)">
            <circle cx="4930.93" cy="5291.76" r="201.291" style="fill:white;"/>
        </g>
        <g transform="matrix(-0.933025,-1.14263e-16,1.14263e-16,-0.933025,10403.5,10667)">
            <circle cx="4930.93" cy="5291.76" r="201.291" style="fill:white;"/>
        </g>
        <g transform="matrix(-0.40881,-5.00648e-17,5.00648e-17,-0.40881,7763.04,12321)">
            <circle cx="4930.93" cy="5291.76" r="201.291" style="fill:rgb(218,235,231);"/>
        </g>
        <g transform="matrix(-0.466512,-5.71313e-17,5.71313e-17,-0.466512,8047.57,11554.1)">
            <circle cx="4930.93" cy="5291.76" r="201.291" style="fill:white;"/>
        </g>
        <g transform="matrix(0.874185,2.14114e-16,-2.14114e-16,0.874185,1285.48,-830.17)">
            <circle cx="4930.93" cy="5291.76" r="201.291" style="fill:white;"/>
        </g>
        <g transform="matrix(0.81762,2.00259e-16,-2.00259e-16,0.81762,1892.88,-799.707)">
            <circle cx="4930.93" cy="5291.76" r="201.291" style="fill:white;"/>
        </g>
        <g transform="matrix(0.731099,1.79068e-16,-1.79068e-16,0.731099,2142.24,-998.656)">
            <circle cx="4930.93" cy="5291.76" r="201.291" style="fill:white;"/>
        </g>
        <g transform="matrix(0.631226,1.54606e-16,-1.54606e-16,0.631226,2634.7,-940.571)">
            <circle cx="4930.93" cy="5291.76" r="201.291" style="fill:white;"/>
        </g>
        <g transform="matrix(0.40881,1.0013e-16,-1.0013e-16,0.40881,3731.42,-2091.13)">
            <circle cx="4930.93" cy="5291.76" r="201.291" style="fill:white;"/>
        </g>
        <g transform="matrix(0.466512,1.14263e-16,-1.14263e-16,0.466512,3446.9,-1859.46)">
            <circle cx="4930.93" cy="5291.76" r="201.291" style="fill:white;"/>
        </g>
        <g transform="matrix(-0.874185,-1.07057e-16,1.07057e-16,-0.874185,12053.4,10848)">
            <circle cx="4930.93" cy="5291.76" r="201.291" style="fill:white;"/>
        </g>
        <g transform="matrix(-1.072,-1.31282e-16,1.31282e-16,-1.072,13028.8,10789.5)">
            <circle cx="4930.93" cy="5291.76" r="201.291" style="fill:white;"/>
        </g>
        <g transform="matrix(-0.81762,-1.0013e-16,1.0013e-16,-0.81762,11774.5,11512.6)">
            <circle cx="4930.93" cy="5291.76" r="201.291" style="fill:white;"/>
        </g>
        <g transform="matrix(-0.933025,-1.14263e-16,1.14263e-16,-0.933025,12565.7,10667)">
            <circle cx="4930.93" cy="5291.76" r="201.291" style="fill:white;"/>
        </g>
        <g transform="matrix(-0.731099,-8.95338e-17,8.95338e-17,-0.731099,11010.3,11697)">
            <circle cx="4930.93" cy="5291.76" r="201.291" style="fill:white;"/>
        </g>
        <g transform="matrix(-0.631226,-7.73029e-17,7.73029e-17,-0.631226,10967.4,11783.4)">
            <circle cx="4930.93" cy="5291.76" r="201.291" style="fill:white;"/>
        </g>
        <g transform="matrix(-0.40881,-5.00648e-17,5.00648e-17,-0.40881,9758.69,11634.3)">
            <circle cx="4930.93" cy="5291.76" r="201.291" style="fill:white;"/>
        </g>
        <g transform="matrix(-0.466512,-5.71313e-17,5.71313e-17,-0.466512,10290.5,11443.1)">
            <circle cx="4930.93" cy="5291.76" r="201.291" style="fill:white;"/>
        </g>
        <g transform="matrix(0.874185,2.14114e-16,-2.14114e-16,0.874185,3282.07,-579.182)">
            <circle cx="4930.93" cy="5291.76" r="201.291" style="fill:white;"/>
        </g>
        <g transform="matrix(0.81762,2.00259e-16,-2.00259e-16,0.81762,3560.99,-799.448)">
            <circle cx="4930.93" cy="5291.76" r="201.291" style="fill:white;"/>
        </g>
        <g transform="matrix(0.933025,2.28525e-16,-2.28525e-16,0.933025,2889.74,-376.54)">
            <circle cx="4930.93" cy="5291.76" r="201.291" style="fill:white;"/>
        </g>
        <g transform="matrix(0.933025,2.28525e-16,-2.28525e-16,0.933025,1701.23,-700.305)">
            <circle cx="4930.93" cy="5291.76" r="201.291" style="fill:white;"/>
        </g>
        <g transform="matrix(0.731099,1.79068e-16,-1.79068e-16,0.731099,4137.89,-901.606)">
            <circle cx="4930.93" cy="5291.76" r="201.291" style="fill:white;"/>
        </g>
        <g transform="matrix(0.631226,1.54606e-16,-1.54606e-16,0.631226,4433.22,-940.571)">
            <circle cx="4930.93" cy="5291.76" r="201.291" style="fill:white;"/>
        </g>
        <g transform="matrix(0.40881,1.0013e-16,-1.0013e-16,0.40881,5727.07,-1414.53)">
            <circle cx="4930.93" cy="5291.76" r="201.291" style="fill:white;"/>
        </g>
        <g transform="matrix(0.466512,1.14263e-16,-1.14263e-16,0.466512,5212.25,-948.248)">
            <circle cx="4930.93" cy="5291.76" r="201.291" style="fill:white;"/>
        </g>
        <g transform="matrix(-0.874185,-1.07057e-16,1.07057e-16,-0.874185,6642.1,11201.5)">
            <circle cx="4930.93" cy="5291.76" r="201.291" style="fill:white;"/>
        </g>
        <g transform="matrix(-1.072,-1.31282e-16,1.31282e-16,-1.072,7041.88,10991.5)">
            <circle cx="4930.93" cy="5291.76" r="201.291" style="fill:white;"/>
        </g>
        <g transform="matrix(-0.81762,-1.0013e-16,1.0013e-16,-0.81762,5787.56,11512.6)">
            <circle cx="4930.93" cy="5291.76" r="201.291" style="fill:white;"/>
        </g>
        <g transform="matrix(-0.933025,-1.14263e-16,1.14263e-16,-0.933025,6356.61,11101.3)">
            <circle cx="4930.93" cy="5291.76" r="201.291" style="fill:white;"/>
        </g>
        <g transform="matrix(-0.731099,-8.95338e-17,8.95338e-17,-0.731099,5710.53,11697)">
            <circle cx="4930.93" cy="5291.76" r="201.291" style="fill:white;"/>
        </g>
        <g transform="matrix(-0.631226,-7.73029e-17,7.73029e-17,-0.631226,4962.09,11783.4)">
            <circle cx="4930.93" cy="5291.76" r="201.291" style="fill:white;"/>
        </g>
        <g transform="matrix(-0.40881,-5.00648e-17,5.00648e-17,-0.40881,6717.7,11836.3)">
            <circle cx="4930.93" cy="5291.76" r="201.291" style="fill:white;"/>
        </g>
        <g transform="matrix(-0.466512,-5.71313e-17,5.71313e-17,-0.466512,4056.27,11443.1)">
            <circle cx="4930.93" cy="5291.76" r="201.291" style="fill:white;"/>
        </g>
        <g transform="matrix(0.874185,2.14114e-16,-2.14114e-16,0.874185,-2499.06,-648.395)">
            <circle cx="4930.93" cy="5291.76" r="201.291" style="fill:white;"/>
        </g>
        <g transform="matrix(0.81762,2.00259e-16,-2.00259e-16,0.81762,-2144.4,-868.662)">
            <circle cx="4930.93" cy="5291.76" r="201.291" style="fill:white;"/>
        </g>
        <g transform="matrix(0.933025,2.28525e-16,-2.28525e-16,0.933025,-2784.15,-376.54)">
            <circle cx="4930.93" cy="5291.76" r="201.291" style="fill:white;"/>
        </g>
        <g transform="matrix(0.731099,1.79068e-16,-1.79068e-16,0.731099,-1606.69,-901.606)">
            <circle cx="4930.93" cy="5291.76" r="201.291" style="fill:white;"/>
        </g>
        <g transform="matrix(0.631226,1.54606e-16,-1.54606e-16,0.631226,-831.465,-745.592)">
            <circle cx="4930.93" cy="5291.76" r="201.291" style="fill:white;"/>
        </g>
        <g transform="matrix(0.631226,1.54606e-16,-1.54606e-16,0.631226,-621.886,-1015.22)">
            <circle cx="4930.93" cy="5291.76" r="201.291" style="fill:white;"/>
        </g>
        <g transform="matrix(0.631226,1.54606e-16,-1.54606e-16,0.631226,-420.766,-1324.58)">
            <circle cx="4930.93" cy="5291.76" r="201.291" style="fill:white;"/>
        </g>
        <g transform="matrix(0.631226,1.54606e-16,-1.54606e-16,0.631226,-117.999,-1634.1)">
            <circle cx="4930.93" cy="5291.76" r="201.291" style="fill:white;"/>
        </g>
        <g transform="matrix(0.631226,1.54606e-16,-1.54606e-16,0.631226,185.488,-1818.21)">
            <circle cx="4930.93" cy="5291.76" r="201.291" style="fill:white;"/>
        </g>
        <g transform="matrix(0.631226,1.54606e-16,-1.54606e-16,0.631226,587.358,-1945.27)">
            <circle cx="4930.93" cy="5291.76" r="201.291" style="fill:white;"/>
        </g>
        <g transform="matrix(0.631226,1.54606e-16,-1.54606e-16,0.631226,954.615,-1945.27)">
            <circle cx="4930.93" cy="5291.76" r="201.291" style="fill:white;"/>
        </g>
        <g transform="matrix(0.475831,1.16545e-16,-1.16545e-16,0.475831,2018.76,-1027.17)">
            <circle cx="4930.93" cy="5291.76" r="201.291" style="fill:white;"/>
        </g>
        <g transform="matrix(0.40881,1.0013e-16,-1.0013e-16,0.40881,3762.76,-498.722)">
            <circle cx="4930.93" cy="5291.76" r="201.291" style="fill:white;"/>
        </g>
        <g transform="matrix(0.466512,1.14263e-16,-1.14263e-16,0.466512,-473.358,-1244.26)">
            <circle cx="4930.93" cy="5291.76" r="201.291" style="fill:white;"/>
        </g>
        <g transform="matrix(-0.874185,-1.07057e-16,1.07057e-16,-0.874185,14109.7,11272.1)">
            <circle cx="4930.93" cy="5291.76" r="201.291" style="fill:white;"/>
        </g>
        <g transform="matrix(-1.072,-1.31282e-16,1.31282e-16,-1.072,15256.7,10991.5)">
            <circle cx="4930.93" cy="5291.76" r="201.291" style="fill:white;"/>
        </g>
        <g transform="matrix(-0.81762,-1.0013e-16,1.0013e-16,-0.81762,13689.4,11512.6)">
            <circle cx="4930.93" cy="5291.76" r="201.291" style="fill:white;"/>
        </g>
        <g transform="matrix(-0.933025,-1.14263e-16,1.14263e-16,-0.933025,14339.2,10990.2)">
            <circle cx="4930.93" cy="5291.76" r="201.291" style="fill:white;"/>
        </g>
        <g transform="matrix(-0.731099,-8.95338e-17,8.95338e-17,-0.731099,12949.7,11697)">
            <circle cx="4930.93" cy="5291.76" r="201.291" style="fill:white;"/>
        </g>
        <g transform="matrix(-0.631226,-7.73029e-17,7.73029e-17,-0.631226,11962.4,11783.4)">
            <circle cx="4930.93" cy="5291.76" r="201.291" style="fill:white;"/>
        </g>
        <g transform="matrix(-0.40881,-5.00648e-17,5.00648e-17,-0.40881,8998.45,11573.7)">
            <circle cx="4930.93" cy="5291.76" r="201.291" style="fill:white;"/>
        </g>
        <g transform="matrix(-0.466512,-5.71313e-17,5.71313e-17,-0.466512,9872.61,11443.1)">
            <circle cx="4930.93" cy="5291.76" r="201.291" style="fill:white;"/>
        </g>
        <g transform="matrix(0.874185,2.14114e-16,-2.14114e-16,0.874185,5589.57,-648.395)">
            <circle cx="4930.93" cy="5291.76" r="201.291" style="fill:white;"/>
        </g>
        <g transform="matrix(0.81762,2.00259e-16,-2.00259e-16,0.81762,5706.91,-868.662)">
            <circle cx="4930.93" cy="5291.76" r="201.291" style="fill:white;"/>
        </g>
        <g transform="matrix(0.933025,2.28525e-16,-2.28525e-16,0.933025,5380.22,-376.54)">
            <circle cx="4930.93" cy="5291.76" r="201.291" style="fill:white;"/>
        </g>
        <g transform="matrix(0.731099,1.79068e-16,-1.79068e-16,0.731099,6042.65,-901.606)">
            <circle cx="4930.93" cy="5291.76" r="201.291" style="fill:white;"/>
        </g>
        <g transform="matrix(0.631226,1.54606e-16,-1.54606e-16,0.631226,6232.1,-940.571)">
            <circle cx="4930.93" cy="5291.76" r="201.291" style="fill:white;"/>
        </g>
        <g transform="matrix(0.40881,1.0013e-16,-1.0013e-16,0.40881,3066.21,-942.855)">
            <circle cx="4930.93" cy="5291.76" r="201.291" style="fill:white;"/>
        </g>
        <g transform="matrix(0.466512,1.14263e-16,-1.14263e-16,0.466512,2781.68,-650.59)">
            <circle cx="4930.93" cy="5291.76" r="201.291" style="fill:white;"/>
        </g>
        <g transform="matrix(-0.874185,-1.07057e-16,1.07057e-16,-0.874185,8062.13,10848)">
            <circle cx="4930.93" cy="5291.76" r="201.291" style="fill:white;"/>
        </g>
        <g transform="matrix(-1.072,-1.31282e-16,1.31282e-16,-1.072,9204.35,10831.6)">
            <circle cx="4930.93" cy="5291.76" r="201.291" style="fill:white;"/>
        </g>
        <g transform="matrix(-0.933025,-1.14263e-16,1.14263e-16,-0.933025,8241.18,10667)">
            <circle cx="4930.93" cy="5291.76" r="201.291" style="fill:white;"/>
        </g>
        <g transform="matrix(-0.40881,-5.00648e-17,5.00648e-17,-0.40881,5767.4,12210)">
            <circle cx="4930.93" cy="5291.76" r="201.291" style="fill:white;"/>
        </g>
        <g transform="matrix(-0.466512,-5.71313e-17,5.71313e-17,-0.466512,6200.37,11345.1)">
            <circle cx="4930.93" cy="5291.76" r="201.291" style="fill:white;"/>
        </g>
        <g transform="matrix(0.731099,1.79068e-16,-1.79068e-16,0.731099,335.629,-1463.35)">
            <circle cx="4930.93" cy="5291.76" r="201.291" style="fill:white;"/>
        </g>
        <g transform="matrix(0.631226,1.54606e-16,-1.54606e-16,0.631226,123.531,-1131.31)">
            <circle cx="4930.93" cy="5291.76" r="201.291" style="fill:white;"/>
        </g>
        <g transform="matrix(0.40881,1.0013e-16,-1.0013e-16,0.40881,1735.77,-1980.05)">
            <circle cx="4930.93" cy="5291.76" r="201.291" style="fill:white;"/>
        </g>
        <g transform="matrix(0.466512,1.14263e-16,-1.14263e-16,0.466512,1451.25,-1768.57)">
            <circle cx="4930.93" cy="5291.76" r="201.291" style="fill:white;"/>
        </g>
        <g transform="matrix(-0.874185,-1.07057e-16,1.07057e-16,-0.874185,10723,10848)">
            <circle cx="4930.93" cy="5291.76" r="201.291" style="fill:white;"/>
        </g>
        <g transform="matrix(-1.072,-1.31282e-16,1.31282e-16,-1.072,11601.4,10789.5)">
            <circle cx="4930.93" cy="5291.76" r="201.291" style="fill:white;"/>
        </g>
        <g transform="matrix(-0.933025,-1.14263e-16,1.14263e-16,-0.933025,11124.2,10667)">
            <circle cx="4930.93" cy="5291.76" r="201.291" style="fill:white;"/>
        </g>
        <g transform="matrix(-0.40881,-5.00648e-17,5.00648e-17,-0.40881,8428.26,12210)">
            <circle cx="4930.93" cy="5291.76" r="201.291" style="fill:white;"/>
        </g>
        <g transform="matrix(-0.466512,-5.71313e-17,5.71313e-17,-0.466512,8618.87,11345.1)">
            <circle cx="4930.93" cy="5291.76" r="201.291" style="fill:white;"/>
        </g>
        <g transform="matrix(0.874185,2.14114e-16,-2.14114e-16,0.874185,2004.99,-830.17)">
            <circle cx="4930.93" cy="5291.76" r="201.291" style="fill:white;"/>
        </g>
        <g transform="matrix(0.81762,2.00259e-16,-2.00259e-16,0.81762,2622.6,-1270.03)">
            <circle cx="4930.93" cy="5291.76" r="201.291" style="fill:white;"/>
        </g>
        <g transform="matrix(0.933025,2.28525e-16,-2.28525e-16,0.933025,1335.41,-908.311)">
            <circle cx="4930.93" cy="5291.76" r="201.291" style="fill:white;"/>
        </g>
        <g transform="matrix(0.731099,1.79068e-16,-1.79068e-16,0.731099,2807.46,-1315.65)">
            <circle cx="4930.93" cy="5291.76" r="201.291" style="fill:white;"/>
        </g>
        <g transform="matrix(0.631226,1.54606e-16,-1.54606e-16,0.631226,3299.92,-1351.51)">
            <circle cx="4930.93" cy="5291.76" r="201.291" style="fill:white;"/>
        </g>
        <g transform="matrix(0.40881,1.0013e-16,-1.0013e-16,0.40881,4396.64,-1980.05)">
            <circle cx="4930.93" cy="5291.76" r="201.291" style="fill:white;"/>
        </g>
        <g transform="matrix(0.466512,1.14263e-16,-1.14263e-16,0.466512,4112.11,-1768.57)">
            <circle cx="4930.93" cy="5291.76" r="201.291" style="fill:white;"/>
        </g>
        <g transform="matrix(-0.874185,-1.07057e-16,1.07057e-16,-0.874185,4685.55,11272.1)">
            <circle cx="4930.93" cy="5291.76" r="201.291" style="fill:white;"/>
        </g>
        <g transform="matrix(-1.072,-1.31282e-16,1.31282e-16,-1.072,5458.99,10991.5)">
            <circle cx="4930.93" cy="5291.76" r="201.291" style="fill:white;"/>
        </g>
        <g transform="matrix(-0.81762,-1.0013e-16,1.0013e-16,-0.81762,4588.41,11512.6)">
            <circle cx="4930.93" cy="5291.76" r="201.291" style="fill:white;"/>
        </g>
        <g transform="matrix(-0.933025,-1.14263e-16,1.14263e-16,-0.933025,5026.18,10990.2)">
            <circle cx="4930.93" cy="5291.76" r="201.291" style="fill:white;"/>
        </g>
        <g transform="matrix(-0.731099,-8.95338e-17,8.95338e-17,-0.731099,4464.74,11697)">
            <circle cx="4930.93" cy="5291.76" r="201.291" style="fill:white;"/>
        </g>
        <g transform="matrix(-0.631226,-7.73029e-17,7.73029e-17,-0.631226,4467.11,11783.4)">
            <circle cx="4930.93" cy="5291.76" r="201.291" style="fill:white;"/>
        </g>
        <g transform="matrix(-0.40881,-5.00648e-17,5.00648e-17,-0.40881,5197.21,11573.7)">
            <circle cx="4930.93" cy="5291.76" r="201.291" style="fill:white;"/>
        </g>
        <g transform="matrix(-0.466512,-5.71313e-17,5.71313e-17,-0.466512,4485.09,11443.1)">
            <circle cx="4930.93" cy="5291.76" r="201.291" style="fill:white;"/>
        </g>
        <g transform="matrix(0.874185,2.14114e-16,-2.14114e-16,0.874185,-4066.81,-648.395)">
            <circle cx="4930.93" cy="5291.76" r="201.291" style="fill:white;"/>
        </g>
        <g transform="matrix(0.81762,2.00259e-16,-2.00259e-16,0.81762,-3606.12,-868.662)">
            <circle cx="4930.93" cy="5291.76" r="201.291" style="fill:white;"/>
        </g>
        <g transform="matrix(0.933025,2.28525e-16,-2.28525e-16,0.933025,-4437.73,-376.54)">
            <circle cx="4930.93" cy="5291.76" r="201.291" style="fill:white;"/>
        </g>
        <g transform="matrix(0.731099,1.79068e-16,-1.79068e-16,0.731099,-3058.3,-901.606)">
            <circle cx="4930.93" cy="5291.76" r="201.291" style="fill:white;"/>
        </g>
        <g transform="matrix(0.631226,1.54606e-16,-1.54606e-16,0.631226,-2321.5,-813.511)">
            <circle cx="4930.93" cy="5291.76" r="201.291" style="fill:white;"/>
        </g>
        <g transform="matrix(0.40881,1.0013e-16,-1.0013e-16,0.40881,-676.793,-505.107)">
            <circle cx="4930.93" cy="5291.76" r="201.291" style="fill:white;"/>
        </g>
        <g transform="matrix(0.466512,1.14263e-16,-1.14263e-16,0.466512,-1260.74,-400.652)">
            <circle cx="4930.93" cy="5291.76" r="201.291" style="fill:white;"/>
        </g>
        <g transform="matrix(-0.874185,-1.07057e-16,1.07057e-16,-0.874185,12132.9,11201.5)">
            <circle cx="4930.93" cy="5291.76" r="201.291" style="fill:white;"/>
        </g>
        <g transform="matrix(-1.072,-1.31282e-16,1.31282e-16,-1.072,13694,10991.5)">
            <circle cx="4930.93" cy="5291.76" r="201.291" style="fill:white;"/>
        </g>
        <g transform="matrix(-0.81762,-1.0013e-16,1.0013e-16,-0.81762,12439.7,11512.6)">
            <circle cx="4930.93" cy="5291.76" r="201.291" style="fill:white;"/>
        </g>
        <g transform="matrix(-0.933025,-1.14263e-16,1.14263e-16,-0.933025,13008.8,11101.3)">
            <circle cx="4930.93" cy="5291.76" r="201.291" style="fill:white;"/>
        </g>
        <g transform="matrix(-0.731099,-8.95338e-17,8.95338e-17,-0.731099,11656.8,11697)">
            <circle cx="4930.93" cy="5291.76" r="201.291" style="fill:white;"/>
        </g>
        <g transform="matrix(-0.631226,-7.73029e-17,7.73029e-17,-0.631226,10469.9,11783.4)">
            <circle cx="4930.93" cy="5291.76" r="201.291" style="fill:white;"/>
        </g>
        <g transform="matrix(-0.40881,-5.00648e-17,5.00648e-17,-0.40881,7477.95,11836.3)">
            <circle cx="4930.93" cy="5291.76" r="201.291" style="fill:white;"/>
        </g>
        <g transform="matrix(-0.466512,-5.71313e-17,5.71313e-17,-0.466512,10708.4,11443.1)">
            <circle cx="4930.93" cy="5291.76" r="201.291" style="fill:white;"/>
        </g>
        <g transform="matrix(0.874185,2.14114e-16,-2.14114e-16,0.874185,4151.41,-648.395)">
            <circle cx="4930.93" cy="5291.76" r="201.291" style="fill:white;"/>
        </g>
        <g transform="matrix(0.81762,2.00259e-16,-2.00259e-16,0.81762,4376.47,-868.662)">
            <circle cx="4930.93" cy="5291.76" r="201.291" style="fill:white;"/>
        </g>
        <g transform="matrix(0.933025,2.28525e-16,-2.28525e-16,0.933025,3888.21,-376.54)">
            <circle cx="4930.93" cy="5291.76" r="201.291" style="fill:white;"/>
        </g>
        <g transform="matrix(0.731099,1.79068e-16,-1.79068e-16,0.731099,4772.81,-901.606)">
            <circle cx="4930.93" cy="5291.76" r="201.291" style="fill:white;"/>
        </g>
        <g transform="matrix(0.631226,1.54606e-16,-1.54606e-16,0.631226,5032.85,-940.571)">
            <circle cx="4930.93" cy="5291.76" r="201.291" style="fill:white;"/>
        </g>
        <g transform="matrix(0.40881,1.0013e-16,-1.0013e-16,0.40881,6162,-1058.74)">
            <circle cx="4930.93" cy="5291.76" r="201.291" style="fill:white;"/>
        </g>
        <g transform="matrix(0.466512,1.14263e-16,-1.14263e-16,0.466512,6327.95,-948.248)">
            <circle cx="4930.93" cy="5291.76" r="201.291" style="fill:white;"/>
        </g>
        <g transform="matrix(-0.874185,-1.07057e-16,1.07057e-16,-0.874185,6731.69,10848)">
            <circle cx="4930.93" cy="5291.76" r="201.291" style="fill:white;"/>
        </g>
        <g transform="matrix(-1.072,-1.31282e-16,1.31282e-16,-1.072,7707.1,10789.5)">
            <circle cx="4930.93" cy="5291.76" r="201.291" style="fill:white;"/>
        </g>
        <g transform="matrix(-0.81762,-1.0013e-16,1.0013e-16,-0.81762,6452.78,11512.6)">
            <circle cx="4930.93" cy="5291.76" r="201.291" style="fill:white;"/>
        </g>
        <g transform="matrix(-0.933025,-1.14263e-16,1.14263e-16,-0.933025,6799.66,10667)">
            <circle cx="4930.93" cy="5291.76" r="201.291" style="fill:white;"/>
        </g>
        <g transform="matrix(-0.731099,-8.95338e-17,8.95338e-17,-0.731099,6333.43,11697)">
            <circle cx="4930.93" cy="5291.76" r="201.291" style="fill:white;"/>
        </g>
        <g transform="matrix(-0.631226,-7.73029e-17,7.73029e-17,-0.631226,5952.05,11783.4)">
            <circle cx="4930.93" cy="5291.76" r="201.291" style="fill:white;"/>
        </g>
        <g transform="matrix(-0.40881,-5.00648e-17,5.00648e-17,-0.40881,4436.96,11634.3)">
            <circle cx="4930.93" cy="5291.76" r="201.291" style="fill:white;"/>
        </g>
        <g transform="matrix(-0.466512,-5.71313e-17,5.71313e-17,-0.466512,4913.91,11443.1)">
            <circle cx="4930.93" cy="5291.76" r="201.291" style="fill:white;"/>
        </g>
        <g transform="matrix(0.874185,2.14114e-16,-2.14114e-16,0.874185,-1715.19,-648.395)">
            <circle cx="4930.93" cy="5291.76" r="201.291" style="fill:white;"/>
        </g>
        <g transform="matrix(0.81762,2.00259e-16,-2.00259e-16,0.81762,-1413.55,-868.662)">
            <circle cx="4930.93" cy="5291.76" r="201.291" style="fill:white;"/>
        </g>
        <g transform="matrix(0.933025,2.28525e-16,-2.28525e-16,0.933025,-1957.35,-376.54)">
            <circle cx="4930.93" cy="5291.76" r="201.291" style="fill:white;"/>
        </g>
        <g transform="matrix(0.731099,1.79068e-16,-1.79068e-16,0.731099,-880.881,-901.606)">
            <circle cx="4930.93" cy="5291.76" r="201.291" style="fill:white;"/>
        </g>
        <g transform="matrix(0.631226,1.54606e-16,-1.54606e-16,0.631226,-166.249,-745.592)">
            <circle cx="4930.93" cy="5291.76" r="201.291" style="fill:white;"/>
        </g>
        <g transform="matrix(0.40881,1.0013e-16,-1.0013e-16,0.40881,405.342,-1374.13)">
            <circle cx="4930.93" cy="5291.76" r="201.291" style="fill:white;"/>
        </g>
        <g transform="matrix(0.466512,1.14263e-16,-1.14263e-16,0.466512,211.703,-1223.25)">
            <circle cx="4930.93" cy="5291.76" r="201.291" style="fill:white;"/>
        </g>
        <g transform="matrix(-0.874185,-1.07057e-16,1.07057e-16,-0.874185,8727.34,10848)">
            <circle cx="4930.93" cy="5291.76" r="201.291" style="fill:white;"/>
        </g>
        <g transform="matrix(-1.072,-1.31282e-16,1.31282e-16,-1.072,9621.17,10401.2)">
            <circle cx="4930.93" cy="5291.76" r="201.291" style="fill:white;"/>
        </g>
        <g transform="matrix(-0.933025,-1.14263e-16,1.14263e-16,-0.933025,8961.93,10667)">
            <circle cx="4930.93" cy="5291.76" r="201.291" style="fill:white;"/>
        </g>
        <g transform="matrix(-0.40881,-5.00648e-17,5.00648e-17,-0.40881,6432.61,12321)">
            <circle cx="4930.93" cy="5291.76" r="201.291" style="fill:rgb(218,235,231);"/>
        </g>
        <g transform="matrix(-0.466512,-5.71313e-17,5.71313e-17,-0.466512,6818.12,11554.1)">
            <circle cx="4930.93" cy="5291.76" r="201.291" style="fill:white;"/>
        </g>
        <g transform="matrix(0.874185,2.14114e-16,-2.14114e-16,0.874185,189.833,-1234.93)">
            <circle cx="4930.93" cy="5291.76" r="201.291" style="fill:white;"/>
        </g>
        <g transform="matrix(0.81762,2.00259e-16,-2.00259e-16,0.81762,292.787,-1575.56)">
            <circle cx="4930.93" cy="5291.76" r="201.291" style="fill:white;"/>
        </g>
        <g transform="matrix(0.933025,2.28525e-16,-2.28525e-16,0.933025,-88.4567,-859.671)">
            <circle cx="4930.93" cy="5291.76" r="201.291" style="fill:white;"/>
        </g>
        <g transform="matrix(0.731099,1.79068e-16,-1.79068e-16,0.731099,784.284,-1826.75)">
            <circle cx="4930.93" cy="5291.76" r="201.291" style="fill:white;"/>
        </g>
        <g transform="matrix(0.631226,1.54606e-16,-1.54606e-16,0.631226,619.509,-1445.41)">
            <circle cx="4930.93" cy="5291.76" r="201.291" style="fill:white;"/>
        </g>
        <g transform="matrix(0.40881,1.0013e-16,-1.0013e-16,0.40881,2400.99,-2091.13)">
            <circle cx="4930.93" cy="5291.76" r="201.291" style="fill:white;"/>
        </g>
        <g transform="matrix(0.466512,1.14263e-16,-1.14263e-16,0.466512,2116.46,-1859.46)">
            <circle cx="4930.93" cy="5291.76" r="201.291" style="fill:white;"/>
        </g>
    </g>
    <g id="Dot-Matrix-Formed" serif:id="Dot Matrix Formed">
    </g>
</svg>
