<?xml version="1.0" encoding="UTF-8" standalone="no"?>
<!DOCTYPE svg PUBLIC "-//W3C//DTD SVG 1.1//EN" "http://www.w3.org/Graphics/SVG/1.1/DTD/svg11.dtd">
<svg width="100%" height="100%" viewBox="0 0 10240 10240" version="1.1" xmlns="http://www.w3.org/2000/svg" xmlns:xlink="http://www.w3.org/1999/xlink" xml:space="preserve" xmlns:serif="http://www.serif.com/" style="fill-rule:evenodd;clip-rule:evenodd;stroke-linecap:round;stroke-linejoin:round;stroke-miterlimit:1.5;">
    <g id="Dot-Matrix-Moved" serif:id="Dot Matrix Moved" transform="matrix(0.990236,0,0,0.990236,87.6016,49.9895)">
        <g>
            <g transform="matrix(-1.072,-1.31282e-16,1.31282e-16,-1.072,9972.65,10792.8)">
                <circle cx="4930.93" cy="5291.76" r="201.291" style="fill:rgb(196,20,68);"/>
            </g>
            <g transform="matrix(-0.933025,-1.14263e-16,1.14263e-16,-0.933025,9682.69,10667)">
                <circle cx="4930.93" cy="5291.76" r="201.291" style="fill:rgb(196,20,68);"/>
            </g>
            <g transform="matrix(-0.40881,-5.00648e-17,5.00648e-17,-0.40881,7097.83,12351.3)">
                <circle cx="4930.93" cy="5291.76" r="201.291" style="fill:rgb(196,20,68);"/>
            </g>
            <g transform="matrix(0.874185,2.14114e-16,-2.14114e-16,0.874185,771.476,-648.395)">
                <circle cx="4930.93" cy="5291.76" r="201.291" style="fill:rgb(196,20,68);"/>
            </g>
            <g transform="matrix(0.81762,2.00259e-16,-2.00259e-16,0.81762,1050.4,-868.662)">
                <circle cx="4930.93" cy="5291.76" r="201.291" style="fill:rgb(196,20,68);"/>
            </g>
            <g transform="matrix(0.933025,2.28525e-16,-2.28525e-16,0.933025,481.342,-321.925)">
                <circle cx="4930.93" cy="5291.76" r="201.291" style="fill:rgb(196,20,68);"/>
            </g>
            <g transform="matrix(0.731099,1.79068e-16,-1.79068e-16,0.731099,1477.02,-901.606)">
                <circle cx="4930.93" cy="5291.76" r="201.291" style="fill:rgb(196,20,68);"/>
            </g>
            <g transform="matrix(0.631226,1.54606e-16,-1.54606e-16,0.631226,1969.49,-940.571)">
                <circle cx="4930.93" cy="5291.76" r="201.291" style="fill:rgb(196,20,68);"/>
            </g>
            <g transform="matrix(0.40881,1.0013e-16,-1.0013e-16,0.40881,3066.21,-2091.13)">
                <circle cx="4930.93" cy="5291.76" r="201.291" style="fill:rgb(196,20,68);"/>
            </g>
            <g transform="matrix(0.466512,1.14263e-16,-1.14263e-16,0.466512,2781.68,-1920.05)">
                <circle cx="4930.93" cy="5291.76" r="201.291" style="fill:rgb(196,20,68);"/>
            </g>
            <g transform="matrix(-1.072,-1.31282e-16,1.31282e-16,-1.072,12315.1,10789.5)">
                <circle cx="4930.93" cy="5291.76" r="201.291" style="fill:rgb(196,20,68);"/>
            </g>
            <g transform="matrix(-0.933025,-1.14263e-16,1.14263e-16,-0.933025,11845,10667)">
                <circle cx="4930.93" cy="5291.76" r="201.291" style="fill:rgb(196,20,68);"/>
            </g>
            <g transform="matrix(-0.40881,-5.00648e-17,5.00648e-17,-0.40881,9093.48,11967.6)">
                <circle cx="4930.93" cy="5291.76" r="201.291" style="fill:rgb(196,20,68);"/>
            </g>
            <g transform="matrix(-0.466512,-5.71313e-17,5.71313e-17,-0.466512,9454.7,11443.1)">
                <circle cx="4930.93" cy="5291.76" r="201.291" style="fill:rgb(196,20,68);"/>
            </g>
            <g transform="matrix(0.731099,1.79068e-16,-1.79068e-16,0.731099,3472.67,-1527.72)">
                <circle cx="4930.93" cy="5291.76" r="201.291" style="fill:rgb(196,20,68);"/>
            </g>
            <g transform="matrix(0.631226,1.54606e-16,-1.54606e-16,0.631226,3965.14,-1351.51)">
                <circle cx="4930.93" cy="5291.76" r="201.291" style="fill:rgb(196,20,68);"/>
            </g>
            <g transform="matrix(0.40881,1.0013e-16,-1.0013e-16,0.40881,5061.85,-1727.58)">
                <circle cx="4930.93" cy="5291.76" r="201.291" style="fill:rgb(196,20,68);"/>
            </g>
            <g transform="matrix(0.466512,1.14263e-16,-1.14263e-16,0.466512,4777.33,-1435.32)">
                <circle cx="4930.93" cy="5291.76" r="201.291" style="fill:rgb(196,20,68);"/>
            </g>
            <g transform="matrix(-0.874185,-1.07057e-16,1.07057e-16,-0.874185,5689.07,11272.1)">
                <circle cx="4930.93" cy="5291.76" r="201.291" style="fill:rgb(196,20,68);"/>
            </g>
            <g transform="matrix(-1.072,-1.31282e-16,1.31282e-16,-1.072,6250.44,10991.5)">
                <circle cx="4930.93" cy="5291.76" r="201.291" style="fill:rgb(196,20,68);"/>
            </g>
            <g transform="matrix(-0.81762,-1.0013e-16,1.0013e-16,-0.81762,5122.34,11512.6)">
                <circle cx="4930.93" cy="5291.76" r="201.291" style="fill:rgb(196,20,68);"/>
            </g>
            <g transform="matrix(-0.933025,-1.14263e-16,1.14263e-16,-0.933025,5661.1,11050.8)">
                <circle cx="4930.93" cy="5291.76" r="201.291" style="fill:rgb(196,20,68);"/>
            </g>
            <g transform="matrix(-0.731099,-8.95338e-17,8.95338e-17,-0.731099,5087.64,11697)">
                <circle cx="4930.93" cy="5291.76" r="201.291" style="fill:rgb(196,20,68);"/>
            </g>
            <g transform="matrix(-0.631226,-7.73029e-17,7.73029e-17,-0.631226,5457.07,11783.4)">
                <circle cx="4930.93" cy="5291.76" r="201.291" style="fill:rgb(196,20,68);"/>
            </g>
            <g transform="matrix(-0.40881,-5.00648e-17,5.00648e-17,-0.40881,5957.46,11694.9)">
                <circle cx="4930.93" cy="5291.76" r="201.291" style="fill:rgb(196,20,68);"/>
            </g>
            <g transform="matrix(-0.466512,-5.71313e-17,5.71313e-17,-0.466512,5342.73,11443.1)">
                <circle cx="4930.93" cy="5291.76" r="201.291" style="fill:rgb(196,20,68);"/>
            </g>
            <g transform="matrix(0.874185,2.14114e-16,-2.14114e-16,0.874185,-3282.94,-648.395)">
                <circle cx="4930.93" cy="5291.76" r="201.291" style="fill:rgb(196,20,68);"/>
            </g>
            <g transform="matrix(0.81762,2.00259e-16,-2.00259e-16,0.81762,-2875.26,-868.662)">
                <circle cx="4930.93" cy="5291.76" r="201.291" style="fill:rgb(196,20,68);"/>
            </g>
            <g transform="matrix(0.933025,2.28525e-16,-2.28525e-16,0.933025,-3610.94,-376.54)">
                <circle cx="4930.93" cy="5291.76" r="201.291" style="fill:rgb(196,20,68);"/>
            </g>
            <g transform="matrix(0.731099,1.79068e-16,-1.79068e-16,0.731099,-2332.5,-901.606)">
                <circle cx="4930.93" cy="5291.76" r="201.291" style="fill:rgb(196,20,68);"/>
            </g>
            <g transform="matrix(0.631226,1.54606e-16,-1.54606e-16,0.631226,-1496.68,-745.592)">
                <circle cx="4930.93" cy="5291.76" r="201.291" style="fill:rgb(196,20,68);"/>
            </g>
            <g transform="matrix(0.40881,1.0013e-16,-1.0013e-16,0.40881,-11.5774,-505.107)">
                <circle cx="4930.93" cy="5291.76" r="201.291" style="fill:rgb(196,20,68);"/>
            </g>
            <g transform="matrix(0.466512,1.14263e-16,-1.14263e-16,0.466512,-296.104,-212.842)">
                <circle cx="4930.93" cy="5291.76" r="201.291" style="fill:rgb(196,20,68);"/>
            </g>
            <g transform="matrix(-0.874185,-1.07057e-16,1.07057e-16,-0.874185,13091,11272.1)">
                <circle cx="4930.93" cy="5291.76" r="201.291" style="fill:rgb(196,20,68);"/>
            </g>
            <g transform="matrix(-1.072,-1.31282e-16,1.31282e-16,-1.072,14475.4,10991.5)">
                <circle cx="4930.93" cy="5291.76" r="201.291" style="fill:rgb(196,20,68);"/>
            </g>
            <g transform="matrix(-0.81762,-1.0013e-16,1.0013e-16,-0.81762,13104.9,11512.6)">
                <circle cx="4930.93" cy="5291.76" r="201.291" style="fill:rgb(196,20,68);"/>
            </g>
            <g transform="matrix(-0.933025,-1.14263e-16,1.14263e-16,-0.933025,13704.3,11050.8)">
                <circle cx="4930.93" cy="5291.76" r="201.291" style="fill:rgb(196,20,68);"/>
            </g>
            <g transform="matrix(-0.731099,-8.95338e-17,8.95338e-17,-0.731099,12303.2,11697)">
                <circle cx="4930.93" cy="5291.76" r="201.291" style="fill:rgb(196,20,68);"/>
            </g>
            <g transform="matrix(-0.631226,-7.73029e-17,7.73029e-17,-0.631226,11464.9,11783.4)">
                <circle cx="4930.93" cy="5291.76" r="201.291" style="fill:rgb(196,20,68);"/>
            </g>
            <g transform="matrix(-0.40881,-5.00648e-17,5.00648e-17,-0.40881,8238.2,11694.9)">
                <circle cx="4930.93" cy="5291.76" r="201.291" style="fill:rgb(196,20,68);"/>
            </g>
            <g transform="matrix(-0.466512,-5.71313e-17,5.71313e-17,-0.466512,9036.78,11443.1)">
                <circle cx="4930.93" cy="5291.76" r="201.291" style="fill:rgb(196,20,68);"/>
            </g>
            <g transform="matrix(0.874185,2.14114e-16,-2.14114e-16,0.874185,4870.49,-648.395)">
                <circle cx="4930.93" cy="5291.76" r="201.291" style="fill:rgb(196,20,68);"/>
            </g>
            <g transform="matrix(0.81762,2.00259e-16,-2.00259e-16,0.81762,5041.69,-868.662)">
                <circle cx="4930.93" cy="5291.76" r="201.291" style="fill:rgb(196,20,68);"/>
            </g>
            <g transform="matrix(0.933025,2.28525e-16,-2.28525e-16,0.933025,4634.22,-376.54)">
                <circle cx="4930.93" cy="5291.76" r="201.291" style="fill:rgb(196,20,68);"/>
            </g>
            <g transform="matrix(0.731099,1.79068e-16,-1.79068e-16,0.731099,5407.73,-901.606)">
                <circle cx="4930.93" cy="5291.76" r="201.291" style="fill:rgb(196,20,68);"/>
            </g>
            <g transform="matrix(0.631226,1.54606e-16,-1.54606e-16,0.631226,5632.47,-940.571)">
                <circle cx="4930.93" cy="5291.76" r="201.291" style="fill:rgb(196,20,68);"/>
            </g>
            <g transform="matrix(0.40881,1.0013e-16,-1.0013e-16,0.40881,5889.38,-251.338)">
                <circle cx="4930.93" cy="5291.76" r="201.291" style="fill:rgb(196,20,68);"/>
            </g>
            <g transform="matrix(0.466512,1.14263e-16,-1.14263e-16,0.466512,6694.12,-573.785)">
                <circle cx="4930.93" cy="5291.76" r="201.291" style="fill:rgb(196,20,68);"/>
            </g>
            <g transform="matrix(-1.072,-1.31282e-16,1.31282e-16,-1.072,8372.32,10789.5)">
                <circle cx="4930.93" cy="5291.76" r="201.291" style="fill:rgb(196,20,68);"/>
            </g>
            <g transform="matrix(-0.933025,-1.14263e-16,1.14263e-16,-0.933025,7520.42,10667)">
                <circle cx="4930.93" cy="5291.76" r="201.291" style="fill:rgb(196,20,68);"/>
            </g>
            <g transform="matrix(-0.40881,-5.00648e-17,5.00648e-17,-0.40881,5102.18,11967.6)">
                <circle cx="4930.93" cy="5291.76" r="201.291" style="fill:rgb(196,20,68);"/>
            </g>
            <g transform="matrix(-0.466512,-5.71313e-17,5.71313e-17,-0.466512,5771.55,11443.1)">
                <circle cx="4930.93" cy="5291.76" r="201.291" style="fill:rgb(196,20,68);"/>
            </g>
            <g transform="matrix(0.40881,1.0013e-16,-1.0013e-16,0.40881,1070.56,-1727.58)">
                <circle cx="4930.93" cy="5291.76" r="201.291" style="fill:rgb(196,20,68);"/>
            </g>
            <g transform="matrix(0.466512,1.14263e-16,-1.14263e-16,0.466512,786.032,-1435.32)">
                <circle cx="4930.93" cy="5291.76" r="201.291" style="fill:rgb(196,20,68);"/>
            </g>
            <g transform="matrix(-1.072,-1.31282e-16,1.31282e-16,-1.072,10856.5,10792.8)">
                <circle cx="4930.93" cy="5291.76" r="201.291" style="fill:rgb(196,20,68);"/>
            </g>
            <g transform="matrix(-0.933025,-1.14263e-16,1.14263e-16,-0.933025,10403.5,10667)">
                <circle cx="4930.93" cy="5291.76" r="201.291" style="fill:rgb(196,20,68);"/>
            </g>
            <g transform="matrix(-0.40881,-5.00648e-17,5.00648e-17,-0.40881,7763.04,12321)">
                <circle cx="4930.93" cy="5291.76" r="201.291" style="fill:rgb(196,20,68);"/>
            </g>
            <g transform="matrix(0.731099,1.79068e-16,-1.79068e-16,0.731099,2142.24,-998.656)">
                <circle cx="4930.93" cy="5291.76" r="201.291" style="fill:rgb(196,20,68);"/>
            </g>
            <g transform="matrix(0.631226,1.54606e-16,-1.54606e-16,0.631226,2634.7,-940.571)">
                <circle cx="4930.93" cy="5291.76" r="201.291" style="fill:rgb(196,20,68);"/>
            </g>
            <g transform="matrix(0.40881,1.0013e-16,-1.0013e-16,0.40881,3731.42,-2091.13)">
                <circle cx="4930.93" cy="5291.76" r="201.291" style="fill:rgb(196,20,68);"/>
            </g>
            <g transform="matrix(0.466512,1.14263e-16,-1.14263e-16,0.466512,3446.9,-1859.46)">
                <circle cx="4930.93" cy="5291.76" r="201.291" style="fill:rgb(196,20,68);"/>
            </g>
            <g transform="matrix(-1.072,-1.31282e-16,1.31282e-16,-1.072,13028.8,10789.5)">
                <circle cx="4930.93" cy="5291.76" r="201.291" style="fill:rgb(196,20,68);"/>
            </g>
            <g transform="matrix(-0.933025,-1.14263e-16,1.14263e-16,-0.933025,12565.7,10667)">
                <circle cx="4930.93" cy="5291.76" r="201.291" style="fill:rgb(196,20,68);"/>
            </g>
            <g transform="matrix(-0.631226,-7.73029e-17,7.73029e-17,-0.631226,10967.4,11783.4)">
                <circle cx="4930.93" cy="5291.76" r="201.291" style="fill:rgb(196,20,68);"/>
            </g>
            <g transform="matrix(-0.40881,-5.00648e-17,5.00648e-17,-0.40881,9758.69,11634.3)">
                <circle cx="4930.93" cy="5291.76" r="201.291" style="fill:rgb(196,20,68);"/>
            </g>
            <g transform="matrix(-0.466512,-5.71313e-17,5.71313e-17,-0.466512,10290.5,11443.1)">
                <circle cx="4930.93" cy="5291.76" r="201.291" style="fill:rgb(196,20,68);"/>
            </g>
            <g transform="matrix(0.874185,2.14114e-16,-2.14114e-16,0.874185,3282.07,-579.182)">
                <circle cx="4930.93" cy="5291.76" r="201.291" style="fill:rgb(196,20,68);"/>
            </g>
            <g transform="matrix(0.81762,2.00259e-16,-2.00259e-16,0.81762,3560.99,-799.448)">
                <circle cx="4930.93" cy="5291.76" r="201.291" style="fill:rgb(196,20,68);"/>
            </g>
            <g transform="matrix(0.933025,2.28525e-16,-2.28525e-16,0.933025,2889.74,-376.54)">
                <circle cx="4930.93" cy="5291.76" r="201.291" style="fill:rgb(196,20,68);"/>
            </g>
            <g transform="matrix(0.731099,1.79068e-16,-1.79068e-16,0.731099,4137.89,-901.606)">
                <circle cx="4930.93" cy="5291.76" r="201.291" style="fill:rgb(196,20,68);"/>
            </g>
            <g transform="matrix(0.631226,1.54606e-16,-1.54606e-16,0.631226,4433.22,-940.571)">
                <circle cx="4930.93" cy="5291.76" r="201.291" style="fill:rgb(196,20,68);"/>
            </g>
            <g transform="matrix(0.40881,1.0013e-16,-1.0013e-16,0.40881,5727.07,-1414.53)">
                <circle cx="4930.93" cy="5291.76" r="201.291" style="fill:rgb(196,20,68);"/>
            </g>
            <g transform="matrix(0.466512,1.14263e-16,-1.14263e-16,0.466512,5212.25,-948.248)">
                <circle cx="4930.93" cy="5291.76" r="201.291" style="fill:rgb(196,20,68);"/>
            </g>
            <g transform="matrix(-1.072,-1.31282e-16,1.31282e-16,-1.072,7041.88,10991.5)">
                <circle cx="4930.93" cy="5291.76" r="201.291" style="fill:rgb(196,20,68);"/>
            </g>
            <g transform="matrix(-0.81762,-1.0013e-16,1.0013e-16,-0.81762,5787.56,11512.6)">
                <circle cx="4930.93" cy="5291.76" r="201.291" style="fill:rgb(196,20,68);"/>
            </g>
            <g transform="matrix(-0.933025,-1.14263e-16,1.14263e-16,-0.933025,6356.61,11101.3)">
                <circle cx="4930.93" cy="5291.76" r="201.291" style="fill:rgb(196,20,68);"/>
            </g>
            <g transform="matrix(-0.731099,-8.95338e-17,8.95338e-17,-0.731099,5710.53,11697)">
                <circle cx="4930.93" cy="5291.76" r="201.291" style="fill:rgb(196,20,68);"/>
            </g>
            <g transform="matrix(-0.631226,-7.73029e-17,7.73029e-17,-0.631226,4962.09,11783.4)">
                <circle cx="4930.93" cy="5291.76" r="201.291" style="fill:rgb(196,20,68);"/>
            </g>
            <g transform="matrix(-0.40881,-5.00648e-17,5.00648e-17,-0.40881,6717.7,11836.3)">
                <circle cx="4930.93" cy="5291.76" r="201.291" style="fill:rgb(196,20,68);"/>
            </g>
            <g transform="matrix(-0.466512,-5.71313e-17,5.71313e-17,-0.466512,4056.27,11443.1)">
                <circle cx="4930.93" cy="5291.76" r="201.291" style="fill:rgb(196,20,68);"/>
            </g>
            <g transform="matrix(0.874185,2.14114e-16,-2.14114e-16,0.874185,-2499.06,-648.395)">
                <circle cx="4930.93" cy="5291.76" r="201.291" style="fill:rgb(196,20,68);"/>
            </g>
            <g transform="matrix(0.81762,2.00259e-16,-2.00259e-16,0.81762,-2144.4,-868.662)">
                <circle cx="4930.93" cy="5291.76" r="201.291" style="fill:rgb(196,20,68);"/>
            </g>
            <g transform="matrix(0.933025,2.28525e-16,-2.28525e-16,0.933025,-2784.15,-376.54)">
                <circle cx="4930.93" cy="5291.76" r="201.291" style="fill:rgb(196,20,68);"/>
            </g>
            <g transform="matrix(0.731099,1.79068e-16,-1.79068e-16,0.731099,-1606.69,-901.606)">
                <circle cx="4930.93" cy="5291.76" r="201.291" style="fill:rgb(196,20,68);"/>
            </g>
            <g transform="matrix(0.40881,1.0013e-16,-1.0013e-16,0.40881,3762.76,-498.722)">
                <circle cx="4930.93" cy="5291.76" r="201.291" style="fill:rgb(196,20,68);"/>
            </g>
            <g transform="matrix(0.466512,1.14263e-16,-1.14263e-16,0.466512,-473.358,-1244.26)">
                <circle cx="4930.93" cy="5291.76" r="201.291" style="fill:rgb(196,20,68);"/>
            </g>
            <g transform="matrix(-0.874185,-1.07057e-16,1.07057e-16,-0.874185,14109.7,11272.1)">
                <circle cx="4930.93" cy="5291.76" r="201.291" style="fill:rgb(196,20,68);"/>
            </g>
            <g transform="matrix(-1.072,-1.31282e-16,1.31282e-16,-1.072,15256.7,10991.5)">
                <circle cx="4930.93" cy="5291.76" r="201.291" style="fill:rgb(196,20,68);"/>
            </g>
            <g transform="matrix(-0.81762,-1.0013e-16,1.0013e-16,-0.81762,13689.4,11512.6)">
                <circle cx="4930.93" cy="5291.76" r="201.291" style="fill:rgb(196,20,68);"/>
            </g>
            <g transform="matrix(-0.933025,-1.14263e-16,1.14263e-16,-0.933025,14339.2,10990.2)">
                <circle cx="4930.93" cy="5291.76" r="201.291" style="fill:rgb(196,20,68);"/>
            </g>
            <g transform="matrix(-0.731099,-8.95338e-17,8.95338e-17,-0.731099,12949.7,11697)">
                <circle cx="4930.93" cy="5291.76" r="201.291" style="fill:rgb(196,20,68);"/>
            </g>
            <g transform="matrix(-0.631226,-7.73029e-17,7.73029e-17,-0.631226,11962.4,11783.4)">
                <circle cx="4930.93" cy="5291.76" r="201.291" style="fill:rgb(196,20,68);"/>
            </g>
            <g transform="matrix(-0.40881,-5.00648e-17,5.00648e-17,-0.40881,8998.45,11573.7)">
                <circle cx="4930.93" cy="5291.76" r="201.291" style="fill:rgb(196,20,68);"/>
            </g>
            <g transform="matrix(-0.466512,-5.71313e-17,5.71313e-17,-0.466512,9872.61,11443.1)">
                <circle cx="4930.93" cy="5291.76" r="201.291" style="fill:rgb(196,20,68);"/>
            </g>
            <g transform="matrix(0.874185,2.14114e-16,-2.14114e-16,0.874185,5589.57,-648.395)">
                <circle cx="4930.93" cy="5291.76" r="201.291" style="fill:rgb(196,20,68);"/>
            </g>
            <g transform="matrix(0.81762,2.00259e-16,-2.00259e-16,0.81762,5706.91,-868.662)">
                <circle cx="4930.93" cy="5291.76" r="201.291" style="fill:rgb(196,20,68);"/>
            </g>
            <g transform="matrix(0.933025,2.28525e-16,-2.28525e-16,0.933025,5380.22,-376.54)">
                <circle cx="4930.93" cy="5291.76" r="201.291" style="fill:rgb(196,20,68);"/>
            </g>
            <g transform="matrix(0.731099,1.79068e-16,-1.79068e-16,0.731099,6042.65,-901.606)">
                <circle cx="4930.93" cy="5291.76" r="201.291" style="fill:rgb(196,20,68);"/>
            </g>
            <g transform="matrix(0.631226,1.54606e-16,-1.54606e-16,0.631226,6232.1,-940.571)">
                <circle cx="4930.93" cy="5291.76" r="201.291" style="fill:rgb(196,20,68);"/>
            </g>
            <g transform="matrix(0.40881,1.0013e-16,-1.0013e-16,0.40881,3066.21,-942.855)">
                <circle cx="4930.93" cy="5291.76" r="201.291" style="fill:rgb(196,20,68);"/>
            </g>
            <g transform="matrix(0.466512,1.14263e-16,-1.14263e-16,0.466512,2781.68,-650.59)">
                <circle cx="4930.93" cy="5291.76" r="201.291" style="fill:rgb(196,20,68);"/>
            </g>
            <g transform="matrix(-0.933025,-1.14263e-16,1.14263e-16,-0.933025,8241.18,10667)">
                <circle cx="4930.93" cy="5291.76" r="201.291" style="fill:rgb(196,20,68);"/>
            </g>
            <g transform="matrix(-0.40881,-5.00648e-17,5.00648e-17,-0.40881,5767.4,12210)">
                <circle cx="4930.93" cy="5291.76" r="201.291" style="fill:rgb(196,20,68);"/>
            </g>
            <g transform="matrix(-0.466512,-5.71313e-17,5.71313e-17,-0.466512,6200.37,11345.1)">
                <circle cx="4930.93" cy="5291.76" r="201.291" style="fill:rgb(196,20,68);"/>
            </g>
            <g transform="matrix(0.631226,1.54606e-16,-1.54606e-16,0.631226,123.531,-1131.31)">
                <circle cx="4930.93" cy="5291.76" r="201.291" style="fill:rgb(196,20,68);"/>
            </g>
            <g transform="matrix(0.40881,1.0013e-16,-1.0013e-16,0.40881,1735.77,-1980.05)">
                <circle cx="4930.93" cy="5291.76" r="201.291" style="fill:rgb(196,20,68);"/>
            </g>
            <g transform="matrix(0.466512,1.14263e-16,-1.14263e-16,0.466512,1451.25,-1768.57)">
                <circle cx="4930.93" cy="5291.76" r="201.291" style="fill:rgb(196,20,68);"/>
            </g>
            <g transform="matrix(-1.072,-1.31282e-16,1.31282e-16,-1.072,11601.4,10789.5)">
                <circle cx="4930.93" cy="5291.76" r="201.291" style="fill:rgb(196,20,68);"/>
            </g>
            <g transform="matrix(-0.933025,-1.14263e-16,1.14263e-16,-0.933025,11124.2,10667)">
                <circle cx="4930.93" cy="5291.76" r="201.291" style="fill:rgb(196,20,68);"/>
            </g>
            <g transform="matrix(-0.40881,-5.00648e-17,5.00648e-17,-0.40881,8428.26,12210)">
                <circle cx="4930.93" cy="5291.76" r="201.291" style="fill:rgb(196,20,68);"/>
            </g>
            <g transform="matrix(-0.466512,-5.71313e-17,5.71313e-17,-0.466512,8618.87,11345.1)">
                <circle cx="4930.93" cy="5291.76" r="201.291" style="fill:rgb(196,20,68);"/>
            </g>
            <g transform="matrix(0.731099,1.79068e-16,-1.79068e-16,0.731099,2807.46,-1315.65)">
                <circle cx="4930.93" cy="5291.76" r="201.291" style="fill:rgb(196,20,68);"/>
            </g>
            <g transform="matrix(0.631226,1.54606e-16,-1.54606e-16,0.631226,3299.92,-1351.51)">
                <circle cx="4930.93" cy="5291.76" r="201.291" style="fill:rgb(196,20,68);"/>
            </g>
            <g transform="matrix(0.40881,1.0013e-16,-1.0013e-16,0.40881,4396.64,-1980.05)">
                <circle cx="4930.93" cy="5291.76" r="201.291" style="fill:rgb(196,20,68);"/>
            </g>
            <g transform="matrix(0.466512,1.14263e-16,-1.14263e-16,0.466512,4112.11,-1768.57)">
                <circle cx="4930.93" cy="5291.76" r="201.291" style="fill:rgb(196,20,68);"/>
            </g>
            <g transform="matrix(-0.874185,-1.07057e-16,1.07057e-16,-0.874185,4685.55,11272.1)">
                <circle cx="4930.93" cy="5291.76" r="201.291" style="fill:rgb(196,20,68);"/>
            </g>
            <g transform="matrix(-1.072,-1.31282e-16,1.31282e-16,-1.072,5458.99,10991.5)">
                <circle cx="4930.93" cy="5291.76" r="201.291" style="fill:rgb(196,20,68);"/>
            </g>
            <g transform="matrix(-0.81762,-1.0013e-16,1.0013e-16,-0.81762,4588.41,11512.6)">
                <circle cx="4930.93" cy="5291.76" r="201.291" style="fill:rgb(196,20,68);"/>
            </g>
            <g transform="matrix(-0.933025,-1.14263e-16,1.14263e-16,-0.933025,5026.18,10990.2)">
                <circle cx="4930.93" cy="5291.76" r="201.291" style="fill:rgb(196,20,68);"/>
            </g>
            <g transform="matrix(-0.731099,-8.95338e-17,8.95338e-17,-0.731099,4464.74,11697)">
                <circle cx="4930.93" cy="5291.76" r="201.291" style="fill:rgb(196,20,68);"/>
            </g>
            <g transform="matrix(-0.631226,-7.73029e-17,7.73029e-17,-0.631226,4467.11,11783.4)">
                <circle cx="4930.93" cy="5291.76" r="201.291" style="fill:rgb(196,20,68);"/>
            </g>
            <g transform="matrix(-0.40881,-5.00648e-17,5.00648e-17,-0.40881,5197.21,11573.7)">
                <circle cx="4930.93" cy="5291.76" r="201.291" style="fill:rgb(196,20,68);"/>
            </g>
            <g transform="matrix(-0.466512,-5.71313e-17,5.71313e-17,-0.466512,4485.09,11443.1)">
                <circle cx="4930.93" cy="5291.76" r="201.291" style="fill:rgb(196,20,68);"/>
            </g>
            <g transform="matrix(0.874185,2.14114e-16,-2.14114e-16,0.874185,-4066.81,-648.395)">
                <circle cx="4930.93" cy="5291.76" r="201.291" style="fill:rgb(196,20,68);"/>
            </g>
            <g transform="matrix(0.81762,2.00259e-16,-2.00259e-16,0.81762,-3606.12,-868.662)">
                <circle cx="4930.93" cy="5291.76" r="201.291" style="fill:rgb(196,20,68);"/>
            </g>
            <g transform="matrix(0.933025,2.28525e-16,-2.28525e-16,0.933025,-4437.73,-376.54)">
                <circle cx="4930.93" cy="5291.76" r="201.291" style="fill:rgb(196,20,68);"/>
            </g>
            <g transform="matrix(0.731099,1.79068e-16,-1.79068e-16,0.731099,-3058.3,-901.606)">
                <circle cx="4930.93" cy="5291.76" r="201.291" style="fill:rgb(196,20,68);"/>
            </g>
            <g transform="matrix(0.631226,1.54606e-16,-1.54606e-16,0.631226,-2321.5,-813.511)">
                <circle cx="4930.93" cy="5291.76" r="201.291" style="fill:rgb(196,20,68);"/>
            </g>
            <g transform="matrix(0.40881,1.0013e-16,-1.0013e-16,0.40881,-676.793,-505.107)">
                <circle cx="4930.93" cy="5291.76" r="201.291" style="fill:rgb(196,20,68);"/>
            </g>
            <g transform="matrix(0.466512,1.14263e-16,-1.14263e-16,0.466512,-1260.74,-400.652)">
                <circle cx="4930.93" cy="5291.76" r="201.291" style="fill:rgb(196,20,68);"/>
            </g>
            <g transform="matrix(-1.072,-1.31282e-16,1.31282e-16,-1.072,13694,10991.5)">
                <circle cx="4930.93" cy="5291.76" r="201.291" style="fill:rgb(196,20,68);"/>
            </g>
            <g transform="matrix(-0.81762,-1.0013e-16,1.0013e-16,-0.81762,12439.7,11512.6)">
                <circle cx="4930.93" cy="5291.76" r="201.291" style="fill:rgb(196,20,68);"/>
            </g>
            <g transform="matrix(-0.933025,-1.14263e-16,1.14263e-16,-0.933025,13008.8,11101.3)">
                <circle cx="4930.93" cy="5291.76" r="201.291" style="fill:rgb(196,20,68);"/>
            </g>
            <g transform="matrix(-0.731099,-8.95338e-17,8.95338e-17,-0.731099,11656.8,11697)">
                <circle cx="4930.93" cy="5291.76" r="201.291" style="fill:rgb(196,20,68);"/>
            </g>
            <g transform="matrix(-0.631226,-7.73029e-17,7.73029e-17,-0.631226,10469.9,11783.4)">
                <circle cx="4930.93" cy="5291.76" r="201.291" style="fill:rgb(196,20,68);"/>
            </g>
            <g transform="matrix(-0.40881,-5.00648e-17,5.00648e-17,-0.40881,7477.95,11836.3)">
                <circle cx="4930.93" cy="5291.76" r="201.291" style="fill:rgb(196,20,68);"/>
            </g>
            <g transform="matrix(-0.466512,-5.71313e-17,5.71313e-17,-0.466512,10708.4,11443.1)">
                <circle cx="4930.93" cy="5291.76" r="201.291" style="fill:rgb(196,20,68);"/>
            </g>
            <g transform="matrix(0.874185,2.14114e-16,-2.14114e-16,0.874185,4151.41,-648.395)">
                <circle cx="4930.93" cy="5291.76" r="201.291" style="fill:rgb(196,20,68);"/>
            </g>
            <g transform="matrix(0.81762,2.00259e-16,-2.00259e-16,0.81762,4376.47,-868.662)">
                <circle cx="4930.93" cy="5291.76" r="201.291" style="fill:rgb(196,20,68);"/>
            </g>
            <g transform="matrix(0.933025,2.28525e-16,-2.28525e-16,0.933025,3888.21,-376.54)">
                <circle cx="4930.93" cy="5291.76" r="201.291" style="fill:rgb(196,20,68);"/>
            </g>
            <g transform="matrix(0.731099,1.79068e-16,-1.79068e-16,0.731099,4772.81,-901.606)">
                <circle cx="4930.93" cy="5291.76" r="201.291" style="fill:rgb(196,20,68);"/>
            </g>
            <g transform="matrix(0.631226,1.54606e-16,-1.54606e-16,0.631226,5032.85,-940.571)">
                <circle cx="4930.93" cy="5291.76" r="201.291" style="fill:rgb(196,20,68);"/>
            </g>
            <g transform="matrix(0.40881,1.0013e-16,-1.0013e-16,0.40881,6162,-1058.74)">
                <circle cx="4930.93" cy="5291.76" r="201.291" style="fill:rgb(196,20,68);"/>
            </g>
            <g transform="matrix(0.466512,1.14263e-16,-1.14263e-16,0.466512,6327.95,-948.248)">
                <circle cx="4930.93" cy="5291.76" r="201.291" style="fill:rgb(196,20,68);"/>
            </g>
            <g transform="matrix(-1.072,-1.31282e-16,1.31282e-16,-1.072,7707.1,10789.5)">
                <circle cx="4930.93" cy="5291.76" r="201.291" style="fill:rgb(196,20,68);"/>
            </g>
            <g transform="matrix(-0.933025,-1.14263e-16,1.14263e-16,-0.933025,6799.66,10667)">
                <circle cx="4930.93" cy="5291.76" r="201.291" style="fill:rgb(196,20,68);"/>
            </g>
            <g transform="matrix(-0.631226,-7.73029e-17,7.73029e-17,-0.631226,5952.05,11783.4)">
                <circle cx="4930.93" cy="5291.76" r="201.291" style="fill:rgb(196,20,68);"/>
            </g>
            <g transform="matrix(-0.40881,-5.00648e-17,5.00648e-17,-0.40881,4436.96,11634.3)">
                <circle cx="4930.93" cy="5291.76" r="201.291" style="fill:rgb(196,20,68);"/>
            </g>
            <g transform="matrix(-0.466512,-5.71313e-17,5.71313e-17,-0.466512,4913.91,11443.1)">
                <circle cx="4930.93" cy="5291.76" r="201.291" style="fill:rgb(196,20,68);"/>
            </g>
            <g transform="matrix(0.874185,2.14114e-16,-2.14114e-16,0.874185,-1715.19,-648.395)">
                <circle cx="4930.93" cy="5291.76" r="201.291" style="fill:rgb(196,20,68);"/>
            </g>
            <g transform="matrix(0.81762,2.00259e-16,-2.00259e-16,0.81762,-1413.55,-868.662)">
                <circle cx="4930.93" cy="5291.76" r="201.291" style="fill:rgb(196,20,68);"/>
            </g>
            <g transform="matrix(0.933025,2.28525e-16,-2.28525e-16,0.933025,-1957.35,-376.54)">
                <circle cx="4930.93" cy="5291.76" r="201.291" style="fill:rgb(196,20,68);"/>
            </g>
            <g transform="matrix(0.731099,1.79068e-16,-1.79068e-16,0.731099,-880.881,-901.606)">
                <circle cx="4930.93" cy="5291.76" r="201.291" style="fill:rgb(196,20,68);"/>
            </g>
            <g transform="matrix(0.631226,1.54606e-16,-1.54606e-16,0.631226,-166.249,-745.592)">
                <circle cx="4930.93" cy="5291.76" r="201.291" style="fill:rgb(196,20,68);"/>
            </g>
            <g transform="matrix(0.40881,1.0013e-16,-1.0013e-16,0.40881,405.342,-1374.13)">
                <circle cx="4930.93" cy="5291.76" r="201.291" style="fill:rgb(196,20,68);"/>
            </g>
            <g transform="matrix(0.466512,1.14263e-16,-1.14263e-16,0.466512,211.703,-1223.25)">
                <circle cx="4930.93" cy="5291.76" r="201.291" style="fill:rgb(196,20,68);"/>
            </g>
            <g transform="matrix(-0.933025,-1.14263e-16,1.14263e-16,-0.933025,8961.93,10667)">
                <circle cx="4930.93" cy="5291.76" r="201.291" style="fill:rgb(196,20,68);"/>
            </g>
            <g transform="matrix(-0.40881,-5.00648e-17,5.00648e-17,-0.40881,6432.61,12321)">
                <circle cx="4930.93" cy="5291.76" r="201.291" style="fill:rgb(196,20,68);"/>
            </g>
            <g transform="matrix(-0.466512,-5.71313e-17,5.71313e-17,-0.466512,6818.12,11554.1)">
                <circle cx="4930.93" cy="5291.76" r="201.291" style="fill:rgb(196,20,68);"/>
            </g>
            <g transform="matrix(0.731099,1.79068e-16,-1.79068e-16,0.731099,784.284,-1826.75)">
                <circle cx="4930.93" cy="5291.76" r="201.291" style="fill:rgb(196,20,68);"/>
            </g>
            <g transform="matrix(0.631226,1.54606e-16,-1.54606e-16,0.631226,619.509,-1445.41)">
                <circle cx="4930.93" cy="5291.76" r="201.291" style="fill:rgb(196,20,68);"/>
            </g>
            <g transform="matrix(0.40881,1.0013e-16,-1.0013e-16,0.40881,2400.99,-2091.13)">
                <circle cx="4930.93" cy="5291.76" r="201.291" style="fill:rgb(196,20,68);"/>
            </g>
            <g transform="matrix(0.466512,1.14263e-16,-1.14263e-16,0.466512,2116.46,-1859.46)">
                <circle cx="4930.93" cy="5291.76" r="201.291" style="fill:rgb(196,20,68);"/>
            </g>
        </g>
        <g id="Eyes---Wink-Light" serif:id="Eyes + Wink Light" transform="matrix(4.35131,0,0,4.46899,-479.289,-177.434)">
            <g transform="matrix(1,0,0,1,-435.518,12.0334)">
                <g id="wink">
                    <path d="M1877.72,925.49C1889.2,932.116 1892.99,946.568 1886.19,957.742C1879.38,968.917 1864.54,972.609 1853.06,965.983L1789.62,929.356C1785.55,927.07 1781.7,924.321 1778.18,921.123C1773.69,917.049 1769.9,912.417 1766.87,907.406C1764.38,903.29 1762.44,898.986 1761.03,894.583C1759.18,888.827 1758.18,882.708 1758.18,876.364C1758.17,870.948 1758.9,865.496 1760.41,860.154C1761.61,855.883 1763.27,851.798 1765.34,847.953C1767.91,843.17 1771.15,838.68 1775.03,834.626C1778.31,831.196 1781.94,828.191 1785.82,825.642L1846.54,784.637C1857.51,777.233 1872.58,779.889 1880.18,790.565C1887.79,801.24 1885.06,815.918 1874.1,823.321L1813.23,864.419C1813.13,864.489 1813.02,864.559 1812.92,864.628C1812.02,865.215 1811.18,865.907 1810.42,866.698L1810.4,866.721C1809.52,867.646 1808.78,868.672 1808.19,869.764L1808.16,869.813C1807.69,870.691 1807.31,871.623 1807.04,872.598L1807.03,872.608C1806.69,873.828 1806.53,875.074 1806.53,876.311L1806.53,876.34C1806.53,877.806 1806.75,879.22 1807.18,880.55L1807.18,880.553C1807.5,881.563 1807.95,882.548 1808.52,883.491L1808.55,883.535C1809.24,884.68 1810.1,885.739 1811.13,886.669L1811.15,886.689C1811.96,887.427 1812.85,888.06 1813.79,888.584C1813.9,888.645 1814.01,888.707 1814.12,888.771L1877.72,925.49ZM1995.82,741.126C1984.86,748.529 1969.78,745.873 1962.18,735.198C1954.57,724.522 1957.3,709.845 1968.27,702.441L2029.13,661.343C2057.63,642.094 2096.83,649 2116.6,676.756C2136.37,704.512 2129.28,742.674 2100.77,761.923L2021.96,815.139L2115.35,815.139C2150.04,815.139 2178.21,842.562 2178.21,876.34C2178.21,910.117 2150.04,937.54 2115.35,937.54L2050.27,937.54L2107.98,970.858C2137.82,988.085 2147.68,1025.66 2129.98,1054.71C2112.29,1083.77 2073.7,1093.37 2043.86,1076.14L1980.26,1039.42C1968.78,1032.8 1964.99,1018.34 1971.8,1007.17C1978.6,995.995 1993.44,992.302 2004.92,998.928L2068.52,1035.65C2075.41,1039.62 2084.31,1037.41 2088.4,1030.7C2092.48,1024 2090.2,1015.33 2083.32,1011.35L1949.77,934.248C1940.4,928.841 1935.91,918.003 1938.79,907.777C1941.67,897.552 1951.21,890.463 1962.1,890.463L2115.35,890.463C2123.36,890.463 2129.86,884.135 2129.86,876.34C2129.86,868.545 2123.36,862.217 2115.35,862.217L1944.68,862.217C1934.11,862.217 1924.76,855.529 1921.61,845.706C1918.45,835.882 1922.22,825.202 1930.9,819.336L2073.21,723.239C2079.79,718.796 2081.43,709.99 2076.87,703.585C2072.3,697.179 2063.26,695.586 2056.68,700.028L1995.82,741.126Z" style="fill:rgb(111,38,61);"/>
                </g>
            </g>
            <g id="Left-Eye" serif:id="Left Eye" transform="matrix(1,0,0,1,162.355,55.0469)">
                <ellipse cx="851.651" cy="833.592" rx="132.017" ry="318.098" style="fill:none;stroke:rgb(111,38,61);stroke-width:47.7px;stroke-dasharray:95.4,95.4,0,0,0,0;"/>
            </g>
            <g transform="matrix(0.134792,0,0,0.168101,478.17,172.439)">
                <path d="M1792.69,2236.12C1842.13,2169.17 1951.9,2146.15 2037.65,2184.76C2123.4,2223.36 2152.88,2309.05 2103.44,2376.01C1997.61,2519.31 1945.32,2620.91 1945.32,2620.91C1945.09,2621.36 1944.86,2621.81 1944.62,2622.26C1868.71,2766.53 1701.5,2860.23 1516.52,2879.19C1418.37,2889.25 1328.23,2835.2 1315.35,2758.58C1302.47,2681.95 1371.69,2611.58 1469.83,2601.52C1531.36,2595.21 1587.09,2564.22 1612.57,2516.32C1618.22,2505.38 1677.43,2392.2 1792.69,2236.12ZM1281.66,2408.3C1242.39,2479.24 1136.74,2511.94 1045.87,2481.28C955.012,2450.62 913.129,2368.13 952.404,2297.19C969.597,2266.13 1098.04,2039.13 1341.39,1762.06C1397.37,1698.32 1509.1,1682.06 1590.74,1725.76C1672.37,1769.47 1693.2,1856.7 1637.22,1920.43C1415.22,2173.2 1297.35,2379.97 1281.66,2408.3ZM2095.37,1486.25C2025.41,1540.92 1911.76,1540.97 1841.73,1486.35C1771.7,1431.72 1771.65,1342.99 1841.61,1288.32C2022.16,1147.22 2230.34,1013.18 2466.13,902.502C2550.97,862.682 2661.25,884.127 2712.25,950.362C2763.26,1016.6 2735.79,1102.7 2650.95,1142.52C2441.07,1241.03 2256.08,1360.65 2095.37,1486.25ZM3294.26,936.502C3197.82,953.921 3101.41,906.934 3079.1,831.64C3056.78,756.346 3116.97,681.075 3213.41,663.656C3462.1,618.736 3731.34,602.289 4021.35,624.873C4119.85,632.544 4191.84,701.205 4182.02,778.106C4172.19,855.008 4084.25,911.214 3985.75,903.544C3737.55,884.215 3507.1,898.058 3294.26,936.502ZM4671.03,1033.58C4578.49,1006.15 4531.87,925.227 4567,852.974C4602.13,780.721 4705.78,744.326 4798.32,771.751C4860.33,790.127 4923.12,810.274 4986.69,832.275C5256.85,925.775 5379.66,1172.18 5262.27,1383.46C5222.88,1454.36 5117.17,1486.95 5026.36,1456.19C4935.55,1425.43 4893.81,1342.9 4933.2,1272C4972.33,1201.58 4931.37,1119.46 4841.33,1088.3C4783.86,1068.41 4727.09,1050.19 4671.03,1033.58ZM4509.4,1285.83C4602.55,1311.98 4650.99,1392.25 4617.51,1464.97C4584.03,1537.7 4481.21,1575.52 4388.06,1549.38C4144.99,1481.16 3921.1,1454.92 3715.77,1460.86C3616.86,1463.72 3533.57,1403.34 3529.91,1326.11C3526.24,1248.88 3603.58,1183.86 3702.5,1181C3948.85,1173.88 4217.76,1203.99 4509.4,1285.83ZM2903.57,1348.35C2991.33,1312.6 3099.75,1339.21 3145.54,1407.73C3191.32,1476.25 3157.24,1560.89 3069.48,1596.64C2856.24,1683.5 2675.04,1802.56 2524.24,1928C2456.5,1984.35 2342.9,1987.16 2270.73,1934.27C2198.55,1881.38 2194.95,1792.69 2262.7,1736.34C2439.69,1589.12 2653.28,1450.3 2903.57,1348.35Z" style="fill:rgb(111,38,61);"/>
            </g>
            <g id="Logo-Light" serif:id="Logo Light" transform="matrix(14.4289,0,0,14.049,556.629,1056.99)">
                <path d="M94.173,29.051C94.173,27.741 93.11,26.678 91.799,26.678L8.201,26.678C6.89,26.678 5.827,27.741 5.827,29.051C5.827,53.431 25.62,73.224 50,73.224C74.38,73.224 94.173,53.431 94.173,29.051Z" style="fill:none;stroke:rgb(111,38,61);stroke-width:3.35px;stroke-miterlimit:2;stroke-dasharray:6.7,6.7,0,0,0,0;"/>
            </g>
        </g>
    </g>
    <g id="Layer3">
    </g>
</svg>
