<?xml version="1.0" encoding="UTF-8" standalone="no"?>
<!DOCTYPE svg PUBLIC "-//W3C//DTD SVG 1.1//EN" "http://www.w3.org/Graphics/SVG/1.1/DTD/svg11.dtd">
<svg width="100%" height="100%" viewBox="0 0 10240 10240" version="1.1" xmlns="http://www.w3.org/2000/svg" xmlns:xlink="http://www.w3.org/1999/xlink" xml:space="preserve" xmlns:serif="http://www.serif.com/" style="fill-rule:evenodd;clip-rule:evenodd;stroke-linecap:round;stroke-linejoin:round;stroke-miterlimit:1.5;">
    <g id="Dot-Matrix-Moved" serif:id="Dot Matrix Moved" transform="matrix(0.990236,0,0,0.990236,87.6016,49.9895)">
        <path id="Dot-Matrix-Moved1" serif:id="Dot Matrix Moved" d="M1667.68,9006.49C591.187,8057.47 -88.465,6667.58 -88.465,5120C-88.465,3778.09 422.545,2554.74 1260.18,1634.57C1257.94,1642.06 1256.73,1650 1256.73,1658.22C1256.73,1703.63 1293.6,1740.51 1339.02,1740.51C1384.43,1740.51 1421.31,1703.63 1421.31,1658.22C1421.31,1612.8 1384.43,1575.93 1339.02,1575.93C1328.48,1575.93 1318.4,1577.91 1309.14,1581.53C1945.86,901.236 2763.78,392.986 3685.45,134.327C3675.3,148.01 3669.3,164.947 3669.3,183.276C3669.3,228.693 3706.17,265.565 3751.59,265.565C3797,265.565 3833.88,228.693 3833.88,183.276C3833.88,149.421 3813.39,120.314 3784.14,107.688C4198.93,0.162 4633.85,-57.053 5082.02,-57.053C5530.18,-57.053 5965.1,0.162 6379.89,107.688C6350.65,120.314 6330.16,149.421 6330.16,183.276C6330.16,228.693 6367.03,265.565 6412.45,265.565C6457.87,265.565 6494.74,228.693 6494.74,183.276C6494.74,164.947 6488.73,148.01 6478.59,134.327C6919.89,258.175 7337.4,439.244 7722.64,669.021C7686.99,678.051 7660.59,710.365 7660.59,748.797C7660.59,794.214 7697.46,831.087 7742.88,831.087C7788.3,831.087 7825.17,794.214 7825.17,748.797C7825.17,742.519 7824.47,736.403 7823.13,730.526C8459.22,1129.85 9002.52,1663.91 9412.99,2292.63C9393.25,2280 9369.79,2272.67 9344.63,2272.67C9274.51,2272.67 9217.57,2329.6 9217.57,2399.73C9217.57,2469.86 9274.51,2526.79 9344.63,2526.79C9414.76,2526.79 9471.69,2469.86 9471.69,2399.73C9471.69,2394.01 9471.31,2388.38 9470.58,2382.86C9563.14,2531.24 9648.41,2684.64 9725.87,2842.55C9703.2,2828.29 9676.38,2820.03 9647.64,2820.03C9566.42,2820.03 9500.48,2885.97 9500.48,2967.19C9500.48,3048.42 9566.42,3114.36 9647.64,3114.36C9722.44,3114.36 9784.28,3058.43 9793.59,2986.15C10088.3,3636.94 10252.5,4359.43 10252.5,5120C10252.5,5855.53 10099,6555.44 9822.29,7189.32C9822.31,7188.2 9822.32,7187.08 9822.32,7185.95C9822.32,7095.12 9748.57,7021.38 9657.74,7021.38C9566.91,7021.38 9493.16,7095.12 9493.16,7185.95C9493.16,7276.79 9566.91,7350.53 9657.74,7350.53C9700.68,7350.53 9739.8,7334.05 9769.12,7307.08C9686.21,7484.73 9593.53,7656.91 9491.75,7822.91C9488.95,7744.15 9424.12,7681.07 9344.68,7681.07C9263.46,7681.07 9197.52,7747.01 9197.52,7828.23C9197.52,7909.45 9263.46,7975.39 9344.68,7975.39C9365.13,7975.39 9384.61,7971.21 9402.31,7963.66C9147.63,8350.58 8842.51,8701.33 8496.36,9006.49C8500.01,8996.47 8502,8985.66 8502,8974.38C8502,8922.55 8459.92,8880.48 8408.1,8880.48C8356.27,8880.48 8314.19,8922.55 8314.19,8974.38C8314.19,9026.21 8356.27,9068.28 8408.1,9068.28C8414.67,9068.28 8421.09,9067.61 8427.28,9066.32C8233.63,9231.09 8027.72,9381.84 7811.11,9517C7819.99,9503.86 7825.17,9488.03 7825.17,9471.01C7825.17,9425.59 7788.3,9388.72 7742.88,9388.72C7697.46,9388.72 7660.59,9425.59 7660.59,9471.01C7660.59,9516.42 7697.46,9553.3 7742.88,9553.3C7746.34,9553.3 7749.75,9553.08 7753.1,9552.67C7355.76,9793.39 6923.51,9982.07 6465.83,10109.2C6483.52,10094.1 6494.74,10071.7 6494.74,10046.6C6494.74,10001.2 6457.87,9964.34 6412.45,9964.34C6367.03,9964.34 6330.16,10001.2 6330.16,10046.6C6330.16,10087.1 6359.39,10120.7 6397.85,10127.6C5977.66,10238.2 5536.65,10297.1 5082.02,10297.1C4627.38,10297.1 4186.37,10238.2 3766.19,10127.6C3804.65,10120.7 3833.88,10087.1 3833.88,10046.6C3833.88,10001.2 3797,9964.34 3751.59,9964.34C3706.17,9964.34 3669.3,10001.2 3669.3,10046.6C3669.3,10071.7 3680.52,10094.1 3698.21,10109.2C3240.52,9982.07 2808.28,9793.39 2410.93,9552.67C2414.28,9553.08 2417.69,9553.3 2421.15,9553.3C2466.57,9553.3 2503.44,9516.42 2503.44,9471.01C2503.44,9425.59 2466.57,9388.72 2421.15,9388.72C2375.74,9388.72 2338.86,9425.59 2338.86,9471.01C2338.86,9488.03 2344.05,9503.86 2352.92,9517C2136.32,9381.84 1930.4,9231.09 1736.75,9066.32C1742.94,9067.61 1749.36,9068.28 1755.94,9068.28C1807.77,9068.28 1849.84,9026.21 1849.84,8974.38C1849.84,8922.55 1807.77,8880.48 1755.94,8880.48C1704.11,8880.48 1662.03,8922.55 1662.03,8974.38C1662.03,8985.66 1664.03,8996.47 1667.68,9006.49ZM4686.7,5335.78C4805.79,5335.78 4902.48,5239.09 4902.48,5120C4902.48,5000.91 4805.79,4904.22 4686.7,4904.22C4567.6,4904.22 4470.91,5000.91 4470.91,5120C4470.91,5239.09 4567.6,5335.78 4686.7,5335.78ZM3941.65,9613.89C3987.06,9613.89 4023.94,9577.01 4023.94,9531.6C4023.94,9486.18 3987.06,9449.31 3941.65,9449.31C3896.23,9449.31 3859.36,9486.18 3859.36,9531.6C3859.36,9577.01 3896.23,9613.89 3941.65,9613.89ZM7077.66,9886.55C7123.08,9886.55 7159.95,9849.68 7159.95,9804.26C7159.95,9758.84 7123.08,9721.97 7077.66,9721.97C7032.25,9721.97 6995.38,9758.84 6995.38,9804.26C6995.38,9849.68 7032.25,9886.55 7077.66,9886.55ZM5082.02,3801.62C4984.9,3801.62 4906.05,3880.47 4906.05,3977.59C4906.05,4074.7 4984.9,4153.55 5082.02,4153.55C5179.14,4153.55 5257.98,4074.7 5257.98,3977.59C5257.98,3880.47 5179.14,3801.62 5082.02,3801.62ZM7077.66,2193.92C6996.44,2193.92 6930.5,2259.86 6930.5,2341.08C6930.5,2422.3 6996.44,2488.24 7077.66,2488.24C7158.89,2488.24 7224.83,2422.3 7224.83,2341.08C7224.83,2259.86 7158.89,2193.92 7077.66,2193.92ZM7077.66,353.451C7032.25,353.451 6995.38,390.324 6995.38,435.741C6995.38,481.158 7032.25,518.03 7077.66,518.03C7123.08,518.03 7159.95,481.158 7159.95,435.741C7159.95,390.324 7123.08,353.451 7077.66,353.451ZM3042.4,9068.28C3094.22,9068.28 3136.3,9026.21 3136.3,8974.38C3136.3,8922.55 3094.22,8880.48 3042.4,8880.48C2990.57,8880.48 2948.49,8922.55 2948.49,8974.38C2948.49,9026.21 2990.57,9068.28 3042.4,9068.28ZM7077.66,939.448C7025.84,939.448 6983.76,981.526 6983.76,1033.35C6983.76,1085.18 7025.84,1127.26 7077.66,1127.26C7129.49,1127.26 7171.57,1085.18 7171.57,1033.35C7171.57,981.526 7129.49,939.448 7077.66,939.448ZM1027.61,3801.62C930.487,3801.62 851.64,3880.47 851.64,3977.59C851.64,4074.7 930.487,4153.55 1027.61,4153.55C1124.72,4153.55 1203.57,4074.7 1203.57,3977.59C1203.57,3880.47 1124.72,3801.62 1027.61,3801.62ZM7077.66,6397.99C7174.78,6397.99 7253.63,6319.14 7253.63,6222.02C7253.63,6124.9 7174.78,6046.06 7077.66,6046.06C6980.55,6046.06 6901.7,6124.9 6901.7,6222.02C6901.7,6319.14 6980.55,6397.99 7077.66,6397.99ZM1156.36,3293.41C1065.53,3293.41 991.783,3367.16 991.783,3457.99C991.783,3548.82 1065.53,3622.57 1156.36,3622.57C1247.2,3622.57 1320.94,3548.82 1320.94,3457.99C1320.94,3367.16 1247.2,3293.41 1156.36,3293.41ZM989.735,4373C886.08,4373 801.926,4457.15 801.926,4560.81C801.926,4664.46 886.08,4748.61 989.735,4748.61C1093.39,4748.61 1177.54,4664.46 1177.54,4560.81C1177.54,4457.15 1093.39,4373 989.735,4373ZM5082.02,454.716C5030.19,454.716 4988.11,496.793 4988.11,548.62C4988.11,600.448 5030.19,642.525 5082.02,642.525C5133.84,642.525 5175.92,600.448 5175.92,548.62C5175.92,496.793 5133.84,454.716 5082.02,454.716ZM1060.42,6301.24C1164.08,6301.24 1248.24,6217.09 1248.24,6113.43C1248.24,6009.78 1164.08,5925.62 1060.42,5925.62C956.771,5925.62 872.616,6009.78 872.616,6113.43C872.616,6217.09 956.771,6301.24 1060.42,6301.24ZM1272.5,2820.03C1191.27,2820.03 1125.33,2885.97 1125.33,2967.19C1125.33,3048.42 1191.27,3114.36 1272.5,3114.36C1353.72,3114.36 1419.66,3048.42 1419.66,2967.19C1419.66,2885.97 1353.72,2820.03 1272.5,2820.03ZM6859.82,8640.83C6929.95,8640.83 6986.88,8583.9 6986.88,8513.77C6986.88,8443.65 6929.95,8386.71 6859.82,8386.71C6789.7,8386.71 6732.76,8443.65 6732.76,8513.77C6732.76,8583.9 6789.7,8640.83 6859.82,8640.83ZM5082.02,4427.61C4978.36,4427.61 4894.21,4511.77 4894.21,4615.42C4894.21,4719.08 4978.36,4803.23 5082.02,4803.23C5185.67,4803.23 5269.83,4719.08 5269.83,4615.42C5269.83,4511.77 5185.67,4427.61 5082.02,4427.61ZM5082.02,2272.67C5011.89,2272.67 4954.96,2329.6 4954.96,2399.73C4954.96,2469.86 5011.89,2526.79 5082.02,2526.79C5152.14,2526.79 5209.08,2469.86 5209.08,2399.73C5209.08,2329.6 5152.14,2272.67 5082.02,2272.67ZM6657.32,4266.53C6553.67,4266.53 6469.51,4350.69 6469.51,4454.34C6469.51,4558 6553.67,4642.15 6657.32,4642.15C6760.98,4642.15 6845.13,4558 6845.13,4454.34C6845.13,4350.69 6760.98,4266.53 6657.32,4266.53ZM5082.02,2820.03C5000.8,2820.03 4934.85,2885.97 4934.85,2967.19C4934.85,3048.42 5000.8,3114.36 5082.02,3114.36C5163.24,3114.36 5229.18,3048.42 5229.18,2967.19C5229.18,2885.97 5163.24,2820.03 5082.02,2820.03ZM6289.05,3120.45C6198.21,3120.45 6124.47,3194.2 6124.47,3285.03C6124.47,3375.86 6198.21,3449.61 6289.05,3449.61C6379.88,3449.61 6453.63,3375.86 6453.63,3285.03C6453.63,3194.2 6379.88,3120.45 6289.05,3120.45ZM7077.66,1861.73C7007.54,1861.73 6950.61,1918.67 6950.61,1988.79C6950.61,2058.92 7007.54,2115.85 7077.66,2115.85C7147.79,2115.85 7204.73,2058.92 7204.73,1988.79C7204.73,1918.67 7147.79,1861.73 7077.66,1861.73ZM7029.19,5332.53C7148.29,5332.53 7244.98,5235.84 7244.98,5116.75C7244.98,4997.65 7148.29,4900.96 7029.19,4900.96C6910.1,4900.96 6813.41,4997.65 6813.41,5116.75C6813.41,5235.84 6910.1,5332.53 7029.19,5332.53ZM7244.29,5917.5C7347.95,5917.5 7432.1,5833.34 7432.1,5729.69C7432.1,5626.03 7347.95,5541.88 7244.29,5541.88C7140.64,5541.88 7056.48,5626.03 7056.48,5729.69C7056.48,5833.34 7140.64,5917.5 7244.29,5917.5ZM7154.36,9068.28C7206.19,9068.28 7248.26,9026.21 7248.26,8974.38C7248.26,8922.55 7206.19,8880.48 7154.36,8880.48C7102.53,8880.48 7060.45,8922.55 7060.45,8974.38C7060.45,9026.21 7102.53,9068.28 7154.36,9068.28ZM1090.72,7350.53C1181.56,7350.53 1255.3,7276.79 1255.3,7185.95C1255.3,7095.12 1181.56,7021.38 1090.72,7021.38C999.887,7021.38 926.142,7095.12 926.142,7185.95C926.142,7276.79 999.887,7350.53 1090.72,7350.53ZM5082.02,-10.099C5036.6,-10.099 4999.73,26.774 4999.73,72.191C4999.73,117.608 5036.6,154.481 5082.02,154.481C5127.43,154.481 5164.31,117.608 5164.31,72.191C5164.31,26.774 5127.43,-10.099 5082.02,-10.099ZM5082.02,3293.41C4991.18,3293.41 4917.44,3367.16 4917.44,3457.99C4917.44,3548.82 4991.18,3622.57 5082.02,3622.57C5172.85,3622.57 5246.6,3548.82 5246.6,3457.99C5246.6,3367.16 5172.85,3293.41 5082.02,3293.41ZM1378.53,6822.13C1475.65,6822.13 1554.5,6743.28 1554.5,6646.16C1554.5,6549.04 1475.65,6470.2 1378.53,6470.2C1281.41,6470.2 1202.57,6549.04 1202.57,6646.16C1202.57,6743.28 1281.41,6822.13 1378.53,6822.13ZM964.489,5534.5C1083.58,5534.5 1180.27,5437.81 1180.27,5318.72C1180.27,5199.62 1083.58,5102.94 964.489,5102.94C845.395,5102.94 748.705,5199.62 748.705,5318.72C748.705,5437.81 845.395,5534.5 964.489,5534.5ZM1482.64,7975.39C1563.87,7975.39 1629.81,7909.45 1629.81,7828.23C1629.81,7747.01 1563.87,7681.07 1482.64,7681.07C1401.42,7681.07 1335.48,7747.01 1335.48,7828.23C1335.48,7909.45 1401.42,7975.39 1482.64,7975.39ZM2344.54,8570.14C2414.67,8570.14 2471.6,8513.21 2471.6,8443.08C2471.6,8372.95 2414.67,8316.02 2344.54,8316.02C2274.41,8316.02 2217.48,8372.95 2217.48,8443.08C2217.48,8513.21 2274.41,8570.14 2344.54,8570.14ZM6830.18,3619.85C6733.07,3619.85 6654.22,3698.69 6654.22,3795.81C6654.22,3892.93 6733.07,3971.78 6830.18,3971.78C6927.3,3971.78 7006.15,3892.93 7006.15,3795.81C7006.15,3698.69 6927.3,3619.85 6830.18,3619.85ZM3086.37,6397.99C3183.49,6397.99 3262.34,6319.14 3262.34,6222.02C3262.34,6124.9 3183.49,6046.06 3086.37,6046.06C2989.25,6046.06 2910.4,6124.9 2910.4,6222.02C2910.4,6319.14 2989.25,6397.99 3086.37,6397.99ZM3470.12,4373C3366.46,4373 3282.31,4457.15 3282.31,4560.81C3282.31,4664.46 3366.46,4748.61 3470.12,4748.61C3573.77,4748.61 3657.93,4664.46 3657.93,4560.81C3657.93,4457.15 3573.77,4373 3470.12,4373ZM2004.23,1575.93C1958.82,1575.93 1921.94,1612.8 1921.94,1658.22C1921.94,1703.63 1958.82,1740.51 2004.23,1740.51C2049.65,1740.51 2086.52,1703.63 2086.52,1658.22C2086.52,1612.8 2049.65,1575.93 2004.23,1575.93ZM3348.93,3293.41C3258.1,3293.41 3184.35,3367.16 3184.35,3457.99C3184.35,3548.82 3258.1,3622.57 3348.93,3622.57C3439.77,3622.57 3513.51,3548.82 3513.51,3457.99C3513.51,3367.16 3439.77,3293.41 3348.93,3293.41ZM3086.37,9886.55C3131.79,9886.55 3168.66,9849.68 3168.66,9804.26C3168.66,9758.84 3131.79,9721.97 3086.37,9721.97C3040.95,9721.97 3004.08,9758.84 3004.08,9804.26C3004.08,9849.68 3040.95,9886.55 3086.37,9886.55ZM3086.37,5332.53C3205.46,5332.53 3302.15,5235.84 3302.15,5116.75C3302.15,4997.65 3205.46,4900.96 3086.37,4900.96C2967.28,4900.96 2870.59,4997.65 2870.59,5116.75C2870.59,5235.84 2967.28,5332.53 3086.37,5332.53ZM3611.5,2467.65C3541.37,2467.65 3484.44,2524.58 3484.44,2594.71C3484.44,2664.83 3541.37,2721.77 3611.5,2721.77C3681.62,2721.77 3738.56,2664.83 3738.56,2594.71C3738.56,2524.58 3681.62,2467.65 3611.5,2467.65ZM3086.37,353.451C3040.95,353.451 3004.08,390.324 3004.08,435.741C3004.08,481.158 3040.95,518.03 3086.37,518.03C3131.79,518.03 3168.66,481.158 3168.66,435.741C3168.66,390.324 3131.79,353.451 3086.37,353.451ZM3086.37,939.448C3034.54,939.448 2992.46,981.526 2992.46,1033.35C2992.46,1085.18 3034.54,1127.26 3086.37,1127.26C3138.2,1127.26 3180.27,1085.18 3180.27,1033.35C3180.27,981.526 3138.2,939.448 3086.37,939.448ZM8745,2272.67C8674.88,2272.67 8617.94,2329.6 8617.94,2399.73C8617.94,2469.86 8674.88,2526.79 8745,2526.79C8815.13,2526.79 8872.06,2469.86 8872.06,2399.73C8872.06,2329.6 8815.13,2272.67 8745,2272.67ZM9073.31,7350.53C9164.15,7350.53 9237.89,7276.79 9237.89,7185.95C9237.89,7095.12 9164.15,7021.38 9073.31,7021.38C8982.48,7021.38 8908.73,7095.12 8908.73,7185.95C8908.73,7276.79 8982.48,7350.53 9073.31,7350.53ZM5747.23,6397.99C5844.35,6397.99 5923.2,6319.14 5923.2,6222.02C5923.2,6124.9 5844.35,6046.06 5747.23,6046.06C5650.11,6046.06 5571.27,6124.9 5571.27,6222.02C5571.27,6319.14 5650.11,6397.99 5747.23,6397.99ZM3449.92,2820.03C3368.7,2820.03 3302.76,2885.97 3302.76,2967.19C3302.76,3048.42 3368.7,3114.36 3449.92,3114.36C3531.14,3114.36 3597.08,3048.42 3597.08,2967.19C3597.08,2885.97 3531.14,2820.03 3449.92,2820.03ZM9181.03,3801.62C9083.91,3801.62 9005.07,3880.47 9005.07,3977.59C9005.07,4074.7 9083.91,4153.55 9181.03,4153.55C9278.15,4153.55 9357,4074.7 9357,3977.59C9357,3880.47 9278.15,3801.62 9181.03,3801.62ZM1615.85,2467.65C1545.72,2467.65 1488.79,2524.58 1488.79,2594.71C1488.79,2664.83 1545.72,2721.77 1615.85,2721.77C1685.98,2721.77 1742.91,2664.83 1742.91,2594.71C1742.91,2524.58 1685.98,2467.65 1615.85,2467.65ZM8352.34,8570.14C8422.47,8570.14 8479.41,8513.21 8479.41,8443.08C8479.41,8372.95 8422.47,8316.02 8352.34,8316.02C8282.22,8316.02 8225.28,8372.95 8225.28,8443.08C8225.28,8513.21 8282.22,8570.14 8352.34,8570.14ZM9073.31,3293.41C8982.48,3293.41 8908.73,3367.16 8908.73,3457.99C8908.73,3548.82 8982.48,3622.57 9073.31,3622.57C9164.15,3622.57 9237.89,3548.82 9237.89,3457.99C9237.89,3367.16 9164.15,3293.41 9073.31,3293.41ZM9234.89,4373C9131.24,4373 9047.08,4457.15 9047.08,4560.81C9047.08,4664.46 9131.24,4748.61 9234.89,4748.61C9338.55,4748.61 9422.7,4664.46 9422.7,4560.81C9422.7,4457.15 9338.55,4373 9234.89,4373ZM8994.46,1800.98C8942.63,1800.98 8900.56,1843.06 8900.56,1894.89C8900.56,1946.72 8942.63,1988.79 8994.46,1988.79C9046.29,1988.79 9088.36,1946.72 9088.36,1894.89C9088.36,1843.06 9046.29,1800.98 8994.46,1800.98ZM8698.22,7975.39C8779.44,7975.39 8845.39,7909.45 8845.39,7828.23C8845.39,7747.01 8779.44,7681.07 8698.22,7681.07C8617,7681.07 8551.06,7747.01 8551.06,7828.23C8551.06,7909.45 8617,7975.39 8698.22,7975.39ZM2919.74,5917.5C3023.4,5917.5 3107.55,5833.34 3107.55,5729.69C3107.55,5626.03 3023.4,5541.88 2919.74,5541.88C2816.09,5541.88 2731.93,5626.03 2731.93,5729.69C2731.93,5833.34 2816.09,5917.5 2919.74,5917.5ZM9189.45,5534.5C9308.54,5534.5 9405.23,5437.81 9405.23,5318.72C9405.23,5199.62 9308.54,5102.94 9189.45,5102.94C9070.35,5102.94 8973.66,5199.62 8973.66,5318.72C8973.66,5437.81 9070.35,5534.5 9189.45,5534.5ZM3334.51,8640.83C3404.63,8640.83 3461.57,8583.9 3461.57,8513.77C3461.57,8443.65 3404.63,8386.71 3334.51,8386.71C3264.38,8386.71 3207.45,8443.65 3207.45,8513.77C3207.45,8583.9 3264.38,8640.83 3334.51,8640.83ZM8780.45,6822.13C8877.57,6822.13 8956.42,6743.28 8956.42,6646.16C8956.42,6549.04 8877.57,6470.2 8780.45,6470.2C8683.34,6470.2 8604.49,6549.04 8604.49,6646.16C8604.49,6743.28 8683.34,6822.13 8780.45,6822.13ZM2004.23,2161.93C1952.41,2161.93 1910.33,2204 1910.33,2255.83C1910.33,2307.66 1952.41,2349.74 2004.23,2349.74C2056.06,2349.74 2098.14,2307.66 2098.14,2255.83C2098.14,2204 2056.06,2161.93 2004.23,2161.93ZM9012.72,2820.03C8931.5,2820.03 8865.56,2885.97 8865.56,2967.19C8865.56,3048.42 8931.5,3114.36 9012.72,3114.36C9093.94,3114.36 9159.89,3048.42 9159.89,2967.19C9159.89,2885.97 9093.94,2820.03 9012.72,2820.03ZM7905.19,1829.7C7859.77,1829.7 7822.9,1866.57 7822.9,1911.99C7822.9,1957.4 7859.77,1994.28 7905.19,1994.28C7950.6,1994.28 7987.48,1957.4 7987.48,1911.99C7987.48,1866.57 7950.6,1829.7 7905.19,1829.7ZM6736.44,9068.28C6788.27,9068.28 6830.35,9026.21 6830.35,8974.38C6830.35,8922.55 6788.27,8880.48 6736.44,8880.48C6684.62,8880.48 6642.54,8922.55 6642.54,8974.38C6642.54,9026.21 6684.62,9068.28 6736.44,9068.28ZM6222.39,9613.89C6267.8,9613.89 6304.68,9577.01 6304.68,9531.6C6304.68,9486.18 6267.8,9449.31 6222.39,9449.31C6176.97,9449.31 6140.1,9486.18 6140.1,9531.6C6140.1,9577.01 6176.97,9613.89 6222.39,9613.89ZM3471.22,9068.28C3523.04,9068.28 3565.12,9026.21 3565.12,8974.38C3565.12,8922.55 3523.04,8880.48 3471.22,8880.48C3419.39,8880.48 3377.31,8922.55 3377.31,8974.38C3377.31,9026.21 3419.39,9068.28 3471.22,9068.28ZM3379.23,3801.62C3282.11,3801.62 3203.26,3880.47 3203.26,3977.59C3203.26,4074.7 3282.11,4153.55 3379.23,4153.55C3476.35,4153.55 3555.19,4074.7 3555.19,3977.59C3555.19,3880.47 3476.35,3801.62 3379.23,3801.62ZM9103.61,6301.24C9207.26,6301.24 9291.42,6217.09 9291.42,6113.43C9291.42,6009.78 9207.26,5925.62 9103.61,5925.62C8999.95,5925.62 8915.8,6009.78 8915.8,6113.43C8915.8,6217.09 8999.95,6301.24 9103.61,6301.24ZM7545.75,2272.67C7475.62,2272.67 7418.69,2329.6 7418.69,2399.73C7418.69,2469.86 7475.62,2526.79 7545.75,2526.79C7615.87,2526.79 7672.81,2469.86 7672.81,2399.73C7672.81,2329.6 7615.87,2272.67 7545.75,2272.67ZM7512.59,1426.52C7460.76,1426.52 7418.69,1468.6 7418.69,1520.42C7418.69,1572.25 7460.76,1614.33 7512.59,1614.33C7564.42,1614.33 7606.5,1572.25 7606.5,1520.42C7606.5,1468.6 7564.42,1426.52 7512.59,1426.52ZM5747.23,2722.98C5666.01,2722.98 5600.07,2788.92 5600.07,2870.14C5600.07,2951.37 5666.01,3017.31 5747.23,3017.31C5828.45,3017.31 5894.4,2951.37 5894.4,2870.14C5894.4,2788.92 5828.45,2722.98 5747.23,2722.98ZM5747.23,9179.37C5799.06,9179.37 5841.14,9137.29 5841.14,9085.46C5841.14,9033.64 5799.06,8991.56 5747.23,8991.56C5695.41,8991.56 5653.33,9033.64 5653.33,9085.46C5653.33,9137.29 5695.41,9179.37 5747.23,9179.37ZM7742.88,7350.53C7833.72,7350.53 7907.46,7276.79 7907.46,7185.95C7907.46,7095.12 7833.72,7021.38 7742.88,7021.38C7652.05,7021.38 7578.3,7095.12 7578.3,7185.95C7578.3,7276.79 7652.05,7350.53 7742.88,7350.53ZM6301.9,4049.23C6198.25,4049.23 6114.09,4133.39 6114.09,4237.04C6114.09,4340.7 6198.25,4424.85 6301.9,4424.85C6405.56,4424.85 6489.71,4340.7 6489.71,4237.04C6489.71,4133.39 6405.56,4049.23 6301.9,4049.23ZM5747.23,10240C5792.65,10240 5829.52,10203.1 5829.52,10157.7C5829.52,10112.3 5792.65,10075.4 5747.23,10075.4C5701.82,10075.4 5664.94,10112.3 5664.94,10157.7C5664.94,10203.1 5701.82,10240 5747.23,10240ZM7742.88,2820.03C7661.66,2820.03 7595.72,2885.97 7595.72,2967.19C7595.72,3048.42 7661.66,3114.36 7742.88,3114.36C7824.1,3114.36 7890.04,3048.42 7890.04,2967.19C7890.04,2885.97 7824.1,2820.03 7742.88,2820.03ZM5747.23,2272.67C5677.11,2272.67 5620.17,2329.6 5620.17,2399.73C5620.17,2469.86 5677.11,2526.79 5747.23,2526.79C5817.36,2526.79 5874.29,2469.86 5874.29,2399.73C5874.29,2329.6 5817.36,2272.67 5747.23,2272.67ZM5570.51,5335.78C5689.6,5335.78 5786.29,5239.09 5786.29,5120C5786.29,5000.91 5689.6,4904.22 5570.51,4904.22C5451.41,4904.22 5354.72,5000.91 5354.72,5120C5354.72,5239.09 5451.41,5335.78 5570.51,5335.78ZM7854.84,8570.14C7924.96,8570.14 7981.9,8513.21 7981.9,8443.08C7981.9,8372.95 7924.96,8316.02 7854.84,8316.02C7784.71,8316.02 7727.78,8372.95 7727.78,8443.08C7727.78,8513.21 7784.71,8570.14 7854.84,8570.14ZM7742.88,5332.53C7861.98,5332.53 7958.66,5235.84 7958.66,5116.75C7958.66,4997.65 7861.98,4900.96 7742.88,4900.96C7623.79,4900.96 7527.1,4997.65 7527.1,5116.75C7527.1,5235.84 7623.79,5332.53 7742.88,5332.53ZM5747.23,515.307C5695.41,515.307 5653.33,557.384 5653.33,609.212C5653.33,661.039 5695.41,703.116 5747.23,703.116C5799.06,703.116 5841.14,661.039 5841.14,609.212C5841.14,557.384 5799.06,515.307 5747.23,515.307ZM5924.51,3362.36C5833.67,3362.36 5759.93,3436.11 5759.93,3526.94C5759.93,3617.78 5833.67,3691.52 5924.51,3691.52C6015.34,3691.52 6089.09,3617.78 6089.09,3526.94C6089.09,3436.11 6015.34,3362.36 5924.51,3362.36ZM7965.05,5917.5C8068.7,5917.5 8152.86,5833.34 8152.86,5729.69C8152.86,5626.03 8068.7,5541.88 7965.05,5541.88C7861.4,5541.88 7777.24,5626.03 7777.24,5729.69C7777.24,5833.34 7861.4,5917.5 7965.05,5917.5ZM5802.78,5917.5C5906.43,5917.5 5990.59,5833.34 5990.59,5729.69C5990.59,5626.03 5906.43,5541.88 5802.78,5541.88C5699.12,5541.88 5614.97,5626.03 5614.97,5729.69C5614.97,5833.34 5699.12,5917.5 5802.78,5917.5ZM7990.18,9068.28C8042.01,9068.28 8084.09,9026.21 8084.09,8974.38C8084.09,8922.55 8042.01,8880.48 7990.18,8880.48C7938.36,8880.48 7896.28,8922.55 7896.28,8974.38C7896.28,9026.21 7938.36,9068.28 7990.18,9068.28ZM7592.61,3362.62C7501.78,3362.62 7428.03,3436.37 7428.03,3527.2C7428.03,3618.04 7501.78,3691.78 7592.61,3691.78C7683.45,3691.78 7757.19,3618.04 7757.19,3527.2C7757.19,3436.37 7683.45,3362.62 7592.61,3362.62ZM5596.02,3619.85C5498.91,3619.85 5420.06,3698.69 5420.06,3795.81C5420.06,3892.93 5498.91,3971.78 5596.02,3971.78C5693.14,3971.78 5771.99,3892.93 5771.99,3795.81C5771.99,3698.69 5693.14,3619.85 5596.02,3619.85ZM5747.23,-10.099C5701.82,-10.099 5664.94,26.774 5664.94,72.191C5664.94,117.608 5701.82,154.481 5747.23,154.481C5792.65,154.481 5829.52,117.608 5829.52,72.191C5829.52,26.774 5792.65,-10.099 5747.23,-10.099ZM7405.3,7975.39C7486.52,7975.39 7552.46,7909.45 7552.46,7828.23C7552.46,7747.01 7486.52,7681.07 7405.3,7681.07C7324.08,7681.07 7258.14,7747.01 7258.14,7828.23C7258.14,7909.45 7324.08,7975.39 7405.3,7975.39ZM7592.61,3870.83C7495.49,3870.83 7416.65,3949.68 7416.65,4046.8C7416.65,4143.92 7495.49,4222.76 7592.61,4222.76C7689.73,4222.76 7768.58,4143.92 7768.58,4046.8C7768.58,3949.68 7689.73,3870.83 7592.61,3870.83ZM7742.88,6397.99C7840,6397.99 7918.85,6319.14 7918.85,6222.02C7918.85,6124.9 7840,6046.06 7742.88,6046.06C7645.76,6046.06 7566.92,6124.9 7566.92,6222.02C7566.92,6319.14 7645.76,6397.99 7742.88,6397.99ZM7490.42,4373C7386.76,4373 7302.61,4457.15 7302.61,4560.81C7302.61,4664.46 7386.76,4748.61 7490.42,4748.61C7594.07,4748.61 7678.23,4664.46 7678.23,4560.81C7678.23,4457.15 7594.07,4373 7490.42,4373ZM5082.02,10270.3C5127.43,10270.3 5164.31,10233.4 5164.31,10188C5164.31,10142.6 5127.43,10105.7 5082.02,10105.7C5036.6,10105.7 4999.73,10142.6 4999.73,10188C4999.73,10233.4 5036.6,10270.3 5082.02,10270.3ZM5082.02,5917.5C5185.67,5917.5 5269.83,5833.34 5269.83,5729.69C5269.83,5626.03 5185.67,5541.88 5082.02,5541.88C4978.36,5541.88 4894.21,5626.03 4894.21,5729.69C4894.21,5833.34 4978.36,5917.5 5082.02,5917.5ZM5082.02,9260.16C5133.84,9260.16 5175.92,9218.08 5175.92,9166.25C5175.92,9114.43 5133.84,9072.35 5082.02,9072.35C5030.19,9072.35 4988.11,9114.43 4988.11,9166.25C4988.11,9218.08 5030.19,9260.16 5082.02,9260.16ZM5082.02,6397.99C5179.14,6397.99 5257.98,6319.14 5257.98,6222.02C5257.98,6124.9 5179.14,6046.06 5082.02,6046.06C4984.9,6046.06 4906.05,6124.9 4906.05,6222.02C4906.05,6319.14 4984.9,6397.99 5082.02,6397.99ZM9980.9,4373C9877.24,4373 9793.09,4457.15 9793.09,4560.81C9793.09,4664.46 9877.24,4748.61 9980.9,4748.61C10084.6,4748.61 10168.7,4664.46 10168.7,4560.81C10168.7,4457.15 10084.6,4373 9980.9,4373ZM5082.02,1138.18C5036.6,1138.18 4999.73,1175.05 4999.73,1220.47C4999.73,1265.89 5036.6,1302.76 5082.02,1302.76C5127.43,1302.76 5164.31,1265.89 5164.31,1220.47C5164.31,1175.05 5127.43,1138.18 5082.02,1138.18ZM5082.02,1724.18C5030.19,1724.18 4988.11,1766.26 4988.11,1818.08C4988.11,1869.91 5030.19,1911.99 5082.02,1911.99C5133.84,1911.99 5175.92,1869.91 5175.92,1818.08C5175.92,1766.26 5133.84,1724.18 5082.02,1724.18ZM9738.53,3293.41C9647.69,3293.41 9573.95,3367.16 9573.95,3457.99C9573.95,3548.82 9647.69,3622.57 9738.53,3622.57C9829.36,3622.57 9903.11,3548.82 9903.11,3457.99C9903.11,3367.16 9829.36,3293.41 9738.53,3293.41ZM1755.94,5534.5C1875.03,5534.5 1971.72,5437.81 1971.72,5318.72C1971.72,5199.62 1875.03,5102.94 1755.94,5102.94C1636.84,5102.94 1540.15,5199.62 1540.15,5318.72C1540.15,5437.81 1636.84,5534.5 1755.94,5534.5ZM4701.89,9755.27C4747.31,9755.27 4784.18,9718.4 4784.18,9672.98C4784.18,9627.56 4747.31,9590.69 4701.89,9590.69C4656.48,9590.69 4619.6,9627.56 4619.6,9672.98C4619.6,9718.4 4656.48,9755.27 4701.89,9755.27ZM1755.94,6351.74C1859.59,6351.74 1943.75,6267.58 1943.75,6163.93C1943.75,6060.27 1859.59,5976.12 1755.94,5976.12C1652.28,5976.12 1568.13,6060.27 1568.13,6163.93C1568.13,6267.58 1652.28,6351.74 1755.94,6351.74ZM9799.12,6822.13C9896.24,6822.13 9975.09,6743.28 9975.09,6646.16C9975.09,6549.04 9896.24,6470.2 9799.12,6470.2C9702,6470.2 9623.16,6549.04 9623.16,6646.16C9623.16,6743.28 9702,6822.13 9799.12,6822.13ZM1887.22,3293.41C1796.38,3293.41 1722.64,3367.16 1722.64,3457.99C1722.64,3548.82 1796.38,3622.57 1887.22,3622.57C1978.05,3622.57 2051.8,3548.82 2051.8,3457.99C2051.8,3367.16 1978.05,3293.41 1887.22,3293.41ZM8849.85,8570.14C8919.98,8570.14 8976.91,8513.21 8976.91,8443.08C8976.91,8372.95 8919.98,8316.02 8849.85,8316.02C8779.73,8316.02 8722.79,8372.95 8722.79,8443.08C8722.79,8513.21 8779.73,8570.14 8849.85,8570.14ZM1755.94,7350.53C1846.77,7350.53 1920.52,7276.79 1920.52,7185.95C1920.52,7095.12 1846.77,7021.38 1755.94,7021.38C1665.1,7021.38 1591.36,7095.12 1591.36,7185.95C1591.36,7276.79 1665.1,7350.53 1755.94,7350.53ZM2994.53,1579.13C2924.4,1579.13 2867.47,1636.07 2867.47,1706.2C2867.47,1776.32 2924.4,1833.26 2994.53,1833.26C3064.66,1833.26 3121.59,1776.32 3121.59,1706.2C3121.59,1636.07 3064.66,1579.13 2994.53,1579.13ZM2331.56,6751.44C2428.68,6751.44 2507.52,6672.59 2507.52,6575.47C2507.52,6478.35 2428.68,6399.51 2331.56,6399.51C2234.44,6399.51 2155.59,6478.35 2155.59,6575.47C2155.59,6672.59 2234.44,6751.44 2331.56,6751.44ZM3699.89,1267.97C3629.76,1267.97 3572.83,1324.91 3572.83,1395.03C3572.83,1465.16 3629.76,1522.09 3699.89,1522.09C3770.01,1522.09 3826.95,1465.16 3826.95,1395.03C3826.95,1324.91 3770.01,1267.97 3699.89,1267.97ZM1998.3,2820.03C1917.08,2820.03 1851.14,2885.97 1851.14,2967.19C1851.14,3048.42 1917.08,3114.36 1998.3,3114.36C2079.53,3114.36 2145.47,3048.42 2145.47,2967.19C2145.47,2885.97 2079.53,2820.03 1998.3,2820.03ZM4365.05,1395.03C4312.19,1395.03 4269.27,1437.95 4269.27,1490.81C4269.27,1543.68 4312.19,1586.6 4365.05,1586.6C4417.91,1586.6 4460.83,1543.68 4460.83,1490.81C4460.83,1437.95 4417.91,1395.03 4365.05,1395.03ZM2490.64,2198.02C2420.52,2198.02 2363.58,2254.95 2363.58,2325.08C2363.58,2395.2 2420.52,2452.14 2490.64,2452.14C2560.77,2452.14 2617.7,2395.2 2617.7,2325.08C2617.7,2254.95 2560.77,2198.02 2490.64,2198.02ZM1849.56,8570.14C1919.68,8570.14 1976.62,8513.21 1976.62,8443.08C1976.62,8372.95 1919.68,8316.02 1849.56,8316.02C1779.43,8316.02 1722.5,8372.95 1722.5,8443.08C1722.5,8513.21 1779.43,8570.14 1849.56,8570.14ZM2281.06,2467.65C2210.94,2467.65 2154,2524.58 2154,2594.71C2154,2664.83 2210.94,2721.77 2281.06,2721.77C2351.19,2721.77 2408.12,2664.83 2408.12,2594.71C2408.12,2524.58 2351.19,2467.65 2281.06,2467.65ZM2105.54,7975.39C2186.76,7975.39 2252.7,7909.45 2252.7,7828.23C2252.7,7747.01 2186.76,7681.07 2105.54,7681.07C2024.32,7681.07 1958.38,7747.01 1958.38,7828.23C1958.38,7909.45 2024.32,7975.39 2105.54,7975.39ZM5778.57,1582.31C5733.16,1582.31 5696.29,1619.19 5696.29,1664.6C5696.29,1710.02 5733.16,1746.89 5778.57,1746.89C5823.99,1746.89 5860.86,1710.02 5860.86,1664.6C5860.86,1619.19 5823.99,1582.31 5778.57,1582.31ZM1826.98,1130.51C1775.15,1130.51 1733.08,1172.58 1733.08,1224.41C1733.08,1276.24 1775.15,1318.31 1826.98,1318.31C1878.81,1318.31 1920.88,1276.24 1920.88,1224.41C1920.88,1172.58 1878.81,1130.51 1826.98,1130.51ZM1816.53,4373C1712.87,4373 1628.72,4457.15 1628.72,4560.81C1628.72,4664.46 1712.87,4748.61 1816.53,4748.61C1920.18,4748.61 2004.34,4664.46 2004.34,4560.81C2004.34,4457.15 1920.18,4373 1816.53,4373ZM2691.76,1888.66C2621.64,1888.66 2564.7,1945.59 2564.7,2015.72C2564.7,2085.85 2621.64,2142.78 2691.76,2142.78C2761.89,2142.78 2818.82,2085.85 2818.82,2015.72C2818.82,1945.59 2761.89,1888.66 2691.76,1888.66ZM6982.63,9492.7C7028.05,9492.7 7064.92,9455.83 7064.92,9410.41C7064.92,9365 7028.05,9328.12 6982.63,9328.12C6937.22,9328.12 6900.35,9365 6900.35,9410.41C6900.35,9455.83 6937.22,9492.7 6982.63,9492.7ZM7572.27,9068.28C7624.1,9068.28 7666.18,9026.21 7666.18,8974.38C7666.18,8922.55 7624.1,8880.48 7572.27,8880.48C7520.44,8880.48 7478.37,8922.55 7478.37,8974.38C7478.37,9026.21 7520.44,9068.28 7572.27,9068.28ZM1811.48,3801.62C1714.36,3801.62 1635.51,3880.47 1635.51,3977.59C1635.51,4074.7 1714.36,4153.55 1811.48,4153.55C1908.6,4153.55 1987.44,4074.7 1987.44,3977.59C1987.44,3880.47 1908.6,3801.62 1811.48,3801.62ZM3298.02,1395.03C3227.89,1395.03 3170.96,1451.97 3170.96,1522.09C3170.96,1592.22 3227.89,1649.15 3298.02,1649.15C3368.14,1649.15 3425.08,1592.22 3425.08,1522.09C3425.08,1451.97 3368.14,1395.03 3298.02,1395.03ZM4067.14,1267.97C3997.02,1267.97 3940.08,1324.91 3940.08,1395.03C3940.08,1465.16 3997.02,1522.09 4067.14,1522.09C4137.27,1522.09 4194.2,1465.16 4194.2,1395.03C4194.2,1324.91 4137.27,1267.97 4067.14,1267.97ZM9900.11,3801.62C9802.99,3801.62 9724.14,3880.47 9724.14,3977.59C9724.14,4074.7 9802.99,4153.55 9900.11,4153.55C9997.23,4153.55 10076.1,4074.7 10076.1,3977.59C10076.1,3880.47 9997.23,3801.62 9900.11,3801.62ZM9970.8,5534.5C10089.9,5534.5 10186.6,5437.81 10186.6,5318.72C10186.6,5199.62 10089.9,5102.94 9970.8,5102.94C9851.7,5102.94 9755.01,5199.62 9755.01,5318.72C9755.01,5437.81 9851.7,5534.5 9970.8,5534.5ZM9738.53,6240.65C9842.18,6240.65 9926.34,6156.5 9926.34,6052.84C9926.34,5949.19 9842.18,5865.03 9738.53,5865.03C9634.87,5865.03 9550.72,5949.19 9550.72,6052.84C9550.72,6156.5 9634.87,6240.65 9738.53,6240.65ZM5936.09,3841.23C5832.43,3841.23 5748.28,3925.38 5748.28,4029.04C5748.28,4132.69 5832.43,4216.84 5936.09,4216.84C6039.74,4216.84 6123.9,4132.69 6123.9,4029.04C6123.9,3925.38 6039.74,3841.23 5936.09,3841.23ZM425.505,3293.41C334.671,3293.41 260.926,3367.16 260.926,3457.99C260.926,3548.82 334.671,3622.57 425.505,3622.57C516.339,3622.57 590.085,3548.82 590.085,3457.99C590.085,3367.16 516.339,3293.41 425.505,3293.41ZM3900.03,8970.33C3951.86,8970.33 3993.94,8928.25 3993.94,8876.42C3993.94,8824.59 3951.86,8782.52 3900.03,8782.52C3848.21,8782.52 3806.13,8824.59 3806.13,8876.42C3806.13,8928.25 3848.21,8970.33 3900.03,8970.33ZM3918.4,5374.6C4037.5,5374.6 4134.19,5277.91 4134.19,5158.81C4134.19,5039.72 4037.5,4943.03 3918.4,4943.03C3799.31,4943.03 3702.62,5039.72 3702.62,5158.81C3702.62,5277.91 3799.31,5374.6 3918.4,5374.6ZM3751.59,606.195C3699.76,606.195 3657.68,648.272 3657.68,700.099C3657.68,751.927 3699.76,794.004 3751.59,794.004C3803.41,794.004 3845.49,751.927 3845.49,700.099C3845.49,648.272 3803.41,606.195 3751.59,606.195ZM3751.59,6397.99C3848.7,6397.99 3927.55,6319.14 3927.55,6222.02C3927.55,6124.9 3848.7,6046.06 3751.59,6046.06C3654.47,6046.06 3575.62,6124.9 3575.62,6222.02C3575.62,6319.14 3654.47,6397.99 3751.59,6397.99ZM556.787,7350.53C647.621,7350.53 721.366,7276.79 721.366,7185.95C721.366,7095.12 647.621,7021.38 556.787,7021.38C465.953,7021.38 392.208,7095.12 392.208,7185.95C392.208,7276.79 465.953,7350.53 556.787,7350.53ZM3640.5,5917.5C3744.16,5917.5 3828.31,5833.34 3828.31,5729.69C3828.31,5626.03 3744.16,5541.88 3640.5,5541.88C3536.85,5541.88 3452.69,5626.03 3452.69,5729.69C3452.69,5833.34 3536.85,5917.5 3640.5,5917.5ZM6318.53,8970.33C6370.36,8970.33 6412.44,8928.25 6412.44,8876.42C6412.44,8824.59 6370.36,8782.52 6318.53,8782.52C6266.7,8782.52 6224.63,8824.59 6224.63,8876.42C6224.63,8928.25 6266.7,8970.33 6318.53,8970.33ZM425.505,6240.65C529.16,6240.65 613.314,6156.5 613.314,6052.84C613.314,5949.19 529.16,5865.03 425.505,5865.03C321.85,5865.03 237.696,5949.19 237.696,6052.84C237.696,6156.5 321.85,6240.65 425.505,6240.65ZM6654.22,2892.04C6563.39,2892.04 6489.64,2965.79 6489.64,3056.62C6489.64,3147.46 6563.39,3221.2 6654.22,3221.2C6745.05,3221.2 6818.8,3147.46 6818.8,3056.62C6818.8,2965.79 6745.05,2892.04 6654.22,2892.04ZM243.73,3801.62C146.612,3801.62 67.765,3880.47 67.765,3977.59C67.765,4074.7 146.612,4153.55 243.73,4153.55C340.848,4153.55 419.696,4074.7 419.696,3977.59C419.696,3880.47 340.848,3801.62 243.73,3801.62ZM162.942,4373C59.287,4373 -24.868,4457.15 -24.868,4560.81C-24.868,4664.46 59.287,4748.61 162.942,4748.61C266.596,4748.61 350.751,4664.46 350.751,4560.81C350.751,4457.15 266.596,4373 162.942,4373ZM791.029,2399.73C720.902,2399.73 663.969,2456.66 663.969,2526.79C663.969,2596.92 720.902,2653.85 791.029,2653.85C861.155,2653.85 918.089,2596.92 918.089,2526.79C918.089,2456.66 861.155,2399.73 791.029,2399.73ZM375.012,6822.13C472.13,6822.13 550.978,6743.28 550.978,6646.16C550.978,6549.04 472.13,6470.2 375.012,6470.2C277.894,6470.2 199.047,6549.04 199.047,6646.16C199.047,6743.28 277.894,6822.13 375.012,6822.13ZM6412.45,1861.73C6342.32,1861.73 6285.39,1918.67 6285.39,1988.79C6285.39,2058.92 6342.32,2115.85 6412.45,2115.85C6482.57,2115.85 6539.51,2058.92 6539.51,1988.79C6539.51,1918.67 6482.57,1861.73 6412.45,1861.73ZM859.745,7975.39C940.967,7975.39 1006.91,7909.45 1006.91,7828.23C1006.91,7747.01 940.967,7681.07 859.745,7681.07C778.523,7681.07 712.582,7747.01 712.582,7828.23C712.582,7909.45 778.523,7975.39 859.745,7975.39ZM1039.6,1974.12C987.769,1974.12 945.692,2016.19 945.692,2068.02C945.692,2119.85 987.769,2161.93 1039.6,2161.93C1091.42,2161.93 1133.5,2119.85 1133.5,2068.02C1133.5,2016.19 1091.42,1974.12 1039.6,1974.12ZM3940.62,2258.29C3859.4,2258.29 3793.46,2324.23 3793.46,2405.45C3793.46,2486.67 3859.4,2552.61 3940.62,2552.61C4021.84,2552.61 4087.78,2486.67 4087.78,2405.45C4087.78,2324.23 4021.84,2258.29 3940.62,2258.29ZM6523.53,5917.5C6627.19,5917.5 6711.34,5833.34 6711.34,5729.69C6711.34,5626.03 6627.19,5541.88 6523.53,5541.88C6419.88,5541.88 6335.72,5626.03 6335.72,5729.69C6335.72,5833.34 6419.88,5917.5 6523.53,5917.5ZM6412.45,2405.99C6331.23,2405.99 6265.29,2471.93 6265.29,2553.15C6265.29,2634.37 6331.23,2700.32 6412.45,2700.32C6493.67,2700.32 6559.61,2634.37 6559.61,2553.15C6559.61,2471.93 6493.67,2405.99 6412.45,2405.99ZM6315.53,3619.85C6218.41,3619.85 6139.56,3698.69 6139.56,3795.81C6139.56,3892.93 6218.41,3971.78 6315.53,3971.78C6412.65,3971.78 6491.49,3892.93 6491.49,3795.81C6491.49,3698.69 6412.65,3619.85 6315.53,3619.85ZM173.04,5534.5C292.134,5534.5 388.824,5437.81 388.824,5318.72C388.824,5199.62 292.134,5102.94 173.04,5102.94C53.946,5102.94 -42.743,5199.62 -42.743,5318.72C-42.743,5437.81 53.946,5534.5 173.04,5534.5ZM1354.58,8570.14C1424.7,8570.14 1481.64,8513.21 1481.64,8443.08C1481.64,8372.95 1424.7,8316.02 1354.58,8316.02C1284.45,8316.02 1227.52,8372.95 1227.52,8443.08C1227.52,8513.21 1284.45,8570.14 1354.58,8570.14ZM6412.45,6397.99C6509.57,6397.99 6588.41,6319.14 6588.41,6222.02C6588.41,6124.9 6509.57,6046.06 6412.45,6046.06C6315.33,6046.06 6236.48,6124.9 6236.48,6222.02C6236.48,6319.14 6315.33,6397.99 6412.45,6397.99ZM6315.5,5332.53C6434.6,5332.53 6531.29,5235.84 6531.29,5116.75C6531.29,4997.65 6434.6,4900.96 6315.5,4900.96C6196.41,4900.96 6099.72,4997.65 6099.72,5116.75C6099.72,5235.84 6196.41,5332.53 6315.5,5332.53ZM3181.4,9492.7C3226.82,9492.7 3263.69,9455.83 3263.69,9410.41C3263.69,9365 3226.82,9328.12 3181.4,9328.12C3135.98,9328.12 3099.11,9365 3099.11,9410.41C3099.11,9455.83 3135.98,9492.7 3181.4,9492.7ZM2184.76,9068.28C2236.58,9068.28 2278.66,9026.21 2278.66,8974.38C2278.66,8922.55 2236.58,8880.48 2184.76,8880.48C2132.93,8880.48 2090.85,8922.55 2090.85,8974.38C2090.85,9026.21 2132.93,9068.28 2184.76,9068.28ZM546.688,2820.03C465.467,2820.03 399.525,2885.97 399.525,2967.19C399.525,3048.42 465.467,3114.36 546.688,3114.36C627.91,3114.36 693.852,3048.42 693.852,2967.19C693.852,2885.97 627.91,2820.03 546.688,2820.03ZM7822.38,6751.44C7919.5,6751.44 7998.34,6672.59 7998.34,6575.47C7998.34,6478.35 7919.5,6399.51 7822.38,6399.51C7725.26,6399.51 7646.41,6478.35 7646.41,6575.47C7646.41,6672.59 7725.26,6751.44 7822.38,6751.44ZM6412.45,606.195C6360.62,606.195 6318.54,648.272 6318.54,700.099C6318.54,751.927 6360.62,794.004 6412.45,794.004C6464.28,794.004 6506.35,751.927 6506.35,700.099C6506.35,648.272 6464.28,606.195 6412.45,606.195ZM3236.06,2081.93C3165.93,2081.93 3109,2138.86 3109,2208.99C3109,2279.11 3165.93,2336.05 3236.06,2336.05C3306.19,2336.05 3363.12,2279.11 3363.12,2208.99C3363.12,2138.86 3306.19,2081.93 3236.06,2081.93ZM2728.44,7975.39C2809.66,7975.39 2875.6,7909.45 2875.6,7828.23C2875.6,7747.01 2809.66,7681.07 2728.44,7681.07C2647.22,7681.07 2581.28,7747.01 2581.28,7828.23C2581.28,7909.45 2647.22,7975.39 2728.44,7975.39ZM2613.58,9068.28C2665.4,9068.28 2707.48,9026.21 2707.48,8974.38C2707.48,8922.55 2665.4,8880.48 2613.58,8880.48C2561.75,8880.48 2519.67,8922.55 2519.67,8974.38C2519.67,9026.21 2561.75,9068.28 2613.58,9068.28ZM2595.35,3801.62C2498.24,3801.62 2419.39,3880.47 2419.39,3977.59C2419.39,4074.7 2498.24,4153.55 2595.35,4153.55C2692.47,4153.55 2771.32,4074.7 2771.32,3977.59C2771.32,3880.47 2692.47,3801.62 2595.35,3801.62ZM8488.89,4373C8385.23,4373 8301.08,4457.15 8301.08,4560.81C8301.08,4664.46 8385.23,4748.61 8488.89,4748.61C8592.54,4748.61 8676.69,4664.46 8676.69,4560.81C8676.69,4457.15 8592.54,4373 8488.89,4373ZM2421.15,5332.53C2540.25,5332.53 2636.94,5235.84 2636.94,5116.75C2636.94,4997.65 2540.25,4900.96 2421.15,4900.96C2302.06,4900.96 2205.37,4997.65 2205.37,5116.75C2205.37,5235.84 2302.06,5332.53 2421.15,5332.53ZM8408.1,6351.74C8511.75,6351.74 8595.91,6267.58 8595.91,6163.93C8595.91,6060.27 8511.75,5976.12 8408.1,5976.12C8304.44,5976.12 8220.29,6060.27 8220.29,6163.93C8220.29,6267.58 8304.44,6351.74 8408.1,6351.74ZM8145.38,2272.67C8075.25,2272.67 8018.32,2329.6 8018.32,2399.73C8018.32,2469.86 8075.25,2526.79 8145.38,2526.79C8215.5,2526.79 8272.43,2469.86 8272.43,2399.73C8272.43,2329.6 8215.5,2272.67 8145.38,2272.67ZM8408.1,3293.41C8317.26,3293.41 8243.52,3367.16 8243.52,3457.99C8243.52,3548.82 8317.26,3622.57 8408.1,3622.57C8498.93,3622.57 8572.68,3548.82 8572.68,3457.99C8572.68,3367.16 8498.93,3293.41 8408.1,3293.41ZM2198.98,5917.5C2302.64,5917.5 2386.79,5833.34 2386.79,5729.69C2386.79,5626.03 2302.64,5541.88 2198.98,5541.88C2095.33,5541.88 2011.17,5626.03 2011.17,5729.69C2011.17,5833.34 2095.33,5917.5 2198.98,5917.5ZM8177.81,1022.3C8132.39,1022.3 8095.52,1059.17 8095.52,1104.59C8095.52,1150.01 8132.39,1186.88 8177.81,1186.88C8223.22,1186.88 8260.1,1150.01 8260.1,1104.59C8260.1,1059.17 8223.22,1022.3 8177.81,1022.3ZM2618.08,3293.41C2527.24,3293.41 2453.5,3367.16 2453.5,3457.99C2453.5,3548.82 2527.24,3622.57 2618.08,3622.57C2708.91,3622.57 2782.66,3548.82 2782.66,3457.99C2782.66,3367.16 2708.91,3293.41 2618.08,3293.41ZM5462.14,9755.27C5507.56,9755.27 5544.43,9718.4 5544.43,9672.98C5544.43,9627.56 5507.56,9590.69 5462.14,9590.69C5416.72,9590.69 5379.85,9627.56 5379.85,9672.98C5379.85,9718.4 5416.72,9755.27 5462.14,9755.27ZM8628.29,1426.52C8576.47,1426.52 8534.39,1468.6 8534.39,1520.42C8534.39,1572.25 8576.47,1614.33 8628.29,1614.33C8680.12,1614.33 8722.2,1572.25 8722.2,1520.42C8722.2,1468.6 8680.12,1426.52 8628.29,1426.52ZM2643.32,4373C2539.67,4373 2455.51,4457.15 2455.51,4560.81C2455.51,4664.46 2539.67,4748.61 2643.32,4748.61C2746.98,4748.61 2831.13,4664.46 2831.13,4560.81C2831.13,4457.15 2746.98,4373 2643.32,4373ZM8408.1,7350.53C8498.93,7350.53 8572.68,7276.79 8572.68,7185.95C8572.68,7095.12 8498.93,7021.38 8408.1,7021.38C8317.26,7021.38 8243.52,7095.12 8243.52,7185.95C8243.52,7276.79 8317.26,7350.53 8408.1,7350.53ZM8408.1,5534.5C8527.19,5534.5 8623.88,5437.81 8623.88,5318.72C8623.88,5199.62 8527.19,5102.94 8408.1,5102.94C8289,5102.94 8192.31,5199.62 8192.31,5318.72C8192.31,5437.81 8289,5534.5 8408.1,5534.5ZM2421.15,7350.53C2511.99,7350.53 2585.73,7276.79 2585.73,7185.95C2585.73,7095.12 2511.99,7021.38 2421.15,7021.38C2330.32,7021.38 2256.57,7095.12 2256.57,7185.95C2256.57,7276.79 2330.32,7350.53 2421.15,7350.53ZM2839.52,8570.14C2909.65,8570.14 2966.58,8513.21 2966.58,8443.08C2966.58,8372.95 2909.65,8316.02 2839.52,8316.02C2769.4,8316.02 2712.46,8372.95 2712.46,8443.08C2712.46,8513.21 2769.4,8570.14 2839.52,8570.14ZM2724.11,2820.03C2642.89,2820.03 2576.95,2885.97 2576.95,2967.19C2576.95,3048.42 2642.89,3114.36 2724.11,3114.36C2805.33,3114.36 2871.27,3048.42 2871.27,2967.19C2871.27,2885.97 2805.33,2820.03 2724.11,2820.03ZM7357.33,8570.14C7427.46,8570.14 7484.39,8513.21 7484.39,8443.08C7484.39,8372.95 7427.46,8316.02 7357.33,8316.02C7287.2,8316.02 7230.27,8372.95 7230.27,8443.08C7230.27,8513.21 7287.2,8570.14 7357.33,8570.14ZM8051.76,7975.39C8132.98,7975.39 8198.92,7909.45 8198.92,7828.23C8198.92,7747.01 8132.98,7681.07 8051.76,7681.07C7970.54,7681.07 7904.6,7747.01 7904.6,7828.23C7904.6,7909.45 7970.54,7975.39 8051.76,7975.39ZM8377.8,2820.03C8296.58,2820.03 8230.64,2885.97 8230.64,2967.19C8230.64,3048.42 8296.58,3114.36 8377.8,3114.36C8459.02,3114.36 8524.97,3048.42 8524.97,2967.19C8524.97,2885.97 8459.02,2820.03 8377.8,2820.03ZM8461.96,3801.62C8364.84,3801.62 8285.99,3880.47 8285.99,3977.59C8285.99,4074.7 8364.84,4153.55 8461.96,4153.55C8559.07,4153.55 8637.92,4074.7 8637.92,3977.59C8637.92,3880.47 8559.07,3801.62 8461.96,3801.62ZM2421.15,6397.99C2518.27,6397.99 2597.12,6319.14 2597.12,6222.02C2597.12,6124.9 2518.27,6046.06 2421.15,6046.06C2324.03,6046.06 2245.19,6124.9 2245.19,6222.02C2245.19,6319.14 2324.03,6397.99 2421.15,6397.99ZM2512.04,1151.52C2460.21,1151.52 2418.14,1193.6 2418.14,1245.42C2418.14,1297.25 2460.21,1339.33 2512.04,1339.33C2563.87,1339.33 2605.95,1297.25 2605.95,1245.42C2605.95,1193.6 2563.87,1151.52 2512.04,1151.52ZM4335.22,4944.2C4454.31,4944.2 4551,4847.51 4551,4728.42C4551,4609.32 4454.31,4512.64 4335.22,4512.64C4216.12,4512.64 4119.44,4609.32 4119.44,4728.42C4119.44,4847.51 4216.12,4944.2 4335.22,4944.2ZM4416.8,10240C4462.22,10240 4499.09,10203.1 4499.09,10157.7C4499.09,10112.3 4462.22,10075.4 4416.8,10075.4C4371.38,10075.4 4334.51,10112.3 4334.51,10157.7C4334.51,10203.1 4371.38,10240 4416.8,10240ZM4324.41,2586.51C4233.57,2586.51 4159.83,2660.25 4159.83,2751.09C4159.83,2841.92 4233.57,2915.67 4324.41,2915.67C4415.24,2915.67 4488.99,2841.92 4488.99,2751.09C4488.99,2660.25 4415.24,2586.51 4324.41,2586.51ZM2421.15,706.902C2375.74,706.902 2338.86,743.775 2338.86,789.192C2338.86,834.608 2375.74,871.481 2421.15,871.481C2466.57,871.481 2503.44,834.608 2503.44,789.192C2503.44,743.775 2466.57,706.902 2421.15,706.902ZM4389.28,1894.89C4308.06,1894.89 4242.11,1960.83 4242.11,2042.05C4242.11,2123.27 4308.06,2189.21 4389.28,2189.21C4470.5,2189.21 4536.44,2123.27 4536.44,2042.05C4536.44,1960.83 4470.5,1894.89 4389.28,1894.89ZM2946.28,2467.65C2876.15,2467.65 2819.22,2524.58 2819.22,2594.71C2819.22,2664.83 2876.15,2721.77 2946.28,2721.77C3016.41,2721.77 3073.34,2664.83 3073.34,2594.71C3073.34,2524.58 3016.41,2467.65 2946.28,2467.65ZM4500.37,3215.08C4403.26,3215.08 4324.41,3293.93 4324.41,3391.05C4324.41,3488.17 4403.26,3567.01 4500.37,3567.01C4597.49,3567.01 4676.34,3488.17 4676.34,3391.05C4676.34,3293.93 4597.49,3215.08 4500.37,3215.08ZM4361.26,5917.5C4464.91,5917.5 4549.07,5833.34 4549.07,5729.69C4549.07,5626.03 4464.91,5541.88 4361.26,5541.88C4257.6,5541.88 4173.45,5626.03 4173.45,5729.69C4173.45,5833.34 4257.6,5917.5 4361.26,5917.5ZM4416.8,6397.99C4513.92,6397.99 4592.77,6319.14 4592.77,6222.02C4592.77,6124.9 4513.92,6046.06 4416.8,6046.06C4319.68,6046.06 4240.84,6124.9 4240.84,6222.02C4240.84,6319.14 4319.68,6397.99 4416.8,6397.99ZM3732.04,1767.83C3661.91,1767.83 3604.98,1824.76 3604.98,1894.89C3604.98,1965.01 3661.91,2021.95 3732.04,2021.95C3802.16,2021.95 3859.1,1965.01 3859.1,1894.89C3859.1,1824.76 3802.16,1767.83 3732.04,1767.83ZM4416.8,-10.099C4371.38,-10.099 4334.51,26.774 4334.51,72.191C4334.51,117.608 4371.38,154.481 4416.8,154.481C4462.22,154.481 4499.09,117.608 4499.09,72.191C4499.09,26.774 4462.22,-10.099 4416.8,-10.099ZM4512.22,3889.87C4408.56,3889.87 4324.41,3974.02 4324.41,4077.68C4324.41,4181.33 4408.56,4265.48 4512.22,4265.48C4615.87,4265.48 4700.03,4181.33 4700.03,4077.68C4700.03,3974.02 4615.87,3889.87 4512.22,3889.87ZM4416.8,515.307C4364.97,515.307 4322.9,557.384 4322.9,609.212C4322.9,661.039 4364.97,703.116 4416.8,703.116C4468.63,703.116 4510.71,661.039 4510.71,609.212C4510.71,557.384 4468.63,515.307 4416.8,515.307ZM4517.79,9179.37C4569.61,9179.37 4611.69,9137.29 4611.69,9085.46C4611.69,9033.64 4569.61,8991.56 4517.79,8991.56C4465.96,8991.56 4423.88,9033.64 4423.88,9085.46C4423.88,9137.29 4465.96,9179.37 4517.79,9179.37Z" style="fill:rgb(196,20,68);"/>
        <g id="Eyes---Wink-Light" serif:id="Eyes + Wink Light" transform="matrix(4.35131,0,0,4.46899,-479.289,-177.434)">
            <g transform="matrix(1,0,0,1,-435.518,12.0334)">
                <g id="wink">
                    <path d="M1782.35,876.34C1782.35,873.012 1782.8,869.662 1783.72,866.379C1784.46,863.751 1785.49,861.237 1786.76,858.871C1788.34,855.926 1790.33,853.161 1792.72,850.666C1794.76,848.53 1797.03,846.662 1799.45,845.077L2042.9,680.686C2060.45,668.84 2084.57,673.09 2096.73,690.17C2108.9,707.251 2104.53,730.735 2086.99,742.581L1944.68,838.678L2115.35,838.678C2136.7,838.678 2154.03,855.554 2154.03,876.34C2154.03,897.126 2136.7,914.002 2115.35,914.002L1962.1,914.002L2095.65,991.104C2114.01,1001.71 2120.08,1024.83 2109.19,1042.71C2098.3,1060.59 2074.55,1066.5 2056.19,1055.89L1801.79,909.017C1799.25,907.603 1796.86,905.895 1794.66,903.903C1791.89,901.396 1789.57,898.544 1787.7,895.458C1786.17,892.926 1784.97,890.277 1784.1,887.567C1782.96,884.021 1782.35,880.249 1782.35,876.34Z" style="fill:rgb(196,20,68);"/>
                    <path d="M1877.72,925.49C1889.2,932.116 1892.99,946.568 1886.19,957.742C1879.38,968.917 1864.54,972.609 1853.06,965.983L1789.62,929.356C1785.55,927.07 1781.7,924.321 1778.18,921.123C1773.69,917.049 1769.9,912.417 1766.87,907.406C1764.38,903.29 1762.44,898.986 1761.03,894.583C1759.18,888.827 1758.18,882.708 1758.18,876.364C1758.17,870.948 1758.9,865.496 1760.41,860.154C1761.61,855.883 1763.27,851.798 1765.34,847.953C1767.91,843.17 1771.15,838.68 1775.03,834.626C1778.31,831.196 1781.94,828.191 1785.82,825.642L1846.54,784.637C1857.51,777.233 1872.58,779.889 1880.18,790.565C1887.79,801.24 1885.06,815.918 1874.1,823.321L1813.23,864.419C1813.13,864.489 1813.02,864.559 1812.92,864.628C1812.02,865.215 1811.18,865.907 1810.42,866.698L1810.4,866.721C1809.52,867.646 1808.78,868.672 1808.19,869.764L1808.16,869.813C1807.69,870.691 1807.31,871.623 1807.04,872.598L1807.03,872.608C1806.69,873.828 1806.53,875.074 1806.53,876.311L1806.53,876.34C1806.53,877.806 1806.75,879.22 1807.18,880.55L1807.18,880.553C1807.5,881.563 1807.95,882.548 1808.52,883.491L1808.55,883.535C1809.24,884.68 1810.1,885.739 1811.13,886.669L1811.15,886.689C1811.96,887.427 1812.85,888.06 1813.79,888.584C1813.9,888.645 1814.01,888.707 1814.12,888.771L1877.72,925.49ZM1995.82,741.126C1984.86,748.529 1969.78,745.873 1962.18,735.198C1954.57,724.522 1957.3,709.845 1968.27,702.441L2029.13,661.343C2057.63,642.094 2096.83,649 2116.6,676.756C2136.37,704.512 2129.28,742.674 2100.77,761.923L2021.96,815.139L2115.35,815.139C2150.04,815.139 2178.21,842.562 2178.21,876.34C2178.21,910.117 2150.04,937.54 2115.35,937.54L2050.27,937.54L2107.98,970.858C2137.82,988.085 2147.68,1025.66 2129.98,1054.71C2112.29,1083.77 2073.7,1093.37 2043.86,1076.14L1980.26,1039.42C1968.78,1032.8 1964.99,1018.34 1971.8,1007.17C1978.6,995.995 1993.44,992.302 2004.92,998.928L2068.52,1035.65C2075.41,1039.62 2084.31,1037.41 2088.4,1030.7C2092.48,1024 2090.2,1015.33 2083.32,1011.35L1949.77,934.248C1940.4,928.841 1935.91,918.003 1938.79,907.777C1941.67,897.552 1951.21,890.463 1962.1,890.463L2115.35,890.463C2123.36,890.463 2129.86,884.135 2129.86,876.34C2129.86,868.545 2123.36,862.217 2115.35,862.217L1944.68,862.217C1934.11,862.217 1924.76,855.529 1921.61,845.706C1918.45,835.882 1922.22,825.202 1930.9,819.336L2073.21,723.239C2079.79,718.796 2081.43,709.99 2076.87,703.585C2072.3,697.179 2063.26,695.586 2056.68,700.028L1995.82,741.126Z" style="fill:rgb(111,38,61);"/>
                </g>
            </g>
            <g id="Left-Eye" serif:id="Left Eye" transform="matrix(1,0,0,1,162.355,55.0469)">
                <ellipse cx="851.651" cy="833.592" rx="132.017" ry="318.098" style="fill:rgb(196,20,68);stroke:rgb(111,38,61);stroke-width:47.7px;stroke-dasharray:95.4,95.4,0,0,0,0;"/>
            </g>
            <g transform="matrix(0.134792,0,0,0.168101,478.17,172.439)">
                <path d="M1778.73,2569.05C1703.5,2712.02 1493.75,2780.41 1310.63,2721.68C1127.5,2662.94 1039.9,2499.18 1115.13,2356.21C1115.13,2356.21 2344.71,71.073 4914.01,960.288C5095,1022.93 5176.8,1188.5 5096.57,1329.81C5016.34,1471.11 4804.26,1534.98 4623.28,1472.34C2681.9,800.443 1778.73,2569.05 1778.73,2569.05Z" style="fill:rgb(196,20,68);"/>
                <path d="M1792.69,2236.12C1842.13,2169.17 1951.9,2146.15 2037.65,2184.76C2123.4,2223.36 2152.88,2309.05 2103.44,2376.01C1997.61,2519.31 1945.32,2620.91 1945.32,2620.91C1945.09,2621.36 1944.86,2621.81 1944.62,2622.26C1868.71,2766.53 1701.5,2860.23 1516.52,2879.19C1418.37,2889.25 1328.23,2835.2 1315.35,2758.58C1302.47,2681.95 1371.69,2611.58 1469.83,2601.52C1531.36,2595.21 1587.09,2564.22 1612.57,2516.32C1618.22,2505.38 1677.43,2392.2 1792.69,2236.12ZM1281.66,2408.3C1242.39,2479.24 1136.74,2511.94 1045.87,2481.28C955.012,2450.62 913.129,2368.13 952.404,2297.19C969.597,2266.13 1098.04,2039.13 1341.39,1762.06C1397.37,1698.32 1509.1,1682.06 1590.74,1725.76C1672.37,1769.47 1693.2,1856.7 1637.22,1920.43C1415.22,2173.2 1297.35,2379.97 1281.66,2408.3ZM2095.37,1486.25C2025.41,1540.92 1911.76,1540.97 1841.73,1486.35C1771.7,1431.72 1771.65,1342.99 1841.61,1288.32C2022.16,1147.22 2230.34,1013.18 2466.13,902.502C2550.97,862.682 2661.25,884.127 2712.25,950.362C2763.26,1016.6 2735.79,1102.7 2650.95,1142.52C2441.07,1241.03 2256.08,1360.65 2095.37,1486.25ZM3294.26,936.502C3197.82,953.921 3101.41,906.934 3079.1,831.64C3056.78,756.346 3116.97,681.075 3213.41,663.656C3462.1,618.736 3731.34,602.289 4021.35,624.873C4119.85,632.544 4191.84,701.205 4182.02,778.106C4172.19,855.008 4084.25,911.214 3985.75,903.544C3737.55,884.215 3507.1,898.058 3294.26,936.502ZM4671.03,1033.58C4578.49,1006.15 4531.87,925.227 4567,852.974C4602.13,780.721 4705.78,744.326 4798.32,771.751C4860.33,790.127 4923.12,810.274 4986.69,832.275C5256.85,925.775 5379.66,1172.18 5262.27,1383.46C5222.88,1454.36 5117.17,1486.95 5026.36,1456.19C4935.55,1425.43 4893.81,1342.9 4933.2,1272C4972.33,1201.58 4931.37,1119.46 4841.33,1088.3C4783.86,1068.41 4727.09,1050.19 4671.03,1033.58ZM4509.4,1285.83C4602.55,1311.98 4650.99,1392.25 4617.51,1464.97C4584.03,1537.7 4481.21,1575.52 4388.06,1549.38C4144.99,1481.16 3921.1,1454.92 3715.77,1460.86C3616.86,1463.72 3533.57,1403.34 3529.91,1326.11C3526.24,1248.88 3603.58,1183.86 3702.5,1181C3948.85,1173.88 4217.76,1203.99 4509.4,1285.83ZM2903.57,1348.35C2991.33,1312.6 3099.75,1339.21 3145.54,1407.73C3191.32,1476.25 3157.24,1560.89 3069.48,1596.64C2856.24,1683.5 2675.04,1802.56 2524.24,1928C2456.5,1984.35 2342.9,1987.16 2270.73,1934.27C2198.55,1881.38 2194.95,1792.69 2262.7,1736.34C2439.69,1589.12 2653.28,1450.3 2903.57,1348.35Z" style="fill:rgb(111,38,61);"/>
            </g>
            <g id="Logo-Light" serif:id="Logo Light" transform="matrix(14.4289,0,0,14.049,556.629,1056.99)">
                <path d="M94.173,29.051C94.173,27.741 93.11,26.678 91.799,26.678L8.201,26.678C6.89,26.678 5.827,27.741 5.827,29.051C5.827,53.431 25.62,73.224 50,73.224C74.38,73.224 94.173,53.431 94.173,29.051Z" style="fill:rgb(196,20,68);stroke:rgb(111,38,61);stroke-width:3.35px;stroke-miterlimit:2;stroke-dasharray:6.7,6.7,0,0,0,0;"/>
            </g>
        </g>
    </g>
    <g id="Layer3">
    </g>
</svg>
