<?xml version="1.0" encoding="UTF-8" standalone="no"?>
<!DOCTYPE svg PUBLIC "-//W3C//DTD SVG 1.1//EN" "http://www.w3.org/Graphics/SVG/1.1/DTD/svg11.dtd">
<svg width="100%" height="100%" viewBox="0 0 10240 10240" version="1.1" xmlns="http://www.w3.org/2000/svg" xmlns:xlink="http://www.w3.org/1999/xlink" xml:space="preserve" xmlns:serif="http://www.serif.com/" style="fill-rule:evenodd;clip-rule:evenodd;stroke-linecap:round;stroke-linejoin:round;stroke-miterlimit:2;">
    <g id="Layer4">
        <g transform="matrix(1.92011,0,0,1.92011,-9835.59,-9383.54)">
            <circle cx="7788.92" cy="7553.5" r="2666.51" style="fill:rgba(224,220,219, 50%);"/>
            <path d="M7788.92,4886.98C9260.61,4886.98 10455.4,6081.81 10455.4,7553.5C10455.4,9025.19 9260.61,10220 7788.92,10220C6317.23,10220 5122.41,9025.19 5122.41,7553.5C5122.41,6081.81 6317.23,4886.98 7788.92,4886.98ZM7788.92,5064.97C6415.46,5064.97 5300.39,6180.04 5300.39,7553.5C5300.39,8926.95 6415.46,10042 7788.92,10042C9162.38,10042 10277.5,8926.95 10277.5,7553.5C10277.5,6180.04 9162.38,5064.97 7788.92,5064.97Z" style="fill:rgb(111,38,61);"/>
        </g>
        <g transform="matrix(4.30883,0,0,4.42535,-2263.58,-72.4606)">
            <g id="wink">
                <path d="M1782.35,876.34C1782.35,873.012 1782.8,869.662 1783.72,866.379C1784.46,863.751 1785.49,861.237 1786.76,858.871C1788.34,855.926 1790.33,853.161 1792.72,850.666C1794.76,848.53 1797.03,846.662 1799.45,845.077L2042.9,680.686C2060.45,668.84 2084.57,673.09 2096.73,690.17C2108.9,707.251 2104.53,730.735 2086.99,742.581L1944.68,838.678L2115.35,838.678C2136.7,838.678 2154.03,855.554 2154.03,876.34C2154.03,897.126 2136.7,914.002 2115.35,914.002L1962.1,914.002L2095.65,991.104C2114.01,1001.71 2120.08,1024.83 2109.19,1042.71C2098.3,1060.59 2074.55,1066.5 2056.19,1055.89L1801.79,909.017C1799.25,907.603 1796.86,905.895 1794.66,903.903C1791.89,901.396 1789.57,898.544 1787.7,895.458C1786.17,892.926 1784.97,890.277 1784.1,887.567C1782.96,884.021 1782.35,880.249 1782.35,876.34Z" style="fill:rgb(111,38,61);stroke:rgb(111,38,61);stroke-width:47.7px;"/>
            </g>
        </g>
        <g transform="matrix(2.38336,0,0,3.27644,-7997.89,-14386.7)">
            <path d="M5503.93,7114.65C5691.22,7114.65 5867.48,7082.82 6032.73,7019.17C5944.89,6970.96 5857.72,6934.58 5771.2,6910.03C5681.4,6884.55 5592.31,6871.8 5503.93,6871.8C5330.42,6871.8 5154.15,6920.92 4975.13,7019.17C5140.38,7082.82 5316.65,7114.65 5503.93,7114.65ZM5503.93,7228.8C5331.8,7228.8 5162.07,7201.13 4994.76,7145.78C4827.44,7090.43 4675.96,7016.4 4540.32,6923.69C4404.67,6830.98 4296.23,6727.55 4214.98,6613.39C4133.73,6499.23 4093.11,6384.04 4093.11,6267.81C4093.11,6211.07 4105.5,6170.6 4130.29,6146.39C4155.08,6122.17 4188.82,6110.06 4231.51,6110.06C4263.18,6110.06 4298.29,6113.18 4336.85,6119.4C4375.41,6125.63 4419.48,6134.28 4469.05,6145.35C4601.25,6175.79 4759.27,6202.08 4943.11,6224.22C5126.95,6246.36 5313.9,6257.43 5503.93,6257.43C5693.97,6257.43 5880.91,6246.36 6064.75,6224.22C6248.59,6202.08 6407.3,6175.79 6540.88,6145.35C6590.45,6134.28 6634.52,6125.63 6673.08,6119.4C6711.64,6113.18 6746.06,6110.06 6776.36,6110.06C6820.43,6110.06 6854.85,6122.17 6879.64,6146.39C6904.43,6170.6 6916.82,6211.07 6916.82,6267.81C6916.82,6384.04 6876.2,6499.23 6794.95,6613.39C6713.7,6727.55 6604.91,6830.98 6468.58,6923.69C6332.25,7016.4 6180.43,7090.43 6013.11,7145.78C5845.79,7201.13 5676.07,7228.8 5503.93,7228.8ZM5503.93,6537.63C5633.38,6537.63 5771.78,6532.44 5919.12,6522.07C6066.47,6511.69 6213.82,6495.08 6361.17,6472.25C6508.52,6449.42 6646.23,6420.71 6774.29,6386.11L6774.29,6271.96C6774.29,6252.59 6767.75,6240.48 6754.67,6235.64C6741.59,6230.79 6726.1,6230.45 6708.19,6234.6C6598.03,6260.89 6472.71,6284.41 6332.25,6305.17C6191.79,6325.92 6049.6,6342.18 5905.7,6353.94C5761.79,6365.7 5627.87,6371.59 5503.93,6371.59C5381.37,6371.59 5247.79,6365.7 5103.2,6353.94C4958.61,6342.18 4816.42,6325.92 4676.65,6305.17C4536.87,6284.41 4411.22,6260.89 4299.67,6234.6C4281.77,6230.45 4266.28,6230.79 4253.19,6235.64C4240.11,6240.48 4233.57,6252.59 4233.57,6271.96L4233.57,6386.11C4361.64,6420.71 4499.35,6449.42 4646.7,6472.25C4794.05,6495.08 4941.74,6511.69 5089.77,6522.07C5237.81,6532.44 5375.86,6537.63 5503.93,6537.63ZM5026.35,6065.5C4953.36,6065.5 4892.08,6016.38 4842.51,5918.13C4792.93,5819.89 4768.15,5698.12 4768.15,5552.83C4768.15,5407.54 4792.93,5285.77 4842.51,5187.53C4892.08,5089.28 4953.36,5040.16 5026.35,5040.16C5099.33,5040.16 5160.96,5089.28 5211.22,5187.53C5261.49,5285.77 5286.62,5407.54 5286.62,5552.83C5286.62,5698.12 5261.49,5819.89 5211.22,5918.13C5160.96,6016.38 5099.33,6065.5 5026.35,6065.5Z" style="fill:rgb(111,38,61);fill-rule:nonzero;"/>
        </g>
        <g transform="matrix(0.580797,0,0,0.743907,1673.34,637.392)">
            <path d="M1778.73,2569.05C1703.5,2712.02 1493.75,2780.41 1310.63,2721.68C1127.5,2662.94 1039.9,2499.18 1115.13,2356.21C1115.13,2356.21 2344.71,71.073 4914.01,960.288C5095,1022.93 5176.8,1188.5 5096.57,1329.81C5016.34,1471.11 4804.26,1534.98 4623.28,1472.34C2681.9,800.443 1778.73,2569.05 1778.73,2569.05Z" style="fill:rgb(111,38,61);stroke:rgb(111,38,61);stroke-width:312.18px;"/>
        </g>
    </g>
    <g id="Layer3">
    </g>
</svg>
