<?xml version="1.0" encoding="UTF-8" standalone="no"?>
<!DOCTYPE svg PUBLIC "-//W3C//DTD SVG 1.1//EN" "http://www.w3.org/Graphics/SVG/1.1/DTD/svg11.dtd">
<svg width="100%" height="100%" viewBox="0 0 12095 12095" version="1.1" xmlns="http://www.w3.org/2000/svg" xmlns:xlink="http://www.w3.org/1999/xlink" xml:space="preserve" xmlns:serif="http://www.serif.com/" style="fill-rule:evenodd;clip-rule:evenodd;stroke-linejoin:round;stroke-miterlimit:2;">
    <path d="M0,0L0,3386.46L3386.46,3386.46L3386.46,0L0,0ZM4837.8,0L4837.8,483.78L4354.02,483.78L4354.02,967.559L3870.24,967.559L3870.24,3870.24L5321.57,3870.24L5321.57,2902.68L5805.35,2902.68L5805.35,4354.02L6289.13,4354.02L6289.13,4837.8L6772.91,4837.8L6772.91,5321.57L7256.69,5321.57L7256.69,5805.35L7740.47,5805.35L7740.47,6772.91L6772.91,6772.91L6772.91,6289.13L7256.69,6289.13L7256.69,5805.35L6289.13,5805.35L6289.13,4837.8L5805.35,4837.8L5805.35,4354.02L5321.57,4354.02L5321.57,4837.8L5805.35,4837.8L5805.35,5805.35L6289.13,5805.35L6289.13,6289.13L5805.35,6289.13L5805.35,6772.91L6289.13,6772.91L6289.13,7256.69L6772.91,7256.69L6772.91,7740.47L6289.13,7740.47L6289.13,7256.69L5805.35,7256.69L5805.35,8224.25L6289.13,8224.25L6289.13,8708.03L6772.91,8708.03L6772.91,9191.81L7256.69,9191.81L7256.69,8708.03L6772.91,8708.03L6772.91,8224.25L7740.47,8224.25L7740.47,9675.59L7256.69,9675.59L7256.69,10159.4L7740.47,10159.4L7740.47,11126.9L7256.69,11126.9L7256.69,10643.1L6772.91,10643.1L6772.91,10159.4L5805.35,10159.4L5805.35,9191.81L6289.13,9191.81L6289.13,8708.03L5321.57,8708.03L5321.57,9191.81L4837.8,9191.81L4837.8,9675.59L5321.57,9675.59L5321.57,10159.4L5805.35,10159.4L5805.35,10643.1L6289.13,10643.1L6289.13,11126.9L5805.35,11126.9L5805.35,12094.5L6289.13,12094.5L6289.13,11610.7L6772.91,11610.7L6772.91,12094.5L7256.69,12094.5L7256.69,11610.7L6772.91,11610.7L6772.91,11126.9L7256.69,11126.9L7256.69,11610.7L8708.03,11610.7L8708.03,12094.5L12094.5,12094.5L12094.5,9675.59L10643.1,9675.59L10643.1,9191.81L10159.4,9191.81L10159.4,8708.03L10643.1,8708.03L10643.1,9191.81L12094.5,9191.81L12094.5,8708.03L10643.1,8708.03L10643.1,8224.25L10159.4,8224.25L10159.4,7256.69L10643.1,7256.69L10643.1,6289.13L10159.4,6289.13L10159.4,5805.35L9191.81,5805.35L9191.81,5321.57L8708.03,5321.57L8708.03,5805.35L7740.47,5805.35L7740.47,5321.57L8224.25,5321.57L8224.25,4354.02L7740.47,4354.02L7740.47,4837.8L6772.91,4837.8L6772.91,4354.02L7256.69,4354.02L7256.69,3870.24L6289.13,3870.24L6289.13,2902.68L6772.91,2902.68L6772.91,3386.46L7256.69,3386.46L7256.69,2902.68L7740.47,2902.68L7740.47,3870.24L8224.25,3870.24L8224.25,2902.68L7740.47,2902.68L7740.47,2418.9L6772.91,2418.9L6772.91,1451.34L6289.13,1451.34L6289.13,1935.12L5805.35,1935.12L5805.35,1451.34L5321.57,1451.34L5321.57,967.559L5805.35,967.559L5805.35,483.78L5321.57,483.78L5321.57,0L4837.8,0ZM6289.13,0L6289.13,483.78L6772.91,483.78L6772.91,0L6289.13,0ZM7740.47,0L7740.47,483.78L8224.25,483.78L8224.25,0L7740.47,0ZM8708.03,0L8708.03,3386.46L12094.5,3386.46L12094.5,0L8708.03,0ZM2902.68,483.78L2902.68,2902.68L483.78,2902.68L483.78,483.78L2902.68,483.78ZM7256.69,483.78L7256.69,1935.12L7740.47,1935.12L7740.47,2418.9L8224.25,2418.9L8224.25,967.559L7740.47,967.559L7740.47,483.78L7256.69,483.78ZM11610.7,483.78L11610.7,2902.68L9191.81,2902.68L9191.81,483.78L11610.7,483.78ZM967.559,967.559L967.559,2418.9L2418.9,2418.9L2418.9,967.559L967.559,967.559ZM9675.59,967.559L9675.59,2418.9L11126.9,2418.9L11126.9,967.559L9675.59,967.559ZM5321.57,2418.9L4837.8,2418.9L4837.8,1451.34L5321.57,1451.34L5321.57,2418.9ZM4837.8,3386.46L4354.02,3386.46L4354.02,2418.9L4837.8,2418.9L4837.8,3386.46ZM0,3870.24L0,4354.02L483.78,4354.02L483.78,3870.24L0,3870.24ZM967.559,3870.24L967.559,4354.02L3386.46,4354.02L3386.46,4837.8L2418.9,4837.8L2418.9,5321.57L3386.46,5321.57L3386.46,5805.35L3870.24,5805.35L3870.24,6289.13L4354.02,6289.13L4354.02,6772.91L2902.68,6772.91L2902.68,6289.13L3386.46,6289.13L3386.46,5805.35L2418.9,5805.35L2418.9,5321.57L1935.12,5321.57L1935.12,4837.8L967.559,4837.8L967.559,5321.57L1451.34,5321.57L1451.34,6772.91L967.559,6772.91L967.559,6289.13L0,6289.13L0,8224.25L483.78,8224.25L483.78,6772.91L967.559,6772.91L967.559,7256.69L1935.12,7256.69L1935.12,7740.47L2902.68,7740.47L2902.68,8224.25L3386.46,8224.25L3386.46,7740.47L2902.68,7740.47L2902.68,7256.69L3386.46,7256.69L3386.46,7740.47L3870.24,7740.47L3870.24,8708.03L4354.02,8708.03L4354.02,7740.47L4837.8,7740.47L4837.8,8224.25L5321.57,8224.25L5321.57,7256.69L4837.8,7256.69L4837.8,6772.91L5321.57,6772.91L5321.57,6289.13L4837.8,6289.13L4837.8,5805.35L5321.57,5805.35L5321.57,5321.57L4837.8,5321.57L4837.8,4837.8L4354.02,4837.8L4354.02,4354.02L3386.46,4354.02L3386.46,3870.24L967.559,3870.24ZM8708.03,3870.24L8708.03,4354.02L9191.81,4354.02L9191.81,4837.8L9675.59,4837.8L9675.59,4354.02L11126.9,4354.02L11126.9,5321.57L11610.7,5321.57L11610.7,5805.35L10643.1,5805.35L10643.1,6289.13L11126.9,6289.13L11126.9,7256.69L11610.7,7256.69L11610.7,7740.47L12094.5,7740.47L12094.5,6772.91L11610.7,6772.91L11610.7,6289.13L12094.5,6289.13L12094.5,4837.8L11610.7,4837.8L11610.7,4354.02L11126.9,4354.02L11126.9,3870.24L8708.03,3870.24ZM0,4837.8L0,5805.35L967.559,5805.35L967.559,5321.57L483.78,5321.57L483.78,4837.8L0,4837.8ZM10159.4,4837.8L10159.4,5321.57L10643.1,5321.57L10643.1,4837.8L10159.4,4837.8ZM4354.02,5805.35L3870.24,5805.35L3870.24,4837.8L4354.02,4837.8L4354.02,5805.35ZM9191.81,6289.13L9191.81,7740.47L8708.03,7740.47L8708.03,6772.91L8224.25,6772.91L8224.25,6289.13L9191.81,6289.13ZM9675.59,6772.91L9675.59,6289.13L10159.4,6289.13L10159.4,6772.91L9675.59,6772.91ZM8224.25,7256.69L8224.25,7740.47L7256.69,7740.47L7256.69,7256.69L8224.25,7256.69ZM1451.34,7740.47L1451.34,8224.25L1935.12,8224.25L1935.12,7740.47L1451.34,7740.47ZM10643.1,7740.47L10643.1,8224.25L11126.9,8224.25L11126.9,7740.47L10643.1,7740.47ZM9675.59,8224.25L9675.59,9675.59L8224.25,9675.59L8224.25,8224.25L9675.59,8224.25ZM0,8708.03L0,12094.5L3386.46,12094.5L3386.46,8708.03L0,8708.03ZM8708.03,8708.03L8708.03,9191.81L9191.81,9191.81L9191.81,8708.03L8708.03,8708.03ZM2902.68,9191.81L2902.68,11610.7L483.78,11610.7L483.78,9191.81L2902.68,9191.81ZM3870.24,9191.81L3870.24,11126.9L4837.8,11126.9L4837.8,11610.7L5321.57,11610.7L5321.57,11126.9L4837.8,11126.9L4837.8,10159.4L4354.02,10159.4L4354.02,9191.81L3870.24,9191.81ZM967.559,9675.59L967.559,11126.9L2418.9,11126.9L2418.9,9675.59L967.559,9675.59ZM9675.59,10159.4L9675.59,10643.1L10159.4,10643.1L10159.4,11126.9L8708.03,11126.9L8708.03,10643.1L9191.81,10643.1L9191.81,10159.4L9675.59,10159.4ZM10159.4,10159.4L10159.4,9675.59L10643.1,9675.59L10643.1,10159.4L10159.4,10159.4ZM11610.7,10643.1L11610.7,11610.7L10643.1,11610.7L10643.1,11126.9L11126.9,11126.9L11126.9,10643.1L11610.7,10643.1ZM3870.24,11610.7L3870.24,12094.5L4837.8,12094.5L4837.8,11610.7L3870.24,11610.7Z"/>
</svg>
