<?xml version="1.0" encoding="UTF-8" standalone="no"?>
<!DOCTYPE svg PUBLIC "-//W3C//DTD SVG 1.1//EN" "http://www.w3.org/Graphics/SVG/1.1/DTD/svg11.dtd">
<svg width="100%" height="100%" viewBox="0 0 3840 2160" version="1.1" xmlns="http://www.w3.org/2000/svg" xmlns:xlink="http://www.w3.org/1999/xlink" xml:space="preserve" xmlns:serif="http://www.serif.com/" style="fill-rule:evenodd;clip-rule:evenodd;stroke-linejoin:round;stroke-miterlimit:2;">
    <g id="Waves" transform="matrix(0.551691,0,0,-0.551691,566.502,898.014)">
        <path d="M1263.64,338.978L1263.64,1522.2C1263.64,1577.38 1301.9,1622.72 1350.58,1627.36C1390.88,1623.15 1422.47,1585.47 1422.47,1539.68C1422.47,1491.08 1458.05,1451.62 1501.88,1451.62C1542.05,1451.62 1575.3,1484.78 1580.56,1527.74C1580.08,1531.64 1579.84,1535.63 1579.84,1539.68C1579.84,1588.29 1615.42,1627.75 1659.25,1627.75C1703.08,1627.75 1738.66,1588.29 1738.66,1539.68C1738.66,1491.08 1774.24,1451.62 1818.07,1451.62C1861.9,1451.62 1897.48,1491.08 1897.48,1539.68L1898.93,1539.68C1898.93,1588.29 1934.52,1627.75 1978.35,1627.75C2022.17,1627.75 2057.76,1588.29 2057.76,1539.68C2057.76,1491.08 2093.34,1451.62 2137.17,1451.62C2177.34,1451.62 2210.59,1484.78 2215.85,1527.74C2215.38,1531.64 2215.13,1535.63 2215.13,1539.68C2215.13,1588.29 2250.71,1627.75 2294.54,1627.75C2338.37,1627.75 2373.95,1588.29 2373.95,1539.68C2373.95,1491.08 2409.53,1451.62 2453.36,1451.62C2497.19,1451.62 2532.77,1491.08 2532.77,1539.68C2532.77,1588.29 2568.36,1627.75 2612.18,1627.75C2656.01,1627.75 2691.6,1588.29 2691.6,1539.68C2691.6,1491.08 2727.18,1451.62 2771.01,1451.62C2811.18,1451.62 2844.43,1484.78 2849.69,1527.74C2849.21,1531.64 2848.97,1535.63 2848.97,1539.68C2848.97,1588.29 2884.55,1627.75 2928.38,1627.75C2972.21,1627.75 3007.79,1588.29 3007.79,1539.68C3007.79,1491.08 3043.37,1451.62 3087.2,1451.62C3131.03,1451.62 3166.61,1491.08 3166.61,1539.68L3168.07,1539.68C3168.07,1588.29 3203.65,1627.75 3247.48,1627.75C3291.31,1627.75 3326.89,1588.29 3326.89,1539.68C3326.89,1491.08 3362.47,1451.62 3406.3,1451.62C3446.47,1451.62 3479.72,1484.78 3484.99,1527.74C3484.51,1531.64 3484.26,1535.63 3484.26,1539.68C3484.26,1585.47 3515.84,1623.15 3556.14,1627.36C3604.82,1622.72 3643.08,1577.38 3643.08,1522.2L3643.08,338.978C3643.08,316.311 3624.68,297.908 3602.01,297.908C3579.35,297.908 3560.94,316.311 3560.94,338.978C3560.94,340.868 3561.07,342.728 3561.32,344.551C3558.6,364.586 3541.4,380.047 3520.62,380.047C3497.96,380.047 3479.56,361.645 3479.56,338.978C3479.56,316.311 3461.15,297.908 3438.49,297.908C3415.82,297.908 3397.42,316.311 3397.42,338.978L3396.66,338.978C3396.66,361.645 3378.26,380.047 3355.6,380.047C3332.93,380.047 3314.53,361.645 3314.53,338.978C3314.53,316.311 3296.12,297.908 3273.46,297.908C3250.79,297.908 3232.39,316.311 3232.39,338.978C3232.39,340.868 3232.52,342.728 3232.76,344.551C3230.04,364.586 3212.85,380.047 3192.07,380.047C3169.4,380.047 3151,361.645 3151,338.978C3151,316.311 3132.6,297.908 3109.93,297.908C3087.26,297.908 3068.86,316.311 3068.86,338.978C3068.86,361.645 3050.46,380.047 3027.79,380.047C3005.13,380.047 2986.72,361.645 2986.72,338.978C2986.72,316.311 2968.32,297.908 2945.65,297.908C2922.99,297.908 2904.59,316.311 2904.59,338.978C2904.59,340.868 2904.71,342.728 2904.96,344.551C2902.24,364.586 2885.04,380.047 2864.27,380.047C2841.6,380.047 2823.2,361.645 2823.2,338.978C2823.2,316.311 2804.8,297.908 2782.13,297.908C2759.46,297.908 2741.06,316.311 2741.06,338.978L2740.31,338.978C2740.31,361.645 2721.91,380.047 2699.24,380.047C2676.57,380.047 2658.17,361.645 2658.17,338.978C2658.17,316.311 2639.77,297.908 2617.1,297.908C2594.43,297.908 2576.03,316.311 2576.03,338.978C2576.03,340.868 2576.16,342.728 2576.41,344.551C2573.68,364.586 2556.49,380.047 2535.71,380.047C2513.05,380.047 2494.64,361.645 2494.64,338.978C2494.64,316.311 2476.24,297.908 2453.57,297.908L2453.36,297.909L2453.15,297.908C2430.48,297.908 2412.08,316.311 2412.08,338.978C2412.08,340.868 2412.21,342.728 2412.46,344.551C2409.73,364.586 2392.54,380.047 2371.76,380.047C2349.1,380.047 2330.69,361.645 2330.69,338.978C2330.69,316.311 2312.29,297.908 2289.62,297.908C2266.96,297.908 2248.55,316.311 2248.55,338.978L2247.8,338.978C2247.8,361.645 2229.4,380.047 2206.73,380.047C2184.07,380.047 2165.66,361.645 2165.66,338.978C2165.66,316.311 2147.26,297.908 2124.6,297.908C2101.93,297.908 2083.53,316.311 2083.53,338.978C2083.53,340.868 2083.65,342.728 2083.9,344.551C2081.18,364.586 2063.99,380.047 2043.21,380.047C2020.54,380.047 2002.14,361.645 2002.14,338.978C2002.14,316.311 1983.74,297.908 1961.07,297.908C1938.4,297.908 1920,316.311 1920,338.978C1920,361.645 1901.6,380.047 1878.93,380.047C1856.26,380.047 1837.86,361.645 1837.86,338.978C1837.86,316.311 1819.46,297.908 1796.79,297.908C1774.12,297.908 1755.72,316.311 1755.72,338.978C1755.72,340.868 1755.85,342.728 1756.1,344.551C1753.38,364.586 1736.18,380.047 1715.4,380.047C1692.74,380.047 1674.34,361.645 1674.34,338.978C1674.34,316.311 1655.93,297.908 1633.27,297.908C1610.6,297.908 1592.2,316.311 1592.2,338.978L1591.45,338.978C1591.45,361.645 1573.04,380.047 1550.38,380.047C1527.71,380.047 1509.31,361.645 1509.31,338.978C1509.31,316.311 1490.9,297.908 1468.24,297.908C1445.57,297.908 1427.17,316.311 1427.17,338.978C1427.17,340.868 1427.3,342.728 1427.54,344.551C1424.82,364.586 1407.63,380.047 1386.85,380.047C1364.18,380.047 1345.78,361.645 1345.78,338.978C1345.78,316.311 1327.38,297.908 1304.71,297.908C1282.05,297.908 1263.64,316.311 1263.64,338.978Z" style="fill:rgb(235,235,235);"/>
    </g>
</svg>
