<?xml version="1.0" encoding="UTF-8" standalone="no"?>
<!DOCTYPE svg PUBLIC "-//W3C//DTD SVG 1.1//EN" "http://www.w3.org/Graphics/SVG/1.1/DTD/svg11.dtd">
<svg width="100%" height="100%" viewBox="0 0 3840 2160" version="1.1" xmlns="http://www.w3.org/2000/svg" xmlns:xlink="http://www.w3.org/1999/xlink" xml:space="preserve" xmlns:serif="http://www.serif.com/" style="fill-rule:evenodd;clip-rule:evenodd;stroke-linejoin:round;stroke-miterlimit:2;">
    <g transform="matrix(0.826002,0,0,0.783371,1136.56,-176.326)">
        <path d="M153.849,1157.64L153.849,299.417C153.849,260.561 179.402,228.628 211.914,225.361C238.834,228.326 259.928,254.857 259.928,287.104C259.928,321.333 283.694,349.123 312.967,349.123C339.799,349.123 362.005,325.775 365.521,295.521C365.201,292.768 365.036,289.959 365.036,287.104C365.036,252.876 388.802,225.086 418.076,225.086C447.349,225.086 471.115,252.876 471.115,287.104C471.115,321.333 494.881,349.123 524.154,349.123C553.427,349.123 577.194,321.333 577.194,287.104L578.164,287.104C578.164,252.876 601.93,225.086 631.203,225.086C660.476,225.086 684.243,252.876 684.243,287.104C684.243,321.333 708.009,349.123 737.282,349.123C764.114,349.123 786.319,325.775 789.836,295.521C789.516,292.768 789.351,289.959 789.351,287.104C789.351,252.876 813.117,225.086 842.39,225.086C871.663,225.086 895.429,252.876 895.429,287.104C895.429,321.333 919.196,349.123 948.469,349.123C977.742,349.123 1001.51,321.333 1001.51,287.104C1001.51,252.876 1025.27,225.086 1054.55,225.086C1083.82,225.086 1107.59,252.876 1107.59,287.104C1107.59,321.333 1131.35,349.123 1160.63,349.123C1187.46,349.123 1209.66,325.775 1213.18,295.521C1212.86,292.768 1212.69,289.959 1212.69,287.104C1212.69,252.876 1236.46,225.086 1265.73,225.086C1295.01,225.086 1318.77,252.876 1318.77,287.104C1318.77,321.333 1342.54,349.123 1371.81,349.123C1401.09,349.123 1424.85,321.333 1424.85,287.104L1425.82,287.104C1425.82,252.876 1449.59,225.086 1478.86,225.086C1508.13,225.086 1531.9,252.876 1531.9,287.104C1531.9,321.333 1555.67,349.123 1584.94,349.123C1611.77,349.123 1633.98,325.775 1637.5,295.521C1637.17,292.768 1637.01,289.959 1637.01,287.104C1637.01,254.857 1658.1,228.326 1685.02,225.361C1717.54,228.628 1743.09,260.561 1743.09,299.417L1743.09,1157.64C1743.09,1188.5 1719.32,1213.56 1690.05,1213.56C1660.78,1213.56 1637.01,1188.5 1637.01,1157.64C1637.01,1155.06 1637.17,1152.53 1637.5,1150.05C1634.63,1127.82 1619.36,1109.72 1599.28,1103.78L1570.6,1103.78C1548.29,1110.38 1531.9,1132.01 1531.9,1157.64C1531.9,1188.5 1508.13,1213.56 1478.86,1213.56C1449.59,1213.56 1425.82,1188.5 1425.82,1157.64L1424.85,1157.64C1424.85,1132.01 1408.47,1110.38 1386.15,1103.78L1357.47,1103.78C1335.16,1110.38 1318.77,1132.01 1318.77,1157.64C1318.77,1188.5 1295.01,1213.56 1265.73,1213.56C1236.46,1213.56 1212.69,1188.5 1212.69,1157.64C1212.69,1155.06 1212.86,1152.53 1213.18,1150.05C1210.32,1127.82 1195.04,1109.72 1174.96,1103.78L1146.29,1103.78C1123.97,1110.38 1107.59,1132.01 1107.59,1157.64C1107.59,1188.5 1083.82,1213.56 1054.55,1213.56C1025.27,1213.56 1001.51,1188.5 1001.51,1157.64C1001.51,1132.01 985.124,1110.38 962.808,1103.78L934.13,1103.78C911.813,1110.38 895.429,1132.01 895.429,1157.64C895.429,1188.5 871.663,1213.56 842.39,1213.56C813.117,1213.56 789.351,1188.5 789.351,1157.64C789.351,1155.06 789.516,1152.53 789.836,1150.05C786.97,1127.82 771.696,1109.72 751.621,1103.78L722.943,1103.78C700.626,1110.38 684.243,1132.01 684.243,1157.64C684.243,1188.5 660.476,1213.56 631.203,1213.56C601.93,1213.56 578.164,1188.5 578.164,1157.64L577.194,1157.64C577.194,1132.01 560.81,1110.38 538.493,1103.78L509.815,1103.78C487.499,1110.38 471.115,1132.01 471.115,1157.64C471.115,1188.5 447.349,1213.56 418.076,1213.56C388.802,1213.56 365.036,1188.5 365.036,1157.64C365.036,1155.06 365.201,1152.53 365.521,1150.05C362.656,1127.82 347.381,1109.72 327.306,1103.78L298.628,1103.78C276.312,1110.38 259.928,1132.01 259.928,1157.64C259.928,1188.5 236.162,1213.56 206.889,1213.56C177.615,1213.56 153.849,1188.5 153.849,1157.64Z" style="fill:rgb(235,235,235);"/>
    </g>
</svg>
