<?xml version="1.0" encoding="UTF-8" standalone="no"?>
<!DOCTYPE svg PUBLIC "-//W3C//DTD SVG 1.1//EN" "http://www.w3.org/Graphics/SVG/1.1/DTD/svg11.dtd">
<svg width="100%" height="100%" viewBox="0 0 3840 2160" version="1.1" xmlns="http://www.w3.org/2000/svg" xmlns:xlink="http://www.w3.org/1999/xlink" xml:space="preserve" xmlns:serif="http://www.serif.com/" style="fill-rule:evenodd;clip-rule:evenodd;stroke-linejoin:round;stroke-miterlimit:2;">
    <g transform="matrix(0.826002,0,0,0.706413,1136.56,-159.004)">
        <path d="M153.849,3208.46L153.849,2224.33C153.849,2206.62 166.14,2192.25 181.28,2192.25C196.419,2192.25 208.71,2206.62 208.71,2224.33C208.71,2242.03 221.001,2256.4 236.14,2256.4C250.017,2256.4 261.501,2244.33 263.32,2228.68C263.154,2227.26 263.069,2225.8 263.069,2224.33C263.069,2206.62 275.36,2192.25 290.499,2192.25C305.639,2192.25 317.93,2206.62 317.93,2224.33C317.93,2242.03 330.221,2256.4 345.36,2256.4C360.499,2256.4 372.791,2242.03 372.791,2224.33L373.292,2224.33C373.292,2206.62 385.584,2192.25 400.723,2192.25C415.862,2192.25 428.153,2206.62 428.153,2224.33C428.153,2242.03 440.444,2256.4 455.584,2256.4C469.46,2256.4 480.944,2244.33 482.763,2228.68C482.598,2227.26 482.512,2225.8 482.512,2224.33C482.512,2206.62 494.803,2192.25 509.943,2192.25C525.082,2192.25 537.373,2206.62 537.373,2224.33C537.373,2242.03 549.664,2256.4 564.803,2256.4C579.943,2256.4 592.234,2242.03 592.234,2224.33C592.234,2206.62 604.525,2192.25 619.664,2192.25C634.803,2192.25 647.094,2206.62 647.094,2224.33C647.094,2242.03 659.386,2256.4 674.525,2256.4C688.402,2256.4 699.886,2244.33 701.704,2228.68C701.539,2227.26 701.453,2225.8 701.453,2224.33C701.453,2206.62 713.745,2192.25 728.884,2192.25C744.023,2192.25 756.314,2206.62 756.314,2224.33C756.314,2242.03 768.605,2256.4 783.745,2256.4C798.884,2256.4 811.175,2242.03 811.175,2224.33L811.677,2224.33C811.677,2206.62 823.968,2192.25 839.107,2192.25C854.246,2192.25 866.538,2206.62 866.538,2224.33C866.538,2242.03 878.829,2256.4 893.968,2256.4C907.845,2256.4 919.329,2244.33 921.147,2228.68C920.982,2227.26 920.897,2225.8 920.897,2224.33C920.897,2206.62 933.188,2192.25 948.327,2192.25L948.469,2192.25L948.611,2192.25C963.75,2192.25 976.041,2206.62 976.041,2224.33C976.041,2242.03 988.332,2256.4 1003.47,2256.4C1017.35,2256.4 1028.83,2244.33 1030.65,2228.68C1030.49,2227.26 1030.4,2225.8 1030.4,2224.33C1030.4,2206.62 1042.69,2192.25 1057.83,2192.25C1072.97,2192.25 1085.26,2206.62 1085.26,2224.33C1085.26,2242.03 1097.55,2256.4 1112.69,2256.4C1127.83,2256.4 1140.12,2242.03 1140.12,2224.33L1140.62,2224.33C1140.62,2206.62 1152.91,2192.25 1168.05,2192.25C1183.19,2192.25 1195.48,2206.62 1195.48,2224.33C1195.48,2242.03 1207.78,2256.4 1222.91,2256.4C1236.79,2256.4 1248.28,2244.33 1250.09,2228.68C1249.93,2227.26 1249.84,2225.8 1249.84,2224.33C1249.84,2206.62 1262.13,2192.25 1277.27,2192.25C1292.41,2192.25 1304.7,2206.62 1304.7,2224.33C1304.7,2242.03 1317,2256.4 1332.13,2256.4C1347.27,2256.4 1359.57,2242.03 1359.57,2224.33C1359.57,2206.62 1371.86,2192.25 1387,2192.25C1402.13,2192.25 1414.42,2206.62 1414.42,2224.33C1414.42,2242.03 1426.72,2256.4 1441.86,2256.4C1455.73,2256.4 1467.22,2244.33 1469.04,2228.68C1468.87,2227.26 1468.78,2225.8 1468.78,2224.33C1468.78,2206.62 1481.08,2192.25 1496.21,2192.25C1511.35,2192.25 1523.64,2206.62 1523.64,2224.33C1523.64,2242.03 1535.94,2256.4 1551.08,2256.4C1566.22,2256.4 1578.51,2242.03 1578.51,2224.33L1579.01,2224.33C1579.01,2206.62 1591.3,2192.25 1606.44,2192.25C1621.58,2192.25 1633.87,2206.62 1633.87,2224.33C1633.87,2242.03 1646.16,2256.4 1661.3,2256.4C1675.18,2256.4 1686.66,2244.33 1688.48,2228.68C1688.31,2227.26 1688.23,2225.8 1688.23,2224.33C1688.23,2206.62 1700.52,2192.25 1715.66,2192.25C1730.8,2192.25 1743.09,2206.62 1743.09,2224.33L1743.09,3208.46C1743.09,3249.48 1714.6,3282.79 1679.52,3282.79L217.419,3282.79C182.334,3282.79 153.849,3249.48 153.849,3208.46Z" style="fill:rgb(235,235,235);"/>
    </g>
    <g id="Waves" transform="matrix(0.551691,0,0,0.551691,566.502,-164.353)">
        <path d="M1386.85,380.047C1407.63,380.047 1424.82,364.586 1427.54,344.551C1427.3,342.728 1427.17,340.868 1427.17,338.978C1427.17,316.311 1445.57,297.908 1468.24,297.908C1490.9,297.908 1509.31,316.311 1509.31,338.978C1509.31,361.645 1527.71,380.047 1550.38,380.047C1573.04,380.047 1591.45,361.645 1591.45,338.978L1592.2,338.978C1592.2,316.311 1610.6,297.908 1633.27,297.908C1655.93,297.908 1674.34,316.311 1674.34,338.978C1674.34,361.645 1692.74,380.047 1715.4,380.047C1736.18,380.047 1753.38,364.586 1756.1,344.551C1755.85,342.728 1755.72,340.868 1755.72,338.978C1755.72,316.311 1774.12,297.908 1796.79,297.908C1819.46,297.908 1837.86,316.311 1837.86,338.978C1837.86,361.645 1856.26,380.047 1878.93,380.047C1901.6,380.047 1920,361.645 1920,338.978C1920,316.311 1938.4,297.908 1961.07,297.908C1983.74,297.908 2002.14,316.311 2002.14,338.978C2002.14,361.645 2020.54,380.047 2043.21,380.047C2063.99,380.047 2081.18,364.586 2083.9,344.551C2083.65,342.728 2083.53,340.868 2083.53,338.978C2083.53,316.311 2101.93,297.908 2124.6,297.908C2147.26,297.908 2165.66,316.311 2165.66,338.978C2165.66,361.645 2184.07,380.047 2206.73,380.047C2229.4,380.047 2247.8,361.645 2247.8,338.978L2248.55,338.978C2248.55,316.311 2266.96,297.908 2289.62,297.908C2312.29,297.908 2330.69,316.311 2330.69,338.978C2330.69,361.645 2349.1,380.047 2371.76,380.047C2392.54,380.047 2409.73,364.586 2412.46,344.551C2412.21,342.728 2412.08,340.868 2412.08,338.978C2412.08,316.311 2430.48,297.908 2453.15,297.908L2453.36,297.909L2453.57,297.908C2476.24,297.908 2494.64,316.311 2494.64,338.978C2494.64,361.645 2513.05,380.047 2535.71,380.047C2556.49,380.047 2573.68,364.586 2576.41,344.551C2576.16,342.728 2576.03,340.868 2576.03,338.978C2576.03,316.311 2594.43,297.908 2617.1,297.908C2639.77,297.908 2658.17,316.311 2658.17,338.978C2658.17,361.645 2676.57,380.047 2699.24,380.047C2721.91,380.047 2740.31,361.645 2740.31,338.978L2741.06,338.978C2741.06,316.311 2759.46,297.908 2782.13,297.908C2804.8,297.908 2823.2,316.311 2823.2,338.978C2823.2,361.645 2841.6,380.047 2864.27,380.047C2885.04,380.047 2902.24,364.586 2904.96,344.551C2904.71,342.728 2904.59,340.868 2904.59,338.978C2904.59,316.311 2922.99,297.908 2945.65,297.908C2968.32,297.908 2986.72,316.311 2986.72,338.978C2986.72,361.645 3005.13,380.047 3027.79,380.047C3050.46,380.047 3068.86,361.645 3068.86,338.978C3068.86,316.311 3087.26,297.908 3109.93,297.908C3132.6,297.908 3151,316.311 3151,338.978C3151,361.645 3169.4,380.047 3192.07,380.047C3212.85,380.047 3230.04,364.586 3232.76,344.551C3232.52,342.728 3232.39,340.868 3232.39,338.978C3232.39,316.311 3250.79,297.908 3273.46,297.908C3296.12,297.908 3314.53,316.311 3314.53,338.978C3314.53,361.645 3332.93,380.047 3355.6,380.047C3378.26,380.047 3396.66,361.645 3396.66,338.978L3397.42,338.978C3397.42,316.311 3415.82,297.908 3438.49,297.908C3461.15,297.908 3479.56,316.311 3479.56,338.978C3479.56,361.645 3497.96,380.047 3520.62,380.047C3541.4,380.047 3558.6,364.586 3561.32,344.551C3561.07,342.728 3560.94,340.868 3560.94,338.978C3560.94,316.311 3579.35,297.908 3602.01,297.908C3624.68,297.908 3643.08,316.311 3643.08,338.978L3643.08,1586.68C3643.08,1609.35 3624.68,1627.75 3602.01,1627.75C3579.35,1627.75 3560.94,1609.35 3560.94,1586.68C3560.94,1584.79 3561.07,1582.93 3561.32,1581.11C3558.6,1561.07 3541.4,1545.61 3520.62,1545.61C3497.96,1545.61 3479.56,1564.01 3479.56,1586.68C3479.56,1609.35 3461.15,1627.75 3438.49,1627.75C3415.82,1627.75 3397.42,1609.35 3397.42,1586.68L3396.66,1586.68C3396.66,1564.01 3378.26,1545.61 3355.6,1545.61C3332.93,1545.61 3314.53,1564.01 3314.53,1586.68C3314.53,1609.35 3296.12,1627.75 3273.46,1627.75C3250.79,1627.75 3232.39,1609.35 3232.39,1586.68C3232.39,1584.79 3232.52,1582.93 3232.76,1581.11C3230.04,1561.07 3212.85,1545.61 3192.07,1545.61C3169.4,1545.61 3151,1564.01 3151,1586.68C3151,1609.35 3132.6,1627.75 3109.93,1627.75C3087.26,1627.75 3068.86,1609.35 3068.86,1586.68C3068.86,1564.01 3050.46,1545.61 3027.79,1545.61C3005.13,1545.61 2986.72,1564.01 2986.72,1586.68C2986.72,1609.35 2968.32,1627.75 2945.65,1627.75C2922.99,1627.75 2904.59,1609.35 2904.59,1586.68C2904.59,1584.79 2904.71,1582.93 2904.96,1581.11C2902.24,1561.07 2885.04,1545.61 2864.27,1545.61C2841.6,1545.61 2823.2,1564.01 2823.2,1586.68C2823.2,1609.35 2804.8,1627.75 2782.13,1627.75C2759.46,1627.75 2741.06,1609.35 2741.06,1586.68L2740.31,1586.68C2740.31,1564.01 2721.91,1545.61 2699.24,1545.61C2676.57,1545.61 2658.17,1564.01 2658.17,1586.68C2658.17,1609.35 2639.77,1627.75 2617.1,1627.75C2594.43,1627.75 2576.03,1609.35 2576.03,1586.68C2576.03,1584.79 2576.16,1582.93 2576.41,1581.11C2573.68,1561.07 2556.49,1545.61 2535.71,1545.61C2513.05,1545.61 2494.64,1564.01 2494.64,1586.68C2494.64,1609.35 2476.24,1627.75 2453.57,1627.75L2453.36,1627.75L2453.15,1627.75C2430.48,1627.75 2412.08,1609.35 2412.08,1586.68C2412.08,1584.79 2412.21,1582.93 2412.46,1581.11C2409.73,1561.07 2392.54,1545.61 2371.76,1545.61C2349.1,1545.61 2330.69,1564.01 2330.69,1586.68C2330.69,1609.35 2312.29,1627.75 2289.62,1627.75C2266.96,1627.75 2248.55,1609.35 2248.55,1586.68L2247.8,1586.68C2247.8,1564.01 2229.4,1545.61 2206.73,1545.61C2184.07,1545.61 2165.66,1564.01 2165.66,1586.68C2165.66,1609.35 2147.26,1627.75 2124.6,1627.75C2101.93,1627.75 2083.53,1609.35 2083.53,1586.68C2083.53,1584.79 2083.65,1582.93 2083.9,1581.11C2081.18,1561.07 2063.99,1545.61 2043.21,1545.61C2020.54,1545.61 2002.14,1564.01 2002.14,1586.68C2002.14,1609.35 1983.74,1627.75 1961.07,1627.75C1938.4,1627.75 1920,1609.35 1920,1586.68C1920,1564.01 1901.6,1545.61 1878.93,1545.61C1856.26,1545.61 1837.86,1564.01 1837.86,1586.68C1837.86,1609.35 1819.46,1627.75 1796.79,1627.75C1774.12,1627.75 1755.72,1609.35 1755.72,1586.68C1755.72,1584.79 1755.85,1582.93 1756.1,1581.11C1753.38,1561.07 1736.18,1545.61 1715.4,1545.61C1692.74,1545.61 1674.34,1564.01 1674.34,1586.68C1674.34,1609.35 1655.93,1627.75 1633.27,1627.75C1610.6,1627.75 1592.2,1609.35 1592.2,1586.68L1591.45,1586.68C1591.45,1564.01 1573.04,1545.61 1550.38,1545.61C1527.71,1545.61 1509.31,1564.01 1509.31,1586.68C1509.31,1609.35 1490.9,1627.75 1468.24,1627.75C1445.57,1627.75 1427.17,1609.35 1427.17,1586.68C1427.17,1584.79 1427.3,1582.93 1427.54,1581.11C1424.82,1561.07 1407.63,1545.61 1386.85,1545.61C1364.18,1545.61 1345.78,1564.01 1345.78,1586.68C1345.78,1609.35 1327.38,1627.75 1304.71,1627.75C1282.05,1627.75 1263.64,1609.35 1263.64,1586.68L1263.64,338.978C1263.64,316.311 1282.05,297.908 1304.71,297.908C1327.38,297.908 1345.78,316.311 1345.78,338.978C1345.78,361.645 1364.18,380.047 1386.85,380.047Z" style="fill:rgb(235,235,235);"/>
    </g>
</svg>
