<?xml version="1.0" encoding="UTF-8" standalone="no"?>
<!DOCTYPE svg PUBLIC "-//W3C//DTD SVG 1.1//EN" "http://www.w3.org/Graphics/SVG/1.1/DTD/svg11.dtd">
<svg width="100%" height="100%" viewBox="0 0 3840 2160" version="1.1" xmlns="http://www.w3.org/2000/svg" xmlns:xlink="http://www.w3.org/1999/xlink" xml:space="preserve" xmlns:serif="http://www.serif.com/" style="fill-rule:evenodd;clip-rule:evenodd;stroke-linejoin:round;stroke-miterlimit:2;">
    <g id="interface.cropped.svg" transform="matrix(13.1271,0,0,13.1904,1920,1078.87)">
        <g transform="matrix(1,0,0,1,-50,-50)">
            <path d="M94.173,29.051C94.173,27.741 93.11,26.678 91.799,26.678L8.201,26.678C6.89,26.678 5.827,27.741 5.827,29.051C5.827,53.431 25.62,73.224 50,73.224C74.38,73.224 94.173,53.431 94.173,29.051ZM53.472,39.849C53.166,39.29 52.845,37.466 52.84,37.134C52.839,37.101 52.839,37.068 52.839,37.034C52.839,34.192 54.58,31.701 56.991,31.701C57.013,31.701 57.034,31.701 57.055,31.702C62.111,31.808 69.469,41.299 69.469,49.311C69.469,59.737 60.745,68.201 50,68.201C39.255,68.201 30.531,59.737 30.531,49.311C30.531,41.299 36.436,31.839 42.945,31.702C42.966,31.701 42.987,31.701 43.009,31.701C45.42,31.701 47.161,34.192 47.161,37.034C47.161,37.067 47.161,37.1 47.16,37.134C47.155,37.467 46.834,39.29 46.529,39.849C45.818,41.151 44.62,42.648 44.601,42.668C43.458,43.885 42.186,45.043 41.191,46.343C39.901,48.028 39.032,49.929 39.032,52.291C39.032,58.491 43.947,63.524 50,63.524C56.053,63.524 60.967,58.491 60.967,52.291C60.967,49.895 60.11,48.075 58.814,46.421C57.854,45.196 56.608,44.074 55.442,42.737C55.367,42.648 54.318,41.4 53.472,39.849Z" style="fill:rgb(141,53,37);"/>
        </g>
    </g>
</svg>
