<svg xmlns="http://www.w3.org/2000/svg" width="100%" height="100%" viewBox="0 0 3840 2160" fill-rule="evenodd" stroke-linecap="round" stroke-linejoin="round" stroke-miterlimit="1.5" xmlns:v="https://vecta.io/nano"><style><![CDATA[.B{font-family:Oxanium-Bold, Oxanium}.C{font-weight:700}.D{fill:#8e3525}.E{font-size:107.068px}.F{font-size:100px}.G{font-size:170.833px}.H{font-size:344.146px}.I{font-size:231.98px}]]></style><path d="M2576.356 52.508c0-28.98-23.533-52.508-52.509-52.508H1316.149c-28.98 0-52.509 23.528-52.509 52.508v2054.986c0 28.977 23.529 52.508 52.509 52.508h1207.698c28.976 0 52.509-23.531 52.509-52.508V52.508z" fill="rgba(235,235,235, 0.7)"/><path d="M2499.863 802.544c0-17.279-13.954-31.301-31.164-31.301H1371.3c-17.21 0-31.164 14.021-31.164 31.301 0 321.582 259.825 582.66 579.863 582.66s579.863-261.078 579.863-582.66zm-534.286 142.43c-4.017-7.373-8.231-31.433-8.296-35.812-.013-.435-.013-.871-.013-1.319 0-37.487 22.854-70.344 54.504-70.344.289 0 .564 0 .84.013 66.371 1.398 162.96 126.588 162.96 232.27 0 137.523-114.521 249.167-255.572 249.167s-255.572-111.644-255.572-249.167c0-105.681 77.516-230.463 162.96-232.27.276-.013.551-.013.84-.013 31.649 0 54.504 32.857 54.504 70.344l-.013 1.319c-.066 4.392-4.279 28.439-8.283 35.812-9.333 17.174-25.06 36.92-25.309 37.184-15.004 16.053-31.702 31.327-44.763 48.475-16.934 22.226-28.341 47.301-28.341 78.456 0 81.78 64.52 148.168 143.978 148.168s143.965-66.387 143.965-148.168c0-31.604-11.25-55.611-28.263-77.428-12.602-16.158-28.958-30.958-44.265-48.593-.985-1.174-14.755-17.636-25.86-38.094z" fill="#8d3525"/><g transform="matrix(.694645 0 0 .697993 1067.26 -145.364)"><ellipse cx="964.692" cy="876.34" rx="132.017" ry="318.098" fill="#8d3525"/><g fill="none" stroke="#8e3525"><path d="M1400.535 885.114l243.92-164.707" stroke-width="131.64"/><path d="M1400.534 885.113l254.889 147.162" stroke-width="131.4"/><path d="M1400.534 885.113l294.322.002" stroke-width="131.35"/></g></g><g transform="matrix(.780787 0 0 .78455 773.499 -1158.29)" class="B C D I"><text x="1062.59" y="3442.28" transform="matrix(.952099 .305791 -.305791 .952099 1103.52 -160.041)">S</text><text x="1215.14" y="3490.36" transform="matrix(.987993 .154499 -.154499 .987993 553.846 -145.829)">U</text><text x="1398.04" y="3516.72" transform="matrix(.99998 -.006269 .006269 .99998 -22.0178 8.83303)">P</text><text x="1569.43" y="3514.19" transform="matrix(.987933 -.154883 .154883 .987933 -525.35 285.484)">E</text><text x="1730.81" y="3488.14" transform="matrix(.952799 -.3036 .3036 .952799 -977.305 690.115)">R</text></g><g transform="matrix(.780787 0 0 .78455 398.689 -1360.27)" class="B C D H"><text x="1212.87" y="3881.18" transform="matrix(.938342 .34571 -.34571 .938342 1416.54 -179.994)">P</text><text x="1435.09" y="3962.93" transform="matrix(.976942 .213504 -.213504 .976942 879.192 -215.02)">O</text><text x="1690.71" y="4020.68" transform="matrix(.99877 .049575 -.049574 .99877 201.402 -78.8721)">W</text><text x="2036.82" y="4032.31" transform="matrix(.994433 -.105373 .105373 .994433 -413.555 237.073)">E</text><text x="2260.66" y="4008.85" transform="matrix(.972731 -.231934 .231934 .972731 -868.143 633.64)">R</text><text x="2494.72" y="3951.73" transform="matrix(.935485 -.353367 .353367 .935485 -1235.46 1136.5)">S</text></g><g transform="matrix(.780787 0 0 .78455 136.168 -1513.69)" class="B C D E"><text x="1468.31" y="4365.8" transform="matrix(.936867 .349687 -.349687 .936867 1619.36 -237.822)">J</text><text x="1530.8" y="4389.15" transform="matrix(.948183 .317725 -.317725 .948183 1473.87 -258.941)">U</text><text x="1602.46" y="4413.06" transform="matrix(.958061 .286565 -.286565 .958061 1331.84 -274.129)">L</text><text x="1650.37" y="4427.58" transform="matrix(.964441 .264298 -.264298 .964441 1228.88 -278.749)">Y</text><text x="1740.99" y="4451.76" transform="matrix(.974595 .223974 -.223974 .974595 1041.31 -276.841)">2</text><text x="1802.38" y="4465.85" transform="matrix(.98053 .196367 -.196367 .98053 912.038 -266.98)">0</text><text x="1864.21" y="4478.22" transform="matrix(.98565 .168801 -.168801 .98565 782.681 -250.419)">2</text><text x="1926.21" y="4488.81" transform="matrix(.989922 .141616 -.141616 .989922 655.101 -227.543)">5</text><text x="2015.01" y="4500.96" transform="matrix(.994757 .102262 -.102262 .994757 470.842 -182.463)">S</text><text x="2078.8" y="4507.58" transform="matrix(.997398 .072094 -.072094 .997398 330.378 -138.139)">U</text><text x="2154.11" y="4513.21" transform="matrix(.999383 .035132 -.035132 .999383 159.888 -72.8923)">M</text><text x="2251.23" y="4516.59" transform="matrix(.999981 -.006158 .006158 .999981 -27.7727 13.9498)">M</text><text x="2348.21" y="4515.73" transform="matrix(.999137 -.04153 .04153 .999137 -185.512 101.417)">E</text><text x="2413.77" y="4513.09" transform="matrix(.997486 -.070866 .070866 .997486 -313.755 182.4)">R</text><text x="2510.72" y="4505.66" transform="matrix(.993748 -.111647 .111647 .993748 -487.348 308.485)">E</text><text x="2576.18" y="4498.35" transform="matrix(.990084 -.140478 .140478 .990084 -606.372 406.502)">X</text><text x="2645.69" y="4488.52" transform="matrix(.985005 -.172527 .172527 .985005 -734.717 523.757)">H</text><text x="2721.34" y="4474.99" transform="matrix(.98045 -.19677 .19677 .98045 -827.343 622.966)">I</text><text x="2754.73" y="4468.52" transform="matrix(.975419 -.220359 .220359 .975419 -916.966 716.873)">B</text><text x="2823.89" y="4452.69" transform="matrix(.970073 -.242813 .242813 .970073 -996.659 818.932)">I</text><text x="2856.95" y="4444.59" transform="matrix(.964266 -.264935 .264935 .964266 -1075.44 915.73)">T</text><text x="2921.02" y="4426.78" transform="matrix(.957918 -.287041 .287041 .957918 -1147.75 1024.74)">I</text><text x="2953.75" y="4417.25" transform="matrix(.950248 -.311494 .311494 .950248 -1228.99 1139.84)">O</text><text x="3026.96" y="4393.26" transform="matrix(.938174 -.346164 .346164 .938174 -1333.64 1319.45)">N</text></g><g transform="matrix(.780787 0 0 .78455 17.4999 -1050.83)" class="B C D F"><text x="1687.56" y="3946.45" transform="matrix(.971882 .235467 -.235467 .971882 976.71 -286.399)">S</text><text x="1745.48" y="3960.68" transform="matrix(.977727 .20988 -.20988 .977727 870.146 -278.126)">M</text><text x="1834.18" y="3979.39" transform="matrix(.981925 .189268 -.189268 .981925 786.325 -275.226)">I</text><text x="1865.36" y="3985.51" transform="matrix(.984796 .173713 -.173713 .984796 720.695 -263.442)">L</text><text x="1920.43" y="3995.29" transform="matrix(.987955 .154741 -.154741 .987955 641.367 -249.047)">E</text><text x="2005.82" y="4008.35" transform="matrix(.992028 .126016 -.126016 .992028 521.104 -220.811)">P</text><text x="2070.09" y="4016.55" transform="matrix(.994529 .104457 -.104457 .994529 430.882 -194.262)">O</text><text x="2141.51" y="4024.21" transform="matrix(.996988 .077552 -.077552 .996988 318.536 -153.959)">W</text><text x="2237.8" y="4031.48" transform="matrix(.998643 .052087 -.052087 .998643 213.023 -111.087)">E</text><text x="2299.03" y="4034.72" transform="matrix(.999486 .032055 -.032054 .999486 130.512 -71.621)">R</text><text x="2364.85" y="4036.83" transform="matrix(.999923 .012377 -.012377 .999923 50.1451 -28.9606)">E</text><text x="2426.33" y="4037.65" transform="matrix(.99997 -.007756 .007756 .99997 -31.2433 18.9403)">D</text><text x="2521.03" y="4036.51" transform="matrix(.999375 -.03535 .03535 .999375 -141.115 91.6414)">S</text><text x="2580.77" y="4034.4" transform="matrix(.998511 -.054542 .054542 .998511 -216.204 146.767)">Y</text><text x="2643.27" y="4031.04" transform="matrix(.997088 -.076259 .076259 .997088 -299.707 213.312)">N</text><text x="2717.88" y="4025.25" transform="matrix(.995175 -.098117 .098117 .995175 -381.83 286.091)">T</text><text x="2779.74" y="4019.2" transform="matrix(.992814 -.119669 .119669 .992814 -460.996 361.53)">H</text><text x="2851" y="4010.56" transform="matrix(.989891 -.14183 .14183 .989891 -539.997 444.9)">E</text><text x="2911.9" y="4001.83" transform="matrix(.986916 -.161234 .161234 .986916 -607.135 521.858)">S</text><text x="2970.84" y="3992.09" transform="matrix(.984322 -.176379 .176379 .984322 -657.546 586.582)">I</text><text x="3002.18" y="3986.59" transform="matrix(.981394 -.192005 .192005 .981394 -709.585 650.607)">Z</text><text x="3062.93" y="3974.7" transform="matrix(.976977 -.213343 .213343 .976977 -777.458 744.962)">E</text><text x="3122.8" y="3961.69" transform="matrix(.971962 -.235139 .235139 .971962 -843.991 845.371)">R</text></g><text x="690.356" y="2870.18" font-size="491.988" transform="matrix(.241449 0 0 .242612 1830.49 -463.167)" class="B C D">MUSICAL</text><g transform="matrix(.753938 -.202991 .202148 .758063 853.722 -18.25758)" class="B C D G"><text x="655.385" y="636.188" transform="matrix(.61517 -.788395 .788395 .61517 -249.355 761.526)">I</text><text x="676.563" y="599.824" transform="matrix(.781758 -.623582 .623582 .781758 -226.385 552.799)">N</text><text x="766.379" y="528.319" transform="matrix(.938561 -.345113 .345113 .938561 -135.244 296.947)">S</text><text x="849.666" y="495.624" transform="matrix(.998406 -.056448 .056448 .998406 -26.6224 48.7526)">T</text><text x="943.326" y="487.841" transform="matrix(.966278 .2575 -.2575 .966278 157.43 -226.456)">A</text><text x="1044" y="511.839" transform="matrix(.82125 .570568 -.570568 .82125 478.653 -504.18)">N</text><text x="1138.2" y="577.337" transform="matrix(.604641 .796498 -.796498 .604641 909.848 -678.323)">T</text></g><g transform="matrix(.018862 0 0 .018862 3617.683574 1947.868587)"><clipPath id="A"><path d="M0 0h1024v1024H0z"/></clipPath><g clip-path="url(#A)"><path d="M891.27 380.782H645.133v94.678c0 52.272-42.389 94.678-94.676 94.7-52.29 0-94.662-42.405-94.662-94.678 0-52.288 42.372-94.678 94.662-94.678h94.676V95.127l-.818-.268c-41.648-13.194-84.385-19.784-130.398-19.784C272.604 75.1 77 270.7 77 512s195.6 436.9 436.9 436.9c221.605 0 404.672-164.968 433.094-378.787H701.93l189.34-189.331z" fill="#fff" fill-rule="nonzero" stroke="#8e3525" stroke-width="49" stroke-linejoin="miter" stroke-miterlimit="4"/></g></g></svg>