<?xml version="1.0" encoding="UTF-8" standalone="no"?>
<!DOCTYPE svg PUBLIC "-//W3C//DTD SVG 1.1//EN" "http://www.w3.org/Graphics/SVG/1.1/DTD/svg11.dtd">
<svg width="100%" height="100%" viewBox="0 0 1313 2160" version="1.1" xmlns="http://www.w3.org/2000/svg" xmlns:xlink="http://www.w3.org/1999/xlink" xml:space="preserve" xmlns:serif="http://www.serif.com/" style="fill-rule:evenodd;clip-rule:evenodd;stroke-linecap:round;stroke-linejoin:round;stroke-miterlimit:1.5;">
    <g transform="matrix(0.826002,0,0,0.706413,-127.08,-159.004)">
        <path d="M1743.09,299.417C1743.09,258.393 1714.6,225.086 1679.52,225.086L217.419,225.086C182.334,225.086 153.849,258.393 153.849,299.417L153.849,3208.46C153.849,3249.48 182.334,3282.79 217.419,3282.79L1679.52,3282.79C1714.6,3282.79 1743.09,3249.48 1743.09,3208.46L1743.09,299.417Z" style="fill:rgb(237,231,221);"/>
    </g>
    <g id="interface.cropped.svg" transform="matrix(13.1271,0,0,13.1904,656.357,1078.87)">
        <g transform="matrix(1,0,0,1,-50,-50)">
            <path d="M94.173,29.051C94.173,27.741 93.11,26.678 91.799,26.678L8.201,26.678C6.89,26.678 5.827,27.741 5.827,29.051C5.827,53.431 25.62,73.224 50,73.224C74.38,73.224 94.173,53.431 94.173,29.051ZM53.472,39.849C53.166,39.29 52.845,37.466 52.84,37.134C52.839,37.101 52.839,37.068 52.839,37.034C52.839,34.192 54.58,31.701 56.991,31.701C57.013,31.701 57.034,31.701 57.055,31.702C62.111,31.808 69.469,41.299 69.469,49.311C69.469,59.737 60.745,68.201 50,68.201C39.255,68.201 30.531,59.737 30.531,49.311C30.531,41.299 36.436,31.839 42.945,31.702C42.966,31.701 42.987,31.701 43.009,31.701C45.42,31.701 47.161,34.192 47.161,37.034C47.161,37.067 47.161,37.1 47.16,37.134C47.155,37.467 46.834,39.29 46.529,39.849C45.818,41.151 44.62,42.648 44.601,42.668C43.458,43.885 42.186,45.043 41.191,46.343C39.901,48.028 39.032,49.929 39.032,52.291C39.032,58.491 43.947,63.524 50,63.524C56.053,63.524 60.967,58.491 60.967,52.291C60.967,49.895 60.11,48.075 58.814,46.421C57.854,45.196 56.608,44.074 55.442,42.737C55.367,42.648 54.318,41.4 53.472,39.849Z" style="fill:rgb(211,18,69);"/>
        </g>
    </g>
    <g id="Eyes---wink" serif:id="Eyes + wink" transform="matrix(0.694645,0,0,0.697993,-196.378,-145.364)">
        <g transform="matrix(1,0,0,1,113.041,42.7483)">
            <ellipse cx="851.651" cy="833.592" rx="132.017" ry="318.098" style="fill:rgb(211,18,69);"/>
        </g>
        <g id="wink" transform="matrix(1,0,0,1,-407.922,8.77361)">
            <g transform="matrix(1,0,0,1,-12.5728,0)">
                <path d="M1821.03,876.34L2064.95,711.633" style="fill:none;stroke:rgb(211,18,69);stroke-width:131.64px;"/>
            </g>
            <g transform="matrix(0.437908,0.89902,-0.89902,0.437908,1798.86,-1144.56)">
                <path d="M1821.03,876.34L2064.95,711.633" style="fill:none;stroke:rgb(211,18,69);stroke-width:131.4px;"/>
            </g>
            <g transform="matrix(0.828749,0.55962,-0.55962,0.828749,789.697,-869.012)">
                <path d="M1821.03,876.34L2064.95,711.633" style="fill:none;stroke:rgb(211,18,69);stroke-width:131.35px;"/>
            </g>
        </g>
    </g>
    <g id="Text-Fields" serif:id="Text Fields">
        <g transform="matrix(0.241449,0,0,0.242612,566.845,-463.167)">
            <path d="M730.699,2870.18L730.699,2530.71L815.321,2530.71L910.767,2734.4L1006.21,2530.71L1090.84,2530.71L1090.84,2870.18L1019.99,2870.18L1019.99,2655.68L940.286,2825.91L881.248,2825.91L801.546,2655.68L801.546,2870.18L730.699,2870.18Z" style="fill:rgb(211,18,69);fill-rule:nonzero;"/>
            <path d="M1168.57,2787.53L1168.57,2530.71L1239.41,2530.71L1239.41,2791.47C1239.41,2801.31 1244.34,2806.23 1254.17,2806.23L1350.6,2806.23C1360.44,2806.23 1365.36,2801.31 1365.36,2791.47L1365.36,2530.71L1436.21,2530.71L1436.21,2787.53C1436.21,2842.63 1408.66,2870.18 1353.56,2870.18L1251.22,2870.18C1196.12,2870.18 1168.57,2842.63 1168.57,2787.53Z" style="fill:rgb(211,18,69);fill-rule:nonzero;"/>
            <path d="M1499.18,2844.6L1499.18,2806.23L1651.7,2806.23C1661.54,2806.23 1666.46,2801.31 1666.46,2791.47L1666.46,2756.04C1666.46,2746.53 1662.36,2741.12 1654.16,2739.81L1558.22,2720.13C1518.86,2712.26 1499.18,2685.85 1499.18,2640.92L1499.18,2613.37C1499.18,2558.26 1526.74,2530.71 1581.84,2530.71L1694.5,2530.71L1727.47,2556.3L1727.47,2594.67L1584.79,2594.67C1574.95,2594.67 1570.03,2599.59 1570.03,2609.43L1570.03,2641.41C1570.03,2650.6 1574.13,2656.01 1582.33,2657.65L1678.27,2676.83C1717.63,2684.71 1737.31,2711.11 1737.31,2756.04L1737.31,2787.53C1737.31,2842.63 1709.76,2870.18 1654.65,2870.18L1532.15,2870.18L1499.18,2844.6Z" style="fill:rgb(211,18,69);fill-rule:nonzero;"/>
            <rect x="1803.23" y="2530.71" width="70.846" height="339.472" style="fill:rgb(211,18,69);fill-rule:nonzero;"/>
            <path d="M1949.85,2787.53L1949.85,2613.37C1949.85,2558.26 1977.4,2530.71 2032.5,2530.71L2163.86,2530.71L2196.82,2556.3L2196.82,2594.67L2035.45,2594.67C2025.61,2594.67 2020.69,2599.59 2020.69,2609.43L2020.69,2791.47C2020.69,2801.31 2025.61,2806.23 2035.45,2806.23L2196.82,2806.23L2196.82,2844.6L2163.86,2870.18L2032.5,2870.18C1977.4,2870.18 1949.85,2842.63 1949.85,2787.53Z" style="fill:rgb(211,18,69);fill-rule:nonzero;"/>
            <path d="M2230.28,2856.9L2331.14,2530.71L2439.37,2530.71L2540.23,2856.9L2531.38,2870.18L2472.34,2870.18L2451.67,2801.31L2318.84,2801.31L2298.17,2870.18L2239.13,2870.18L2230.28,2856.9ZM2338.02,2737.35L2432.49,2737.35L2389.19,2594.67L2381.32,2594.67L2338.02,2737.35Z" style="fill:rgb(211,18,69);fill-rule:nonzero;"/>
            <path d="M2589.43,2870.18L2589.43,2530.71L2660.28,2530.71L2660.28,2806.23L2806.89,2806.23L2806.89,2870.18L2589.43,2870.18Z" style="fill:rgb(211,18,69);fill-rule:nonzero;"/>
        </g>
        <g transform="matrix(1.01268,0,0,16.9332,-574.8,-22721)">
            <path d="M914.561,1432.53L918.827,1431.73L971.617,1432.75C975.023,1432.81 977.273,1432.74 978.367,1432.54L982.305,1431.8C983.362,1431.6 982.545,1431.46 979.852,1431.38L948.833,1430.33C936.085,1429.9 932.209,1429.22 937.204,1428.29L940.267,1427.72C946.393,1426.57 958.992,1426.18 978.064,1426.55L1017.06,1427.3L1025.63,1428.05L1021.36,1428.85L971.976,1427.9C968.57,1427.83 966.32,1427.9 965.226,1428.11L961.671,1428.77C960.65,1428.96 961.468,1429.1 964.124,1429.19L995.197,1430.23C1007.95,1430.66 1011.82,1431.34 1006.83,1432.27L1003.33,1432.93C997.201,1434.08 984.601,1434.46 965.529,1434.1L923.127,1433.28L914.561,1432.53Z" style="fill:rgb(211,18,69);fill-rule:nonzero;"/>
            <path d="M1038.55,1433.46L1052.98,1427.91L1078.42,1428.15L1063.78,1433.78C1063.22,1433.99 1064.71,1434.12 1068.25,1434.15L1102.88,1434.47C1106.42,1434.51 1108.46,1434.42 1109.02,1434.2L1123.66,1428.58L1149.11,1428.82L1134.68,1434.36C1131.59,1435.55 1120.14,1436.05 1100.35,1435.87L1063.6,1435.52C1043.81,1435.33 1035.46,1434.65 1038.55,1433.46Z" style="fill:rgb(211,18,69);fill-rule:nonzero;"/>
            <path d="M1176.16,1436.33L1175.39,1428.91L1235.48,1428.89C1255.52,1428.88 1265.6,1429.48 1265.72,1430.69L1265.87,1432.13C1266,1433.33 1256.04,1433.93 1236.01,1433.94L1201.67,1433.96L1201.92,1436.32L1176.16,1436.33ZM1201.53,1432.56L1234.79,1432.55C1238.37,1432.55 1240.15,1432.44 1240.12,1432.22L1239.96,1430.61C1239.93,1430.39 1238.13,1430.29 1234.56,1430.29L1201.29,1430.3L1201.53,1432.56Z" style="fill:rgb(211,18,69);fill-rule:nonzero;"/>
            <path d="M1308.13,1436.08L1289.01,1428.76L1372.41,1427.97L1376.02,1429.35L1318.06,1429.9L1321.94,1431.38L1374.59,1430.89L1378.19,1432.27L1325.54,1432.76L1329.97,1434.46L1387.93,1433.91L1391.53,1435.3L1308.13,1436.08Z" style="fill:rgb(211,18,69);fill-rule:nonzero;"/>
            <path d="M1432.03,1434.74L1394.57,1427.68L1451.83,1426.58C1470.91,1426.21 1483.5,1426.61 1489.58,1427.75L1495.77,1428.92C1500.29,1429.77 1497.83,1430.41 1488.39,1430.82L1519.7,1432.73L1518.43,1433.09L1497.3,1433.49L1463.48,1431.43L1443.54,1431.82L1456.57,1434.27L1432.03,1434.74ZM1436.48,1430.49L1468.18,1429.88C1471.59,1429.81 1472.75,1429.68 1471.66,1429.47L1464.6,1428.14C1463.52,1427.94 1461.27,1427.87 1457.86,1427.93L1426.16,1428.54L1436.48,1430.49Z" style="fill:rgb(211,18,69);fill-rule:nonzero;"/>
        </g>
        <g transform="matrix(1.45329,0,0,20.9308,-1110.45,-28260.9)">
            <path d="M834.778,1431.06L878.883,1422.71L937.177,1424.2C956.608,1424.7 962.745,1425.63 955.586,1426.99L947.02,1428.61C939.861,1429.96 926.566,1430.39 907.135,1429.89L873.824,1429.04L859.761,1431.7L834.778,1431.06ZM882.133,1427.46L914.403,1428.29C917.873,1428.38 920.247,1428.31 921.526,1428.06L931.114,1426.25C932.392,1426.01 931.296,1425.84 927.827,1425.75L895.557,1424.92L882.133,1427.46Z" style="fill:rgb(211,18,69);fill-rule:nonzero;"/>
            <path d="M959.574,1431.84L973.549,1427.38C977.97,1425.97 990.296,1425.41 1010.53,1425.72L1051.71,1426.35C1071.94,1426.66 1079.85,1427.52 1075.42,1428.93L1061.45,1433.39C1057.03,1434.8 1044.7,1435.35 1024.47,1435.05L983.288,1434.42C963.058,1434.11 955.153,1433.25 959.574,1431.84ZM985.269,1432.34C984.48,1432.59 985.891,1432.74 989.504,1432.8L1028.52,1433.39C1032.13,1433.45 1034.33,1433.35 1035.12,1433.1L1049.73,1428.43C1050.52,1428.18 1049.11,1428.03 1045.5,1427.97L1006.48,1427.38C1002.87,1427.32 1000.67,1427.42 999.875,1427.67L985.269,1432.34Z" style="fill:rgb(211,18,69);fill-rule:nonzero;"/>
            <path d="M1088.52,1427.4L1092.46,1427.06L1114.25,1427.14L1129.62,1434.42L1131.65,1434.43L1158.15,1428.14L1184.37,1428.23L1201.82,1434.67L1203.85,1434.68L1229.48,1427.54L1251.27,1427.61L1254.72,1427.97L1223.71,1436.43L1181.42,1436.28L1168.89,1431.53L1149.66,1436.17L1107.37,1436.03L1088.52,1427.4Z" style="fill:rgb(211,18,69);fill-rule:nonzero;"/>
            <path d="M1278.3,1436.25L1264.86,1427.39L1351.64,1426.75L1354.17,1428.42L1293.87,1428.87L1296.59,1430.66L1351.38,1430.26L1353.92,1431.92L1299.12,1432.33L1302.24,1434.38L1362.55,1433.94L1365.08,1435.6L1278.3,1436.25Z" style="fill:rgb(211,18,69);fill-rule:nonzero;"/>
            <path d="M1398.23,1435.23L1368.64,1426.58L1429.07,1425.57C1449.22,1425.23 1461.69,1425.77 1466.49,1427.17L1471.38,1428.61C1474.95,1429.65 1471.61,1430.4 1461.35,1430.84L1491.19,1433.29L1489.42,1433.72L1467.12,1434.09L1434.88,1431.44L1413.84,1431.79L1424.13,1434.8L1398.23,1435.23ZM1408.26,1430.16L1441.72,1429.6C1445.31,1429.54 1446.68,1429.39 1445.83,1429.14L1440.25,1427.51C1439.39,1427.25 1437.17,1427.16 1433.57,1427.22L1400.12,1427.78L1408.26,1430.16Z" style="fill:rgb(211,18,69);fill-rule:nonzero;"/>
            <path d="M1514.83,1432.47L1509.73,1431.53L1563.35,1430.12C1566.81,1430.03 1567.89,1429.86 1566.58,1429.62L1561.88,1428.75C1560.61,1428.52 1558.45,1428.42 1555.39,1428.47L1519.05,1428.87C1504.17,1429.04 1493.75,1428.58 1487.78,1427.48L1484.12,1426.8C1476.8,1425.45 1482.83,1424.52 1502.2,1424.01L1541.81,1422.96L1556.8,1423.29L1561.89,1424.23L1511.73,1425.55C1508.27,1425.64 1507.2,1425.81 1508.5,1426.05L1512.75,1426.83C1513.97,1427.06 1516.13,1427.15 1519.23,1427.12L1555.51,1426.7C1570.39,1426.53 1580.82,1426.99 1586.78,1428.09L1590.96,1428.87C1598.28,1430.22 1592.25,1431.15 1572.88,1431.66L1529.81,1432.8L1514.83,1432.47Z" style="fill:rgb(211,18,69);fill-rule:nonzero;"/>
        </g>
        <g transform="matrix(1.76189,0,0,24.6978,-1485.63,-33444.2)">
            <path d="M885.205,1432.36L895.659,1430.13L916.881,1430.65L914.912,1431.07L900.164,1430.71L897.588,1431.26L910.987,1431.58L909.018,1432L895.619,1431.68L891.68,1432.51L885.205,1432.36Z" style="fill:rgb(211,18,69);fill-rule:nonzero;"/>
            <path d="M913.788,1432.44L918.652,1431.29C920.191,1430.92 923.504,1430.8 928.59,1430.91L938.944,1431.13C944.031,1431.24 945.805,1431.48 944.266,1431.84L939.402,1433C937.863,1433.36 934.55,1433.49 929.464,1433.38L919.109,1433.15C914.023,1433.04 912.249,1432.81 913.788,1432.44ZM920.218,1432.61C919.943,1432.67 920.26,1432.72 921.168,1432.74L930.978,1432.95C931.886,1432.97 932.477,1432.95 932.752,1432.88L937.836,1431.68C938.111,1431.61 937.794,1431.57 936.886,1431.55L927.076,1431.34C926.168,1431.32 925.576,1431.34 925.302,1431.4L920.218,1432.61Z" style="fill:rgb(211,18,69);fill-rule:nonzero;"/>
            <path d="M944.562,1433.69L952.951,1431.43L968.361,1431.72C973.498,1431.82 975.386,1432.05 974.024,1432.42L972.638,1432.79C971.625,1433.07 969.571,1433.21 966.476,1433.22L968.959,1434.05L967.815,1434.14L962.128,1434.03L959.45,1433.13L954.084,1433.03L951.167,1433.82L944.562,1433.69ZM955.665,1432.6L964.196,1432.77C965.113,1432.78 965.693,1432.76 965.936,1432.69L967.517,1432.27C967.76,1432.2 967.423,1432.16 966.506,1432.14L957.975,1431.98L955.665,1432.6Z" style="fill:rgb(211,18,69);fill-rule:nonzero;"/>
            <path d="M990.138,1432.21L991.202,1432.13L996.901,1432.22L1000.86,1433.3L1010.8,1432.44L1016.5,1432.53L1017.01,1432.63L1002.63,1433.86L1000.14,1434.67L993.469,1434.57L995.961,1433.76L990.138,1432.21Z" style="fill:rgb(211,18,69);fill-rule:nonzero;"/>
            <path d="M1016.38,1434.34L1019.46,1433.16C1020.44,1432.78 1023.54,1432.63 1028.76,1432.7L1039.39,1432.84C1044.62,1432.91 1046.74,1433.13 1045.77,1433.51L1042.68,1434.69C1041.7,1435.07 1038.6,1435.22 1033.38,1435.15L1022.75,1435.01C1017.52,1434.94 1015.4,1434.71 1016.38,1434.34ZM1023.02,1434.46C1022.85,1434.52 1023.23,1434.56 1024.16,1434.58L1034.23,1434.71C1035.17,1434.72 1035.72,1434.7 1035.89,1434.63L1039.12,1433.39C1039.29,1433.33 1038.91,1433.29 1037.98,1433.27L1027.91,1433.14C1026.97,1433.13 1026.42,1433.15 1026.25,1433.22L1023.02,1434.46Z" style="fill:rgb(211,18,69);fill-rule:nonzero;"/>
            <path d="M1049.75,1434.78L1053.48,1433.02L1060.23,1433.1L1056.45,1434.88C1056.31,1434.95 1056.7,1434.99 1057.64,1435L1066.84,1435.1C1067.77,1435.11 1068.32,1435.08 1068.46,1435.01L1072.24,1433.23L1079,1433.3L1075.27,1435.06C1074.47,1435.43 1071.44,1435.59 1066.19,1435.54L1056.43,1435.43C1051.18,1435.37 1048.95,1435.15 1049.75,1434.78Z" style="fill:rgb(211,18,69);fill-rule:nonzero;"/>
            <path d="M1090.9,1435.69L1103.93,1433.52L1114.31,1433.6L1120.62,1435.92L1119.64,1436L1113.98,1435.96L1112.7,1435.47L1099.97,1435.37L1097.28,1435.83L1091.61,1435.79L1090.9,1435.69ZM1102.46,1434.95L1111.52,1435.02L1108.84,1434L1108.08,1434L1102.46,1434.95Z" style="fill:rgb(211,18,69);fill-rule:nonzero;"/>
            <path d="M1125.72,1436.04L1128.13,1433.7L1135.51,1433.74L1146.89,1435.34L1148.48,1433.81L1155.29,1433.84L1152.88,1436.18L1145.5,1436.14L1134.12,1434.54L1132.53,1436.08L1125.72,1436.04Z" style="fill:rgb(211,18,69);fill-rule:nonzero;"/>
            <path d="M1161.13,1436.22L1162.44,1433.87L1174.86,1433.91C1183.78,1433.93 1188.06,1434.27 1187.7,1434.9L1187.46,1435.33C1187.1,1435.97 1182.46,1436.28 1173.55,1436.25L1161.13,1436.22ZM1168.2,1435.8L1174.18,1435.81C1178.29,1435.82 1180.42,1435.68 1180.59,1435.39L1180.91,1434.81C1181.08,1434.52 1179.11,1434.36 1175,1434.35L1169.02,1434.33L1168.2,1435.8Z" style="fill:rgb(211,18,69);fill-rule:nonzero;"/>
            <path d="M1202.98,1434.06L1203.78,1433.97L1209.62,1433.97L1216.75,1434.96L1223.85,1433.97L1229.69,1433.97L1230.5,1434.06L1220.17,1435.48L1220.18,1436.31L1213.35,1436.31L1213.34,1435.48L1202.98,1434.06Z" style="fill:rgb(211,18,69);fill-rule:nonzero;"/>
            <path d="M1235.06,1435.74L1234.53,1434.53C1234.36,1434.15 1236.93,1433.95 1242.24,1433.94L1253.06,1433.92C1258.37,1433.91 1261.11,1434.09 1261.28,1434.47L1261.81,1435.67C1261.97,1436.06 1259.4,1436.25 1254.09,1436.27L1243.28,1436.29C1237.97,1436.3 1235.23,1436.12 1235.06,1435.74ZM1241.9,1435.75C1241.93,1435.82 1242.42,1435.85 1243.37,1435.85L1253.61,1435.82C1254.56,1435.82 1255.02,1435.79 1254.99,1435.72L1254.43,1434.46C1254.4,1434.39 1253.91,1434.36 1252.97,1434.36L1242.72,1434.38C1241.77,1434.39 1241.32,1434.42 1241.35,1434.49L1241.9,1435.75Z" style="fill:rgb(211,18,69);fill-rule:nonzero;"/>
            <path d="M1269.02,1435.65L1267.43,1433.88L1274.25,1433.85L1275.86,1435.65C1275.92,1435.71 1276.43,1435.75 1277.38,1435.74L1286.66,1435.7C1287.6,1435.69 1288.05,1435.66 1287.99,1435.59L1286.37,1433.79L1293.19,1433.76L1294.78,1435.53C1295.12,1435.91 1292.64,1436.11 1287.34,1436.14L1277.49,1436.18C1272.18,1436.21 1269.36,1436.03 1269.02,1435.65Z" style="fill:rgb(211,18,69);fill-rule:nonzero;"/>
            <path d="M1303.24,1436.06L1300.08,1433.72L1315.94,1433.61C1321.23,1433.57 1324.13,1433.74 1324.65,1434.12L1325.17,1434.51C1325.55,1434.79 1324.33,1434.98 1321.49,1435.07L1327.85,1435.78L1327.18,1435.89L1321.33,1435.93L1314.46,1435.16L1308.94,1435.19L1310.04,1436.01L1303.24,1436.06ZM1308.34,1434.76L1317.13,1434.69C1318.07,1434.69 1318.5,1434.65 1318.41,1434.58L1317.81,1434.14C1317.72,1434.08 1317.2,1434.04 1316.26,1434.05L1307.47,1434.11L1308.34,1434.76Z" style="fill:rgb(211,18,69);fill-rule:nonzero;"/>
            <path d="M1346.05,1435.73L1341.55,1433.4L1363.73,1433.18L1364.58,1433.62L1349.16,1433.77L1350.28,1434.35L1364.28,1434.21L1365.13,1434.65L1351.12,1434.79L1352.82,1435.66L1346.05,1435.73Z" style="fill:rgb(211,18,69);fill-rule:nonzero;"/>
            <path d="M1374.02,1435.44L1368.57,1433.13L1384.29,1432.94C1389.53,1432.88 1392.59,1433.03 1393.47,1433.41L1394.37,1433.79C1395.03,1434.07 1393.99,1434.26 1391.26,1434.37L1398.3,1435.05L1397.74,1435.16L1391.94,1435.23L1384.33,1434.49L1378.86,1434.56L1380.76,1435.36L1374.02,1435.44ZM1377.83,1434.12L1386.53,1434.02C1387.47,1434.01 1387.86,1433.97 1387.7,1433.9L1386.67,1433.46C1386.52,1433.4 1385.97,1433.37 1385.03,1433.38L1376.33,1433.49L1377.83,1434.12Z" style="fill:rgb(211,18,69);fill-rule:nonzero;"/>
            <path d="M1404.72,1435.06L1398.55,1432.76L1405.26,1432.66L1411.43,1434.97L1404.72,1435.06Z" style="fill:rgb(211,18,69);fill-rule:nonzero;"/>
            <path d="M1419.51,1434.86L1412.61,1432.56L1434.5,1432.23L1435.8,1432.66L1420.59,1432.89L1421.99,1433.36L1435.81,1433.14L1437.11,1433.58L1423.29,1433.79L1424.89,1434.32L1440.1,1434.09L1441.4,1434.52L1419.51,1434.86Z" style="fill:rgb(211,18,69);fill-rule:nonzero;"/>
            <path d="M1448.03,1434.41L1440.1,1432.13L1447.28,1432.01L1465.1,1433.28L1459.89,1431.78L1466.52,1431.66L1474.45,1433.94L1467.27,1434.07L1449.45,1432.8L1454.65,1434.29L1448.03,1434.41Z" style="fill:rgb(211,18,69);fill-rule:nonzero;"/>
            <path d="M1482.37,1433.79L1473.31,1431.53L1485.26,1431.28C1493.83,1431.11 1499.35,1431.33 1501.82,1431.94L1503.47,1432.35C1505.94,1432.97 1502.89,1433.36 1494.31,1433.54L1482.37,1433.79ZM1487.23,1433.22L1492.97,1433.11C1496.92,1433.02 1498.33,1432.84 1497.19,1432.56L1494.96,1432C1493.82,1431.72 1491.28,1431.62 1487.33,1431.7L1481.58,1431.82L1487.23,1433.22Z" style="fill:rgb(211,18,69);fill-rule:nonzero;"/>
            <path d="M1512.07,1432.98L1510.93,1432.73L1524.93,1432.4C1525.83,1432.38 1526.14,1432.34 1525.85,1432.28L1524.8,1432.04C1524.52,1431.98 1523.98,1431.95 1523.19,1431.96L1513.8,1432.04C1509.96,1432.07 1507.37,1431.93 1506.04,1431.64L1505.23,1431.46C1503.59,1431.1 1505.31,1430.86 1510.37,1430.74L1520.71,1430.5L1524.49,1430.6L1525.62,1430.85L1512.53,1431.15C1511.63,1431.17 1511.32,1431.22 1511.61,1431.28L1512.56,1431.49C1512.83,1431.55 1513.37,1431.58 1514.17,1431.57L1523.54,1431.5C1527.39,1431.46 1529.97,1431.6 1531.3,1431.89L1532.24,1432.1C1533.87,1432.46 1532.15,1432.7 1527.09,1432.82L1515.85,1433.08L1512.07,1432.98Z" style="fill:rgb(211,18,69);fill-rule:nonzero;"/>
            <path d="M1540.4,1432.5L1538.18,1432.04L1544.86,1431.87L1547.08,1432.33L1540.4,1432.5ZM1537.04,1431.78L1529.76,1430.28L1536.22,1430.12L1543.49,1431.62L1537.04,1431.78Z" style="fill:rgb(211,18,69);fill-rule:nonzero;"/>
        </g>
        <g id="Smile-Powered-Synthesizer" serif:id="Smile Powered Synthesizer" transform="matrix(1.90139,0,0,20.9799,-1655.23,-28017)">
            <path d="M888.402,1431.5L890.953,1430.64L900.308,1430.87L897.757,1431.73L888.402,1431.5Z" style="fill:rgb(211,18,69);fill-rule:nonzero;"/>
            <path d="M910.708,1432.77L911.462,1432.48L923.834,1432.76C924.632,1432.77 925.128,1432.75 925.321,1432.67L926.018,1432.41C926.204,1432.34 925.978,1432.3 925.339,1432.27L917.943,1431.95C914.905,1431.83 913.828,1431.59 914.711,1431.26L915.252,1431.06C916.335,1430.65 919.112,1430.5 923.582,1430.6L932.721,1430.8L934.892,1431.05L934.138,1431.33L922.564,1431.07C921.766,1431.06 921.27,1431.08 921.077,1431.16L920.448,1431.39C920.268,1431.46 920.494,1431.51 921.127,1431.54L928.532,1431.85C931.57,1431.98 932.648,1432.21 931.764,1432.54L931.146,1432.77C930.063,1433.18 927.286,1433.33 922.816,1433.23L912.879,1433.02L910.708,1432.77Z" style="fill:rgb(211,18,69);fill-rule:nonzero;"/>
            <path d="M935.209,1433.51L941.155,1430.98L948.061,1431.12L952.282,1432.79L963.639,1431.42L970.545,1431.56L964.598,1434.08L958.816,1433.97L962.574,1432.37L953.088,1433.51L948.27,1433.42L944.748,1432.03L940.99,1433.62L935.209,1433.51Z" style="fill:rgb(211,18,69);fill-rule:nonzero;"/>
            <path d="M971.644,1434.2L977.007,1431.67L982.813,1431.77L977.451,1434.3L971.644,1434.2Z" style="fill:rgb(211,18,69);fill-rule:nonzero;"/>
            <path d="M984.458,1434.42L989.38,1431.88L995.204,1431.98L991.209,1434.04L1003.26,1434.23L1002.33,1434.71L984.458,1434.42Z" style="fill:rgb(211,18,69);fill-rule:nonzero;"/>
            <path d="M1007.09,1434.78L1011.47,1432.24L1030.62,1432.51L1029.79,1432.99L1016.49,1432.8L1015.6,1433.32L1027.68,1433.49L1026.86,1433.97L1014.77,1433.8L1013.75,1434.39L1027.06,1434.58L1026.23,1435.06L1007.09,1434.78Z" style="fill:rgb(211,18,69);fill-rule:nonzero;"/>
            <path d="M1042.16,1435.26L1045.73,1432.7L1059.42,1432.86C1063.98,1432.91 1065.97,1433.15 1065.39,1433.56L1064.7,1434.06C1064.12,1434.48 1061.55,1434.66 1056.99,1434.61L1049.16,1434.52L1048.03,1435.33L1042.16,1435.26ZM1049.84,1434.03L1057.41,1434.12C1058.23,1434.13 1058.69,1434.1 1058.79,1434.02L1059.57,1433.47C1059.67,1433.39 1059.32,1433.35 1058.5,1433.34L1050.92,1433.25L1049.84,1434.03Z" style="fill:rgb(211,18,69);fill-rule:nonzero;"/>
            <path d="M1068.87,1434.93L1070.39,1433.62C1070.87,1433.2 1073.4,1433.02 1077.97,1433.06L1087.29,1433.15C1091.86,1433.19 1093.91,1433.42 1093.43,1433.84L1091.91,1435.15C1091.43,1435.57 1088.9,1435.76 1084.33,1435.71L1075.01,1435.62C1070.44,1435.58 1068.39,1435.35 1068.87,1434.93ZM1074.72,1435.02C1074.63,1435.1 1075,1435.14 1075.82,1435.14L1084.64,1435.23C1085.45,1435.24 1085.91,1435.2 1085.99,1435.13L1087.58,1433.75C1087.66,1433.68 1087.3,1433.64 1086.48,1433.63L1077.66,1433.55C1076.85,1433.54 1076.39,1433.57 1076.31,1433.64L1074.72,1435.02Z" style="fill:rgb(211,18,69);fill-rule:nonzero;"/>
            <path d="M1097.8,1433.35L1098.7,1433.26L1103.54,1433.29L1106.3,1435.41L1106.75,1435.42L1113.19,1433.61L1119.01,1433.65L1122.3,1435.53L1122.75,1435.53L1129.08,1433.48L1133.91,1433.51L1134.64,1433.62L1127.01,1436.05L1117.63,1435.98L1115.27,1434.6L1110.59,1435.93L1101.21,1435.87L1097.8,1433.35Z" style="fill:rgb(211,18,69);fill-rule:nonzero;"/>
            <path d="M1137.44,1436.11L1138.92,1433.53L1158.28,1433.62L1158,1434.11L1144.55,1434.04L1144.25,1434.57L1156.47,1434.62L1156.19,1435.11L1143.97,1435.05L1143.63,1435.65L1157.08,1435.71L1156.8,1436.2L1137.44,1436.11Z" style="fill:rgb(211,18,69);fill-rule:nonzero;"/>
            <path d="M1162.59,1436.22L1163.5,1433.64L1177.29,1433.68C1181.89,1433.7 1184.11,1433.91 1183.97,1434.33L1183.82,1434.76C1183.71,1435.07 1182.37,1435.26 1179.79,1435.33L1184.14,1436.17L1183.4,1436.28L1178.31,1436.27L1173.62,1435.36L1168.82,1435.34L1168.5,1436.24L1162.59,1436.22ZM1168.99,1434.86L1176.62,1434.88C1177.45,1434.88 1177.87,1434.84 1177.9,1434.77L1178.07,1434.28C1178.09,1434.21 1177.7,1434.17 1176.88,1434.17L1169.24,1434.14L1168.99,1434.86Z" style="fill:rgb(211,18,69);fill-rule:nonzero;"/>
            <path d="M1189.62,1436.29L1189.97,1433.71L1209.35,1433.74L1209.29,1434.22L1195.82,1434.21L1195.75,1434.73L1207.98,1434.74L1207.92,1435.23L1195.68,1435.22L1195.6,1435.81L1209.07,1435.83L1209,1436.32L1189.62,1436.29Z" style="fill:rgb(211,18,69);fill-rule:nonzero;"/>
            <path d="M1214.87,1436.32L1214.65,1433.74L1225.41,1433.73C1233.13,1433.73 1237.02,1434.07 1237.08,1434.78L1237.12,1435.25C1237.18,1435.95 1233.35,1436.31 1225.63,1436.31L1214.87,1436.32ZM1220.74,1435.83L1225.91,1435.82C1229.47,1435.82 1231.24,1435.66 1231.21,1435.33L1231.16,1434.7C1231.13,1434.38 1229.34,1434.21 1225.78,1434.22L1220.6,1434.22L1220.74,1435.83Z" style="fill:rgb(211,18,69);fill-rule:nonzero;"/>
            <path d="M1252.45,1436.08L1252.34,1435.79L1265.06,1435.74C1265.88,1435.74 1266.27,1435.7 1266.24,1435.63L1266.14,1435.36C1266.11,1435.29 1265.75,1435.25 1265.07,1435.24L1257.01,1435.12C1253.7,1435.07 1251.98,1434.87 1251.85,1434.53L1251.77,1434.32C1251.6,1433.9 1253.82,1433.68 1258.42,1433.67L1267.81,1433.64L1270.64,1433.83L1270.75,1434.12L1258.85,1434.15C1258.03,1434.16 1257.63,1434.2 1257.66,1434.27L1257.76,1434.51C1257.79,1434.58 1258.14,1434.62 1258.83,1434.63L1266.89,1434.75C1270.2,1434.8 1271.92,1435 1272.05,1435.34L1272.14,1435.58C1272.31,1436 1270.09,1436.21 1265.49,1436.23L1255.27,1436.26L1252.45,1436.08Z" style="fill:rgb(211,18,69);fill-rule:nonzero;"/>
            <path d="M1274.17,1433.72L1274.81,1433.62L1279.86,1433.59L1286.66,1434.65L1292.16,1433.53L1297.2,1433.5L1297.96,1433.6L1289.96,1435.21L1290.5,1436.12L1284.6,1436.15L1284.05,1435.24L1274.17,1433.72Z" style="fill:rgb(211,18,69);fill-rule:nonzero;"/>
            <path d="M1303.94,1436.05L1301.78,1433.48L1308.17,1433.43L1320.81,1435.04L1319.39,1433.36L1325.29,1433.31L1327.45,1435.89L1321.06,1435.93L1308.42,1434.32L1309.84,1436.01L1303.94,1436.05Z" style="fill:rgb(211,18,69);fill-rule:nonzero;"/>
            <path d="M1329.95,1433.76L1329.42,1433.28L1352.47,1433.07L1353,1433.56L1344.41,1433.63L1346.67,1435.72L1340.79,1435.77L1338.53,1433.69L1329.95,1433.76Z" style="fill:rgb(211,18,69);fill-rule:nonzero;"/>
            <path d="M1359.97,1435.59L1356.58,1433.03L1362.45,1432.97L1363.78,1433.97L1374.21,1433.86L1372.89,1432.85L1378.76,1432.79L1382.15,1435.35L1376.28,1435.41L1374.85,1434.34L1364.42,1434.45L1365.84,1435.53L1359.97,1435.59Z" style="fill:rgb(211,18,69);fill-rule:nonzero;"/>
            <path d="M1389.22,1435.26L1385.2,1432.71L1404.39,1432.46L1405.15,1432.94L1391.81,1433.12L1392.63,1433.63L1404.74,1433.48L1405.5,1433.96L1393.39,1434.11L1394.32,1434.71L1407.65,1434.53L1408.41,1435.01L1389.22,1435.26Z" style="fill:rgb(211,18,69);fill-rule:nonzero;"/>
            <path d="M1412.66,1434.76L1412.14,1434.47L1424.7,1434.28C1425.52,1434.27 1425.85,1434.23 1425.72,1434.15L1425.25,1433.89C1425.12,1433.82 1424.71,1433.78 1424.01,1433.78L1415.85,1433.75C1412.5,1433.74 1410.52,1433.57 1409.92,1433.23L1409.55,1433.02C1408.8,1432.61 1410.7,1432.37 1415.24,1432.3L1424.52,1432.16L1427.58,1432.32L1428.1,1432.6L1416.35,1432.78C1415.54,1432.79 1415.2,1432.83 1415.33,1432.91L1415.76,1433.15C1415.88,1433.22 1416.29,1433.25 1416.99,1433.25L1425.15,1433.28C1428.5,1433.29 1430.48,1433.46 1431.08,1433.8L1431.5,1434.04C1432.25,1434.45 1430.35,1434.69 1425.81,1434.76L1415.72,1434.91L1412.66,1434.76Z" style="fill:rgb(211,18,69);fill-rule:nonzero;"/>
            <path d="M1438.41,1434.56L1433.41,1432.02L1439.24,1431.93L1444.23,1434.47L1438.41,1434.56Z" style="fill:rgb(211,18,69);fill-rule:nonzero;"/>
            <path d="M1449.66,1434.38L1448.78,1433.97L1458.62,1432.09L1445.65,1432.32L1444.62,1431.84L1464.93,1431.48L1465.82,1431.89L1455.97,1433.77L1469.75,1433.53L1470.78,1434.01L1449.66,1434.38Z" style="fill:rgb(211,18,69);fill-rule:nonzero;"/>
            <path d="M1476.2,1433.9L1470.16,1431.38L1489.09,1431L1490.23,1431.48L1477.07,1431.74L1478.3,1432.25L1490.26,1432.01L1491.39,1432.49L1479.44,1432.73L1480.84,1433.31L1494,1433.05L1495.14,1433.53L1476.2,1433.9Z" style="fill:rgb(211,18,69);fill-rule:nonzero;"/>
            <path d="M1500.77,1433.41L1494.11,1430.9L1507.52,1430.61C1511.99,1430.51 1514.77,1430.66 1515.85,1431.07L1516.95,1431.48C1517.75,1431.79 1517.02,1432 1514.74,1432.13L1521.4,1432.84L1521.01,1432.96L1516.06,1433.07L1508.87,1432.31L1504.2,1432.41L1506.52,1433.28L1500.77,1433.41ZM1502.95,1431.94L1510.37,1431.77C1511.17,1431.76 1511.47,1431.71 1511.28,1431.64L1510.02,1431.16C1509.83,1431.09 1509.33,1431.07 1508.54,1431.08L1501.11,1431.25L1502.95,1431.94Z" style="fill:rgb(211,18,69);fill-rule:nonzero;"/>
            <path d="M1533.72,1431.73L1531.16,1430.87L1540.52,1430.64L1543.07,1431.5L1533.72,1431.73Z" style="fill:rgb(211,18,69);fill-rule:nonzero;"/>
        </g>
        <g transform="matrix(0.636574,-0.171392,0.345081,1.29407,-409.924,-301.009)">
            <path d="M675.916,570.07L565.85,527.592L583.773,516.231L693.839,558.709L675.916,570.07Z" style="fill:rgb(211,18,69);fill-rule:nonzero;"/>
            <path d="M703.762,550.12L616.706,496.139L641.381,486.404L741.874,504.745L684.72,469.305L707.497,460.319L794.553,514.3L769.878,524.035L669.385,505.694L726.539,541.134L703.762,550.12Z" style="fill:rgb(211,18,69);fill-rule:nonzero;"/>
            <path d="M803.412,506.67L797.965,499.344L856.834,488.638C860.632,487.947 861.832,486.662 860.436,484.784L855.408,478.021C854.058,476.205 851.708,475.46 848.357,475.785L808.533,478.763C792.224,480.023 780.881,476.364 774.503,467.785L770.593,462.525C762.773,452.006 769.497,444.812 790.765,440.944L834.252,433.035L850.606,435.605L856.053,442.931L800.982,452.947C797.184,453.638 795.983,454.922 797.38,456.801L801.919,462.906C803.222,464.659 805.573,465.404 808.97,465.142L848.724,462.07C865.033,460.81 876.376,464.469 882.754,473.048L887.223,479.059C895.043,489.579 888.319,496.773 867.051,500.641L819.766,509.24L803.412,506.67Z" style="fill:rgb(211,18,69);fill-rule:nonzero;"/>
            <path d="M894.262,438.11L892.778,425.121L1006.71,421.935L1008.19,434.924L965.773,436.11L972.169,492.062L943.08,492.875L936.684,436.923L894.262,438.11Z" style="fill:rgb(211,18,69);fill-rule:nonzero;"/>
            <path d="M1011.66,487.491L1086.29,428.662L1129.3,434.331L1134.83,503.726L1129.91,505.873L1106.45,502.78L1105.53,488.16L1052.74,481.202L1037.24,493.658L1013.78,490.566L1011.66,487.491ZM1067.14,469.637L1104.68,474.584L1102.58,444.274L1099.45,443.861L1067.14,469.637Z" style="fill:rgb(211,18,69);fill-rule:nonzero;"/>
            <path d="M1139.59,508.378L1219.25,451.67L1245.17,460.578L1238.4,513.453L1290.7,476.223L1314.63,484.445L1234.97,541.153L1209.05,532.246L1215.82,479.37L1163.52,516.601L1139.59,508.378Z" style="fill:rgb(211,18,69);fill-rule:nonzero;"/>
            <path d="M1330.73,510.093L1351.68,502.227L1420.68,547.183L1399.73,555.049L1374.04,538.31L1283.79,572.195L1266.17,560.717L1356.42,526.832L1330.73,510.093Z" style="fill:rgb(211,18,69);fill-rule:nonzero;"/>
        </g>
    </g>
</svg>
