<?xml version="1.0" encoding="UTF-8" standalone="no"?>
<!DOCTYPE svg PUBLIC "-//W3C//DTD SVG 1.1//EN" "http://www.w3.org/Graphics/SVG/1.1/DTD/svg11.dtd">
<svg width="100%" height="100%" viewBox="0 0 10240 10240" version="1.1" xmlns="http://www.w3.org/2000/svg" xmlns:xlink="http://www.w3.org/1999/xlink" xml:space="preserve" xmlns:serif="http://www.serif.com/" style="fill-rule:evenodd;clip-rule:evenodd;stroke-linecap:round;stroke-linejoin:round;stroke-miterlimit:1.5;">
    <g id="LIGHT" transform="matrix(1,0,0,1,-927.244,-927.244)">
        <g id="Royal-Society-Plum" serif:id="Royal Society Plum" transform="matrix(0.847743,0,0,0.847743,927.244,920.737)">
            <path d="M12094.5,1451.34L12094.5,10643.1C12094.5,11444.2 11444.2,12094.5 10643.1,12094.5L1451.34,12094.5C650.323,12094.5 0,11444.2 0,10643.1L0,1451.34C0,650.323 650.323,0 1451.34,0L10643.1,0C11444.2,0 12094.5,650.323 12094.5,1451.34Z" style="fill:rgb(111,38,61);stroke:rgb(246,246,246);stroke-width:1.18px;"/>
        </g>
        <g id="Royal-Society-Red" serif:id="Royal Society Red" transform="matrix(0.847743,0,0,0.847743,927.244,920.737)">
            <path d="M12094.5,1451.34L12094.5,10643.1C12094.5,11444.2 11444.2,12094.5 10643.1,12094.5L1451.34,12094.5C650.323,12094.5 0,11444.2 0,10643.1L0,1451.34C0,650.323 650.323,0 1451.34,0L10643.1,0C11444.2,0 12094.5,650.323 12094.5,1451.34Z" style="fill:rgb(211,18,69);stroke:rgb(246,246,246);stroke-width:1.18px;"/>
        </g>
        <g id="Royal-Society-Grey" serif:id="Royal Society Grey" transform="matrix(0.847743,0,0,0.847743,927.244,920.737)">
            <path d="M12094.5,1451.34L12094.5,10643.1C12094.5,11444.2 11444.2,12094.5 10643.1,12094.5L1451.34,12094.5C650.323,12094.5 0,11444.2 0,10643.1L0,1451.34C0,650.323 650.323,0 1451.34,0L10643.1,0C11444.2,0 12094.5,650.323 12094.5,1451.34Z" style="fill:rgb(224,220,219);stroke:rgb(246,246,246);stroke-width:1.18px;"/>
        </g>
        <g id="Logo" transform="matrix(62.1718,0,0,62.1718,2938.65,4359.09)">
            <path d="M94.173,29.051C94.173,27.741 93.11,26.678 91.799,26.678L8.201,26.678C6.89,26.678 5.827,27.741 5.827,29.051C5.827,53.431 25.62,73.224 50,73.224C74.38,73.224 94.173,53.431 94.173,29.051ZM53.472,39.849C53.166,39.29 52.845,37.466 52.84,37.134C52.839,37.101 52.839,37.068 52.839,37.034C52.839,34.192 54.58,31.701 56.991,31.701C57.013,31.701 57.034,31.701 57.055,31.702C62.111,31.808 69.469,41.299 69.469,49.311C69.469,59.737 60.745,68.201 50,68.201C39.255,68.201 30.531,59.737 30.531,49.311C30.531,41.299 36.436,31.839 42.945,31.702C42.966,31.701 42.987,31.701 43.009,31.701C45.42,31.701 47.161,34.192 47.161,37.034C47.161,37.067 47.161,37.1 47.16,37.134C47.155,37.467 46.834,39.29 46.529,39.849C45.818,41.151 44.62,42.648 44.601,42.668C43.458,43.885 42.186,45.043 41.191,46.343C39.901,48.028 39.032,49.929 39.032,52.291C39.032,58.491 43.947,63.524 50,63.524C56.053,63.524 60.967,58.491 60.967,52.291C60.967,49.895 60.11,48.075 58.814,46.421C57.854,45.196 56.608,44.074 55.442,42.737C55.367,42.648 54.318,41.4 53.472,39.849Z" style="fill:rgb(111,38,61);"/>
        </g>
        <g id="Text-Source" serif:id="Text Source" transform="matrix(1.39871,0,0,1.42964,-2078.87,-4974.99)">
            <g transform="matrix(0.558221,0,0,0.548775,2156.53,2797.19)">
                <g transform="matrix(0.959732,0.280919,-0.280919,0.959732,3967.24,-719.731)">
                    <text x="4494.09px" y="13478.1px" style="font-family:'Oxanium-Bold', 'Oxanium';font-weight:700;font-size:1168.4px;fill:rgb(111,38,61);">S</text>
                </g>
                <g transform="matrix(0.989878,0.141918,-0.141918,0.989878,1997.64,-608.863)">
                    <text x="5267.37px" y="13700.4px" style="font-family:'Oxanium-Bold', 'Oxanium';font-weight:700;font-size:1168.4px;fill:rgb(111,38,61);">U</text>
                </g>
                <g transform="matrix(0.999983,-0.00580669,0.00580669,0.999983,-80.1581,36.1783)">
                    <text x="6190.33px" y="13822.4px" style="font-family:'Oxanium-Bold', 'Oxanium';font-weight:700;font-size:1168.4px;fill:rgb(111,38,61);">P</text>
                </g>
                <g transform="matrix(0.98985,-0.142114,0.142114,0.98985,-1891.13,1142.41)">
                    <text x="7052.31px" y="13810.7px" style="font-family:'Oxanium-Bold', 'Oxanium';font-weight:700;font-size:1168.4px;fill:rgb(111,38,61);">E</text>
                </g>
                <g transform="matrix(0.96028,-0.279039,0.279039,0.96028,-3507.58,2739.13)">
                    <text x="7867.57px" y="13690.1px" style="font-family:'Oxanium-Bold', 'Oxanium';font-weight:700;font-size:1168.4px;fill:rgb(111,38,61);">R</text>
                </g>
            </g>
            <g transform="matrix(0.558221,0,0,0.548775,1419.3,3136.91)">
                <g transform="matrix(0.950834,0.309701,-0.309701,0.950834,4517.47,-801.676)">
                    <text x="4783.65px" y="13827.1px" style="font-family:'Oxanium-Bold', 'Oxanium';font-weight:700;font-size:1433.94px;fill:rgb(111,38,61);">P</text>
                </g>
                <g transform="matrix(0.981515,0.191387,-0.191387,0.981515,2810.56,-833.901)">
                    <text x="5722.14px" y="14132.5px" style="font-family:'Oxanium-Bold', 'Oxanium';font-weight:700;font-size:1433.94px;fill:rgb(111,38,61);">O</text>
                </g>
                <g transform="matrix(0.999011,0.0444702,-0.0444702,0.999011,644.787,-287.83)">
                    <text x="6791.61px" y="14348.2px" style="font-family:'Oxanium-Bold', 'Oxanium';font-weight:700;font-size:1433.94px;fill:rgb(111,38,61);">W</text>
                </g>
                <g transform="matrix(0.99551,-0.0946549,0.0946549,0.99551,-1325.27,843.96)">
                    <text x="8233.53px" y="14391.6px" style="font-family:'Oxanium-Bold', 'Oxanium';font-weight:700;font-size:1433.94px;fill:rgb(111,38,61);">E</text>
                </g>
                <g transform="matrix(0.978076,-0.208251,0.208251,0.978076,-2777.69,2223.01)">
                    <text x="9168.8px" y="14303.5px" style="font-family:'Oxanium-Bold', 'Oxanium';font-weight:700;font-size:1433.94px;fill:rgb(111,38,61);">R</text>
                </g>
                <g transform="matrix(0.948564,-0.316586,0.316586,0.948564,-3938.87,3937.28)">
                    <text x="10147.4px" y="14090.4px" style="font-family:'Oxanium-Bold', 'Oxanium';font-weight:700;font-size:1433.94px;fill:rgb(111,38,61);">S</text>
                </g>
            </g>
            <g transform="matrix(0.277025,0,0,0.278361,6594.22,4294.83)">
                <g transform="matrix(1779.93,0,0,1779.93,6031.7,2870.19)">
                </g>
                <text x="-2095.46px" y="2870.18px" style="font-family:'Oxanium-Bold', 'Oxanium';font-weight:700;font-size:1779.93px;fill:rgb(111,38,61);">MUSICAL</text>
            </g>
            <g transform="matrix(0.479992,-0.278821,0.279925,0.475608,3353.16,5200.39)">
                <g transform="matrix(0.60503,-0.796203,0.796203,0.60503,-652.214,1201.5)">
                    <text x="884.922px" y="1258.14px" style="font-family:'Oxanium-Bold', 'Oxanium';font-weight:700;font-size:902.853px;fill:rgb(111,38,61);">I</text>
                </g>
                <g transform="matrix(0.775502,-0.631345,0.631345,0.775502,-448.304,866.684)">
                    <text x="994.514px" y="1063.71px" style="font-family:'Oxanium-Bold', 'Oxanium';font-weight:700;font-size:902.853px;fill:rgb(111,38,61);">N</text>
                </g>
                <g transform="matrix(0.938119,-0.346314,0.346314,0.938119,-145.001,549.744)">
                    <text x="1465.8px" y="680.615px" style="font-family:'Oxanium-Bold', 'Oxanium';font-weight:700;font-size:902.853px;fill:rgb(111,38,61);">S</text>
                </g>
                <g transform="matrix(0.998916,-0.0465409,0.0465409,0.998916,-21.5188,89.2581)">
                    <text x="1906.04px" y="506.741px" style="font-family:'Oxanium-Bold', 'Oxanium';font-weight:700;font-size:902.853px;fill:rgb(111,38,61);">T</text>
                </g>
                <g transform="matrix(0.960367,0.278737,-0.278737,0.960367,226.184,-650.667)">
                    <text x="2401.18px" y="470.046px" style="font-family:'Oxanium-Bold', 'Oxanium';font-weight:700;font-size:902.853px;fill:rgb(111,38,61);">A</text>
                </g>
                <g transform="matrix(0.803558,0.595227,-0.595227,0.803558,937.483,-1624.28)">
                    <text x="2929.55px" y="608.163px" style="font-family:'Oxanium-Bold', 'Oxanium';font-weight:700;font-size:902.853px;fill:rgb(111,38,61);">N</text>
                </g>
                <g transform="matrix(0.577221,0.816588,-0.816588,0.577221,2237.97,-2380.62)">
                    <text x="3418.05px" y="970.985px" style="font-family:'Oxanium-Bold', 'Oxanium';font-weight:700;font-size:902.853px;fill:rgb(111,38,61);">T</text>
                </g>
            </g>
        </g>
        <g id="Eyes---Wink-Light" serif:id="Eyes + Wink Light" transform="matrix(4.30883,0,0,4.42535,540.236,-388.468)">
            <g id="wink" transform="matrix(1,0,0,1,-422.945,12.0334)">
                <g transform="matrix(1,0,0,1,-12.5728,0)">
                    <path d="M1821.03,876.34L2064.95,711.633" style="fill:none;stroke:rgb(111,38,61);stroke-width:76.32px;"/>
                </g>
                <g transform="matrix(0.437908,0.89902,-0.89902,0.437908,1798.86,-1144.56)">
                    <path d="M1821.03,876.34L2064.95,711.633" style="fill:none;stroke:rgb(111,38,61);stroke-width:75.53px;"/>
                </g>
                <g transform="matrix(0.828749,0.55962,-0.55962,0.828749,789.697,-869.012)">
                    <path d="M1821.03,876.34L2064.95,711.633" style="fill:none;stroke:rgb(111,38,61);stroke-width:75.39px;"/>
                </g>
            </g>
            <g id="Left-Eye" serif:id="Left Eye" transform="matrix(1,0,0,1,162.355,55.0469)">
                <ellipse cx="851.651" cy="833.592" rx="132.017" ry="318.098" style="fill:rgb(111,38,61);"/>
            </g>
        </g>
    </g>
    <g id="DARK" transform="matrix(1,0,0,1,-927.244,-927.244)">
        <g id="Royal-Society-Plum1" serif:id="Royal Society Plum" transform="matrix(0.847743,0,0,0.847743,927.244,920.737)">
            <path d="M12094.5,1451.34L12094.5,10643.1C12094.5,11444.2 11444.2,12094.5 10643.1,12094.5L1451.34,12094.5C650.323,12094.5 0,11444.2 0,10643.1L0,1451.34C0,650.323 650.323,0 1451.34,0L10643.1,0C11444.2,0 12094.5,650.323 12094.5,1451.34Z" style="fill:rgb(111,38,61);stroke:rgb(246,246,246);stroke-width:1.18px;"/>
        </g>
        <g id="Royal-Society-Red1" serif:id="Royal Society Red" transform="matrix(0.847743,0,0,0.847743,927.244,920.737)">
            <path d="M12094.5,1451.34L12094.5,10643.1C12094.5,11444.2 11444.2,12094.5 10643.1,12094.5L1451.34,12094.5C650.323,12094.5 0,11444.2 0,10643.1L0,1451.34C0,650.323 650.323,0 1451.34,0L10643.1,0C11444.2,0 12094.5,650.323 12094.5,1451.34Z" style="fill:rgb(211,18,69);stroke:rgb(246,246,246);stroke-width:1.18px;"/>
        </g>
        <g id="Royal-Society-Gradient" serif:id="Royal Society Gradient" transform="matrix(0.847743,0,0,0.847743,927.244,920.737)">
            <path d="M12094.5,1451.34L12094.5,10643.1C12094.5,11444.2 11444.2,12094.5 10643.1,12094.5L1451.34,12094.5C650.323,12094.5 0,11444.2 0,10643.1L0,1451.34C0,650.323 650.323,0 1451.34,0L10643.1,0C11444.2,0 12094.5,650.323 12094.5,1451.34Z" style="fill:url(#_Linear1);stroke:rgb(246,246,246);stroke-width:1.18px;"/>
        </g>
        <g id="Logo-Light" serif:id="Logo Light" transform="matrix(62.1718,0,0,62.1718,2938.65,4359.09)">
            <path d="M94.173,29.051C94.173,27.741 93.11,26.678 91.799,26.678L8.201,26.678C6.89,26.678 5.827,27.741 5.827,29.051C5.827,53.431 25.62,73.224 50,73.224C74.38,73.224 94.173,53.431 94.173,29.051ZM53.472,39.849C53.166,39.29 52.845,37.466 52.84,37.134C52.839,37.101 52.839,37.068 52.839,37.034C52.839,34.192 54.58,31.701 56.991,31.701C57.013,31.701 57.034,31.701 57.055,31.702C62.111,31.808 69.469,41.299 69.469,49.311C69.469,59.737 60.745,68.201 50,68.201C39.255,68.201 30.531,59.737 30.531,49.311C30.531,41.299 36.436,31.839 42.945,31.702C42.966,31.701 42.987,31.701 43.009,31.701C45.42,31.701 47.161,34.192 47.161,37.034C47.161,37.067 47.161,37.1 47.16,37.134C47.155,37.467 46.834,39.29 46.529,39.849C45.818,41.151 44.62,42.648 44.601,42.668C43.458,43.885 42.186,45.043 41.191,46.343C39.901,48.028 39.032,49.929 39.032,52.291C39.032,58.491 43.947,63.524 50,63.524C56.053,63.524 60.967,58.491 60.967,52.291C60.967,49.895 60.11,48.075 58.814,46.421C57.854,45.196 56.608,44.074 55.442,42.737C55.367,42.648 54.318,41.4 53.472,39.849Z" style="fill:rgb(235,235,235);"/>
        </g>
        <g id="Text-Source-Light" serif:id="Text Source Light" transform="matrix(1.39871,0,0,1.42964,-2078.87,-4974.99)">
            <g transform="matrix(0.558221,0,0,0.548775,2156.53,2797.19)">
                <g transform="matrix(0.959732,0.280919,-0.280919,0.959732,3967.24,-719.731)">
                    <text x="4494.09px" y="13478.1px" style="font-family:'Oxanium-Bold', 'Oxanium';font-weight:700;font-size:1168.4px;fill:rgb(235,235,235);">S</text>
                </g>
                <g transform="matrix(0.989878,0.141918,-0.141918,0.989878,1997.64,-608.863)">
                    <text x="5267.37px" y="13700.4px" style="font-family:'Oxanium-Bold', 'Oxanium';font-weight:700;font-size:1168.4px;fill:rgb(235,235,235);">U</text>
                </g>
                <g transform="matrix(0.999983,-0.00580669,0.00580669,0.999983,-80.1581,36.1783)">
                    <text x="6190.33px" y="13822.4px" style="font-family:'Oxanium-Bold', 'Oxanium';font-weight:700;font-size:1168.4px;fill:rgb(235,235,235);">P</text>
                </g>
                <g transform="matrix(0.98985,-0.142114,0.142114,0.98985,-1891.13,1142.41)">
                    <text x="7052.31px" y="13810.7px" style="font-family:'Oxanium-Bold', 'Oxanium';font-weight:700;font-size:1168.4px;fill:rgb(235,235,235);">E</text>
                </g>
                <g transform="matrix(0.96028,-0.279039,0.279039,0.96028,-3507.58,2739.13)">
                    <text x="7867.57px" y="13690.1px" style="font-family:'Oxanium-Bold', 'Oxanium';font-weight:700;font-size:1168.4px;fill:rgb(235,235,235);">R</text>
                </g>
            </g>
            <g transform="matrix(0.558221,0,0,0.548775,1419.3,3136.91)">
                <g transform="matrix(0.950834,0.309701,-0.309701,0.950834,4517.47,-801.676)">
                    <text x="4783.65px" y="13827.1px" style="font-family:'Oxanium-Bold', 'Oxanium';font-weight:700;font-size:1433.94px;fill:rgb(235,235,235);">P</text>
                </g>
                <g transform="matrix(0.981515,0.191387,-0.191387,0.981515,2810.56,-833.901)">
                    <text x="5722.14px" y="14132.5px" style="font-family:'Oxanium-Bold', 'Oxanium';font-weight:700;font-size:1433.94px;fill:rgb(235,235,235);">O</text>
                </g>
                <g transform="matrix(0.999011,0.0444702,-0.0444702,0.999011,644.787,-287.83)">
                    <text x="6791.61px" y="14348.2px" style="font-family:'Oxanium-Bold', 'Oxanium';font-weight:700;font-size:1433.94px;fill:rgb(235,235,235);">W</text>
                </g>
                <g transform="matrix(0.99551,-0.0946549,0.0946549,0.99551,-1325.27,843.96)">
                    <text x="8233.53px" y="14391.6px" style="font-family:'Oxanium-Bold', 'Oxanium';font-weight:700;font-size:1433.94px;fill:rgb(235,235,235);">E</text>
                </g>
                <g transform="matrix(0.978076,-0.208251,0.208251,0.978076,-2777.69,2223.01)">
                    <text x="9168.8px" y="14303.5px" style="font-family:'Oxanium-Bold', 'Oxanium';font-weight:700;font-size:1433.94px;fill:rgb(235,235,235);">R</text>
                </g>
                <g transform="matrix(0.948564,-0.316586,0.316586,0.948564,-3938.87,3937.28)">
                    <text x="10147.4px" y="14090.4px" style="font-family:'Oxanium-Bold', 'Oxanium';font-weight:700;font-size:1433.94px;fill:rgb(235,235,235);">S</text>
                </g>
            </g>
            <g transform="matrix(0.277025,0,0,0.278361,6608.51,4805.44)">
                <g transform="matrix(1779.93,0,0,1779.93,6031.7,2870.19)">
                </g>
                <text x="-2095.46px" y="2870.18px" style="font-family:'Oxanium-Bold', 'Oxanium';font-weight:700;font-size:1779.93px;fill:rgb(235,235,235);">MUSICAL</text>
            </g>
            <g transform="matrix(0.479992,-0.278821,0.279925,0.475608,3353.16,5578.1)">
                <g transform="matrix(0.60503,-0.796203,0.796203,0.60503,-652.214,1201.5)">
                    <text x="884.922px" y="1258.14px" style="font-family:'Oxanium-Bold', 'Oxanium';font-weight:700;font-size:902.853px;fill:rgb(235,235,235);">I</text>
                </g>
                <g transform="matrix(0.775502,-0.631345,0.631345,0.775502,-448.304,866.684)">
                    <text x="994.514px" y="1063.71px" style="font-family:'Oxanium-Bold', 'Oxanium';font-weight:700;font-size:902.853px;fill:rgb(235,235,235);">N</text>
                </g>
                <g transform="matrix(0.938119,-0.346314,0.346314,0.938119,-145.001,549.744)">
                    <text x="1465.8px" y="680.615px" style="font-family:'Oxanium-Bold', 'Oxanium';font-weight:700;font-size:902.853px;fill:rgb(235,235,235);">S</text>
                </g>
                <g transform="matrix(0.998916,-0.0465409,0.0465409,0.998916,-21.5188,89.2581)">
                    <text x="1906.04px" y="506.741px" style="font-family:'Oxanium-Bold', 'Oxanium';font-weight:700;font-size:902.853px;fill:rgb(235,235,235);">T</text>
                </g>
                <g transform="matrix(0.960367,0.278737,-0.278737,0.960367,226.184,-650.667)">
                    <text x="2401.18px" y="470.046px" style="font-family:'Oxanium-Bold', 'Oxanium';font-weight:700;font-size:902.853px;fill:rgb(235,235,235);">A</text>
                </g>
                <g transform="matrix(0.803558,0.595227,-0.595227,0.803558,937.483,-1624.28)">
                    <text x="2929.55px" y="608.163px" style="font-family:'Oxanium-Bold', 'Oxanium';font-weight:700;font-size:902.853px;fill:rgb(235,235,235);">N</text>
                </g>
                <g transform="matrix(0.577221,0.816588,-0.816588,0.577221,2237.97,-2380.62)">
                    <text x="3418.05px" y="970.985px" style="font-family:'Oxanium-Bold', 'Oxanium';font-weight:700;font-size:902.853px;fill:rgb(235,235,235);">T</text>
                </g>
            </g>
        </g>
        <g id="Eyes---Wink-Light1" serif:id="Eyes + Wink Light" transform="matrix(4.30883,0,0,4.42535,540.236,391.532)">
            <g id="wink1" serif:id="wink" transform="matrix(1,0,0,1,-422.945,12.0334)">
                <g transform="matrix(1,0,0,1,-12.5728,0)">
                    <path d="M1821.03,876.34L2064.95,711.633" style="fill:none;stroke:rgb(246,246,246);stroke-width:76.32px;"/>
                </g>
                <g transform="matrix(0.437908,0.89902,-0.89902,0.437908,1798.86,-1144.56)">
                    <path d="M1821.03,876.34L2064.95,711.633" style="fill:none;stroke:rgb(246,246,246);stroke-width:75.53px;"/>
                </g>
                <g transform="matrix(0.828749,0.55962,-0.55962,0.828749,789.697,-869.012)">
                    <path d="M1821.03,876.34L2064.95,711.633" style="fill:none;stroke:rgb(246,246,246);stroke-width:75.39px;"/>
                </g>
            </g>
            <g id="Left-Eye1" serif:id="Left Eye" transform="matrix(1,0,0,1,162.355,55.0469)">
                <ellipse cx="851.651" cy="833.592" rx="132.017" ry="318.098" style="fill:rgb(235,235,235);"/>
            </g>
        </g>
    </g>
    <defs>
        <linearGradient id="_Linear1" x1="0" y1="0" x2="1" y2="0" gradientUnits="userSpaceOnUse" gradientTransform="matrix(7.40574e-13,-12094.5,12094.5,7.40574e-13,6047.24,12094.5)"><stop offset="0" style="stop-color:rgb(110,39,61);stop-opacity:1"/><stop offset="1" style="stop-color:rgb(211,17,69);stop-opacity:1"/></linearGradient>
    </defs>
</svg>
