<?xml version="1.0" encoding="UTF-8" standalone="no"?>
<!DOCTYPE svg PUBLIC "-//W3C//DTD SVG 1.1//EN" "http://www.w3.org/Graphics/SVG/1.1/DTD/svg11.dtd">
<svg width="100%" height="100%" viewBox="0 0 10240 10240" version="1.1" xmlns="http://www.w3.org/2000/svg" xmlns:xlink="http://www.w3.org/1999/xlink" xml:space="preserve" xmlns:serif="http://www.serif.com/" style="fill-rule:evenodd;clip-rule:evenodd;stroke-linecap:round;stroke-linejoin:round;stroke-miterlimit:1.5;">
    <g id="LIGHT-embedded" serif:id="LIGHT embedded" transform="matrix(1,0,0,1,-927.244,-927.244)">
        <g id="Royal-Society-Grey" serif:id="Royal Society Grey" transform="matrix(0.847743,0,0,0.847743,927.244,920.737)">
            <path d="M12094.5,1451.34L12094.5,10643.1C12094.5,11444.2 11444.2,12094.5 10643.1,12094.5L1451.34,12094.5C650.323,12094.5 0,11444.2 0,10643.1L0,1451.34C0,650.323 650.323,0 1451.34,0L10643.1,0C11444.2,0 12094.5,650.323 12094.5,1451.34Z" style="fill:rgb(224,220,219);stroke:rgb(246,246,246);stroke-width:1.18px;"/>
        </g>
        <g id="Logo" transform="matrix(62.1718,0,0,62.1718,2938.65,4359.09)">
            <path d="M94.173,29.051C94.173,27.741 93.11,26.678 91.799,26.678L8.201,26.678C6.89,26.678 5.827,27.741 5.827,29.051C5.827,53.431 25.62,73.224 50,73.224C74.38,73.224 94.173,53.431 94.173,29.051ZM53.472,39.849C53.166,39.29 52.845,37.466 52.84,37.134C52.839,37.101 52.839,37.068 52.839,37.034C52.839,34.192 54.58,31.701 56.991,31.701C57.013,31.701 57.034,31.701 57.055,31.702C62.111,31.808 69.469,41.299 69.469,49.311C69.469,59.737 60.745,68.201 50,68.201C39.255,68.201 30.531,59.737 30.531,49.311C30.531,41.299 36.436,31.839 42.945,31.702C42.966,31.701 42.987,31.701 43.009,31.701C45.42,31.701 47.161,34.192 47.161,37.034C47.161,37.067 47.161,37.1 47.16,37.134C47.155,37.467 46.834,39.29 46.529,39.849C45.818,41.151 44.62,42.648 44.601,42.668C43.458,43.885 42.186,45.043 41.191,46.343C39.901,48.028 39.032,49.929 39.032,52.291C39.032,58.491 43.947,63.524 50,63.524C56.053,63.524 60.967,58.491 60.967,52.291C60.967,49.895 60.11,48.075 58.814,46.421C57.854,45.196 56.608,44.074 55.442,42.737C55.367,42.648 54.318,41.4 53.472,39.849Z" style="fill:rgb(111,38,61);"/>
        </g>
        <g transform="matrix(1.39871,0,0,1.42964,-2078.87,-4974.99)">
            <g transform="matrix(4.0549,0,0,67.8026,880.039,-87004.4)">
                <path d="M943.861,1433.21L947.386,1432.5L995.241,1433.33C998.328,1433.38 1000.32,1433.32 1001.23,1433.13L1004.48,1432.48C1005.35,1432.31 1004.57,1432.18 1002.11,1432.12L973.817,1431.23C962.191,1430.88 958.441,1430.28 962.568,1429.45L965.098,1428.95C970.159,1427.93 981.334,1427.57 998.624,1427.87L1033.97,1428.48L1041.97,1429.13L1038.44,1429.83L993.676,1429.06C990.588,1429.01 988.593,1429.07 987.689,1429.26L984.752,1429.85C983.909,1430.02 984.698,1430.14 987.12,1430.21L1015.46,1431.08C1027.09,1431.44 1030.84,1432.04 1026.71,1432.86L1023.82,1433.44C1018.76,1434.46 1007.58,1434.82 990.293,1434.52L951.854,1433.86L943.861,1433.21Z" style="fill:rgb(111,38,61);"/>
            </g>
            <g transform="matrix(4.0549,0,0,67.8026,880.039,-87004.4)">
                <path d="M1055.87,1433.87L1067.79,1428.99L1090.72,1429.18L1078.62,1434.14C1078.16,1434.33 1079.53,1434.44 1082.71,1434.46L1113.92,1434.73C1117.1,1434.75 1118.92,1434.67 1119.38,1434.49L1131.48,1429.52L1154.4,1429.72L1142.49,1434.6C1139.93,1435.65 1129.74,1436.1 1111.9,1435.95L1078.79,1435.67C1060.95,1435.52 1053.32,1434.92 1055.87,1433.87Z" style="fill:rgb(111,38,61);"/>
            </g>
            <g transform="matrix(4.0549,0,0,67.8026,880.039,-87004.4)">
                <path d="M1180.19,1436.33L1179.54,1429.8L1233.59,1429.78C1251.6,1429.78 1260.66,1430.3 1260.77,1431.36L1260.89,1432.63C1260.99,1433.69 1252.04,1434.22 1234.03,1434.23L1203.14,1434.24L1203.35,1436.32L1180.19,1436.33ZM1203.02,1433.01L1232.94,1433C1236.15,1433 1237.75,1432.9 1237.74,1432.71L1237.6,1431.3C1237.58,1431.11 1235.96,1431.01 1232.74,1431.01L1202.83,1431.02L1203.02,1433.01Z" style="fill:rgb(111,38,61);"/>
            </g>
            <g transform="matrix(4.0549,0,0,67.8026,880.039,-87004.4)">
                <path d="M1298.72,1436.13L1282.94,1429.67L1358.1,1429.03L1361.07,1430.25L1308.84,1430.69L1312.04,1432L1359.49,1431.6L1362.46,1432.82L1315.02,1433.22L1318.67,1434.72L1370.9,1434.28L1373.87,1435.49L1298.72,1436.13Z" style="fill:rgb(111,38,61);"/>
            </g>
            <g transform="matrix(4.0549,0,0,67.8026,880.039,-87004.4)">
                <path d="M1410.56,1435.05L1379.59,1428.78L1431.49,1427.89C1448.79,1427.6 1459.95,1427.96 1464.98,1428.97L1470.1,1430.01C1473.84,1430.77 1471.38,1431.32 1462.73,1431.67L1490.15,1433.39L1488.87,1433.71L1469.72,1434.03L1440.1,1432.18L1422.03,1432.49L1432.8,1434.66L1410.56,1435.05ZM1416.2,1431.31L1444.93,1430.81C1448.02,1430.76 1449.11,1430.64 1448.21,1430.46L1442.38,1429.28C1441.48,1429.1 1439.49,1429.04 1436.4,1429.09L1407.67,1429.58L1416.2,1431.31Z" style="fill:rgb(111,38,61);"/>
            </g>
            <g transform="matrix(4.92155,0,0,70.8822,-173.569,-90776.8)">
                <path d="M878.913,1432.26L913.669,1424.98L965.63,1426.13C982.95,1426.52 988.79,1427.3 983.148,1428.48L976.399,1429.9C970.757,1431.08 959.276,1431.48 941.956,1431.09L912.264,1430.43L901.182,1432.75L878.913,1432.26ZM918.812,1429.06L947.576,1429.7C950.669,1429.77 952.719,1429.7 953.727,1429.49L961.282,1427.9C962.29,1427.69 961.247,1427.55 958.154,1427.48L929.39,1426.84L918.812,1429.06Z" style="fill:rgb(111,38,61);"/>
            </g>
            <g transform="matrix(4.92155,0,0,70.8822,-173.569,-90776.8)">
                <path d="M989.403,1432.66L1000.42,1428.81C1003.91,1427.59 1014.59,1427.1 1032.47,1427.33L1068.87,1427.82C1086.75,1428.06 1093.94,1428.78 1090.46,1430L1079.44,1433.86C1075.95,1435.08 1065.27,1435.57 1047.39,1435.34L1010.99,1434.85C993.113,1434.61 985.916,1433.88 989.403,1432.66ZM1012.14,1433.06C1011.52,1433.28 1012.8,1433.4 1016,1433.45L1050.48,1433.91C1053.67,1433.95 1055.58,1433.86 1056.2,1433.64L1067.72,1429.61C1068.34,1429.39 1067.06,1429.26 1063.86,1429.22L1029.38,1428.76C1026.19,1428.72 1024.28,1428.81 1023.66,1429.03L1012.14,1433.06Z" style="fill:rgb(111,38,61);"/>
            </g>
            <g transform="matrix(4.92155,0,0,70.8822,-173.569,-90776.8)">
                <path d="M1103.33,1428.67L1106.77,1428.38L1125.94,1428.44L1139.93,1434.71L1141.72,1434.71L1164.63,1429.29L1187.7,1429.36L1203.46,1434.9L1205.25,1434.9L1227.33,1428.75L1246.51,1428.81L1249.56,1429.12L1222.83,1436.4L1185.62,1436.29L1174.29,1432.2L1157.67,1436.2L1120.47,1436.09L1103.33,1428.67Z" style="fill:rgb(111,38,61);"/>
            </g>
            <g transform="matrix(4.92155,0,0,70.8822,-173.569,-90776.8)">
                <path d="M1270.81,1436.26L1260.18,1428.63L1336.61,1428.14L1338.61,1429.58L1285.5,1429.92L1287.66,1431.47L1335.91,1431.15L1337.91,1432.59L1289.66,1432.9L1292.12,1434.67L1345.23,1434.33L1347.23,1435.77L1270.81,1436.26Z" style="fill:rgb(111,38,61);"/>
            </g>
            <g transform="matrix(4.92155,0,0,70.8822,-173.569,-90776.8)">
                <path d="M1376.66,1435.48L1353.29,1427.98L1406.74,1427.21C1424.55,1426.95 1435.36,1427.43 1439.15,1428.64L1443.01,1429.88C1445.84,1430.79 1442.66,1431.42 1433.5,1431.79L1459,1433.94L1457.31,1434.3L1437.58,1434.59L1410.05,1432.27L1391.43,1432.54L1399.56,1435.14L1376.66,1435.48ZM1387.03,1431.12L1416.62,1430.69C1419.8,1430.65 1421.05,1430.52 1420.38,1430.3L1415.97,1428.89C1415.3,1428.67 1413.37,1428.59 1410.18,1428.63L1380.6,1429.06L1387.03,1431.12Z" style="fill:rgb(111,38,61);"/>
            </g>
            <g transform="matrix(4.92155,0,0,70.8822,-173.569,-90776.8)">
                <path d="M1479.95,1433.29L1475.94,1432.46L1523.76,1431.37C1526.85,1431.3 1527.88,1431.16 1526.85,1430.95L1523.14,1430.19C1522.14,1429.99 1520.29,1429.9 1517.59,1429.93L1485.44,1430.2C1472.28,1430.31 1463.34,1429.89 1458.64,1428.92L1455.75,1428.34C1449.99,1427.16 1455.74,1426.37 1473.02,1425.98L1508.35,1425.17L1521.37,1425.48L1525.38,1426.3L1480.64,1427.32C1477.56,1427.39 1476.53,1427.53 1477.56,1427.75L1480.9,1428.43C1481.87,1428.63 1483.72,1428.71 1486.46,1428.69L1518.55,1428.41C1531.72,1428.3 1540.65,1428.73 1545.36,1429.69L1548.65,1430.36C1554.42,1431.54 1548.66,1432.33 1531.38,1432.72L1492.97,1433.6L1479.95,1433.29Z" style="fill:rgb(111,38,61);"/>
            </g>
            <g transform="matrix(0.277025,0,0,0.278361,6594.22,4847.41)">
                <path d="M-1949.51,2870.18L-1949.51,1642.03L-1643.36,1642.03L-1298.05,2378.93L-952.748,1642.03L-646.6,1642.03L-646.6,2870.18L-902.909,2870.18L-902.909,2094.14L-1191.26,2709.99L-1404.85,2709.99L-1693.2,2094.14L-1693.2,2870.18L-1949.51,2870.18Z" style="fill:rgb(111,38,61);"/>
            </g>
            <g transform="matrix(0.277025,0,0,0.278361,6594.22,4847.41)">
                <path d="M-365.371,2571.16L-365.371,1642.03L-109.061,1642.03L-109.061,2585.4C-109.061,2620.99 -91.261,2638.79 -55.663,2638.79L293.204,2638.79C328.802,2638.79 346.601,2620.99 346.601,2585.4L346.601,1642.03L602.911,1642.03L602.911,2571.16C602.911,2770.51 503.235,2870.18 303.883,2870.18L-66.342,2870.18C-265.695,2870.18 -365.371,2770.51 -365.371,2571.16Z" style="fill:rgb(111,38,61);"/>
            </g>
            <g transform="matrix(0.277025,0,0,0.278361,6594.22,4847.41)">
                <path d="M830.742,2777.63L830.742,2638.79L1382.52,2638.79C1418.12,2638.79 1435.92,2620.99 1435.92,2585.4L1435.92,2457.24C1435.92,2422.83 1421.09,2403.25 1391.42,2398.5L1044.33,2327.31C901.94,2298.83 830.742,2203.3 830.742,2040.74L830.742,1941.06C830.742,1741.71 930.419,1642.03 1129.77,1642.03L1537.38,1642.03L1656.63,1734.59L1656.63,1873.42L1140.45,1873.42C1104.85,1873.42 1087.05,1891.22 1087.05,1926.82L1087.05,2042.52C1087.05,2075.74 1101.88,2095.32 1131.55,2101.26L1478.64,2170.67C1621.03,2199.15 1692.23,2294.68 1692.23,2457.24L1692.23,2571.16C1692.23,2770.51 1592.55,2870.18 1393.2,2870.18L949.998,2870.18L830.742,2777.63Z" style="fill:rgb(111,38,61);"/>
            </g>
            <g transform="matrix(0.277025,0,0,0.278361,6594.22,4847.41)">
                <rect x="1930.74" y="1642.03" width="256.31" height="1228.15" style="fill:rgb(111,38,61);"/>
            </g>
            <g transform="matrix(0.277025,0,0,0.278361,6594.22,4847.41)">
                <path d="M2461.16,2571.16L2461.16,1941.06C2461.16,1741.71 2560.83,1642.03 2760.19,1642.03L3235.43,1642.03L3354.68,1734.59L3354.68,1873.42L2770.87,1873.42C2735.27,1873.42 2717.47,1891.22 2717.47,1926.82L2717.47,2585.4C2717.47,2620.99 2735.27,2638.79 2770.87,2638.79L3354.68,2638.79L3354.68,2777.63L3235.43,2870.18L2760.19,2870.18C2560.83,2870.18 2461.16,2770.51 2461.16,2571.16Z" style="fill:rgb(111,38,61);"/>
            </g>
            <g transform="matrix(0.277025,0,0,0.278361,6594.22,4847.41)">
                <path d="M3475.72,2822.13L3840.6,1642.03L4232.19,1642.03L4597.07,2822.13L4565.04,2870.18L4351.44,2870.18L4276.69,2620.99L3796.11,2620.99L3721.35,2870.18L3507.76,2870.18L3475.72,2822.13ZM3865.52,2389.6L4207.27,2389.6L4050.64,1873.42L4022.16,1873.42L3865.52,2389.6Z" style="fill:rgb(111,38,61);"/>
            </g>
            <g transform="matrix(0.277025,0,0,0.278361,6594.22,4847.41)">
                <path d="M4775.07,2870.18L4775.07,1642.03L5031.38,1642.03L5031.38,2638.79L5561.8,2638.79L5561.8,2870.18L4775.07,2870.18Z" style="fill:rgb(111,38,61);"/>
            </g>
            <g transform="matrix(2.09747,-1.21839,2.52018,4.28193,1281.05,4267.87)">
                <path d="M674.978,570.71L561.47,528.845L579.471,517.347L692.979,559.212L674.978,570.71Z" style="fill:rgb(111,38,61);"/>
            </g>
            <g transform="matrix(2.09747,-1.21839,2.52018,4.28193,1281.05,4267.87)">
                <path d="M702.946,550.471L612.94,496.81L637.936,486.933L740.929,504.815L681.838,469.585L704.911,460.468L794.917,514.129L769.921,524.006L666.928,506.124L726.019,541.353L702.946,550.471Z" style="fill:rgb(111,38,61);"/>
            </g>
            <g transform="matrix(2.09747,-1.21839,2.52018,4.28193,1281.05,4267.87)">
                <path d="M804.016,506.412L798.434,499.074L858.521,488.308C862.397,487.614 863.62,486.325 862.189,484.444L857.037,477.67C855.654,475.852 853.251,475.106 849.83,475.434L809.172,478.443C792.521,479.716 780.928,476.057 774.393,467.464L770.386,462.196C762.372,451.659 769.219,444.446 790.928,440.556L835.314,432.603L852.021,435.169L857.602,442.507L801.393,452.578C797.516,453.273 796.293,454.561 797.724,456.442L802.375,462.557C803.711,464.313 806.113,465.059 809.582,464.794L850.169,461.69C866.82,460.417 878.413,464.077 884.948,472.669L889.527,478.69C897.541,489.227 890.694,496.44 868.985,500.33L820.723,508.977L804.016,506.412Z" style="fill:rgb(111,38,61);"/>
            </g>
            <g transform="matrix(2.09747,-1.21839,2.52018,4.28193,1281.05,4267.87)">
                <path d="M897.973,437.588L896.723,424.565L1013.13,421.933L1014.38,434.955L971.035,435.936L976.419,492.033L946.7,492.705L941.315,436.608L897.973,437.588Z" style="fill:rgb(111,38,61);"/>
            </g>
            <g transform="matrix(2.09747,-1.21839,2.52018,4.28193,1281.05,4267.87)">
                <path d="M1016.84,487.624L1095.7,429.502L1139.35,435.652L1141.85,505.234L1136.72,507.332L1112.91,503.977L1112.64,489.32L1059.06,481.773L1042.67,494.082L1018.86,490.728L1016.84,487.624ZM1074.29,470.343L1112.38,475.71L1111.62,445.321L1108.45,444.873L1074.29,470.343Z" style="fill:rgb(111,38,61);"/>
            </g>
            <g transform="matrix(2.09747,-1.21839,2.52018,4.28193,1281.05,4267.87)">
                <path d="M1146.24,509.957L1231.1,454.355L1257,463.667L1246.78,516.526L1302.49,480.022L1326.4,488.618L1241.54,544.22L1215.64,534.908L1225.86,482.049L1170.15,518.553L1146.24,509.957Z" style="fill:rgb(111,38,61);"/>
            </g>
            <g transform="matrix(2.09747,-1.21839,2.52018,4.28193,1281.05,4267.87)">
                <path d="M1341.76,514.912L1363.69,507.387L1430.96,553.573L1409.02,561.098L1383.98,543.901L1289.5,576.317L1272.32,564.525L1366.8,532.109L1341.76,514.912Z" style="fill:rgb(111,38,61);"/>
            </g>
        </g>
        <g id="Eyes---Wink-Light" serif:id="Eyes + Wink Light" transform="matrix(4.30883,0,0,4.42535,540.236,401.532)">
            <g id="wink" transform="matrix(1,0,0,1,-422.945,12.0334)">
                <g transform="matrix(1,0,0,1,-12.5728,0)">
                    <path d="M1821.03,876.34L2064.95,711.633" style="fill:none;stroke:rgb(111,38,61);stroke-width:76.32px;"/>
                </g>
                <g transform="matrix(0.437908,0.89902,-0.89902,0.437908,1798.86,-1144.56)">
                    <path d="M1821.03,876.34L2064.95,711.633" style="fill:none;stroke:rgb(111,38,61);stroke-width:75.53px;"/>
                </g>
                <g transform="matrix(0.828749,0.55962,-0.55962,0.828749,789.697,-869.012)">
                    <path d="M1821.03,876.34L2064.95,711.633" style="fill:none;stroke:rgb(111,38,61);stroke-width:75.39px;"/>
                </g>
            </g>
            <g id="Left-Eye" serif:id="Left Eye" transform="matrix(1,0,0,1,162.355,55.0469)">
                <ellipse cx="851.651" cy="833.592" rx="132.017" ry="318.098" style="fill:rgb(111,38,61);"/>
            </g>
        </g>
    </g>
</svg>
