<svg xmlns="http://www.w3.org/2000/svg" xml:space="preserve" fill-rule="evenodd" stroke-linejoin="round" stroke-miterlimit="2" clip-rule="evenodd" viewBox="0 0 406 406">
  <path d="m181.61 128.25.09.35a77.231 77.231 0 0 0-32.49 18.8l-42.06-42.06A136.775 136.775 0 0 1 166.3 71.1l15.31 57.15Z"/>
  <path d="m147.13 148.85.27.27a77.231 77.231 0 0 0-18.8 32.49l-.35-.09-57.14-15.26a136.775 136.775 0 0 1 34.24-59.15l41.78 41.74Z"/>
  <path d="m127.59 183.93.35.09a77.154 77.154 0 0 0 0 37.56l-.35.09-57.14 15.36a137.215 137.215 0 0 1 0-68.36l57.14 15.26Z"/>
  <path d="m128.25 224.09.35-.09a77.258 77.258 0 0 0 18.8 32.49l-42.06 42.06A136.775 136.775 0 0 1 71.1 239.4l57.15-15.31Z"/>
  <path d="m148.85 258.57.27-.27a77.258 77.258 0 0 0 32.49 18.8l-.09.35-15.31 57.14a136.775 136.775 0 0 1-59.15-34.24l41.79-41.78Z"/>
  <path d="m183.93 278.11.09-.35a77.154 77.154 0 0 0 37.56 0l.09.35 15.31 57.14a137.215 137.215 0 0 1-68.36 0l15.31-57.14Z"/>
  <path d="m224.09 277.45-.09-.35a77.231 77.231 0 0 0 32.49-18.8l42.06 42.06a136.775 136.775 0 0 1-59.15 34.24l-15.31-57.15Z"/>
  <path d="m258.57 256.85-.27-.27a77.231 77.231 0 0 0 18.8-32.49l.35.09 57.14 15.31a136.775 136.775 0 0 1-34.24 59.15l-41.78-41.79Z"/>
  <path d="m278.11 221.77-.35-.09a77.154 77.154 0 0 0 0-37.56l.35-.09 57.14-15.31a137.215 137.215 0 0 1 0 68.36l-57.14-15.31Z"/>
  <path d="M277.05 181.66a77.258 77.258 0 0 0-18.8-32.49l42.06-42.06a136.775 136.775 0 0 1 34.24 59.15l-57.1 15.31-.4.09Z"/>
  <path d="m256.932 147.013-.253.258a77.154 77.154 0 0 0-32.527-18.78l.097-.348 15.267-57.165a137.215 137.215 0 0 1 59.202 34.18l-41.786 41.855Z"/>
 
  <path d="m221.77 127.59-.09.35a77.154 77.154 0 0 0-37.56 0l-.09-.35-15.36-57.14a137.215 137.215 0 0 1 68.36 0l-15.26 57.14Z"/>
  <path d="m62.14 345.33 43.21-43.21a139.282 139.282 0 0 0 60.26 34.89l-15.82 59a200.432 200.432 0 0 1-87.65-50.68Z"/>
  <path d="m9.65 255.91 59-15.82a139.28 139.28 0 0 0 34.89 60.27l-43.2 43.2a200.44 200.44 0 0 1-50.69-87.65Z"/>
  <path d="M2.5 202.85a199.975 199.975 0 0 1 6.49-50.65l59 15.82a139.702 139.702 0 0 0 0 69.66l-59 15.82a199.975 199.975 0 0 1-6.49-50.65Z"/>
  <path d="m60.37 62.14 43.2 43.2a139.282 139.282 0 0 0-34.89 60.26l-59-15.82a200.425 200.425 0 0 1 50.69-87.64Z"/>
  <path d="m149.79 9.65 15.82 59a139.282 139.282 0 0 0-60.26 34.89l-43.2-43.2a200.425 200.425 0 0 1 87.64-50.69Z"/>
  <path d="M202.85 2.5a199.975 199.975 0 0 1 50.65 6.49l-15.82 59a139.702 139.702 0 0 0-69.66 0l-15.82-59a199.975 199.975 0 0 1 50.65-6.49Z"/>
  <path d="m343.56 60.37-43.2 43.2a139.28 139.28 0 0 0-60.27-34.89l15.82-59a200.44 200.44 0 0 1 87.65 50.69Z"/>
  <path d="m396.05 149.79-59 15.82a139.282 139.282 0 0 0-34.89-60.26l43.2-43.2a200.425 200.425 0 0 1 50.69 87.64Z"/>
  <path d="M337.66 237.67a139.702 139.702 0 0 0 0-69.66l59-15.82a200.852 200.852 0 0 1 0 101.3l-59-15.82Z"/>
  <path d="m345.33 343.56-43.21-43.21a139.28 139.28 0 0 0 34.89-60.27l59 15.82a200.43 200.43 0 0 1-50.68 87.66Z"/>
  <path d="m255.91 396.05-15.82-59a139.28 139.28 0 0 0 60.27-34.89l43.2 43.2a200.44 200.44 0 0 1-87.65 50.69Z"/>
  <path d="M202.85 403.2a199.975 199.975 0 0 1-50.65-6.49l15.82-59a139.702 139.702 0 0 0 69.66 0l15.82 59a199.975 199.975 0 0 1-50.65 6.49Z"/>
</svg>
