<svg xmlns="http://www.w3.org/2000/svg" xmlns:xlink="http://www.w3.org/1999/xlink" viewBox="0 0 405.7 405.7">
    <path d="M202.85 0C91 0 0 91 0 202.85S91 405.7 202.85 405.7s202.85-91 202.85-202.85S314.7 0 202.85 0Zm193.2 149.79-59 15.82a139.27 139.27 0 0 0-34.89-60.26l43.2-43.2a200.42 200.42 0 0 1 50.69 87.64Zm-119 31.87a77.24 77.24 0 0 0-18.8-32.49l.27-.27 41.79-41.79a136.77 136.77 0 0 1 34.24 59.15l-57.1 15.31Zm.48 21.19a74.73 74.73 0 1 1-74.68-74.73 74.82 74.82 0 0 1 74.73 74.73Zm-20.68-55.72-.27.27a77.23 77.23 0 0 0-32.49-18.8l.09-.35 15.31-57.14a136.77 136.77 0 0 1 59.15 34.24Zm-35.08-19.54-.09.35a77.16 77.16 0 0 0-37.56 0l-.09-.35-15.36-57.14a137.2 137.2 0 0 1 68.36 0Zm-40.16.66.09.35a77.23 77.23 0 0 0-32.49 18.8l-.27-.27-41.79-41.79A136.77 136.77 0 0 1 166.3 71.1Zm-34.48 20.6.27.27a77.23 77.23 0 0 0-18.8 32.49l-.35-.09-57.14-15.26a136.77 136.77 0 0 1 34.24-59.15Zm-19.54 35.08.35.09a77.16 77.16 0 0 0 0 37.56l-.35.09-57.14 15.36a137.2 137.2 0 0 1 0-68.36Zm.66 40.16.35-.09a77.24 77.24 0 0 0 18.8 32.49l-.27.27-41.79 41.79A136.77 136.77 0 0 1 71.1 239.4Zm20.6 34.48.27-.27a77.24 77.24 0 0 0 32.49 18.8l-.09.35-15.31 57.14a136.77 136.77 0 0 1-59.15-34.24Zm35.08 19.54.09-.35a77.16 77.16 0 0 0 37.56 0l.09.35 15.31 57.14a137.2 137.2 0 0 1-68.36 0Zm40.16-.66-.09-.35a77.23 77.23 0 0 0 32.49-18.8l.27.27 41.79 41.79a136.77 136.77 0 0 1-59.15 34.24Zm34.48-20.6-.27-.27a77.23 77.23 0 0 0 18.8-32.49l.35.09 57.14 15.31a136.77 136.77 0 0 1-34.24 59.15Zm19.54-35.08-.35-.09a77.16 77.16 0 0 0 0-37.56l.35-.09 57.14-15.31a137.2 137.2 0 0 1 0 68.36Zm65.45-161.4-43.2 43.2a139.27 139.27 0 0 0-60.27-34.89l15.82-59a200.42 200.42 0 0 1 87.65 50.69ZM202.85 2.5a200 200 0 0 1 50.65 6.49l-15.82 59a139.7 139.7 0 0 0-69.66 0l-15.82-59a200 200 0 0 1 50.65-6.49Zm-53.06 7.15 15.82 59a139.27 139.27 0 0 0-60.26 34.89l-43.2-43.2a200.42 200.42 0 0 1 87.64-50.69ZM60.37 62.14l43.2 43.2a139.27 139.27 0 0 0-34.89 60.26l-59-15.82a200.42 200.42 0 0 1 50.69-87.64ZM2.5 202.85a200 200 0 0 1 6.49-50.65l59 15.82a139.7 139.7 0 0 0 0 69.66l-59 15.82a200 200 0 0 1-6.49-50.65Zm7.15 53.06 59-15.82a139.27 139.27 0 0 0 34.89 60.27l-43.2 43.2a200.42 200.42 0 0 1-50.69-87.65Zm52.5 89.41 43.2-43.2a139.27 139.27 0 0 0 60.26 34.89l-15.82 59a200.42 200.42 0 0 1-87.65-50.68Zm140.7 57.88a200 200 0 0 1-50.65-6.49l15.82-59a139.7 139.7 0 0 0 69.66 0l15.82 59a200 200 0 0 1-50.65 6.49Zm53.06-7.15-15.82-59a139.27 139.27 0 0 0 60.27-34.89l43.2 43.2a200.42 200.42 0 0 1-87.65 50.69Zm89.41-52.5-43.2-43.2a139.27 139.27 0 0 0 34.89-60.27l59 15.82a200.42 200.42 0 0 1-50.68 87.66Zm-7.66-105.88a139.7 139.7 0 0 0 0-69.66l59-15.82a200.84 200.84 0 0 1 0 101.3Z" class="cls-1"></path>        
</svg>